<?xml version="1.0"?>
<svg xmlns="http://www.w3.org/2000/svg" width="125" height="1025">
  <g transform="translate(20, 20)">
    <g transform="translate(0, 0)">
      <rect x="0" y="0" width="100" height="100" fill="none" stroke="black" stroke-width="3"/>
      <text x="50" y="70" fill="black" style="font: bold 64px sans-serif" text-anchor="middle" alignment_baseline="central" font-size="64px" font-weight="bold">1</text>
    </g>
    <g transform="translate(0, 100)">
      <rect x="0" y="0" width="100" height="100" fill="none" stroke="black" stroke-width="3"/>
      <text x="50" y="70" fill="black" style="font: bold 64px sans-serif" text-anchor="middle" alignment_baseline="central" font-size="64px" font-weight="bold">2</text>
    </g>
    <g transform="translate(0, 200)">
      <rect x="0" y="0" width="100" height="100" fill="none" stroke="black" stroke-width="3"/>
      <text x="50" y="70" fill="black" style="font: bold 64px sans-serif" text-anchor="middle" alignment_baseline="central" font-size="64px" font-weight="bold">3</text>
    </g>
    <g transform="translate(0, 300)">
      <rect x="0" y="0" width="100" height="100" fill="none" stroke="black" stroke-width="3"/>
      <text x="50" y="70" fill="black" style="font: bold 64px sans-serif" text-anchor="middle" alignment_baseline="central" font-size="64px" font-weight="bold">4</text>
    </g>
    <g transform="translate(0, 400)">
      <rect x="0" y="0" width="100" height="100" fill="none" stroke="black" stroke-width="3"/>
      <text x="50" y="70" fill="black" style="font: bold 64px sans-serif" text-anchor="middle" alignment_baseline="central" font-size="64px" font-weight="bold">5</text>
    </g>
    <g transform="translate(0, 500)">
      <rect x="0" y="0" width="100" height="100" fill="none" stroke="black" stroke-width="3"/>
      <text x="50" y="70" fill="black" style="font: bold 64px sans-serif" text-anchor="middle" alignment_baseline="central" font-size="64px" font-weight="bold">6</text>
    </g>
    <g transform="translate(0, 600)">
      <rect x="0" y="0" width="100" height="100" fill="none" stroke="black" stroke-width="3"/>
      <text x="50" y="70" fill="black" style="font: bold 64px sans-serif" text-anchor="middle" alignment_baseline="central" font-size="64px" font-weight="bold">7</text>
    </g>
    <g transform="translate(0, 700)">
      <rect x="0" y="0" width="100" height="100" fill="none" stroke="black" stroke-width="3"/>
      <text x="50" y="70" fill="black" style="font: bold 64px sans-serif" text-anchor="middle" alignment_baseline="central" font-size="64px" font-weight="bold">8</text>
    </g>
    <g transform="translate(0, 800)">
      <rect x="0" y="0" width="100" height="100" fill="none" stroke="black" stroke-width="3"/>
      <text x="50" y="70" fill="black" style="font: bold 64px sans-serif" text-anchor="middle" alignment_baseline="central" font-size="64px" font-weight="bold">9</text>
    </g>
  </g>
</svg>
