<svg xmlns="http://www.w3.org/2000/svg" width="1090" height="768">
    <!-- Grid Lines -->
    <g stroke="black" stroke-width="1">
        <!-- Vertical lines -->
        <line x1="218" y1="0" x2="218" y2="768" />
        <line x1="436" y1="0" x2="436" y2="768" />
        <line x1="654" y1="0" x2="654" y2="768" />
        <line x1="872" y1="0" x2="872" y2="768" />
        <!-- Horizontal lines -->
        <line x1="0" y1="153.6" x2="1090" y2="153.6" />
        <line x1="0" y1="307.2" x2="1090" y2="307.2" />
        <line x1="0" y1="460.8" x2="1090" y2="460.8" />
        <line x1="0" y1="614.4" x2="1090" y2="614.4" />
    </g>
    
    <!-- Text Labels -->
    <g font-size="16" font-family="Arial" fill="black">
        <text x="100" y="75">THAI NGUYEN</text>
        <text x="775" y="75">HAIPHONG</text>
        <text x="325" y="375">HANOI</text>
        <text x="875" y="475">THAN HOA</text>
        <text x="925" y="675">VINH</text>
    </g>
    
    <!-- Stars -->
    <g fill="black">
        <polygon points="100,50 110,70 120,50 110,30" />
        <polygon points="875,50 885,70 895,50 885,30" />
        <polygon points="325,225 335,245 345,225 335,205" />
        <polygon points="875,225 885,245 895,225 885,205" />
        <polygon points="100,375 110,395 120,375 110,355" />
        <polygon points="325,375 335,395 345,375 335,355" />
        <polygon points="875,375 885,395 895,375 885,355" />
        <polygon points="325,525 335,545 345,525 335,505" />
        <polygon points="100,675 110,695 120,675 110,655" />
        <polygon points="875,675 885,695 895,675 885,655" />
    </g>

    <!-- Squares -->
    <g fill="black">
        <rect x="310" y="350" width="30" height="30" />
        <rect x="860" y="450" width="30" height="30" />
        <rect x="910" y="650" width="30" height="30" />
    </g>
</svg>

