<?xml version="1.0" encoding="UTF-8"?>
<!DOCTYPE svg PUBLIC "-//W3C//DTD SVG 1.1//EN" "http://www.w3.org/Graphics/SVG/1.1/DTD/svg11.dtd">
<!-- Creator: CorelDRAW 2020 (64-Bit Not for commercial use) -->
<svg xmlns="http://www.w3.org/2000/svg" xml:space="preserve" width="100%" height="100%" version="1.1" style="shape-rendering:geometricPrecision; text-rendering:geometricPrecision; image-rendering:optimizeQuality; fill-rule:evenodd; clip-rule:evenodd"
viewBox="0 0 8500 11000"
 xmlns:xlink="http://www.w3.org/1999/xlink"
 xmlns:xodm="http://www.corel.com/coreldraw/odm/2003">
 <defs>
  <style type="text/css">
   <![CDATA[
    .fil0 {fill:#2E97FF}
    .fil1 {fill:#F03C00}
    .fil2 {fill:yellow}
   ]]>
  </style>
 </defs>
 <g id="Layer_x0020_1">
  <metadata id="CorelCorpID_0Corel-Layer"/>
  <polygon class="fil0" points="10896.58,9922.19 10896.58,5500 5638.78,5500 5209.61,5811.8 5802.69,7637.09 4250,6509 2697.31,7637.09 3290.39,5811.8 2861.22,5500 -2396.6,5500 -2396.6,9922.19 " vector-effect="none"/>
  <polygon class="fil1" points="10896.58,5500 10896.58,1077.81 -2396.6,1077.81 -2396.6,5500 2861.22,5500 1737.7,4683.7 3656.93,4683.7 4250,2858.4 4843.07,4683.7 6762.3,4683.7 5638.78,5500 " vector-effect="none"/>
  <polygon class="fil2" points="5802.69,7637.09 5209.61,5811.8 6762.3,4683.7 4843.07,4683.7 4250,2858.4 3656.93,4683.7 1737.7,4683.7 3290.39,5811.8 2697.31,7637.09 4250,6509 " vector-effect="none"/>
 </g>
</svg>
