<?xml version="1.0" encoding="UTF-8" standalone="no"?>
<svg
   version="1.1"
   width="1200px"
   height="630px"
   style="shape-rendering:geometricPrecision; text-rendering:geometricPrecision; image-rendering:optimizeQuality; fill-rule:evenodd; clip-rule:evenodd"
   id="svg1478"
   sodipodi:docname="B52.svg"
   inkscape:version="1.2.2 (b0a84865, 2022-12-01)"
   xmlns:inkscape="http://www.inkscape.org/namespaces/inkscape"
   xmlns:sodipodi="http://sodipodi.sourceforge.net/DTD/sodipodi-0.dtd"
   xmlns="http://www.w3.org/2000/svg"
   xmlns:svg="http://www.w3.org/2000/svg">
  <defs
     id="defs1482" />
  <sodipodi:namedview
     id="namedview1480"
     pagecolor="#ffffff"
     bordercolor="#000000"
     borderopacity="0.25"
     inkscape:showpageshadow="2"
     inkscape:pageopacity="0.0"
     inkscape:pagecheckerboard="0"
     inkscape:deskcolor="#d1d1d1"
     showgrid="false"
     inkscape:zoom="1.0595378"
     inkscape:cx="548.35232"
     inkscape:cy="291.1647"
     inkscape:window-width="1941"
     inkscape:window-height="927"
     inkscape:window-x="0"
     inkscape:window-y="44"
     inkscape:window-maximized="0"
     inkscape:current-layer="svg1478" />
  <g
     id="g188">
    <path
       style="opacity:1"
       fill="#353330"
       d="m 620.5,55.5 c -0.722,0.4175 -1.222,1.0842 -1.5,2 -0.167,-0.6667 -0.333,-1.3333 -0.5,-2 0.972,-2.9642 1.138,-5.9642 0.5,-9 -0.791,1.245 -1.291,2.5783 -1.5,4 -1.742,-9.2103 -3.575,-18.5436 -5.5,-28 -2.401,-1.1023 -4.07517,-1.504952 -6.67417,-1.561784 -2.40456,-0.152938 -6.3837,-0.922449 -10.14607,0.320241 C 592.68286,20.212916 589.642,20.9414 587,22.5 c -1.54,7.4673 -3.04,14.8006 -4.5,22 -1.066,-1.1921 -1.899,-0.8588 -2.5,1 -0.717,3.5449 -0.55,7.0449 0.5,10.5 -0.183,1.6836 -0.85,1.8502 -2,0.5 0.154,-6.3591 -0.179,-12.6924 -1,-19 -0.155,-4.7237 1.678,-8.3904 5.5,-11 1.031,-10.3571 5.531,-18.85714 13.5,-25.5 2,-0.666667 4,-0.666667 6,0 7.922,6.67382 12.588,15.1738 14,25.5 3.388,2.8091 5.054,6.4758 5,11 -0.808,5.9739 -1.141,11.9739 -1,18 z"
       id="path186"
       sodipodi:nodetypes="cccccccccccccccccccc" />
  </g>
  <g
     id="g232">
    <path
       style="opacity:1"
       fill="#504e4b"
       d="M 620.5,55.5 C 621.49,61.6446 621.823,67.9779 621.5,74.5C 620.691,76.2922 620.191,78.2922 620,80.5C 619.975,72.1764 620.141,63.8431 620.5,55.5 Z"
       id="path230" />
  </g>
  <g
     id="g236">
    <path
       style="opacity:1"
       fill="#282723"
       d="m 581.5,61.5 c -0.99,5.81 -1.323,11.81 -1,18 h 14 10 14 c 0.323,-6.19 -0.01,-12.19 -1,-18 -5.8468,2.435863 -5.76193,-2 0,-2 v -9 c 0.209,-1.4217 0.709,-2.755 1.5,-4 0.638,3.0358 0.472,6.0358 -0.5,9 0.167,0.6667 0.333,1.3333 0.5,2 0.278,-0.9158 0.778,-1.5825 1.5,-2 -0.359,8.3431 -0.525,16.6764 -0.5,25 0.191,-2.2078 0.691,-4.2078 1.5,-6 v 2 c 0.167,23.0024 0,46.002 -0.5,69 -0.191,2.208 -0.691,4.208 -1.5,6 v -14 c -13.177,-0.329 -26.177,0.005 -39,1 0.28564,10.62511 1.61024,22.24521 -2.5,15 -0.5,-24.664 -0.667,-49.331 -0.5,-74 -0.267,-7.7223 0.066,-15.389 1,-23 1.15,1.3502 1.817,1.1836 2,-0.5 -1.05,-3.4551 -1.217,-6.9551 -0.5,-10.5 0.601,-1.8588 1.434,-2.1921 2.5,-1 -0.664,4.9725 -0.997,9.9725 -1,15 4.73938,-16.110065 12.51106,6.737999 0,2 z"
       id="path234"
       sodipodi:nodetypes="ccccccccccccccccccccccccccc" />
  </g>
  <g
     id="g268" />
  <g
     id="g336" />
  <g
     id="g340">
    <path
       style="opacity:1"
       fill="#8b8b8b"
       d="M 480.5,181.5 C 482.69,182.748 483.023,184.414 481.5,186.5C 480.482,185.708 480.149,184.041 480.5,181.5 Z"
       id="path338" />
  </g>
  <g
     id="g388">
    <path
       style="opacity:1"
       fill="#3d3b37"
       d="m 577.5,79.5 c -0.167,24.669 0,49.336 0.5,74 0.417,1.256 1.25,1.923 2.5,2 -0.538,1.617 -0.871,3.284 -1,5 h -1 c -0.992,-0.172 -1.658,0.162 -2,1 -17.38844,13.36177 -72.80394,56.12862 -74.69667,51.81465 -0.43171,-2.69205 -2.1043,-5.33812 -2.4213,-8.41012 -3.07887,-6.97364 1.45819,-9.90492 3,-9.5281 1.164,3.34 -0.25172,8.84559 -0.11798,12.38762 0.473,2.825 2.04195,3.39395 4.23595,1.23595 22.86,-17.027 45.86,-33.86 69,-50.5 0.667,-26.497 1.333,-52.83 2,-79 z"
       id="path386"
       sodipodi:nodetypes="ccccccccccccc" />
  </g>
  <g
     id="g456" />
  <g
     id="g476" />
  <g
     id="g504">
    <path
       style="opacity:1"
       fill="#3a3936"
       d="m 621.5,76.5 c 0.667,27.17 1.333,54.503 2,82 24.078,17.789 48.245,35.456 72.5,53 -0.964,-11.228 0.369,-22.228 4,-33 5.407,-0.973 10.907,-1.307 16.5,-1 1.336,-6.202 3.002,-6.369 5,-0.5 5,0.333 10,0.667 15,1 2.76,7.042 4.426,14.375 5,22 -0.12,12.36 -1.62,24.527 -4.5,36.5 -1.399,0.727 -2.899,1.227 -4.5,1.5 24.14,17.307 48.14,34.807 72,52.5 -0.047,-6.448 0.287,-12.781 1,-19 0.065,2.928 0.732,5.595 2,8 v 2 c 0,0.667 0.333,1 1,1 -1.22094,3.30472 -0.9061,7.70813 -0.39307,13.38216 C 774.53093,272.31916 755.591,258.937 722.5,234.5 c -2.02726,-4.5908 -2.10939,-9.19416 -2,-11 7.56385,0.56598 0.0601,1 16,1 0.694,-5.305 1.028,-10.638 1,-16 0.75481,-2.55881 0.18772,-4.44095 1,-6 v -3 c -0.338,-2.354 -0.24812,-3.50724 -0.91012,-5.82024 0.24329,-2.10954 -1.05963,-5.1719 -1.08988,-5.17976 -0.039,-1.083 -0.373,-2.083 -1,-3 -0.69064,-5.48397 -4.74852,-3.95126 -15,-5.5 -1,-0.667 -2,-0.667 -3,0 -7.7771,1.89824 -16,-2.48685 -16,8.5 -0.667,0 -1,0.333 -1,1 -0.172,0.992 0.162,1.658 1,2 v 1 c -1.844,1.779 -2.51,4.112 -2,7 -0.667,0 -1,0.333 -1,1 0.80847,7.6681 0.1972,4.38261 1,7 -0.317,3.072 0.4879,5.01022 1.4719,7.93822 3.932,3.459 7.7941,7.18778 12.5281,9.06178 0.709,0.904 1.709,1.237 3,1 -0.16737,11.32456 -0.8306,2.67737 -2,3 -30.696,-22.343 -61.363,-44.676 -92,-67 -0.342,-0.838 -1.008,-1.172 -2,-1 -1.12002,-2.5449 -0.35534,-6.11543 -1,-9 0.809,-1.792 1.309,-3.792 1.5,-6 0.5,-22.998 0.667,-45.9976 0.5,-69 z"
       id="path502"
       sodipodi:nodetypes="cccccccccccccsccccccccccccccccccccccccccccc" />
  </g>
  <g
     id="g528" />
  <g
     id="g624" />
  <g
     id="g688">
    <path
       style="opacity:1"
       fill="#353330"
       d="m 458.5,194.5 c 0.548,2.126 1.215,4.126 2,6 v 2 c 0,0.667 0.333,1 1,1 0.321,1.548 1.321,2.215 3,2 0.146,2.442 -0.687,3.109 -2.5,2 -0.687,5.704 -0.75695,9.24643 0.26405,14.87643 0.12881,4.42157 -0.37995,3.56295 2.23595,11.12357 2.34019,1.03902 3.78658,3.32959 6.34274,4.51118 -0.84867,1.83327 -66.0472,48.78396 -90.21358,66.01132 -4.06256,2.83909 -10.87407,7.56332 -17.55605,12.30892 C 350.81911,324.41842 344.412,330.254 333,339.5 c 0.26022,3.37882 2.78478,4.69675 3.20786,7.5 2.22533,3.81536 3.83772,6.58099 6.96072,12.66299 3.18068,1.15116 1.43557,2.58214 4.02809,6.12356 1.00191,1.93202 2.04347,3.6871 3.18535,5.33143 1.20269,2.12989 3.2337,5.86729 5.11798,8.38202 1.08,2.496 2.414,3.29631 4,5.46631 3.743,-1.12229 7.86098,-1.47062 12,-4.46631 27.108,-15.726 47.71737,-26.15303 75.27537,-41.42703 2.46845,-1.08848 7.42149,-3.36729 9.72463,-4.57297 3.569,-1.953 7.236,-3.619 11,-5 2.938,-2.477 6.15302,-2.47141 9.88202,-5.05619 1.80118,0.99088 4.55018,1.9825 7.11798,3.05619 30.201,-16.6 60.534,-32.934 91,-49 0.689,1.274 1.523,1.274 2.5,0 0.824,49.374 0.657,98.708 -0.5,148 -0.951,-1.419 -1.284,-3.085 -1,-5 0.167,-46.668 0,-93.335 -0.5,-140 -3.644,1.901 -7.144,3.901 -10.5,6 -62.973,33.821 -125.973,67.654 -189,101.5 -6,0.333 -12,0.667 -18,1 -39.839,22.42 -79.839,44.587 -120,66.5 -0.333,-8.333 -0.667,-16.667 -1,-25 -0.14,-9.096 0.36,-18.096 1.5,-27 39.411,-29.289 78.911,-58.455 118.5,-87.5 -3.493,-0.165 -5.326,-1.998 -5.5,-5.5 -1.65,-10.279 -2.816,-20.612 -3.5,-31 0.705,-7.905 2.372,-15.572 5,-23 5.333,-0.667 10.667,-1.333 16,-2 1.565,-5.036 3.231,-4.869 5,0.5 5,0.333 10,0.667 15,1 4.709,9.694 6.042,19.861 4,30.5 0.333,1 0.667,2 1,3 23.667,-17.333 47.333,-34.667 71,-52 -1.128,-0.762 -2.295,-1.429 -3.5,-2 -1.472,-4.223 -2.472,-8.557 -3,-13 -0.371,-7.842 -0.871,-15.676 -1.5,-23.5 0.006,-2.033 0.339,-3.866 1,-5.5 z"
       id="path686"
       sodipodi:nodetypes="ccscccccccccccccccccccccccccccccccccccccccccccccc" />
  </g>
  <g
     id="g844">
    <path
       fill="#282725"
       d="m 621.5,277.5 c -0.659,30.764 -1.326,61.431 -2,92 v -10 -1 -16 h -6 c -0.333,-1.333 -0.667,-1.333 -1,0 h -1 -24 -1 c 0,-0.667 -0.333,-1 -1,-1 h -6 v 17 1 12 h 6 v 2 h -6 v 22 1 22 h 5 v 1 h -5 c -0.313,3.542 0.021,6.875 1,10 v 10 c 0,0.667 0.333,1 1,1 v 16 h 5 c 0.667,-2.667 1.333,-5.333 2,-8 v 8 h 22 v -8 c 0.667,2.667 1.333,5.333 2,8 h 5 c 0,0.667 -0.333,1 -1,1 h -5 v 12 c -0.983,-3.798 -1.317,-7.798 -1,-12 h -22 c 0.317,4.202 -0.017,8.202 -1,12 v -12 h -5 v 17 h 5 l 2,-2 c 6.57079,2.54289 13.89284,2.68698 20,0 l 2,2 h 5 c -1.667,0.667 -3.333,1.333 -5,2 -1.041,10.824 -1.708,21.824 -2,33 h 4 v -4 h 1 v 9 c 10.672,0.167 21.339,0 32,-0.5 -0.881,-0.708 -1.547,-1.542 -2,-2.5 h 2 c 5,5.333 10,10.667 15,16 -4.253,-2.91 -8.253,-6.244 -12,-10 -2.026,3.397 -4.026,6.73 -6,10 0.906,-3.649 2.24,-7.149 4,-10.5 -11.328,-0.5 -22.662,-0.667 -34,-0.5 v -6 c -1.599,-0.268 -2.932,0.066 -4,1 v 1 c -0.951,-1.419 -1.284,-3.085 -1,-5 -0.06,-10.35 0.274,-20.683 1,-31 -16.00223,8.73385 -11.31989,0.0163 -20,0 0.808,8.976 1.142,17.976 1,27 0.31,3.213 -0.023,6.213 -1,9 v -1 c -1.857,-1.265 -3.524,-0.932 -5,1 v -4 c -0.295,-2.235 0.039,-4.235 1,-6 v 7 h 4 c -0.759,-11.317 -1.093,-22.65 -1,-34 h -5 c 0.639,6.648 0.973,13.314 1,20 0.284,1.915 -0.049,3.581 -1,5 0.138,-4.914 -0.528,-9.581 -2,-14 0.423,-0.765 0.757,-1.598 1,-2.5 -1.503,-4.451 -2.503,-8.951 -3,-13.5 -0.741,-14.663 -1.407,-29.33 -2,-44 1.157,-49.292 1.324,-98.626 0.5,-148 -0.977,1.274 -1.811,1.274 -2.5,0 0.891,-0.61 1.891,-0.943 3,-1 h 1 l -0.11798,8.81465 c -0.10552,4.24383 -0.12292,8.3707 0.23596,12.73581 L 579.5,324.5 v 1 15 h 6 1 1 24 1 1 6 v -15 -1 l 0.23595,-28.75286 C 621.1332,285.13985 619.97354,280.27772 621.5,277.5 Z"
       id="path842"
       style="opacity:1"
       sodipodi:nodetypes="ccccccccccsccccccccccccccscccccccccsccccccccccccccccccccccccccccccccccccccccccccccccccccccccccccccccccccc" />
  </g>
  <g
     id="g876" />
  <g
     id="g996">
    <path
       style="opacity:1"
       fill="#9d9d9d"
       d="M 961.5,408.5 C 962.827,424.672 962.827,441.005 961.5,457.5C 960.893,457.376 960.56,457.043 960.5,456.5C 961.496,440.675 961.83,424.675 961.5,408.5 Z"
       id="path994" />
  </g>
  <path
     fill="#343330"
     d="m 961.5,408.5 c 0.33,16.175 -0.004,32.175 -1,48 -40.306,-22.154 -80.64,-44.321 -121,-66.5 -5.667,-0.333 -11.333,-0.667 -17,-1 C 758.605,354.554 695.90274,320.62295 631.79774,286.73595 629.14983,284.72095 625.824,282.818 623,281.5 c -0.5,46.999 -0.667,93.999 -0.5,141 -0.494,6.492 -1.161,12.825 -2,19 -0.427,-2.51 -1.093,-4.843 -2,-7 v -1 -13 h -5 v -2 h 6 c 1.333,-13.333 1.333,-26.667 0,-40 v -5 h -6 v -2 c 2.582,0.475 4.582,-0.192 6,-2 0.674,-30.569 1.341,-61.236 2,-92 31.101,16.385 62.101,33.052 93,50 1.694,-1.547 3.027,-3.38 4,-5.5 0.86035,-2.54321 2.95396,-5.40383 3,-5.5 1.54786,-2.58895 2.174,-4.353 4,-6 8,3.667 16,7.333 24,11 2.404,-2.476 4.571,-5.142 6.5,-8 1.406,0.914 2.906,1.58 4.5,2 52.24919,35.05503 81.32193,46.04501 90,51 4.692,-6.205 9.026,-12.705 13,-19.5 1.75718,-2.53575 2.45407,-5.72041 2,-8.5 -10.992,-7.671 -21.658,-15.671 -32,-24 3.542,0.313 6.875,-0.021 10,-1 0.204,-3.018 0.537,-6.018 1,-9 1.333,-0.333 1.333,-0.667 0,-1 11.25504,-34.04828 -23.36535,-23.23541 -39,-32 0.262,-5.15 1.595,-9.984 4,-14.5 5,-0.333 10,-0.667 15,-1 1.769,-5.369 3.435,-5.536 5,-0.5 5.333,0.667 10.667,1.333 16,2 2.574,7.272 4.241,14.772 5,22.5 -0.611,12.336 -2.277,24.503 -5,36.5 -3.79,-0.492 -4.456,0.341 -2,2.5 37.49,27.578 75.156,54.911 113,82 2.7,1.857 4.366,4.357 5,7.5 z"
     id="path998"
     sodipodi:nodetypes="cccccccccccccccccccccccccccccccccccccccccccc" />
  <g
     id="g1016">
    <path
       style="opacity:1"
       fill="#2e2d2c"
       d="M 798.5,364.5 C 805.153,366.823 811.153,370.156 816.5,374.5C 812.372,372.936 808.372,371.102 804.5,369C 802.253,367.723 800.253,366.223 798.5,364.5 Z"
       id="path1014" />
  </g>
  <g
     id="g1020" />
  <g
     id="g1068" />
  <g
     id="g1072" />
  <path
     fill="#181716"
     d="m 814.81451,276.66299 c 0.99469,6.17561 -5.494,4.44782 -6.84261,6.14034 -1.268,-2.405 -2.4069,-8.37533 -2.4719,-11.30333 2.77653,-3.03173 -0.67573,1.31535 9.31451,5.16299 z"
     id="path1110"
     sodipodi:nodetypes="cccc" />
  <g
     id="g1224">
    <path
       style="opacity:1"
       fill="#302f2e"
       d="m 617.5,440.5 c 0.582,2.813 1.582,5.48 3,8 -0.418,9.18 -1.084,18.347 -2,27.5 0.333,1.833 0.667,3.667 1,5.5 26.349,24.85 52.849,49.517 79.5,74 0.5,10.328 0.666,20.661 0.5,31 -29.637,-3.609 -59.303,-6.942 -89,-10 0.303,8.889 -0.363,17.556 -2,26 -0.806,-1.228 -1.806,-2.228 -3,-3 0.705,-2.728 1.372,-5.561 2,-8.5 -0.594,-0.464 -1.261,-0.631 -2,-0.5 l 2,-2 c 0.164,-2.687 -0.003,-5.354 -0.5,-8 -0.198,1.882 -0.698,3.548 -1.5,5 0,-0.667 -0.333,-1 -1,-1 0.561,-7.001 0.728,-14.001 0.5,-21 -1.689,5.682 -2.856,11.349 -3.5,17 -0.275,-2.342 -1.108,-2.342 -2.5,0 -1.107,-1.212 -1.607,-0.879 -1.5,1 -0.602,-5.988 -1.769,-11.988 -3.5,-18 -0.519,8.346 -0.352,16.679 0.5,25 v 1 c -1.288,3.2 -1.288,6.533 0,10 -0.525,0.692 -1.192,1.192 -2,1.5 1.314,0.985 2.314,2.152 3,3.5 -0.077,1.25 -0.744,2.083 -2,2.5 2.706,0.601 4.706,2.101 6,4.5 1.345,-0.847 2.345,-2.013 3,-3.5 1,-0.333 2,-0.667 3,-1 -1.256,-0.417 -1.923,-1.25 -2,-2.5 0.658,-0.898 1.324,-1.898 2,-3 1.015,2.776 2.015,5.443 3,8 0.569,5.699 -0.431,11.032 -3,16 -4,2.667 -8,2.667 -12,0 -0.535,-2.161 -1.368,-4.161 -2.5,-6 -1.268,-14.312 -2.101,-28.645 -2.5,-43 -29.703,2.973 -59.37,6.306 -89,10 -0.166,-10.339 0,-20.672 0.5,-31 26.635,-24.3 52.968,-48.967 79,-74 0.499,-3.652 0.665,-7.318 0.5,-11 0.497,4.549 1.497,9.049 3,13.5 -0.243,0.902 -0.577,1.735 -1,2.5 -4.667,5.333 -9.667,10.333 -15,15 3.43,-4.97 7.763,-9.803 13,-14.5 -0.667,-0.667 -1.333,-0.667 -2,0 -8.228,8.396 -16.562,16.563 -25,24.5 -0.667,0 -1,0.333 -1,1 -5.408,3.9 -10.408,8.4 -15,13.5 0.667,0.667 1.333,0.667 2,0 4.202,-4.37 8.536,-8.537 13,-12.5 5.424,1.286 11.09,1.952 17,2 5.511,-10e-4 10.844,-0.334 16,-1 v -2 c 1.476,-1.932 3.143,-2.265 5,-1 h -3 c 0.671,18.076 2.171,36.076 4.5,54 0.5,-7.326 0.666,-14.659 0.5,-22 0,-0.667 0.333,-1 1,-1 -0.165,3.682 10e-4,7.348 0.5,11 l 1,-1 c -5.91457,-11.63377 7.42845,-93.37856 10,-49 0.333,16.667 0.667,33.333 1,50 0.333,0.667 0.667,1.333 1,2 0.405,-12.675 0.905,-25.341 1.5,-38 0.951,1.419 1.284,3.085 1,5 -0.687,14.33 -0.853,28.664 -0.5,43 2.204,-16.26 3.704,-32.594 4.5,-49 h 1 v 16 c 9.004,1.1 18.004,1.1 27,0 0.457,-2.098 1.457,-3.764 3,-5 -0.086,2.177 -0.753,4.177 -2,6 17.015,10.164 34.182,20.164 51.5,30 0.891,-2.998 0.391,-5.664 -1.5,-8 0.996,-0.086 1.829,0.248 2.5,1 1.333,34.667 2,34.667 2,0 -10.427,-10.268 -21.26,-19.934 -32.5,-29 -5.057,-6.059 -10.724,-11.393 -17,-16 -3.678,-4.862 -8.012,-8.695 -13,-11.5 3.87,3.702 7.537,7.536 11,11.5 -5.681,-4.017 -10.681,-8.684 -15,-14 0.739,0.131 1.406,-0.036 2,-0.5 l -13,-13 c -2.261,-0.207 -2.595,0.626 -1,2.5 -1.519,6.155 -2.519,12.489 -3,19 h -1 c 0.914,-9.648 1.581,-19.315 2,-29 h -4 c 1.667,-0.667 3.333,-1.333 5,-2 v -17 c 0.667,0 1,-0.333 1,-1 z"
       id="path1222"
       sodipodi:nodetypes="ccccccccccccccccccccccccccccccccccccccccccccccccccccccccccccccccccccccccccccccccccccccccccsc" />
  </g>
  <g
     id="g1288">
    <path
       style="opacity:1"
       fill="#3a3a39"
       d="M 591.5,517.5 C 591.976,525.826 592.309,534.16 592.5,542.5C 591.833,542.5 591.5,542.833 591.5,543.5C 590.513,538.695 590.179,533.695 590.5,528.5C 590.185,524.629 590.518,520.962 591.5,517.5 Z"
       id="path1286" />
  </g>
  <g
     id="g1292">
    <path
       style="opacity:1"
       fill="#2f2f2e"
       d="M 556.5,535.5 C 541.823,545.176 526.49,553.843 510.5,561.5C 525.501,552.33 540.834,543.664 556.5,535.5 Z"
       id="path1290" />
  </g>
  <g
     id="g1376">
    <path
       style="opacity:1"
       fill="#80807f"
       d="M 609.5,511.5 C 610.568,510.566 611.901,510.232 613.5,510.5C 613.5,512.5 613.5,514.5 613.5,516.5C 613.167,516.5 612.833,516.5 612.5,516.5C 612.5,514.833 612.5,513.167 612.5,511.5C 611.5,511.5 610.5,511.5 609.5,511.5 Z"
       id="path1374" />
  </g>
  <g
     id="g1400">
    <path
       style="opacity:1"
       fill="#323130"
       d="M 617.5,486.5 C 622.105,489.436 626.105,493.102 629.5,497.5C 624.895,494.564 620.895,490.898 617.5,486.5 Z"
       id="path1398" />
  </g>
  <g
     id="g1432">
    <path
       style="opacity:1"
       fill="#a1a1a1"
       d="M 607.5,588.5 C 605.952,588.179 605.285,587.179 605.5,585.5C 606.302,584.048 606.802,582.382 607,580.5C 607.497,583.146 607.664,585.813 607.5,588.5 Z"
       id="path1430" />
  </g>
  <g
     id="g1436">
    <path
       fill="#171615"
       d="M 601.5,580.5 C 601.425,583.206 601.092,585.873 600.5,588.5C 601.833,588.5 603.167,588.5 604.5,588.5C 604.5,587.167 604.5,585.833 604.5,584.5C 605.167,584.5 605.5,584.833 605.5,585.5C 605.285,587.179 605.952,588.179 607.5,588.5C 606.833,589.167 606.167,589.833 605.5,590.5C 605.5,593.5 605.5,596.5 605.5,599.5C 606.694,600.272 607.694,601.272 608.5,602.5C 608.5,604.833 608.5,607.167 608.5,609.5C 607.515,606.943 606.515,604.276 605.5,601.5C 604.824,602.602 604.158,603.602 603.5,604.5C 600.833,604.5 598.167,604.5 595.5,604.5C 594.814,603.152 593.814,601.985 592.5,601C 593.308,600.692 593.975,600.192 594.5,599.5C 593.212,596.033 593.212,592.7 594.5,589.5C 594.5,589.167 594.5,588.833 594.5,588.5C 595.833,588.5 597.167,588.5 598.5,588.5C 598.326,586.139 597.993,583.806 597.5,581.5C 597.393,579.621 597.893,579.288 599,580.5C 600.392,578.158 601.225,578.158 601.5,580.5 Z"
       id="path1434"
       style="opacity:1" />
  </g>
  <path
     style="clip-rule:evenodd;opacity:1;fill-rule:evenodd;image-rendering:optimizeQuality;shape-rendering:geometricPrecision;text-rendering:geometricPrecision"
     fill="#474644"
     d="m 502.5,195.5 c -0.0562,1.45097 1.30333,3.96474 0.30333,5.29774 2.79225,-1.16135 -34.74937,-4.32565 -43.71904,-0.87084 l -0.68316,-3.2565 0.0988,-3.10862 c 1.00095,-5.10997 2.098,-10.88778 4,-15.56178 5,-0.333 10,-0.667 15,-1 1.487,-5.584 3.153,-5.751 5,-0.5 5.333,0.667 10.667,1.333 16,2 2.098,5.491 5.26674,25.91003 4,17 z"
     id="path334"
     sodipodi:nodetypes="ccccccccccc" />
</svg>
