<?xml version="1.0" encoding="UTF-8" standalone="no"?>
<svg
   version="1.1"
   width="1200px"
   height="630px"
   style="shape-rendering:geometricPrecision; text-rendering:geometricPrecision; image-rendering:optimizeQuality; fill-rule:evenodd; clip-rule:evenodd"
   id="svg1478"
   sodipodi:docname="B52.svg"
   inkscape:version="1.2.2 (b0a84865, 2022-12-01)"
   xmlns:inkscape="http://www.inkscape.org/namespaces/inkscape"
   xmlns:sodipodi="http://sodipodi.sourceforge.net/DTD/sodipodi-0.dtd"
   xmlns="http://www.w3.org/2000/svg"
   xmlns:svg="http://www.w3.org/2000/svg">
  <defs
     id="defs1482" />
  <sodipodi:namedview
     id="namedview1480"
     pagecolor="#ffffff"
     bordercolor="#000000"
     borderopacity="0.25"
     inkscape:showpageshadow="2"
     inkscape:pageopacity="0.0"
     inkscape:pagecheckerboard="0"
     inkscape:deskcolor="#d1d1d1"
     showgrid="false"
     inkscape:zoom="2.9968254"
     inkscape:cx="597.63242"
     inkscape:cy="525.3893"
     inkscape:window-width="1941"
     inkscape:window-height="927"
     inkscape:window-x="0"
     inkscape:window-y="44"
     inkscape:window-maximized="0"
     inkscape:current-layer="svg1478" />
  <g
     id="g188">
    <path
       style="opacity:1"
       fill="#353330"
       d="M 620.5,55.5 C 619.778,55.9175 619.278,56.5842 619,57.5C 618.833,56.8333 618.667,56.1667 618.5,55.5C 619.472,52.5358 619.638,49.5358 619,46.5C 618.209,47.745 617.709,49.0783 617.5,50.5C 615.758,41.2897 613.925,31.9564 612,22.5C 609.599,21.3977 607.099,21.231 604.5,22C 605.056,22.3826 605.389,22.8826 605.5,23.5C 606.496,23.4142 607.329,23.7476 608,24.5C 610.616,29.258 612.45,34.258 613.5,39.5C 612.172,41.4436 611.839,43.4436 612.5,45.5C 611.711,45.7828 611.044,46.2828 610.5,47C 611.423,49.0408 611.756,51.2075 611.5,53.5C 609.99,54.7279 608.49,54.7279 607,53.5C 606.503,51.1902 606.337,48.8568 606.5,46.5C 604.833,46.5 603.167,46.5 601.5,46.5C 602.833,42.8333 602.833,39.1667 601.5,35.5C 600.167,35.5 598.833,35.5 597.5,35.5C 596.167,39.1667 596.167,42.8333 597.5,46.5C 595.833,46.5 594.167,46.5 592.5,46.5C 592.663,48.8568 592.497,51.1902 592,53.5C 590.51,54.7279 589.01,54.7279 587.5,53.5C 587.401,50.7628 587.735,48.0961 588.5,45.5C 588.703,43.9557 589.37,42.6223 590.5,41.5C 589.312,38.9787 587.978,36.6453 586.5,34.5C 587.462,31.2432 588.962,28.2432 591,25.5C 588.212,32.1022 589.379,32.9355 594.5,28C 595.793,27.51 597.127,27.3433 598.5,27.5C 599.654,21.9216 598.154,20.5883 594,23.5C 591.975,21.2747 589.642,20.9414 587,22.5C 585.46,29.9673 583.96,37.3006 582.5,44.5C 581.434,43.3079 580.601,43.6412 580,45.5C 579.283,49.0449 579.45,52.5449 580.5,56C 580.317,57.6836 579.65,57.8502 578.5,56.5C 578.654,50.1409 578.321,43.8076 577.5,37.5C 577.345,32.7763 579.178,29.1096 583,26.5C 584.031,16.1429 588.531,7.64286 596.5,1C 598.5,0.333333 600.5,0.333333 602.5,1C 610.422,7.67382 615.088,16.1738 616.5,26.5C 619.888,29.3091 621.554,32.9758 621.5,37.5C 620.692,43.4739 620.359,49.4739 620.5,55.5 Z"
       id="path186" />
  </g>
  <g
     id="g232">
    <path
       style="opacity:1"
       fill="#504e4b"
       d="M 620.5,55.5 C 621.49,61.6446 621.823,67.9779 621.5,74.5C 620.691,76.2922 620.191,78.2922 620,80.5C 619.975,72.1764 620.141,63.8431 620.5,55.5 Z"
       id="path230" />
  </g>
  <g
     id="g236">
    <path
       style="opacity:1"
       fill="#282723"
       d="M 586.5,34.5 C 587.978,36.6453 589.312,38.9787 590.5,41.5C 589.37,42.6223 588.703,43.9557 588.5,45.5C 586.564,49.7147 585.897,54.3814 586.5,59.5C 584.833,60.1667 583.167,60.8333 581.5,61.5C 580.51,67.31 580.177,73.31 580.5,79.5C 585.167,79.5 589.833,79.5 594.5,79.5C 597.833,79.5 601.167,79.5 604.5,79.5C 609.167,79.5 613.833,79.5 618.5,79.5C 618.823,73.31 618.49,67.31 617.5,61.5C 615.833,60.8333 614.167,60.1667 612.5,59.5C 612.5,54.8333 612.5,50.1667 612.5,45.5C 611.839,43.4436 612.172,41.4436 613.5,39.5C 613.5,46.1667 613.5,52.8333 613.5,59.5C 614.833,59.5 616.167,59.5 617.5,59.5C 617.5,56.5 617.5,53.5 617.5,50.5C 617.709,49.0783 618.209,47.745 619,46.5C 619.638,49.5358 619.472,52.5358 618.5,55.5C 618.667,56.1667 618.833,56.8333 619,57.5C 619.278,56.5842 619.778,55.9175 620.5,55.5C 620.141,63.8431 619.975,72.1764 620,80.5C 620.191,78.2922 620.691,76.2922 621.5,74.5C 621.5,75.1667 621.5,75.8333 621.5,76.5C 621.667,99.5024 621.5,122.502 621,145.5C 620.809,147.708 620.309,149.708 619.5,151.5C 619.5,146.833 619.5,142.167 619.5,137.5C 606.323,137.171 593.323,137.505 580.5,138.5C 579.352,142.981 579.185,147.648 580,152.5C 581.08,150.004 582.414,147.67 584,145.5C 587.404,150.314 589.738,155.647 591,161.5C 592.364,180.476 591.197,199.142 587.5,217.5C 587.5,216.833 587.167,216.5 586.5,216.5C 589.757,197.917 590.59,179.251 589,160.5C 588.094,155.874 586.427,151.54 584,147.5C 582.546,150.071 581.38,152.738 580.5,155.5C 579.25,155.423 578.417,154.756 578,153.5C 577.5,128.836 577.333,104.169 577.5,79.5C 577.233,71.7777 577.566,64.111 578.5,56.5C 579.65,57.8502 580.317,57.6836 580.5,56C 579.45,52.5449 579.283,49.0449 580,45.5C 580.601,43.6412 581.434,43.3079 582.5,44.5C 581.836,49.4725 581.503,54.4725 581.5,59.5C 582.833,59.5 584.167,59.5 585.5,59.5C 585.227,51.1122 585.56,42.7788 586.5,34.5 Z"
       id="path234" />
  </g>
  <g
     id="g268">
    <path
       style="opacity:1"
       fill="#a8a8a8"
       d="M 586.5,40.5 C 588.973,40.9473 589.14,41.9473 587,43.5C 586.517,42.552 586.351,41.552 586.5,40.5 Z"
       id="path266" />
  </g>
  <g
     id="g336">
    <path
       style="opacity:1"
       fill="#474644"
       d="M 502.5,195.5 C 501.5,196.833 500.5,198.167 499.5,199.5C 500.01,196.612 499.344,194.279 497.5,192.5C 497.5,192.167 497.5,191.833 497.5,191.5C 498.338,191.158 498.672,190.492 498.5,189.5C 498.5,188.833 498.167,188.5 497.5,188.5C 497.5,187.167 497.5,185.833 497.5,184.5C 492.193,183.974 487.193,184.64 482.5,186.5C 482.167,186.5 481.833,186.5 481.5,186.5C 483.023,184.414 482.69,182.748 480.5,181.5C 479.765,182.361 478.765,184.694 477.5,188.5C 477.5,187.167 477.5,185.833 477.5,184.5C 472.821,184.334 468.155,184.501 463.5,185C 462.663,186.011 462.33,187.178 462.5,188.5C 461.167,188.833 461.167,189.167 462.5,189.5C 464.743,190.812 467.41,191.478 470.5,191.5C 473.59,191.478 476.257,190.812 478.5,189.5C 479.833,190.833 481.167,190.833 482.5,189.5C 486.373,191.43 490.706,192.097 495.5,191.5C 495.5,191.833 495.5,192.167 495.5,192.5C 491.988,191.945 488.988,192.612 486.5,194.5C 486.167,194.5 485.833,194.5 485.5,194.5C 485.167,194.5 484.833,194.5 484.5,194.5C 484.179,192.952 483.179,192.285 481.5,192.5C 481.025,195.082 481.692,197.082 483.5,198.5C 482.791,199.404 481.791,199.737 480.5,199.5C 480.802,196.941 480.468,194.607 479.5,192.5C 477.901,192.232 476.568,192.566 475.5,193.5C 475.672,194.492 475.338,195.158 474.5,195.5C 474.5,194.5 474.5,193.5 474.5,192.5C 471.167,192.5 467.833,192.5 464.5,192.5C 464.5,193.5 464.5,194.5 464.5,195.5C 463.833,195.5 463.5,195.833 463.5,196.5C 463.167,196.5 462.833,196.5 462.5,196.5C 462.657,195.127 462.49,193.793 462,192.5C 461.722,193.416 461.222,194.082 460.5,194.5C 459.833,193.833 459.167,193.167 458.5,192.5C 459.265,187.508 460.598,182.674 462.5,178C 467.5,177.667 472.5,177.333 477.5,177C 478.987,171.416 480.653,171.249 482.5,176.5C 487.833,177.167 493.167,177.833 498.5,178.5C 500.598,183.991 501.931,189.658 502.5,195.5 Z"
       id="path334" />
  </g>
  <g
     id="g340">
    <path
       style="opacity:1"
       fill="#8b8b8b"
       d="M 480.5,181.5 C 482.69,182.748 483.023,184.414 481.5,186.5C 480.482,185.708 480.149,184.041 480.5,181.5 Z"
       id="path338" />
  </g>
  <g
     id="g388">
    <path
       style="opacity:1"
       fill="#3d3b37"
       d="M 577.5,79.5 C 577.333,104.169 577.5,128.836 578,153.5C 578.417,154.756 579.25,155.423 580.5,155.5C 579.962,157.117 579.629,158.784 579.5,160.5C 579.167,160.5 578.833,160.5 578.5,160.5C 577.508,160.328 576.842,160.662 576.5,161.5C 548.427,182.246 520.094,202.579 491.5,222.5C 493.789,220.552 496.122,218.552 498.5,216.5C 499.484,213.572 499.817,210.572 499.5,207.5C 498.022,207.762 496.689,207.429 495.5,206.5C 496.993,205.859 497.993,204.859 498.5,203.5C 499.167,203.5 499.5,203.167 499.5,202.5C 499.833,202.5 500.167,202.5 500.5,202.5C 501.931,201.22 502.598,199.553 502.5,197.5C 503.664,200.84 503.664,204.34 502.5,208C 502.973,210.825 504.306,211.158 506.5,209C 529.36,191.973 552.36,175.14 575.5,158.5C 576.167,132.003 576.833,105.67 577.5,79.5 Z"
       id="path386" />
  </g>
  <g
     id="g456">
    <path
       style="opacity:1"
       fill="#727272"
       d="M 720.5,223.5 C 720.181,228.363 720.514,233.03 721.5,237.5C 721.672,238.492 721.338,239.158 720.5,239.5C 719.198,234.067 719.198,228.734 720.5,223.5 Z"
       id="path454" />
  </g>
  <g
     id="g476">
    <path
       style="opacity:1"
       fill="#090908"
       d="M 612.5,224.5 C 612.833,224.5 613.167,224.5 613.5,224.5C 613.413,229.537 613.746,234.537 614.5,239.5C 614.785,241.288 614.452,242.955 613.5,244.5C 612.503,237.866 612.17,231.2 612.5,224.5 Z"
       id="path474" />
  </g>
  <g
     id="g504">
    <path
       style="opacity:1"
       fill="#3a3936"
       d="M 621.5,76.5 C 622.167,103.67 622.833,131.003 623.5,158.5C 647.578,176.289 671.745,193.956 696,211.5C 695.036,200.272 696.369,189.272 700,178.5C 705.407,177.527 710.907,177.193 716.5,177.5C 717.836,171.298 719.502,171.131 721.5,177C 726.5,177.333 731.5,177.667 736.5,178C 739.26,185.042 740.926,192.375 741.5,200C 741.38,212.36 739.88,224.527 737,236.5C 735.601,237.227 734.101,237.727 732.5,238C 756.64,255.307 780.64,272.807 804.5,290.5C 804.453,284.052 804.787,277.719 805.5,271.5C 805.565,274.428 806.232,277.095 807.5,279.5C 807.5,280.167 807.5,280.833 807.5,281.5C 807.5,282.167 807.833,282.5 808.5,282.5C 809.5,283.833 810.5,285.167 811.5,286.5C 810.811,287.774 809.977,287.774 809,286.5C 808.333,289.5 808.333,292.5 809,295.5C 813.342,299.92 818.509,302.587 824.5,303.5C 824.5,301.833 824.5,300.167 824.5,298.5C 824.833,298.5 825.167,298.5 825.5,298.5C 825.369,299.239 825.536,299.906 826,300.5C 826.192,298.423 826.692,296.423 827.5,294.5C 828.489,298.107 828.823,301.774 828.5,305.5C 827.679,308.641 827.179,311.975 827,315.5C 826.667,312.167 826.333,308.833 826,305.5C 825.823,309.356 825.323,313.023 824.5,316.5C 824.966,312.838 824.299,309.505 822.5,306.5C 788.924,282.937 755.591,258.937 722.5,234.5C 721.614,235.325 721.281,236.325 721.5,237.5C 720.514,233.03 720.181,228.363 720.5,223.5C 720.5,219.167 720.5,214.833 720.5,210.5C 721.486,214.97 721.819,219.637 721.5,224.5C 726.5,224.5 731.5,224.5 736.5,224.5C 737.194,219.195 737.528,213.862 737.5,208.5C 736.5,208.5 735.5,208.5 734.5,208.5C 734.5,207.5 734.5,206.5 734.5,205.5C 736.179,205.715 737.179,205.048 737.5,203.5C 738.167,203.5 738.5,203.167 738.5,202.5C 738.5,201.833 738.5,201.167 738.5,200.5C 738.5,200.167 738.5,199.833 738.5,199.5C 738.162,197.146 737.662,194.813 737,192.5C 736.517,193.448 736.351,194.448 736.5,195.5C 736.167,195.5 735.833,195.5 735.5,195.5C 735.167,195.5 734.833,195.5 734.5,195.5C 734.5,194.5 734.5,193.5 734.5,192.5C 731.5,192.5 728.5,192.5 725.5,192.5C 725.5,192.167 725.5,191.833 725.5,191.5C 729.649,192.08 733.316,191.414 736.5,189.5C 737.833,189.167 737.833,188.833 736.5,188.5C 736.461,187.417 736.127,186.417 735.5,185.5C 730.88,184.507 726.214,184.173 721.5,184.5C 721.5,185.833 721.5,187.167 721.5,188.5C 719.974,187.508 719.307,186.008 719.5,184C 719.559,182.564 719.892,181.231 720.5,180C 719.5,179.333 718.5,179.333 717.5,180C 718.602,182.401 718.769,184.901 718,187.5C 717.027,185.608 716.36,183.608 716,181.5C 714.272,182.352 714.105,183.352 715.5,184.5C 710.833,184.5 706.167,184.5 701.5,184.5C 701.5,185.833 701.5,187.167 701.5,188.5C 700.833,188.5 700.5,188.833 700.5,189.5C 700.328,190.492 700.662,191.158 701.5,191.5C 701.5,191.833 701.5,192.167 701.5,192.5C 699.656,194.279 698.99,196.612 699.5,199.5C 698.833,199.5 698.5,199.833 698.5,200.5C 698.328,201.492 698.662,202.158 699.5,202.5C 699.5,203.167 699.833,203.5 700.5,203.5C 701.007,204.859 702.007,205.859 703.5,206.5C 702.311,207.429 700.978,207.762 699.5,207.5C 699.183,210.572 699.516,213.572 700.5,216.5C 704.432,219.959 708.766,222.626 713.5,224.5C 714.209,225.404 715.209,225.737 716.5,225.5C 716.5,229.167 716.5,232.833 716.5,236.5C 715.834,233.972 715.168,231.306 714.5,228.5C 683.804,206.157 653.137,183.824 622.5,161.5C 622.158,160.662 621.492,160.328 620.5,160.5C 620.167,160.5 619.833,160.5 619.5,160.5C 619.102,155.807 617.602,151.474 615,147.5C 612.213,153.194 610.213,159.194 609,165.5C 608.621,185.307 610.121,204.974 613.5,224.5C 613.167,224.5 612.833,224.5 612.5,224.5C 612.167,224.5 611.833,224.5 611.5,224.5C 603.5,224.5 595.5,224.5 587.5,224.5C 587.5,223.833 587.5,223.167 587.5,222.5C 595.5,222.5 603.5,222.5 611.5,222.5C 608.08,202.3 606.914,181.967 608,161.5C 609.27,156.293 611.104,151.293 613.5,146.5C 614.002,145.479 614.668,145.312 615.5,146C 616.305,147.113 616.972,148.279 617.5,149.5C 617.987,150.473 618.487,151.473 619,152.5C 619.399,152.272 619.565,151.938 619.5,151.5C 620.309,149.708 620.809,147.708 621,145.5C 621.5,122.502 621.667,99.5024 621.5,76.5 Z"
       id="path502" />
  </g>
  <g
     id="g528">
    <path
       style="opacity:1"
       fill="#c8c8c8"
       d="M 738.5,199.5 C 736.824,198.817 736.157,197.483 736.5,195.5C 736.351,194.448 736.517,193.448 737,192.5C 737.662,194.813 738.162,197.146 738.5,199.5 Z"
       id="path526" />
  </g>
  <g
     id="g624">
    <path
       style="opacity:1"
       fill="#fbfbfb"
       d="M 470.5,291.5 C 465.657,293.418 461.323,296.084 457.5,299.5C 447.986,304.42 438.986,310.086 430.5,316.5C 425.657,318.418 421.323,321.084 417.5,324.5C 407.986,329.42 398.986,335.086 390.5,341.5C 385.657,343.418 381.323,346.084 377.5,349.5C 367.986,354.42 358.986,360.086 350.5,366.5C 348.61,366.703 347.11,366.037 346,364.5C 342.877,358.418 339.377,352.585 335.5,347C 336.056,346.617 336.389,346.117 336.5,345.5C 338.853,344.66 340.853,343.326 342.5,341.5C 351.732,336.282 360.732,330.615 369.5,324.5C 370.584,325.665 371.417,326.998 372,328.5C 372.29,326.048 372.956,323.715 374,321.5C 379.497,318.18 384.664,314.513 389.5,310.5C 392.198,310.155 394.198,308.822 395.5,306.5C 401.024,303.908 406.024,300.575 410.5,296.5C 425.714,287.612 440.38,277.945 454.5,267.5C 460.024,264.908 465.024,261.575 469.5,257.5C 472.721,256.291 475.721,254.624 478.5,252.5C 479.833,263.5 479.833,274.5 478.5,285.5C 475.508,287.171 472.841,289.171 470.5,291.5 Z"
       id="path622" />
  </g>
  <g
     id="g688">
    <path
       style="opacity:1"
       fill="#353330"
       d="M 458.5,194.5 C 459.048,196.626 459.715,198.626 460.5,200.5C 460.5,201.167 460.5,201.833 460.5,202.5C 460.5,203.167 460.833,203.5 461.5,203.5C 461.821,205.048 462.821,205.715 464.5,205.5C 464.646,207.942 463.813,208.609 462,207.5C 461.313,213.204 461.479,218.87 462.5,224.5C 464.5,224.5 466.5,224.5 468.5,224.5C 467.432,225.434 466.099,225.768 464.5,225.5C 463.503,225.47 462.836,225.97 462.5,227C 463.09,229.196 463.757,231.362 464.5,233.5C 467.784,234.657 471.118,234.824 474.5,234C 475.066,233.005 475.733,232.172 476.5,231.5C 476.557,232.609 476.89,233.609 477.5,234.5C 443.833,258.5 410.167,282.5 376.5,306.5C 374.327,310.24 373.994,314.24 375.5,318.5C 379.944,315.378 384.61,312.711 389.5,310.5C 384.664,314.513 379.497,318.18 374,321.5C 372.956,323.715 372.29,326.048 372,328.5C 371.417,326.998 370.584,325.665 369.5,324.5C 360.732,330.615 351.732,336.282 342.5,341.5C 350.85,335.168 359.517,329.168 368.5,323.5C 369.833,320.167 369.833,316.833 368.5,313.5C 356.246,321.587 344.412,330.254 333,339.5C 332.68,342.351 333.847,344.351 336.5,345.5C 336.389,346.117 336.056,346.617 335.5,347C 339.377,352.585 342.877,358.418 346,364.5C 347.11,366.037 348.61,366.703 350.5,366.5C 349.537,367.363 349.537,368.03 350.5,368.5C 352.075,367.544 353.742,366.877 355.5,366.5C 353.873,367.991 352.207,369.491 350.5,371C 351.232,373.726 352.732,375.893 355,377.5C 357.643,375.762 360.477,374.428 363.5,373.5C 360.901,375.479 358.235,377.479 355.5,379.5C 356.58,381.996 357.914,384.33 359.5,386.5C 363.243,383.962 367.243,381.962 371.5,380.5C 398.608,364.774 425.942,349.274 453.5,334C 451.861,330.544 449.861,327.377 447.5,324.5C 431.275,334.11 414.941,343.443 398.5,352.5C 413.935,342.608 429.602,332.941 445.5,323.5C 446.258,320.322 445.258,317.655 442.5,315.5C 436.1,319.699 429.433,323.366 422.5,326.5C 429.307,321.378 436.64,317.044 444.5,313.5C 445.158,316.82 446.825,319.487 449.5,321.5C 456.405,318.212 463.405,315.212 470.5,312.5C 463.719,316.392 456.719,320.059 449.5,323.5C 451.289,327.572 453.623,331.239 456.5,334.5C 460.069,332.547 463.736,330.881 467.5,329.5C 470.438,327.023 473.771,325.023 477.5,323.5C 478.434,321.905 478.434,320.239 477.5,318.5C 478.492,318.672 479.158,318.338 479.5,317.5C 479.833,317.5 480.167,317.5 480.5,317.5C 480.369,318.239 480.536,318.906 481,319.5C 488.983,314.759 497.149,310.426 505.5,306.5C 497.891,311.645 489.891,316.311 481.5,320.5C 480.883,323.306 481.883,325.639 484.5,327.5C 514.701,310.9 545.034,294.566 575.5,278.5C 576.189,279.774 577.023,279.774 578,278.5C 578.824,327.874 578.657,377.208 577.5,426.5C 576.549,425.081 576.216,423.415 576.5,421.5C 576.667,374.832 576.5,328.165 576,281.5C 572.356,283.401 568.856,285.401 565.5,287.5C 502.527,321.321 439.527,355.154 376.5,389C 370.5,389.333 364.5,389.667 358.5,390C 318.661,412.42 278.661,434.587 238.5,456.5C 238.167,448.167 237.833,439.833 237.5,431.5C 237.36,422.404 237.86,413.404 239,404.5C 278.411,375.211 317.911,346.045 357.5,317C 354.007,316.835 352.174,315.002 352,311.5C 350.35,301.221 349.184,290.888 348.5,280.5C 349.205,272.595 350.872,264.928 353.5,257.5C 358.833,256.833 364.167,256.167 369.5,255.5C 371.065,250.464 372.731,250.631 374.5,256C 379.5,256.333 384.5,256.667 389.5,257C 394.209,266.694 395.542,276.861 393.5,287.5C 393.833,288.5 394.167,289.5 394.5,290.5C 418.167,273.167 441.833,255.833 465.5,238.5C 464.372,237.738 463.205,237.071 462,236.5C 460.528,232.277 459.528,227.943 459,223.5C 458.629,215.658 458.129,207.824 457.5,200C 457.506,197.967 457.839,196.134 458.5,194.5 Z"
       id="path686" />
  </g>
  <path
     fill="#282725"
     d="m 619.5,266.5 c 0.667,0 1,0.333 1,1 -0.313,3.542 0.021,6.875 1,10 -0.659,30.764 -1.326,61.431 -2,92 0,-3.333 0,-6.667 0,-10 0,-0.333 0,-0.667 0,-1 0,-5.333 0,-10.667 0,-16 -2,0 -4,0 -6,0 -0.333,-1.333 -0.667,-1.333 -1,0 -0.333,0 -0.667,0 -1,0 -8,0 -16,0 -24,0 -0.333,0 -0.667,0 -1,0 0,-0.667 -0.333,-1 -1,-1 -2,0 -4,0 -6,0 0,5.667 0,11.333 0,17 0,0.333 0,0.667 0,1 0,4 0,8 0,12 2,0 4,0 6,0 0,0.667 0,1.333 0,2 -2,0 -4,0 -6,0 0,7.333 0,14.667 0,22 0,0.333 0,0.667 0,1 0,7.333 0,14.667 0,22 1.667,0 3.333,0 5,0 0,0.333 0,0.667 0,1 -1.667,0 -3.333,0 -5,0 -0.313,3.542 0.021,6.875 1,10 0,3.333 0,6.667 0,10 0,0.667 0.333,1 1,1 0,5.333 0,10.667 0,16 1.667,0 3.333,0 5,0 0.667,-2.667 1.333,-5.333 2,-8 0,2.667 0,5.333 0,8 7.333,0 14.667,0 22,0 0,-2.667 0,-5.333 0,-8 0.667,2.667 1.333,5.333 2,8 1.667,0 3.333,0 5,0 0,0.667 -0.333,1 -1,1 -1.667,0 -3.333,0 -5,0 0,4 0,8 0,12 -0.983,-3.798 -1.317,-7.798 -1,-12 -7.333,0 -14.667,0 -22,0 0.317,4.202 -0.017,8.202 -1,12 0,-4 0,-8 0,-12 -1.667,0 -3.333,0 -5,0 0,5.667 0,11.333 0,17 1.667,0 3.333,0 5,0 0.667,-0.667 1.333,-1.333 2,-2 2.928,1.32 6.261,1.986 10,2 3.739,-0.014 7.072,-0.68 10,-2 0.667,0.667 1.333,1.333 2,2 1.667,0 3.333,0 5,0 -1.667,0.667 -3.333,1.333 -5,2 -1.041,10.824 -1.708,21.824 -2,33 1.333,0 2.667,0 4,0 0,-1.333 0,-2.667 0,-4 0.333,0 0.667,0 1,0 0,3 0,6 0,9 10.672,0.167 21.339,0 32,-0.5 -0.881,-0.708 -1.547,-1.542 -2,-2.5 0.667,0 1.333,0 2,0 5,5.333 10,10.667 15,16 -4.253,-2.91 -8.253,-6.244 -12,-10 -2.026,3.397 -4.026,6.73 -6,10 0.906,-3.649 2.24,-7.149 4,-10.5 -11.328,-0.5 -22.662,-0.667 -34,-0.5 0,-2 0,-4 0,-6 -1.599,-0.268 -2.932,0.066 -4,1 0,0.333 0,0.667 0,1 -0.951,-1.419 -1.284,-3.085 -1,-5 -0.06,-10.35 0.274,-20.683 1,-31 -3.072,-0.317 -6.072,0.016 -9,1 0.917,3.258 1.251,6.591 1,10 -0.829,0.832 -1.662,0.499 -2.5,-1 -0.333,0.667 -0.667,1.333 -1,2 -0.49,-1.293 -0.657,-2.627 -0.5,-4 -0.268,-2.619 0.065,-5.119 1,-7.5 -2.982,-0.498 -5.982,-0.665 -9,-0.5 0.808,8.976 1.142,17.976 1,27 0.31,3.213 -0.023,6.213 -1,9 0,-0.333 0,-0.667 0,-1 -1.857,-1.265 -3.524,-0.932 -5,1 0,-1.333 0,-2.667 0,-4 -0.295,-2.235 0.039,-4.235 1,-6 0,2.333 0,4.667 0,7 1.333,0 2.667,0 4,0 -0.759,-11.317 -1.093,-22.65 -1,-34 -1.667,0 -3.333,0 -5,0 0.639,6.648 0.973,13.314 1,20 0.284,1.915 -0.049,3.581 -1,5 0.138,-4.914 -0.528,-9.581 -2,-14 0.423,-0.765 0.757,-1.598 1,-2.5 -1.503,-4.451 -2.503,-8.951 -3,-13.5 -0.741,-14.663 -1.407,-29.33 -2,-44 1.157,-49.292 1.324,-98.626 0.5,-148 -0.977,1.274 -1.811,1.274 -2.5,0 0.891,-0.61 1.891,-0.943 3,-1 0.333,0 0.667,0 1,0 0,4 0,8 0,12 2,0 4,0 6,0 0.667,0.333 1.333,0.667 2,1 0,0.667 -0.333,1 -1,1 -0.333,0 -0.667,0 -1,0 -2,0 -4,0 -6,0 0,11 0,22 0,33 0,0.333 0,0.667 0,1 0,5 0,10 0,15 2,0 4,0 6,0 0.333,0 0.667,0 1,0 0.333,0 0.667,0 1,0 8,0 16,0 24,0 0.333,0 0.667,0 1,0 0.333,0 0.667,0 1,0 2,0 4,0 6,0 0,-5 0,-10 0,-15 0,-0.333 0,-0.667 0,-1 0,-11 0,-22 0,-33 -2,0 -4,0 -6,0 1.667,-0.667 3.333,-1.333 5,-2 1.366,-6.284 1.033,-12.618 -1,-19 0.722,0.418 1.222,1.084 1.5,2 0.495,-1.973 0.662,-3.973 0.5,-6 z"
     id="path842" />
  <g
     id="g876">
    <path
       style="opacity:1"
       fill="#2d2d2c"
       d="M 342.5,341.5 C 340.853,343.326 338.853,344.66 336.5,345.5C 337.802,343.178 339.802,341.845 342.5,341.5 Z"
       id="path874" />
  </g>
  <g
     id="g996">
    <path
       style="opacity:1"
       fill="#9d9d9d"
       d="M 961.5,408.5 C 962.827,424.672 962.827,441.005 961.5,457.5C 960.893,457.376 960.56,457.043 960.5,456.5C 961.496,440.675 961.83,424.675 961.5,408.5 Z"
       id="path994" />
  </g>
  <path
     fill="#343330"
     d="m 961.5,408.5 c 0.33,16.175 -0.004,32.175 -1,48 -40.306,-22.154 -80.64,-44.321 -121,-66.5 -5.667,-0.333 -11.333,-0.667 -17,-1 -63.895,-34.446 -127.895,-68.613 -192,-102.5 -2.176,-2.015 -4.676,-3.682 -7.5,-5 -0.5,46.999 -0.667,93.999 -0.5,141 -0.494,6.492 -1.161,12.825 -2,19 -0.427,-2.51 -1.093,-4.843 -2,-7 0,-0.333 0,-0.667 0,-1 0,-4.333 0,-8.667 0,-13 -1.667,0 -3.333,0 -5,0 0,-0.667 0,-1.333 0,-2 2,0 4,0 6,0 1.333,-13.333 1.333,-26.667 0,-40 0,-1.667 0,-3.333 0,-5 -2,0 -4,0 -6,0 0,-0.667 0,-1.333 0,-2 2.582,0.475 4.582,-0.192 6,-2 0.674,-30.569 1.341,-61.236 2,-92 31.101,16.385 62.101,33.052 93,50 1.694,-1.547 3.027,-3.38 4,-5.5 -32.209,-18.939 -64.876,-37.106 -98,-54.5 0,-0.667 -0.333,-1 -1,-1 0,-0.333 0,-0.667 0,-1 0.333,0 0.667,0 1,0 32.526,17.849 65.026,35.849 97.5,54 0.483,-0.948 0.649,-1.948 0.5,-3 0.333,0 0.667,0 1,0 0.286,2.433 0.952,2.433 2,0 0.84,-2.353 2.174,-4.353 4,-6 8,3.667 16,7.333 24,11 2.404,-2.476 4.571,-5.142 6.5,-8 1.406,0.914 2.906,1.58 4.5,2 27.662,17.167 55.662,33.834 84,50 -27.043,-17.694 -54.377,-35.028 -82,-52 -2.254,-0.624 -3.921,-1.957 -5,-4 31.111,18.727 62.111,37.727 93,57 4.692,-6.205 9.026,-12.705 13,-19.5 -0.556,-0.383 -0.889,-0.883 -1,-1.5 3.45,-1.237 4.45,-3.57 3,-7 -10.992,-7.671 -21.658,-15.671 -32,-24 3.542,0.313 6.875,-0.021 10,-1 0.204,-3.018 0.537,-6.018 1,-9 1.333,-0.333 1.333,-0.667 0,-1 1.393,-5.538 2.06,-11.205 2,-17 -4.61,-0.096 -4.944,-1.096 -1,-3 -5.292,-0.995 -10.625,-1.328 -16,-1 0,3.667 0,7.333 0,11 -0.983,-3.798 -1.317,-7.798 -1,-12 6.755,0.623 13.088,-0.044 19,-2 0,-0.667 -0.333,-1 -1,-1 0.302,-2.559 -0.032,-4.893 -1,-7 0,-1 0,-2 0,-3 -6.131,-0.592 -11.964,0.075 -17.5,2 -0.5,-0.5 -1,-1 -1.5,-1.5 -5.696,-0.83 -11.363,-0.663 -17,0.5 0.743,0.682 1.409,1.349 2,2 0,1 0,2 0,3 -0.333,0 -0.667,0 -1,0 -0.333,0 -0.667,0 -1,0 0.149,-1.052 -0.017,-2.052 -0.5,-3 -0.232,1.237 -0.732,2.237 -1.5,3 -0.667,-1 -1.333,-2 -2,-3 0.262,-5.15 1.595,-9.984 4,-14.5 5,-0.333 10,-0.667 15,-1 1.769,-5.369 3.435,-5.536 5,-0.5 5.333,0.667 10.667,1.333 16,2 2.574,7.272 4.241,14.772 5,22.5 -0.611,12.336 -2.277,24.503 -5,36.5 -3.79,-0.492 -4.456,0.341 -2,2.5 37.49,27.578 75.156,54.911 113,82 2.7,1.857 4.366,4.357 5,7.5 z"
     id="path998" />
  <g
     id="g1016">
    <path
       style="opacity:1"
       fill="#2e2d2c"
       d="M 798.5,364.5 C 805.153,366.823 811.153,370.156 816.5,374.5C 812.372,372.936 808.372,371.102 804.5,369C 802.253,367.723 800.253,366.223 798.5,364.5 Z"
       id="path1014" />
  </g>
  <g
     id="g1020">
    <path
       style="opacity:1"
       fill="#c9c9c9"
       d="M 844.5,365.5 C 847.198,365.845 849.198,367.178 850.5,369.5C 848.147,368.66 846.147,367.326 844.5,365.5 Z"
       id="path1018" />
  </g>
  <g
     id="g1040">
    <path
       style="opacity:1"
       fill="#f3f3f3"
       d="M 833.5,314.5 C 843.842,322.829 854.508,330.829 865.5,338.5C 866.95,341.93 865.95,344.263 862.5,345.5C 852.024,337.425 841.024,330.092 829.5,323.5C 829.18,320.102 829.513,316.768 830.5,313.5C 831.417,314.127 832.417,314.461 833.5,314.5 Z"
       id="path1038" />
  </g>
  <g
     id="g1048">
    <path
       style="opacity:1"
       fill="#555555"
       d="M 828.5,305.5 C 828.826,309.884 828.492,314.217 827.5,318.5C 826.571,317.45 825.905,317.45 825.5,318.5C 824.662,318.158 824.328,317.492 824.5,316.5C 825.323,313.023 825.823,309.356 826,305.5C 826.333,308.833 826.667,312.167 827,315.5C 827.179,311.975 827.679,308.641 828.5,305.5 Z"
       id="path1046" />
  </g>
  <g
     id="g1068">
    <path
       style="opacity:1"
       fill="#717171"
       d="M 843.5,304.5 C 839.167,305.167 834.833,305.833 830.5,306.5C 829.957,306.44 829.624,306.107 829.5,305.5C 834.12,304.507 838.786,304.173 843.5,304.5 Z"
       id="path1066" />
  </g>
  <g
     id="g1072">
    <path
       style="opacity:1"
       fill="#a8a8a8"
       d="M 822.5,306.5 C 822.639,304.663 823.306,304.33 824.5,305.5C 824.043,306.298 823.376,306.631 822.5,306.5 Z"
       id="path1070" />
  </g>
  <g
     id="g1104">
    <path
       style="opacity:1"
       fill="#b7b7b7"
       d="M 847.5,279.5 C 841.588,281.456 835.255,282.123 828.5,281.5C 834.412,279.544 840.745,278.877 847.5,279.5 Z"
       id="path1102" />
  </g>
  <g
     id="g1108">
    <path
       style="opacity:1"
       fill="#bbbbbb"
       d="M 807.5,279.5 C 831.5,280.167 831.5,280.833 807.5,281.5C 807.5,280.833 807.5,280.167 807.5,279.5 Z"
       id="path1106" />
  </g>
  <path
     fill="#181716"
     d="m 842.5,271.5 c 0.667,-1.333 1.333,-1.333 2,0 -0.329,2.728 0.337,5.062 2,7 0.667,0 1,0.333 1,1 -6.755,-0.623 -13.088,0.044 -19,2 -0.317,4.202 0.017,8.202 1,12 0,3.333 0,6.667 0,10 5,0 10,0 15,0 1.333,0.333 1.333,0.667 0,1 -0.333,0 -0.667,0 -1,0 -4.714,-0.327 -9.38,0.007 -14,1 0.124,0.607 0.457,0.94 1,1 -0.183,2.436 0.484,4.603 2,6.5 3.652,0.499 7.318,0.665 11,0.5 -3.125,0.979 -6.458,1.313 -10,1 -1.083,-0.039 -2.083,-0.373 -3,-1 -0.987,3.268 -1.32,6.602 -1,10 -1,0 -2,0 -3,0 0.067,-1.459 -0.266,-2.792 -1,-4 0,-0.333 0,-0.667 0,-1 0.405,-1.05 1.071,-1.05 2,0 0.992,-4.283 1.326,-8.616 1,-13 0.323,-3.726 -0.011,-7.393 -1,-11 -0.808,1.923 -1.308,3.923 -1.5,6 -0.464,-0.594 -0.631,-1.261 -0.5,-2 0,-5.333 0,-10.667 0,-16 -5.667,0 -11.333,0 -17,0 -0.667,0 -1,-0.333 -1,-1 24,-0.667 24,-1.333 0,-2 -1.268,-2.405 -1.935,-5.072 -2,-8 0.667,1 1.333,2 2,3 0.667,5.333 1.333,5.333 2,0 0.333,0 0.667,0 1,0 0,1.333 0,2.667 0,4 4,0 8,0 12,0 -0.237,-1.291 0.096,-2.291 1,-3 0.321,1.548 1.321,2.215 3,2 0,-2 0,-4 0,-6 0.968,2.107 1.302,4.441 1,7 1.291,0.237 2.291,-0.096 3,-1 0.934,-1.068 1.268,-2.401 1,-4 0.333,0 0.667,0 1,0 0,1.667 0,3.333 0,5 3.667,0 7.333,0 11,0 0.302,-2.559 -0.032,-4.893 -1,-7 z"
     id="path1110" />
  <g
     id="g1120">
    <path
       style="opacity:1"
       fill="#f0f1f1"
       d="M 831.5,273.5 C 831.768,275.099 831.434,276.432 830.5,277.5C 828.692,276.082 828.025,274.082 828.5,271.5C 830.179,271.285 831.179,271.952 831.5,273.5 Z"
       id="path1118" />
  </g>
  <g
     id="g1140">
    <path
       style="opacity:1"
       fill="#ebebec"
       d="M 826.5,271.5 C 826.5,273.5 826.5,275.5 826.5,277.5C 824.821,277.715 823.821,277.048 823.5,275.5C 823.67,274.178 823.337,273.011 822.5,272C 823.793,271.51 825.127,271.343 826.5,271.5 Z"
       id="path1138" />
  </g>
  <g
     id="g1224">
    <path
       style="opacity:1"
       fill="#302f2e"
       d="M 617.5,440.5 C 618.082,443.313 619.082,445.98 620.5,448.5C 620.082,457.68 619.416,466.847 618.5,476C 618.833,477.833 619.167,479.667 619.5,481.5C 645.849,506.35 672.349,531.017 699,555.5C 699.5,565.828 699.666,576.161 699.5,586.5C 669.863,582.891 640.197,579.558 610.5,576.5C 610.803,585.389 610.137,594.056 608.5,602.5C 607.694,601.272 606.694,600.272 605.5,599.5C 606.205,596.772 606.872,593.939 607.5,591C 606.906,590.536 606.239,590.369 605.5,590.5C 606.167,589.833 606.833,589.167 607.5,588.5C 607.664,585.813 607.497,583.146 607,580.5C 606.802,582.382 606.302,584.048 605.5,585.5C 605.5,584.833 605.167,584.5 604.5,584.5C 605.061,577.499 605.228,570.499 605,563.5C 603.311,569.182 602.144,574.849 601.5,580.5C 601.225,578.158 600.392,578.158 599,580.5C 597.893,579.288 597.393,579.621 597.5,581.5C 596.898,575.512 595.731,569.512 594,563.5C 593.481,571.846 593.648,580.179 594.5,588.5C 594.5,588.833 594.5,589.167 594.5,589.5C 593.212,592.7 593.212,596.033 594.5,599.5C 593.975,600.192 593.308,600.692 592.5,601C 593.814,601.985 594.814,603.152 595.5,604.5C 595.423,605.75 594.756,606.583 593.5,607C 596.206,607.601 598.206,609.101 599.5,611.5C 600.845,610.653 601.845,609.487 602.5,608C 603.5,607.667 604.5,607.333 605.5,607C 604.244,606.583 603.577,605.75 603.5,604.5C 604.158,603.602 604.824,602.602 605.5,601.5C 606.515,604.276 607.515,606.943 608.5,609.5C 609.069,615.199 608.069,620.532 605.5,625.5C 601.5,628.167 597.5,628.167 593.5,625.5C 592.965,623.339 592.132,621.339 591,619.5C 589.732,605.188 588.899,590.855 588.5,576.5C 558.797,579.473 529.13,582.806 499.5,586.5C 499.334,576.161 499.5,565.828 500,555.5C 526.635,531.2 552.968,506.533 579,481.5C 579.499,477.848 579.665,474.182 579.5,470.5C 579.997,475.049 580.997,479.549 582.5,484C 582.257,484.902 581.923,485.735 581.5,486.5C 576.833,491.833 571.833,496.833 566.5,501.5C 569.93,496.53 574.263,491.697 579.5,487C 578.833,486.333 578.167,486.333 577.5,487C 569.272,495.396 560.938,503.563 552.5,511.5C 551.833,511.5 551.5,511.833 551.5,512.5C 546.092,516.4 541.092,520.9 536.5,526C 537.167,526.667 537.833,526.667 538.5,526C 542.702,521.63 547.036,517.463 551.5,513.5C 556.924,514.786 562.59,515.452 568.5,515.5C 574.011,515.499 579.344,515.166 584.5,514.5C 584.5,513.833 584.5,513.167 584.5,512.5C 585.976,510.568 587.643,510.235 589.5,511.5C 588.5,511.5 587.5,511.5 586.5,511.5C 587.171,529.576 588.671,547.576 591,565.5C 591.5,558.174 591.666,550.841 591.5,543.5C 591.5,542.833 591.833,542.5 592.5,542.5C 592.335,546.182 592.501,549.848 593,553.5C 593.333,553.167 593.667,552.833 594,552.5C 594.333,535.833 594.667,519.167 595,502.5C 595.382,496.294 596.215,490.294 597.5,484.5C 597.343,485.873 597.51,487.207 598,488.5C 598.333,487.833 598.667,487.167 599,486.5C 599.838,487.999 600.671,488.332 601.5,487.5C 602.918,492.602 603.751,497.936 604,503.5C 604.333,520.167 604.667,536.833 605,553.5C 605.333,554.167 605.667,554.833 606,555.5C 606.405,542.825 606.905,530.159 607.5,517.5C 608.451,518.919 608.784,520.585 608.5,522.5C 607.813,536.83 607.647,551.164 608,565.5C 610.204,549.24 611.704,532.906 612.5,516.5C 612.833,516.5 613.167,516.5 613.5,516.5C 613.5,521.833 613.5,527.167 613.5,532.5C 622.504,533.6 631.504,533.6 640.5,532.5C 640.957,530.402 641.957,528.736 643.5,527.5C 643.414,529.677 642.747,531.677 641.5,533.5C 658.515,543.664 675.682,553.664 693,563.5C 693.891,560.502 693.391,557.836 691.5,555.5C 692.496,555.414 693.329,555.748 694,556.5C 695.333,591.167 696,591.167 696,556.5C 685.573,546.232 674.74,536.566 663.5,527.5C 658.443,521.441 652.776,516.107 646.5,511.5C 642.822,506.638 638.488,502.805 633.5,500C 637.37,503.702 641.037,507.536 644.5,511.5C 638.819,507.483 633.819,502.816 629.5,497.5C 630.239,497.631 630.906,497.464 631.5,497C 627.167,492.667 622.833,488.333 618.5,484C 616.239,483.793 615.905,484.626 617.5,486.5C 615.981,492.655 614.981,498.989 614.5,505.5C 614.167,505.5 613.833,505.5 613.5,505.5C 614.414,495.852 615.081,486.185 615.5,476.5C 614.167,476.5 612.833,476.5 611.5,476.5C 613.167,475.833 614.833,475.167 616.5,474.5C 616.5,468.833 616.5,463.167 616.5,457.5C 617.167,457.5 617.5,457.167 617.5,456.5C 617.5,451.167 617.5,445.833 617.5,440.5 Z"
       id="path1222" />
  </g>
  <g
     id="g1288">
    <path
       style="opacity:1"
       fill="#3a3a39"
       d="M 591.5,517.5 C 591.976,525.826 592.309,534.16 592.5,542.5C 591.833,542.5 591.5,542.833 591.5,543.5C 590.513,538.695 590.179,533.695 590.5,528.5C 590.185,524.629 590.518,520.962 591.5,517.5 Z"
       id="path1286" />
  </g>
  <g
     id="g1292">
    <path
       style="opacity:1"
       fill="#2f2f2e"
       d="M 556.5,535.5 C 541.823,545.176 526.49,553.843 510.5,561.5C 525.501,552.33 540.834,543.664 556.5,535.5 Z"
       id="path1290" />
  </g>
  <g
     id="g1376">
    <path
       style="opacity:1"
       fill="#80807f"
       d="M 609.5,511.5 C 610.568,510.566 611.901,510.232 613.5,510.5C 613.5,512.5 613.5,514.5 613.5,516.5C 613.167,516.5 612.833,516.5 612.5,516.5C 612.5,514.833 612.5,513.167 612.5,511.5C 611.5,511.5 610.5,511.5 609.5,511.5 Z"
       id="path1374" />
  </g>
  <g
     id="g1400">
    <path
       style="opacity:1"
       fill="#323130"
       d="M 617.5,486.5 C 622.105,489.436 626.105,493.102 629.5,497.5C 624.895,494.564 620.895,490.898 617.5,486.5 Z"
       id="path1398" />
  </g>
  <g
     id="g1432">
    <path
       style="opacity:1"
       fill="#a1a1a1"
       d="M 607.5,588.5 C 605.952,588.179 605.285,587.179 605.5,585.5C 606.302,584.048 606.802,582.382 607,580.5C 607.497,583.146 607.664,585.813 607.5,588.5 Z"
       id="path1430" />
  </g>
  <g
     id="g1436">
    <path
       style="opacity:1"
       fill="#171615"
       d="M 601.5,580.5 C 601.425,583.206 601.092,585.873 600.5,588.5C 601.833,588.5 603.167,588.5 604.5,588.5C 604.5,587.167 604.5,585.833 604.5,584.5C 605.167,584.5 605.5,584.833 605.5,585.5C 605.285,587.179 605.952,588.179 607.5,588.5C 606.833,589.167 606.167,589.833 605.5,590.5C 605.5,593.5 605.5,596.5 605.5,599.5C 606.694,600.272 607.694,601.272 608.5,602.5C 608.5,604.833 608.5,607.167 608.5,609.5C 607.515,606.943 606.515,604.276 605.5,601.5C 604.824,602.602 604.158,603.602 603.5,604.5C 600.833,604.5 598.167,604.5 595.5,604.5C 594.814,603.152 593.814,601.985 592.5,601C 593.308,600.692 593.975,600.192 594.5,599.5C 593.212,596.033 593.212,592.7 594.5,589.5C 594.5,589.167 594.5,588.833 594.5,588.5C 595.833,588.5 597.167,588.5 598.5,588.5C 598.326,586.139 597.993,583.806 597.5,581.5C 597.393,579.621 597.893,579.288 599,580.5C 600.392,578.158 601.225,578.158 601.5,580.5 Z"
       id="path1434" />
  </g>
</svg>
