<?xml version="1.0" encoding="UTF-8" standalone="no"?>
<svg
   version="1.1"
   width="1200px"
   height="630px"
   style="shape-rendering:geometricPrecision; text-rendering:geometricPrecision; image-rendering:optimizeQuality; fill-rule:evenodd; clip-rule:evenodd"
   id="svg1478"
   sodipodi:docname="B52.svg"
   inkscape:version="1.2.2 (b0a84865, 2022-12-01)"
   xmlns:inkscape="http://www.inkscape.org/namespaces/inkscape"
   xmlns:sodipodi="http://sodipodi.sourceforge.net/DTD/sodipodi-0.dtd"
   xmlns="http://www.w3.org/2000/svg"
   xmlns:svg="http://www.w3.org/2000/svg">
  <defs
     id="defs1482" />
  <sodipodi:namedview
     id="namedview1480"
     pagecolor="#ffffff"
     bordercolor="#000000"
     borderopacity="0.25"
     inkscape:showpageshadow="2"
     inkscape:pageopacity="0.0"
     inkscape:pagecheckerboard="0"
     inkscape:deskcolor="#d1d1d1"
     showgrid="false"
     inkscape:zoom="4.2381511"
     inkscape:cx="454.2075"
     inkscape:cy="273.58628"
     inkscape:window-width="1941"
     inkscape:window-height="927"
     inkscape:window-x="59"
     inkscape:window-y="44"
     inkscape:window-maximized="0"
     inkscape:current-layer="svg1478" />
  <g
     id="g188"
     style="fill:#513330;fill-opacity:1">
    <path
       style="opacity:1;fill:#282751;fill-opacity:1;stroke:#00d300;stroke-opacity:1"
       d="m 577.5,37.5 c -0.155,-4.7237 1.678,-8.3904 5.5,-11 1.031,-10.3571 5.531,-18.85714 13.5,-25.5 2,-0.666667 4,-0.666667 6,0 7.922,6.67382 12.588,15.1738 14,25.5 3.388,2.8091 5.054,6.4758 5,11 -0.808,5.9739 -1.141,11.9739 -0.95829,18.500529 2.03167,7.42976 0.004,11.57753 0.95829,18.499471 v 2 c 0.167,23.0024 0,46.002 -0.5,69 -52.64275,0.51916 -43.87936,-5.33038 -43.5,-66 -0.267,-7.7223 -0.60137,-8.13132 0.33263,-15.74232 0.27088,-3.732176 0.2726,-1.741451 0.66658,-6.751324 C 578.654,50.1409 578.321,43.8076 577.5,37.5 Z"
       id="path186"
       sodipodi:nodetypes="cccccccccccccc" />
  </g>
  <g
     id="g504" />
  <path
     fill="#343330"
     d="m 804.3321,281.84428 c 0.262,-5.15 2.7629,-20.32828 5.1679,-24.84428 5,-0.333 10,-0.667 15,-1 1.769,-5.369 3.435,-5.536 5,-0.5 5.333,0.667 10.667,1.333 16,2 2.574,7.272 4.241,14.772 5,22.5 -0.611,12.336 -2.277,24.503 -5,36.5 -3.79,-0.492 -4.456,0.341 -2,2.5 37.49,27.578 75.156,54.911 113,82 2.7,1.857 4.366,4.357 5,7.5 0.33,16.175 -0.004,32.175 -1,48 -40.306,-22.154 -80.64,-44.321 -121,-66.5 -5.667,-0.333 -11.333,-0.667 -17,-1 C 758.605,354.554 695.90274,320.62295 631.79774,286.73595 629.14983,284.72095 625.824,282.818 623,281.5 c -0.5,46.999 -0.667,93.999 -0.5,141 -0.494,6.492 -1.161,16.16186 -4.33581,20.50159 1.09698,-24.93326 0.41042,-32.01644 1.33581,-58.99576 v -7.83634 c 0.0972,-2.78968 0.21844,-6.50297 0,-9.83951 0.674,-30.569 1.341,-58.06598 2,-88.82998 -14.16108,-37.31631 33.7001,-17.98185 -3.08275,-72.54107 -0.342,-0.838 1.69952,-30.27793 1.20805,-32.02462 -1.12002,-2.5449 -0.1885,-14.29075 -0.83316,-17.17532 0.809,-1.792 -0.19259,-8.29677 -0.002,-10.50477 0.5,-22.998 2.16859,-40.32493 2.00159,-63.327325 h 4.1e-4 c 0.667,27.169995 1.333,54.502995 2,81.999995 24.078,17.789 48.245,35.456 72.5,53 -0.964,-11.228 0.369,-22.228 4,-33 5.407,-0.973 10.907,-1.307 16.5,-1 1.336,-6.202 3.002,-6.369 5,-0.5 5,0.333 10,0.667 15,1 2.76,7.042 4.426,14.375 5,22 -0.12,12.36 -1.62,24.527 -4.5,36.5 -1.399,0.727 -2.899,1.227 -4.5,1.5 21.70236,15.55935 43.29157,31.2747 64.76763,47.14603 2.41222,1.78269 4.82301,3.56735 7.39827,4.30207 0.085,-8.44651 0.1589,-8.60404 0.37406,-13.03071 z"
     id="path998"
     sodipodi:nodetypes="ccccccccccccccccccccccccccccccccccccscc"
     style="fill:#3a3936;fill-opacity:1;stroke:#00d300;stroke-opacity:1" />
  <g
     id="g688">
    <path
       style="opacity:1;fill:#3d3b37;fill-opacity:1;stroke:#00d300;stroke-width:0.6;stroke-dasharray:none;stroke-opacity:1"
       d="M 589.56165,277.08429 C 590.38565,326.45829 578.657,377.208 577.5,426.5 c -0.951,-1.419 -1.284,-3.085 -1,-5 0.167,-46.668 0,-93.335 -0.5,-140 -3.644,1.901 -7.144,3.901 -10.5,6 -62.973,33.821 -125.973,67.654 -189,101.5 -6,0.333 -12,0.667 -18,1 -39.839,22.42 -79.839,44.587 -120,66.5 -0.333,-8.333 -0.667,-16.667 -1,-25 -0.14,-9.096 0.36,-18.096 1.5,-27 39.411,-29.289 78.911,-58.455 118.5,-87.5 -3.493,-0.165 -5.326,-1.998 -5.5,-5.5 -1.65,-10.279 -2.816,-20.612 -3.5,-31 0.705,-7.905 2.372,-15.572 5,-23 5.333,-0.667 10.667,-1.333 16,-2 1.565,-5.036 3.231,-4.869 5,0.5 5,0.333 10,0.667 15,1 4.709,9.694 6.042,19.861 4,30.5 0.333,1 0.667,2 1,3 23.667,-17.333 47.333,-34.667 71,-52 -1.128,-0.762 -2.295,-1.429 -3.5,-2 -1.472,-4.223 -2.23605,-12.33223 -2.76405,-16.77523 -1.07885,-7.842 -0.92461,-10.26711 -1.59044,-17.10315 l 0.85442,-9.35175 c 0.95924,-5.02655 2.098,-10.5958 4,-15.2698 5,-0.333 10,-0.667 15,-1 1.487,-5.584 3.153,-5.751 5,-0.5 5.333,0.667 10.667,1.333 16,2 2.098,5.491 4.16472,15.40192 4.23298,16.13839 0.0894,0.96395 -0.21786,-0.87987 -0.12889,1.96197 -0.39274,3.70101 -0.47371,7.62159 -0.33997,11.16362 0.473,2.825 2.04195,3.39395 4.23595,1.23595 22.86,-17.027 45.86,-33.86 69,-50.5 0.667,-26.497 1.333,-52.83 2,-79 -0.167,24.669 2.6695,41.82805 2.16844,66.6589 7.97741,30.64928 -2.1327,48.13303 -4.36576,66.33719 -1.12542,9.17453 -0.87907,28.98673 14.25897,64.5882 z"
       id="path686"
       sodipodi:nodetypes="ccccccccccccccccccccccccccccsccccccsc" />
  </g>
  <g
     id="g232">
    <path
       style="opacity:1"
       fill="#504e4b"
       d="M 620.5,55.5 C 621.49,61.6446 621.823,67.9779 621.5,74.5C 620.691,76.2922 620.191,78.2922 620,80.5C 619.975,72.1764 620.141,63.8431 620.5,55.5 Z"
       id="path230" />
  </g>
  <g
     id="g236" />
  <g
     id="g268" />
  <g
     id="g336" />
  <g
     id="g388" />
  <g
     id="g456" />
  <g
     id="g476" />
  <g
     id="g528" />
  <g
     id="g624" />
  <g
     id="g844" />
  <g
     id="g876" />
  <g
     id="g1016">
    <path
       style="opacity:1"
       fill="#2e2d2c"
       d="M 798.5,364.5 C 805.153,366.823 811.153,370.156 816.5,374.5C 812.372,372.936 808.372,371.102 804.5,369C 802.253,367.723 800.253,366.223 798.5,364.5 Z"
       id="path1014" />
  </g>
  <g
     id="g1020" />
  <g
     id="g1068" />
  <g
     id="g1072" />
  <g
     id="g1224">
    <path
       style="opacity:1;fill:#302f2e;stroke:#bbd300;stroke-opacity:1;fill-opacity:1"
       fill="#302f2e"
       d="m 618.5,476 c 0.333,1.833 0.667,3.667 1,5.5 26.349,24.85 52.849,49.517 79.5,74 0.5,10.328 0.666,20.661 0.5,31 -29.637,-3.609 -59.303,-6.942 -89,-10 -0.36909,14.77754 -0.87841,27.52579 -2.23597,42.90999 -1.62291,3.45746 -0.30931,1.12201 -2.76404,6.09001 -4,2.667 -8,2.667 -12,0 -0.535,-2.161 -1.368,-4.161 -2.5,-6 -1.268,-14.312 -2.101,-28.645 -2.5,-43 -29.703,2.973 -59.37,6.306 -89,10 -0.166,-10.339 0,-20.672 0.5,-31 26.635,-24.3 52.968,-48.967 79,-74 0.499,-3.652 0.49816,-12.49014 0.35759,-17.00738 -0.71657,-15.49823 -2.43249,-22.82209 -3.02549,-37.49209 1.157,-49.292 2.24164,-99.62706 1.41764,-149.00106 -0.977,1.274 -1.56074,1.77453 -2.24974,0.50053 13.34408,-0.68312 23.11956,-3.02518 36.49205,-1.98437 4.12413,3.21646 6.06735,1.03047 9.50795,0.98437 h 10e-6 c 0.0918,5.73752 0.95603,120.22892 0.15166,152.78233 C 621.1033,441.44674 619.416,466.847 618.5,476 Z"
       id="path1222"
       sodipodi:nodetypes="cccccccccccccccccccccc" />
  </g>
  <g
     id="g1288" />
  <g
     id="g1292">
    <path
       style="opacity:1"
       fill="#2f2f2e"
       d="M 556.5,535.5 C 541.823,545.176 526.49,553.843 510.5,561.5C 525.501,552.33 540.834,543.664 556.5,535.5 Z"
       id="path1290" />
  </g>
  <g
     id="g1376" />
  <g
     id="g1436" />
</svg>
