<?xml version="1.0" encoding="UTF-8" standalone="no"?>
<svg
   version="1.1"
   width="1809px"
   height="1052px"
   style="shape-rendering:geometricPrecision; text-rendering:geometricPrecision; image-rendering:optimizeQuality; fill-rule:evenodd; clip-rule:evenodd"
   id="svg6422"
   sodipodi:docname="F-111B.svg"
   inkscape:version="1.2.2 (b0a84865, 2022-12-01)"
   xmlns:inkscape="http://www.inkscape.org/namespaces/inkscape"
   xmlns:sodipodi="http://sodipodi.sourceforge.net/DTD/sodipodi-0.dtd"
   xmlns="http://www.w3.org/2000/svg"
   xmlns:svg="http://www.w3.org/2000/svg">
  <defs
     id="defs6426" />
  <sodipodi:namedview
     id="namedview6424"
     pagecolor="#ffffff"
     bordercolor="#000000"
     borderopacity="0.25"
     inkscape:showpageshadow="2"
     inkscape:pageopacity="0.0"
     inkscape:pagecheckerboard="0"
     inkscape:deskcolor="#d1d1d1"
     showgrid="false"
     inkscape:zoom="1.7946768"
     inkscape:cx="237.36864"
     inkscape:cy="644.96292"
     inkscape:window-width="1928"
     inkscape:window-height="813"
     inkscape:window-x="0"
     inkscape:window-y="44"
     inkscape:window-maximized="0"
     inkscape:current-layer="svg6422" />
  <g
     id="g188">
    <path
       style="opacity:1"
       fill="#cdcdcd"
       d="M 406.5,73.5 C 396.866,72.608 387.199,72.2747 377.5,72.5C 381.445,71.1745 385.778,70.5079 390.5,70.5C 394.833,70.6667 399.167,70.8333 403.5,71C 404.942,71.3768 405.942,72.2101 406.5,73.5 Z"
       id="path186" />
  </g>
  <g
     id="g192">
    <path
       style="opacity:1"
       fill="#5c5c5c"
       d="M 377.5,73.5 C 377.5,73.1667 377.5,72.8333 377.5,72.5C 387.199,72.2747 396.866,72.608 406.5,73.5C 408.5,75.1667 410.5,76.8333 412.5,78.5C 410.863,77.7822 409.197,77.6155 407.5,78C 408.252,78.6708 408.586,79.5041 408.5,80.5C 405.99,80.0733 403.657,79.4067 401.5,78.5C 401.5,78.1667 401.5,77.8333 401.5,77.5C 402.978,77.762 404.311,77.4287 405.5,76.5C 405.291,75.914 404.957,75.414 404.5,75C 395.546,73.7356 386.546,73.2356 377.5,73.5 Z"
       id="path190" />
  </g>
  <g
     id="g196">
    <path
       style="opacity:1"
       fill="#323232"
       d="M 377.5,74.5 C 377.5,74.1667 377.5,73.8333 377.5,73.5C 386.546,73.2356 395.546,73.7356 404.5,75C 404.957,75.414 405.291,75.914 405.5,76.5C 404.311,77.4287 402.978,77.762 401.5,77.5C 396.5,77.5 391.5,77.5 386.5,77.5C 389.577,76.144 392.91,75.3106 396.5,75C 390.175,74.5005 383.842,74.3338 377.5,74.5 Z"
       id="path194" />
  </g>
  <g
     id="g204">
    <path
       style="opacity:1"
       fill="#9e9e9e"
       d="M 414.5,79.5 C 417.833,80.8333 420.167,83.1667 421.5,86.5C 418.833,84.5 416.5,82.1667 414.5,79.5 Z"
       id="path202" />
  </g>
  <g
     id="g208">
    <path
       style="opacity:1"
       fill="#888888"
       d="M 377.5,73.5 C 377.5,73.8333 377.5,74.1667 377.5,74.5C 376.508,82.3159 376.174,90.3159 376.5,98.5C 376.167,98.5 375.833,98.5 375.5,98.5C 374.865,89.7663 375.532,81.4329 377.5,73.5 Z"
       id="path206" />
  </g>
  <g
     id="g212">
    <path
       style="opacity:1"
       fill="#373737"
       d="M 412.5,78.5 C 412.842,79.3382 413.508,79.6716 414.5,79.5C 416.5,82.1667 418.833,84.5 421.5,86.5C 424.584,92.0642 426.917,98.0642 428.5,104.5C 428.5,105.167 428.5,105.833 428.5,106.5C 426.734,102.715 425.234,98.7152 424,94.5C 423.51,95.7932 423.343,97.1266 423.5,98.5C 419.851,95.9389 416.351,96.2722 413,99.5C 412.667,100.833 412.333,102.167 412,103.5C 411.617,102.944 411.117,102.611 410.5,102.5C 408.765,99.1611 409.432,96.4944 412.5,94.5C 414.806,94.0074 417.139,93.6741 419.5,93.5C 419.5,89.8254 417.833,87.1587 414.5,85.5C 411.911,84.5806 409.911,82.914 408.5,80.5C 408.586,79.5041 408.252,78.6708 407.5,78C 409.197,77.6155 410.863,77.7822 412.5,78.5 Z"
       id="path210" />
  </g>
  <g
     id="g216">
    <path
       style="opacity:1"
       fill="#b0b0b0"
       d="M 414.5,85.5 C 417.833,87.1587 419.5,89.8254 419.5,93.5C 417.139,93.6741 414.806,94.0074 412.5,94.5C 413.78,93.0687 415.447,92.4021 417.5,92.5C 416.957,89.9616 415.957,87.6282 414.5,85.5 Z"
       id="path214" />
  </g>
  <g
     id="g240">
    <path
       style="opacity:1"
       fill="#3f3f3f"
       d="M 384.5,86.5 C 383.842,85.6016 383.176,84.6016 382.5,83.5C 381.893,83.6236 381.56,83.9569 381.5,84.5C 380.505,97.3226 380.171,110.323 380.5,123.5C 379.339,110.006 379.173,96.3396 380,82.5C 383.669,80.9907 385.169,82.3241 384.5,86.5 Z"
       id="path238" />
  </g>
  <g
     id="g244">
    <path
       style="opacity:1"
       fill="#bebebe"
       d="M 428.5,104.5 C 432.867,114.286 435.867,124.62 437.5,135.5C 434.655,125.787 431.655,116.12 428.5,106.5C 428.5,105.833 428.5,105.167 428.5,104.5 Z"
       id="path242" />
  </g>
  <g
     id="g248">
    <path
       style="opacity:1"
       fill="#989898"
       d="M 424.5,105.5 C 426.31,108.145 427.31,111.145 427.5,114.5C 425.528,111.916 424.528,108.916 424.5,105.5 Z"
       id="path246" />
  </g>
  <g
     id="g264">
    <path
       style="opacity:1"
       fill="#1d1d1d"
       d="M 377.5,74.5 C 383.842,74.3338 390.175,74.5005 396.5,75C 392.91,75.3106 389.577,76.144 386.5,77.5C 386.5,81.1667 386.5,84.8333 386.5,88.5C 386.665,91.8499 386.498,95.1832 386,98.5C 385.819,95.3054 385.319,92.3054 384.5,89.5C 384.5,88.5 384.5,87.5 384.5,86.5C 385.169,82.3241 383.669,80.9907 380,82.5C 379.173,96.3396 379.339,110.006 380.5,123.5C 380.17,141.008 380.503,158.341 381.5,175.5C 381.174,183.684 381.508,191.684 382.5,199.5C 382.5,199.833 382.5,200.167 382.5,200.5C 382.5,201.833 382.5,203.167 382.5,204.5C 381.427,219.334 381.427,234.334 382.5,249.5C 382.167,253.833 381.833,258.167 381.5,262.5C 380.346,264.856 379.013,265.023 377.5,263C 378.823,262.184 379.489,261.017 379.5,259.5C 379.823,252.978 379.49,246.645 378.5,240.5C 376.974,238.87 374.974,238.037 372.5,238C 375.051,237.998 377.051,237.164 378.5,235.5C 378.5,220.5 378.5,205.5 378.5,190.5C 378.211,168.329 377.545,146.329 376.5,124.5C 376.5,115.833 376.5,107.167 376.5,98.5C 376.174,90.3159 376.508,82.3159 377.5,74.5 Z"
       id="path262" />
  </g>
  <g
     id="g272">
    <path
       style="opacity:1"
       fill="#979797"
       d="M 433.5,137.5 C 435.074,139.102 435.741,141.102 435.5,143.5C 433.926,141.898 433.259,139.898 433.5,137.5 Z"
       id="path270" />
  </g>
  <g
     id="g280">
    <path
       style="opacity:1"
       fill="#252525"
       d="M 428.5,106.5 C 431.655,116.12 434.655,125.787 437.5,135.5C 437.858,138.267 438.525,140.933 439.5,143.5C 439.663,145.857 439.497,148.19 439,150.5C 438.722,149.584 438.222,148.918 437.5,148.5C 436.976,146.694 436.309,145.028 435.5,143.5C 435.741,141.102 435.074,139.102 433.5,137.5C 433.5,136.5 433.5,135.5 433.5,134.5C 432.5,134.5 431.5,134.5 430.5,134.5C 430.5,133.5 430.5,132.5 430.5,131.5C 430.665,128.482 430.498,125.482 430,122.5C 428.409,120.073 427.575,117.407 427.5,114.5C 427.31,111.145 426.31,108.145 424.5,105.5C 424.326,103.139 423.993,100.806 423.5,98.5C 423.343,97.1266 423.51,95.7932 424,94.5C 425.234,98.7152 426.734,102.715 428.5,106.5 Z"
       id="path278" />
  </g>
  <g
     id="g288">
    <path
       style="opacity:1"
       fill="#dedede"
       d="M 375.5,98.5 C 375.833,98.5 376.167,98.5 376.5,98.5C 376.5,107.167 376.5,115.833 376.5,124.5C 376.193,146.689 376.86,168.689 378.5,190.5C 378.5,205.5 378.5,220.5 378.5,235.5C 376.473,235.338 374.473,235.505 372.5,236C 371.663,237.011 371.33,238.178 371.5,239.5C 370.199,238.116 370.199,236.616 371.5,235C 373.473,234.505 375.473,234.338 377.5,234.5C 375.967,189.185 375.3,143.851 375.5,98.5 Z"
       id="path286" />
  </g>
  <g
     id="g292">
    <path
       style="opacity:1"
       fill="#525252"
       d="M 439.5,143.5 C 441.435,147.895 442.769,152.562 443.5,157.5C 442.625,155.432 441.459,153.432 440,151.5C 439.517,152.448 439.351,153.448 439.5,154.5C 437.926,152.898 437.259,150.898 437.5,148.5C 438.222,148.918 438.722,149.584 439,150.5C 439.497,148.19 439.663,145.857 439.5,143.5 Z"
       id="path290" />
  </g>
  <g
     id="g300">
    <path
       style="opacity:1"
       fill="#989898"
       d="M 376.5,124.5 C 377.545,146.329 378.211,168.329 378.5,190.5C 376.86,168.689 376.193,146.689 376.5,124.5 Z"
       id="path298" />
  </g>
  <g
     id="g304">
    <path
       style="opacity:1"
       fill="#747474"
       d="M 443.5,158.5 C 445.483,161.799 446.483,165.466 446.5,169.5C 444.926,166.093 443.926,162.427 443.5,158.5 Z"
       id="path302" />
  </g>
  <g
     id="g308">
    <path
       style="opacity:1"
       fill="#909090"
       d="M 439.5,159.5 C 441.655,161.617 442.655,164.284 442.5,167.5C 441.883,167.389 441.383,167.056 441,166.5C 440.56,164.134 440.06,161.801 439.5,159.5 Z"
       id="path306" />
  </g>
  <g
     id="g316">
    <path
       style="opacity:1"
       fill="#202020"
       d="M 443.5,157.5 C 443.5,157.833 443.5,158.167 443.5,158.5C 443.926,162.427 444.926,166.093 446.5,169.5C 447.135,172.493 447.301,175.493 447,178.5C 445.541,176.568 444.375,174.568 443.5,172.5C 443.634,170.708 443.301,169.042 442.5,167.5C 442.655,164.284 441.655,161.617 439.5,159.5C 439.5,157.833 439.5,156.167 439.5,154.5C 439.351,153.448 439.517,152.448 440,151.5C 441.459,153.432 442.625,155.432 443.5,157.5 Z"
       id="path314" />
  </g>
  <g
     id="g320">
    <path
       style="opacity:1"
       fill="#515151"
       d="M 446.5,169.5 C 448.435,173.895 449.769,178.562 450.5,183.5C 448.705,178.641 447.705,178.641 447.5,183.5C 445.16,180.289 443.826,176.622 443.5,172.5C 444.375,174.568 445.541,176.568 447,178.5C 447.301,175.493 447.135,172.493 446.5,169.5 Z"
       id="path318" />
  </g>
  <g
     id="g328">
    <path
       style="opacity:1"
       fill="#a8a8a8"
       d="M 451.5,186.5 C 454.534,191.616 456.2,197.282 456.5,203.5C 454.666,197.988 453,192.321 451.5,186.5 Z"
       id="path326" />
  </g>
  <g
     id="g348">
    <path
       style="opacity:1"
       fill="#9c9c9c"
       d="M 457.5,208.5 C 459.862,210.919 460.862,213.919 460.5,217.5C 459.331,214.659 458.331,211.659 457.5,208.5 Z"
       id="path346" />
  </g>
  <g
     id="g352">
    <path
       style="opacity:1"
       fill="#989898"
       d="M 382.5,204.5 C 386.329,203.931 389.663,204.598 392.5,206.5C 389.609,205.597 386.609,205.264 383.5,205.5C 383.5,215.5 383.5,225.5 383.5,235.5C 382.506,225.347 382.172,215.014 382.5,204.5 Z"
       id="path350" />
  </g>
  <g
     id="g528">
    <path
       style="opacity:1"
       fill="#404040"
       d="M 382.5,204.5 C 382.172,215.014 382.506,225.347 383.5,235.5C 383.5,248.167 383.5,260.833 383.5,273.5C 382.834,270.972 382.168,268.306 381.5,265.5C 380.501,276.146 380.168,286.813 380.5,297.5C 379.67,287.341 379.17,277.008 379,266.5C 376.001,264.956 372.834,263.789 369.5,263C 368.62,261.644 368.286,260.144 368.5,258.5C 370.167,258.5 371.833,258.5 373.5,258.5C 375.208,260.512 377.208,260.846 379.5,259.5C 379.489,261.017 378.823,262.184 377.5,263C 379.013,265.023 380.346,264.856 381.5,262.5C 381.833,258.167 382.167,253.833 382.5,249.5C 381.427,234.334 381.427,219.334 382.5,204.5 Z"
       id="path526" />
  </g>
  <g
     id="g672">
    <path
       style="opacity:1"
       fill="#282828"
       d="m 450.5,183.5 c 0.61,0.891 0.943,1.891 1,3 1.5,5.821 3.166,11.488 5,17 0.801,1.542 1.134,3.208 1,5 0.831,3.159 1.831,6.159 3,9 2.852,9.878 3.62319,13.97197 6.77119,23.42797 0.79337,2.51331 1.21127,5.46352 1.95021,8.43273 -0.284,1.915 0.3276,3.7203 1.2786,5.1393 2.011,7.044 3.4815,11.11868 5.8035,18.07468 1.31401,3.64478 1.82536,6.75775 2.7786,9.48252 2.201,11.472 5.4529,22.2478 8.9179,33.4428 0.383,0.556 0.883,0.889 1.5,1 0.763,0.768 1.763,1.268 3,1.5 -2.761,1.705 -3.427,3.871 -2,6.5 0.164,2.687 -0.003,5.354 -0.5,8 -0.21,-1.558 -0.71,-2.891 -1.5,-4 -0.823,-2.487 -1.823,-4.821 -3,-7 -0.753,-6.358 -2.42,-12.358 -5,-18 -3.319,-12.278 -6.6253,-26.83981 -9.5,-37 -1.02377,-3.04851 -3.18817,-10.42866 -5.5,-17 -1.317,-2.953 -2.317,-5.953 -3,-9 -2.742,-13.641 -5.57319,-26.13919 -10.16419,-39.16419 -1.26877,-5.05436 -2.88269,-8.90418 -4.83581,-17.83581 0.205,-4.859 1.205,-4.859 3,0 z"
       id="path670"
       sodipodi:nodetypes="cccccccccccccccccccccccc" />
  </g>
  <g
     id="g724">
    <path
       style="opacity:1"
       fill="#1e1e1e"
       d="M 383.5,273.5 C 383.5,275.167 383.5,276.833 383.5,278.5C 383.175,285.687 383.509,292.687 384.5,299.5C 384.5,305.833 384.5,312.167 384.5,318.5C 384.189,330.247 384.522,341.914 385.5,353.5C 385.5,354.5 385.5,355.5 385.5,356.5C 385.972,381.166 386.472,405.832 387,430.5C 387.383,431.056 387.883,431.389 388.5,431.5C 388.694,433.912 390.027,434.912 392.5,434.5C 392.663,436.857 392.497,439.19 392,441.5C 391.617,440.944 391.117,440.611 390.5,440.5C 388.209,436.217 385.543,432.217 382.5,428.5C 382.829,413.657 382.496,398.99 381.5,384.5C 381.423,383.25 380.756,382.417 379.5,382C 380.756,381.583 381.423,380.75 381.5,379.5C 381.5,379.167 381.5,378.833 381.5,378.5C 382.164,375.854 382.498,373.021 382.5,370C 382.014,356.665 381.347,343.499 380.5,330.5C 380.5,319.5 380.5,308.5 380.5,297.5C 380.168,286.813 380.501,276.146 381.5,265.5C 382.168,268.306 382.834,270.972 383.5,273.5 Z"
       id="path722" />
  </g>
  <g
     id="g736" />
  <g
     id="g960" />
  <g
     id="g1044">
    <path
       style="opacity:1"
       fill="#454545"
       d="M 490.5,324.5 C 491.161,328.817 493.161,332.484 496.5,335.5C 495.386,339.491 495.386,343.491 496.5,347.5C 495.041,343.414 494.041,339.08 493.5,334.5C 492.131,336.764 491.131,339.097 490.5,341.5C 490.201,339.027 489.201,336.86 487.5,335C 488.287,332.901 488.62,330.734 488.5,328.5C 489.29,329.609 489.79,330.942 490,332.5C 490.497,329.854 490.664,327.187 490.5,324.5 Z"
       id="path1042" />
  </g>
  <g
     id="g1192">
    <path
       style="opacity:1"
       fill="#373737"
       d="M 124.5,340.5 C 126.167,341.167 127.833,341.833 129.5,342.5C 131.36,343.939 133.027,345.605 134.5,347.5C 132.269,346.376 129.936,345.876 127.5,346C 129.037,347.11 129.703,348.61 129.5,350.5C 131.179,350.285 132.179,350.952 132.5,352.5C 131.167,352.167 129.833,351.833 128.5,351.5C 125.122,352.109 123.122,350.776 122.5,347.5C 127.005,346.498 127.672,344.165 124.5,340.5 Z"
       id="path1190" />
  </g>
  <g
     id="g1220">
    <path
       style="opacity:1"
       fill="#8c8c8c"
       d="M 380.5,330.5 C 381.347,343.499 382.014,356.665 382.5,370C 382.498,373.021 382.164,375.854 381.5,378.5C 380.803,362.51 380.47,346.51 380.5,330.5 Z"
       id="path1218" />
  </g>
  <g
     id="g1248">
    <path
       style="opacity:1"
       fill="#a6a6a6"
       d="M 129.5,342.5 C 130.873,342.343 132.207,342.51 133.5,343C 135.638,345.908 137.972,348.408 140.5,350.5C 138.216,350.025 136.216,349.025 134.5,347.5C 133.027,345.605 131.36,343.939 129.5,342.5 Z"
       id="path1246" />
  </g>
  <g
     id="g1296">
    <path
       style="opacity:1"
       fill="#9f9f9f"
       d="M 140.5,350.5 C 141.873,350.343 143.207,350.51 144.5,351C 146.657,352.912 148.991,354.579 151.5,356C 153.141,357.129 154.141,358.629 154.5,360.5C 149.478,357.656 144.811,354.323 140.5,350.5 Z"
       id="path1294" />
  </g>
  <g
     id="g1352">
    <path
       style="opacity:1"
       fill="#909090"
       d="M 123.5,325.5 C 121.598,329.637 119.431,333.637 117,337.5C 105.619,351.213 94.6187,365.213 84,379.5C 83.6432,383.51 83.8099,387.51 84.5,391.5C 84.5,392.5 84.5,393.5 84.5,394.5C 83.8763,392.166 83.043,389.833 82,387.5C 81.3333,384.833 81.3333,382.167 82,379.5C 96.108,361.578 109.941,343.578 123.5,325.5 Z"
       id="path1350" />
  </g>
  <g
     id="g1384">
    <path
       style="opacity:1"
       fill="#1d1d1d"
       d="M 134.5,347.5 C 136.216,349.025 138.216,350.025 140.5,350.5C 144.811,354.323 149.478,357.656 154.5,360.5C 158.392,362.376 162.059,364.709 165.5,367.5C 165.539,368.583 165.873,369.583 166.5,370.5C 168.423,371.308 170.423,371.808 172.5,372C 175.065,374.08 177.732,375.913 180.5,377.5C 185.833,380.5 191.167,383.5 196.5,386.5C 198.433,388.273 199.766,390.439 200.5,393C 202.134,393.494 203.801,393.66 205.5,393.5C 206.609,393.557 207.609,393.89 208.5,394.5C 210.081,396.142 210.747,398.142 210.5,400.5C 212.857,400.337 215.19,400.503 217.5,401C 218.056,401.383 218.389,401.883 218.5,402.5C 219.519,404.54 219.519,406.54 218.5,408.5C 213.766,406.754 210.433,403.754 208.5,399.5C 205.833,399.167 203.167,398.833 200.5,398.5C 199.71,397.206 198.71,396.039 197.5,395C 194.833,393.667 192.167,392.333 189.5,391C 186.288,387.228 182.288,384.728 177.5,383.5C 176.833,382.833 176.167,382.167 175.5,381.5C 173.212,378.544 170.212,376.877 166.5,376.5C 159.704,371.225 152.704,366.059 145.5,361C 144.207,360.51 142.873,360.343 141.5,360.5C 138.5,357.833 135.5,355.167 132.5,352.5C 132.179,350.952 131.179,350.285 129.5,350.5C 129.703,348.61 129.037,347.11 127.5,346C 129.936,345.876 132.269,346.376 134.5,347.5 Z"
       id="path1382" />
  </g>
  <g
     id="g1456">
    <path
       style="opacity:1"
       fill="#242424"
       d="M 496.5,347.5 C 500.203,358.621 503.537,369.954 506.5,381.5C 506.662,383.527 506.495,385.527 506,387.5C 504.918,385.382 503.751,383.382 502.5,381.5C 501.568,374.094 499.568,367.094 496.5,360.5C 496.077,355.46 494.744,350.793 492.5,346.5C 491.77,344.955 490.437,344.122 488.5,344C 489.756,343.583 490.423,342.75 490.5,341.5C 491.131,339.097 492.131,336.764 493.5,334.5C 494.041,339.08 495.041,343.414 496.5,347.5 Z"
       id="path1454" />
  </g>
  <g
     id="g1500">
    <path
       style="opacity:1"
       fill="#9c9c9c"
       d="M 165.5,367.5 C 172.064,368.382 177.064,371.716 180.5,377.5C 177.732,375.913 175.065,374.08 172.5,372C 170.423,371.808 168.423,371.308 166.5,370.5C 165.873,369.583 165.539,368.583 165.5,367.5 Z"
       id="path1498" />
  </g>
  <g
     id="g1624">
    <path
       style="opacity:1"
       fill="#212121"
       d="m 122,333.5 c -0.667,2 -0.667,4 0,6 0.671,0.752 1.504,1.086 2.5,1 3.172,3.665 2.505,5.998 -2,7 h -2 c -1.511,-1.941 -3.511,-2.441 -6,-1.5 -3.048,3.29 -5.715,6.79 -8,10.5 -4.092,3.758 -7.4255,8.091 -10,13 -2.4,1.796 -4.0667,4.13 -5,7 -4.6727,2.176 -6.006,5.509 -4,10 0.4267,2.51 1.0933,4.843 2,7 0.0597,2.841 0.7264,5.507 2,8 4.5166,0.666 9.183,1.333 14,2 -1.102,0.676 -2.102,1.342 -3,2 h -1 -9 c -0.3412,3.66 0.3255,6.993 2,10 0.2633,4.624 1.2633,8.958 3,13 0.9345,1.068 1.2678,2.401 1,4 -0.0905,2.652 0.5762,4.985 2,7 v 1 c 0.426,3.927 1.426,7.593 3,11 0.057,1.109 0.39,2.109 1,3 v 1 c -1.052,1.756 -2.719,2.423 -5,2 0.3128,-3.542 -0.0206,-6.875 -1,-10 0.0905,-2.652 -0.5762,-4.985 -2,-7 v -1 c 0.2406,-2.398 -0.4261,-4.398 -2,-6 v -1 c -1.0639,-6.175 -2.3972,-12.175 -4,-18 -0.8007,-1.542 -1.134,-3.208 -1,-5 -0.5483,-2.584 -2.215,-3.584 -5,-3 0.6419,-2.635 1.3086,-5.302 2,-8 0.0596,-2.655 -0.6071,-4.989 -2,-7 -0.6901,-3.99 -0.8568,-7.99 -0.5,-12 10.6187,-14.287 21.619,-28.287 33,-42 -0.47401,-14.98967 14.82738,-18.63393 5,-4 z"
       id="path1622"
       sodipodi:nodetypes="cccccccccccccccccccccccccccccccccccccc" />
  </g>
  <g
     id="g1696">
    <path
       style="opacity:1"
       fill="#535353"
       d="M 502.5,381.5 C 503.751,383.382 504.918,385.382 506,387.5C 506.495,385.527 506.662,383.527 506.5,381.5C 508.025,384.583 509.025,387.916 509.5,391.5C 507.19,387.214 506.19,387.548 506.5,392.5C 504.358,389.2 503.025,385.533 502.5,381.5 Z"
       id="path1694" />
  </g>
  <g
     id="g1704">
    <path
       style="opacity:1"
       fill="#b8b8b8"
       d="M 196.5,386.5 C 199.297,386.967 200.631,388.633 200.5,391.5C 202.781,391.077 204.448,391.744 205.5,393.5C 203.801,393.66 202.134,393.494 200.5,393C 199.766,390.439 198.433,388.273 196.5,386.5 Z"
       id="path1702" />
  </g>
  <g
     id="g1768">
    <path
       style="opacity:1"
       fill="#1c1c1c"
       d="M 509.5,391.5 C 509.5,392.167 509.5,392.833 509.5,393.5C 509.703,395.044 510.37,396.378 511.5,397.5C 510.846,399.115 510.346,400.782 510,402.5C 509.243,400.685 508.41,399.019 507.5,397.5C 507.634,395.708 507.301,394.042 506.5,392.5C 506.19,387.548 507.19,387.214 509.5,391.5 Z"
       id="path1766" />
  </g>
  <g
     id="g1844">
    <path
       style="opacity:1"
       fill="#6f6f6f"
       d="M 91.5,401.5 C 96.8333,401.5 102.167,401.5 107.5,401.5C 107.5,402.833 107.5,404.167 107.5,405.5C 105.833,405.5 104.167,405.5 102.5,405.5C 103.398,404.842 104.398,404.176 105.5,403.5C 100.683,402.833 96.0166,402.166 91.5,401.5 Z"
       id="path1842" />
  </g>
  <g
     id="g1860">
    <path
       style="opacity:1"
       fill="#b8b8b8"
       d="M 208.5,394.5 C 211.084,395.048 212.084,396.715 211.5,399.5C 217.686,398.042 221.019,400.375 221.5,406.5C 220.857,404.924 219.857,403.59 218.5,402.5C 218.389,401.883 218.056,401.383 217.5,401C 215.19,400.503 212.857,400.337 210.5,400.5C 210.747,398.142 210.081,396.142 208.5,394.5 Z"
       id="path1858" />
  </g>
  <g
     id="g1880">
    <path
       style="opacity:1"
       fill="#656565"
       d="M 84.5,391.5 C 85.8929,393.511 86.5596,395.845 86.5,398.5C 85.8086,401.198 85.1419,403.865 84.5,406.5C 87.285,405.916 88.9517,406.916 89.5,409.5C 86.9771,408.241 84.4771,406.907 82,405.5C 80.7619,402.074 81.9286,400.408 85.5,400.5C 85.6747,398.379 85.3414,396.379 84.5,394.5C 84.5,393.5 84.5,392.5 84.5,391.5 Z"
       id="path1878" />
  </g>
  <g
     id="g1896">
    <path
       style="opacity:1"
       fill="#787878"
       d="M 101.5,405.5 C 99.0521,406.473 96.3854,406.806 93.5,406.5C 93.2155,408.415 93.5489,410.081 94.5,411.5C 94.5,412.833 94.5,414.167 94.5,415.5C 92.8255,412.493 92.1588,409.16 92.5,405.5C 95.5,405.5 98.5,405.5 101.5,405.5 Z"
       id="path1894" />
  </g>
  <g
     id="g1908">
    <path
       style="opacity:1"
       fill="#2a2a2a"
       d="M 509.5,393.5 C 511.717,394.369 514.05,394.702 516.5,394.5C 516.5,395.5 516.5,396.5 516.5,397.5C 515.167,397.5 513.833,397.5 512.5,397.5C 512.374,402.222 513.374,406.555 515.5,410.5C 516.919,411.451 518.585,411.784 520.5,411.5C 520.5,412.5 520.5,413.5 520.5,414.5C 518.052,414.085 516.719,415.085 516.5,417.5C 517.507,420.19 518.507,422.856 519.5,425.5C 521.598,426.935 523.931,428.102 526.5,429C 521.152,428.348 515.818,428.515 510.5,429.5C 509.548,427.955 509.215,426.288 509.5,424.5C 511.167,424.5 512.833,424.5 514.5,424.5C 514.663,422.143 514.497,419.81 514,417.5C 513.617,416.944 513.117,416.611 512.5,416.5C 511.759,414.646 510.759,412.979 509.5,411.5C 509.462,406.729 508.796,402.062 507.5,397.5C 508.41,399.019 509.243,400.685 510,402.5C 510.346,400.782 510.846,399.115 511.5,397.5C 510.37,396.378 509.703,395.044 509.5,393.5 Z"
       id="path1906" />
  </g>
  <g
     id="g1928">
    <path
       style="opacity:1"
       fill="#3f3f3f"
       d="M 200.5,398.5 C 203.167,398.833 205.833,399.167 208.5,399.5C 210.433,403.754 213.766,406.754 218.5,408.5C 219.519,406.54 219.519,404.54 218.5,402.5C 219.857,403.59 220.857,404.924 221.5,406.5C 226.399,406.739 230.399,408.739 233.5,412.5C 232.417,412.461 231.417,412.127 230.5,411.5C 229.286,413.859 229.286,416.192 230.5,418.5C 219.804,412.823 209.804,406.156 200.5,398.5 Z"
       id="path1926" />
  </g>
  <g
     id="g1968">
    <path
       style="opacity:1"
       fill="#191919"
       d="M 233.5,412.5 C 235.853,413.34 237.853,414.674 239.5,416.5C 240.301,418.042 240.634,419.708 240.5,421.5C 237.136,420.439 233.803,419.439 230.5,418.5C 229.286,416.192 229.286,413.859 230.5,411.5C 231.417,412.127 232.417,412.461 233.5,412.5 Z"
       id="path1966" />
  </g>
  <g
     id="g2032">
    <path
       style="opacity:1"
       fill="#393939"
       d="M 239.5,416.5 C 243.049,417.723 246.049,419.723 248.5,422.5C 246.883,421.962 245.216,421.629 243.5,421.5C 243.716,424.256 244.716,426.59 246.5,428.5C 240.822,425.664 235.489,422.331 230.5,418.5C 233.803,419.439 237.136,420.439 240.5,421.5C 240.634,419.708 240.301,418.042 239.5,416.5 Z"
       id="path2030" />
  </g>
  <g
     id="g2100">
    <path
       style="opacity:1"
       fill="#878787"
       d="M 250.5,422.5 C 254.02,423.353 256.687,425.353 258.5,428.5C 256.303,427.155 253.97,425.989 251.5,425C 250.748,424.329 250.414,423.496 250.5,422.5 Z"
       id="path2098" />
  </g>
  <g
     id="g2104">
    <path
       style="opacity:1"
       fill="#555555"
       d="M 512.5,416.5 C 513.117,416.611 513.617,416.944 514,417.5C 514.497,419.81 514.663,422.143 514.5,424.5C 512.833,424.5 511.167,424.5 509.5,424.5C 509.215,426.288 509.548,427.955 510.5,429.5C 515.818,428.515 521.152,428.348 526.5,429C 523.931,428.102 521.598,426.935 519.5,425.5C 520.833,425.5 522.167,425.5 523.5,425.5C 526.284,427.82 529.617,428.987 533.5,429C 535.431,429.902 537.097,431.069 538.5,432.5C 536.095,432.134 533.762,431.467 531.5,430.5C 530.833,430.833 530.167,431.167 529.5,431.5C 530.243,432.182 530.909,432.849 531.5,433.5C 526.624,432.405 521.79,431.072 517,429.5C 515.467,429.773 513.967,430.106 512.5,430.5C 510.142,430.253 508.142,430.919 506.5,432.5C 505.9,431.1 504.9,430.1 503.5,429.5C 506.5,429.833 507.833,428.5 507.5,425.5C 506.167,425.5 504.833,425.5 503.5,425.5C 503.5,426.5 503.5,427.5 503.5,428.5C 501.923,426.006 502.59,424.173 505.5,423C 503.68,422.8 502.347,421.966 501.5,420.5C 503.435,421.15 505.435,421.483 507.5,421.5C 508.99,423.28 510.99,423.946 513.5,423.5C 513.784,421.585 513.451,419.919 512.5,418.5C 512.5,417.833 512.5,417.167 512.5,416.5 Z"
       id="path2102" />
  </g>
  <g
     id="g2112">
    <path
       style="opacity:1"
       fill="#727272"
       d="M 94.5,415.5 C 95.2216,415.918 95.7216,416.584 96,417.5C 96.5482,421.17 97.0482,424.837 97.5,428.5C 95.7633,424.458 94.7633,420.124 94.5,415.5 Z"
       id="path2110" />
  </g>
  <g
     id="g2120">
    <path
       style="opacity:1"
       fill="#acacac"
       d="M 90.5,414.5 C 92.1028,420.325 93.4361,426.325 94.5,432.5C 91.6159,426.953 90.2826,420.953 90.5,414.5 Z"
       id="path2118" />
  </g>
  <g
     id="g2124">
    <path
       style="opacity:1"
       fill="#949494"
       d="M 258.5,428.5 C 262.693,428.362 265.027,430.362 265.5,434.5C 269.222,433.68 271.555,435.013 272.5,438.5C 272.167,438.5 271.833,438.5 271.5,438.5C 269.974,436.87 267.974,436.037 265.5,436C 264.809,434.933 264.309,433.766 264,432.5C 262.02,431.251 260.187,429.918 258.5,428.5 Z"
       id="path2122" />
  </g>
  <g
     id="g2132">
    <path
       style="opacity:1"
       fill="#4e4e4e"
       d="M 246.5,428.5 C 251.51,429.67 255.51,432.337 258.5,436.5C 253.678,435.002 249.678,432.336 246.5,428.5 Z"
       id="path2130" />
  </g>
  <g
     id="g2140">
    <path
       style="opacity:1"
       fill="#f9f9f9"
       d="M 531.5,433.5 C 542.786,438.416 554.452,442.582 566.5,446C 567.056,446.383 567.389,446.883 567.5,447.5C 568.335,448.943 569.668,449.943 571.5,450.5C 551.178,451.5 530.844,451.833 510.5,451.5C 510.672,450.508 510.338,449.842 509.5,449.5C 509.5,448.833 509.5,448.167 509.5,447.5C 508.033,442.933 507.533,438.267 508,433.5C 509.878,432.947 511.378,431.947 512.5,430.5C 513.967,430.106 515.467,429.773 517,429.5C 521.79,431.072 526.624,432.405 531.5,433.5 Z"
       id="path2138" />
  </g>
  <g
     id="g2152">
    <path
       style="opacity:1"
       fill="#191919"
       d="M 248.5,422.5 C 249.167,422.5 249.833,422.5 250.5,422.5C 250.414,423.496 250.748,424.329 251.5,425C 253.97,425.989 256.303,427.155 258.5,428.5C 260.187,429.918 262.02,431.251 264,432.5C 264.309,433.766 264.809,434.933 265.5,436C 267.974,436.037 269.974,436.87 271.5,438.5C 271.762,439.978 271.429,441.311 270.5,442.5C 267.41,441.3 264.743,439.467 262.5,437C 261.207,436.51 259.873,436.343 258.5,436.5C 255.51,432.337 251.51,429.67 246.5,428.5C 244.716,426.59 243.716,424.256 243.5,421.5C 245.216,421.629 246.883,421.962 248.5,422.5 Z"
       id="path2150" />
  </g>
  <g
     id="g2156">
    <path
       style="opacity:1"
       fill="#ababab"
       d="M 382.5,428.5 C 385.543,432.217 388.209,436.217 390.5,440.5C 390.5,441.167 390.5,441.833 390.5,442.5C 386.279,438.726 383.613,434.059 382.5,428.5 Z"
       id="path2154" />
  </g>
  <g
     id="g2200">
    <path
       style="opacity:1"
       fill="#8e8e8e"
       d="M 94.5,433.5 C 96.0739,435.102 96.7406,437.102 96.5,439.5C 94.9261,437.898 94.2594,435.898 94.5,433.5 Z"
       id="path2198" />
  </g>
  <g
     id="g2204">
    <path
       style="opacity:1"
       fill="#838383"
       d="M 98.5,432.5 C 99.9238,434.515 100.59,436.848 100.5,439.5C 99.0762,437.485 98.4095,435.152 98.5,432.5 Z"
       id="path2202" />
  </g>
  <g
     id="g2212">
    <path
       style="opacity:1"
       fill="#797979"
       d="M 553.5,437.5 C 566.096,441.151 578.096,445.818 589.5,451.5C 580.13,448.654 570.796,445.487 561.5,442C 558.367,441.14 555.7,439.64 553.5,437.5 Z"
       id="path2210" />
  </g>
  <g
     id="g2220">
    <path
       style="opacity:1"
       fill="#454545"
       d="M 258.5,436.5 C 259.873,436.343 261.207,436.51 262.5,437C 264.743,439.467 267.41,441.3 270.5,442.5C 271.429,441.311 271.762,439.978 271.5,438.5C 271.833,438.5 272.167,438.5 272.5,438.5C 272.5,439.5 272.5,440.5 272.5,441.5C 274.415,441.216 276.081,441.549 277.5,442.5C 276.5,442.5 275.5,442.5 274.5,442.5C 274.297,444.39 274.963,445.89 276.5,447C 279.297,448.233 281.963,449.733 284.5,451.5C 285.788,453.299 285.788,454.965 284.5,456.5C 284.768,454.901 284.434,453.568 283.5,452.5C 282.391,452.443 281.391,452.11 280.5,451.5C 273.13,446.487 265.796,441.487 258.5,436.5 Z"
       id="path2218" />
  </g>
  <g
     id="g2224">
    <path
       style="opacity:1"
       fill="#393939"
       d="M 538.5,432.5 C 543.486,434.294 548.486,435.96 553.5,437.5C 555.7,439.64 558.367,441.14 561.5,442C 570.796,445.487 580.13,448.654 589.5,451.5C 594.751,454.274 600.418,456.274 606.5,457.5C 609.261,459.205 612.261,460.538 615.5,461.5C 615.611,462.117 615.944,462.617 616.5,463C 615.207,463.49 613.873,463.657 612.5,463.5C 608.075,462.454 603.742,461.121 599.5,459.5C 597.429,458.055 595.096,457.055 592.5,456.5C 588.366,455.515 584.032,455.182 579.5,455.5C 579.784,453.585 579.451,451.919 578.5,450.5C 577.833,450.5 577.167,450.5 576.5,450.5C 573.598,449.216 570.598,448.216 567.5,447.5C 567.389,446.883 567.056,446.383 566.5,446C 554.452,442.582 542.786,438.416 531.5,433.5C 530.909,432.849 530.243,432.182 529.5,431.5C 530.167,431.167 530.833,430.833 531.5,430.5C 533.762,431.467 536.095,432.134 538.5,432.5 Z"
       id="path2222" />
  </g>
  <g
     id="g2228">
    <path
       style="opacity:1"
       fill="#818181"
       d="M 100.5,440.5 C 102.874,443.686 103.874,447.353 103.5,451.5C 101.926,448.093 100.926,444.427 100.5,440.5 Z"
       id="path2226" />
  </g>
  <g
     id="g2232">
    <path
       style="opacity:1"
       fill="#989898"
       d="M 272.5,438.5 C 276.749,440.596 281.083,442.429 285.5,444C 288.897,445.84 291.564,448.34 293.5,451.5C 290.222,450.191 287.222,448.358 284.5,446C 282.527,445.505 280.527,445.338 278.5,445.5C 278.737,444.209 278.404,443.209 277.5,442.5C 276.081,441.549 274.415,441.216 272.5,441.5C 272.5,440.5 272.5,439.5 272.5,438.5 Z"
       id="path2230" />
  </g>
  <g
     id="g2248">
    <path
       style="opacity:1"
       fill="#777777"
       d="M 96.5,440.5 C 97.9238,442.515 98.5905,444.848 98.5,447.5C 97.0762,445.485 96.4095,443.152 96.5,440.5 Z"
       id="path2246" />
  </g>
  <g
     id="g2272">
    <path
       style="opacity:1"
       fill="#898989"
       d="M 390.5,442.5 C 395.059,445.595 397.059,449.595 396.5,454.5C 396.5,454.167 396.5,453.833 396.5,453.5C 394.538,449.881 392.538,446.214 390.5,442.5 Z"
       id="path2270" />
  </g>
  <g
     id="g2304">
    <path
       style="opacity:1"
       fill="#c3c3c3"
       d="M 396.5,453.5 C 396.5,453.833 396.5,454.167 396.5,454.5C 383.344,455.496 370.01,455.829 356.5,455.5C 343.826,455.602 331.159,455.935 318.5,456.5C 344.29,454.136 370.29,453.136 396.5,453.5 Z"
       id="path2302" />
  </g>
  <g
     id="g2320">
    <path
       style="opacity:1"
       fill="#818181"
       d="M 296.5,453.5 C 298.372,454.511 300.372,455.345 302.5,456C 307.823,456.499 313.156,456.666 318.5,456.5C 331.159,455.935 343.826,455.602 356.5,455.5C 338.702,457.305 320.702,458.305 302.5,458.5C 299.911,457.581 297.911,455.914 296.5,453.5 Z"
       id="path2318" />
  </g>
  <g
     id="g2324">
    <path
       style="opacity:1"
       fill="#343434"
       d="m 402.5,453.5 v 1 3 c -10.189,0.094 -20.189,0.761 -30,2 -20.668,0.628 -41.335,1.294 -62,2 -2.357,-1.598 -5.023,-2.598 -8,-3 18.202,-0.195 36.202,-1.195 54,-3 13.51,0.329 26.844,-0.004 40,-1 0.559,-4.905 -1.441,-8.905 -6,-12 v -2 c 0.617,0.111 1.117,0.444 1.5,1 2.78215,-8.47951 -3.10379,-6.06562 -3.5,-10 9.19458,12.58615 3.03776,9.14886 14,22 z"
       id="path2322"
       sodipodi:nodetypes="ccccccccccccc" />
  </g>
  <g
     id="g2344">
    <path
       style="opacity:1"
       fill="#6d6d6d"
       d="m 98.5,447.5 c 0.9794,3.125 1.3128,6.458 1,10 28.39842,-12.03153 12.71922,11.47994 -5,3 h -1 c -0.0253,-3.784 -1.6919,-4.784 -5,-3 2.8373,-1.902 6.1707,-2.569 10,-2 z"
       id="path2342"
       sodipodi:nodetypes="ccccccc" />
  </g>
  <g
     id="g2360">
    <path
       style="opacity:1"
       fill="#181818"
       d="M 277.5,442.5 C 278.404,443.209 278.737,444.209 278.5,445.5C 280.527,445.338 282.527,445.505 284.5,446C 287.222,448.358 290.222,450.191 293.5,451.5C 295.027,451.427 296.027,452.094 296.5,453.5C 297.911,455.914 299.911,457.581 302.5,458.5C 305.477,458.902 308.143,459.902 310.5,461.5C 310.5,461.833 310.5,462.167 310.5,462.5C 299.865,461.596 289.198,461.263 278.5,461.5C 278.5,460.167 278.5,458.833 278.5,457.5C 280.735,457.795 282.735,457.461 284.5,456.5C 285.788,454.965 285.788,453.299 284.5,451.5C 281.963,449.733 279.297,448.233 276.5,447C 274.963,445.89 274.297,444.39 274.5,442.5C 275.5,442.5 276.5,442.5 277.5,442.5 Z"
       id="path2358" />
  </g>
  <g
     id="g2376">
    <path
       style="opacity:1"
       fill="#2e2e2e"
       d="M 78.5,466.5 C 76.8958,465.713 76.2291,464.38 76.5,462.5C 78.7638,461.781 81.0971,461.448 83.5,461.5C 83.5,463.167 83.5,464.833 83.5,466.5C 81.8333,466.5 80.1667,466.5 78.5,466.5 Z"
       id="path2374" />
  </g>
  <g
     id="g2380">
    <path
       style="opacity:1"
       fill="#585858"
       d="M 93.5,460.5 C 90.2613,460.413 87.2613,461.08 84.5,462.5C 84.5,463.5 84.5,464.5 84.5,465.5C 92.7048,466.807 100.705,468.473 108.5,470.5C 107.5,470.5 106.5,470.5 105.5,470.5C 105.768,472.099 105.434,473.432 104.5,474.5C 104.5,473.5 104.5,472.5 104.5,471.5C 95.5739,470.581 86.9072,468.914 78.5,466.5C 80.1667,466.5 81.8333,466.5 83.5,466.5C 83.5,464.833 83.5,463.167 83.5,461.5C 81.0971,461.448 78.7638,461.781 76.5,462.5C 78.364,460.986 80.364,459.653 82.5,458.5C 84.5,458.167 86.5,457.833 88.5,457.5C 91.8081,455.716 93.4747,456.716 93.5,460.5 Z"
       id="path2378" />
  </g>
  <g
     id="g2392">
    <path
       style="opacity:1"
       fill="#b1b1b1"
       d="M 82.5,458.5 C 80.364,459.653 78.364,460.986 76.5,462.5C 76.2291,464.38 76.8958,465.713 78.5,466.5C 86.9072,468.914 95.5739,470.581 104.5,471.5C 104.5,472.5 104.5,473.5 104.5,474.5C 102.784,474.629 101.117,474.962 99.5,475.5C 99.5,474.5 99.5,473.5 99.5,472.5C 92.1201,471.326 84.7867,469.826 77.5,468C 73.5,465 73.5,462 77.5,459C 79.1341,458.506 80.8008,458.34 82.5,458.5 Z"
       id="path2390" />
  </g>
  <g
     id="g2432">
    <path
       style="opacity:1"
       fill="#4e4e4e"
       d="M 615.5,461.5 C 625.498,465.782 635.831,469.115 646.5,471.5C 653.746,475.279 661.412,478.279 669.5,480.5C 670.429,481.315 671.429,482.148 672.5,483C 681.951,485.372 691.285,488.372 700.5,492C 710.342,492.17 720.009,492.67 729.5,493.5C 729.167,493.5 728.833,493.5 728.5,493.5C 718.828,493.666 709.161,493.5 699.5,493C 697.059,491.608 694.726,491.441 692.5,492.5C 690.784,492.371 689.117,492.038 687.5,491.5C 677.451,488.317 667.451,484.817 657.5,481C 656.338,480.173 655.171,479.34 654,478.5C 646.799,476.41 639.632,474.41 632.5,472.5C 628.915,470.194 624.915,468.861 620.5,468.5C 618.317,465.968 615.65,464.302 612.5,463.5C 613.873,463.657 615.207,463.49 616.5,463C 615.944,462.617 615.611,462.117 615.5,461.5 Z"
       id="path2430" />
  </g>
  <g
     id="g2456" />
  <g
     id="g2492">
    <path
       style="opacity:1"
       fill="#313131"
       d="m 108.5,470.5 c 12.33206,4.04756 17.24751,-6.0024 18,5 0.394,6.996 0.727,13.996 1,21 v 12 c -0.828,-6.153 -1.328,-12.487 -1.5,-19 -0.173,5.516 -0.673,10.849 -1.5,16 0.319,-4.863 -0.014,-9.53 -1,-14 v -2 -2 c -0.333,-1.333 -0.667,-2.667 -1,-4 v -1 c 0.934,-1.068 1.268,-2.401 1,-4 1.238,-1.714 1.905,-3.714 2,-6 h -14 c -0.214,1.644 0.12,3.144 1,4.5 3.525,0.179 6.859,0.679 10,1.5 h -17 c -0.683,-1.676 -2.017,-2.343 -4,-2 -0.201,3.228 0.133,6.395 1,9.5 -0.362,1.225 -0.862,2.391 -1.5,3.5 -0.5,7.993 -0.666,15.993 -0.5,24 -0.9954,-12.489 -1.3287,-25.156 -1,-38 1.617,-0.538 3.284,-0.871 5,-1 0.934,-1.068 1.268,-2.401 1,-4 z"
       id="path2490"
       sodipodi:nodetypes="ccccccccccccccccccccccccc" />
  </g>
  <g
     id="g2516">
    <path
       style="opacity:1"
       fill="#b5b5b5"
       d="M 669.5,480.5 C 671.857,480.337 674.19,480.503 676.5,481C 684.681,484.586 693.014,487.919 701.5,491C 719.167,491.333 736.833,491.667 754.5,492C 758.025,492.179 761.359,492.679 764.5,493.5C 752.833,493.5 741.167,493.5 729.5,493.5C 720.009,492.67 710.342,492.17 700.5,492C 691.285,488.372 681.951,485.372 672.5,483C 671.429,482.148 670.429,481.315 669.5,480.5 Z"
       id="path2514" />
  </g>
  <g
     id="g2540">
    <path
       style="opacity:1"
       fill="#242424"
       d="M 728.5,493.5 C 731.338,495.306 731.005,496.306 727.5,496.5C 727.5,497.5 727.5,498.5 727.5,499.5C 725.585,499.216 723.919,499.549 722.5,500.5C 721.662,500.842 721.328,501.508 721.5,502.5C 720.542,502.953 719.708,503.619 719,504.5C 718.833,504 718.667,503.5 718.5,503C 720.111,500.79 720.778,498.29 720.5,495.5C 711.051,495.69 701.718,496.357 692.5,497.5C 692.5,495.833 692.5,494.167 692.5,492.5C 694.726,491.441 697.059,491.608 699.5,493C 709.161,493.5 718.828,493.666 728.5,493.5 Z"
       id="path2538" />
  </g>
  <g
     id="g2544">
    <path
       style="opacity:1"
       fill="#3e3e3e"
       d="M 728.5,493.5 C 728.833,493.5 729.167,493.5 729.5,493.5C 741.167,493.5 752.833,493.5 764.5,493.5C 766.167,493.5 767.833,493.5 769.5,493.5C 777.651,494.879 785.985,495.879 794.5,496.5C 795.952,497.302 797.618,497.802 799.5,498C 795.514,498.499 791.514,498.666 787.5,498.5C 779.149,498.518 770.816,498.185 762.5,497.5C 752.347,496.506 742.014,496.172 731.5,496.5C 731.5,497.833 731.5,499.167 731.5,500.5C 728.5,500.5 725.5,500.5 722.5,500.5C 723.919,499.549 725.585,499.216 727.5,499.5C 727.5,498.5 727.5,497.5 727.5,496.5C 731.005,496.306 731.338,495.306 728.5,493.5 Z"
       id="path2542" />
  </g>
  <g
     id="g2552">
    <path
       style="opacity:1"
       fill="#c7c7c7"
       d="M 769.5,493.5 C 784.156,493.025 798.489,494.359 812.5,497.5C 806.484,497.407 800.484,497.074 794.5,496.5C 785.985,495.879 777.651,494.879 769.5,493.5 Z"
       id="path2550" />
  </g>
  <g
     id="g2564">
    <path
       style="opacity:1"
       fill="#5d5d5d"
       d="M 794.5,496.5 C 800.484,497.074 806.484,497.407 812.5,497.5C 813.492,497.328 814.158,497.662 814.5,498.5C 810.774,498.177 807.107,498.511 803.5,499.5C 807.627,500.511 811.627,501.511 815.5,502.5C 807.833,501.833 800.167,501.167 792.5,500.5C 790.833,499.833 789.167,499.167 787.5,498.5C 791.514,498.666 795.514,498.499 799.5,498C 797.618,497.802 795.952,497.302 794.5,496.5 Z"
       id="path2562" />
  </g>
  <g
     id="g2580">
    <path
       style="opacity:1"
       fill="#696969"
       d="M 815.5,498.5 C 823.86,499.42 832.194,500.587 840.5,502C 845.55,502.696 850.216,504.196 854.5,506.5C 845.753,505.084 837.087,503.417 828.5,501.5C 825.193,500.949 821.86,500.616 818.5,500.5C 817.5,499.833 816.5,499.167 815.5,498.5 Z"
       id="path2578" />
  </g>
  <g
     id="g2596">
    <path
       style="opacity:1"
       fill="#3c3c3c"
       d="m 814.5,498.5 5.31833,0.83581 c 6.01483,2.61721 -1.76113,5.51202 -0.76113,6.17902 4.14057,8.01052 -2.61861,3.26941 -3.5572,-3.01483 -3.873,-0.989 -7.873,-1.989 -12,-3 3.607,-0.989 7.274,-1.323 11,-1 z"
       id="path2594"
       sodipodi:nodetypes="cccccc" />
  </g>
  <g
     id="g2684">
    <path
       style="opacity:1"
       fill="#393939"
       d="m 828.5,501.5 c 8.587,1.917 17.253,3.584 26,5 3.667,0.667 7.333,1.333 11,2 3.399,1.538 6.733,3.371 10,5.5 -4.039,0.048 -8.039,-0.452 -12,-1.5 -12.236,-3.101 -21.08648,-3.67749 -33.51748,-5.91049 -2.66983,-1.3189 -6.41192,-3.44564 -1.48252,-5.08951 z"
       id="path2682"
       sodipodi:nodetypes="ccccccc" />
  </g>
  <g
     id="g2716">
    <path
       style="opacity:1"
       fill="#696969"
       d="M 865.5,508.5 C 870.673,509.422 875.34,511.422 879.5,514.5C 877.821,514.285 876.821,514.952 876.5,516.5C 871.754,516.161 867.42,514.828 863.5,512.5C 867.461,513.548 871.461,514.048 875.5,514C 872.233,511.871 868.899,510.038 865.5,508.5 Z"
       id="path2714" />
  </g>
  <g
     id="g2736">
    <path
       style="opacity:1"
       fill="#161616"
       d="M 105.5,478.5 C 105.5,480.167 105.5,481.833 105.5,483.5C 106.234,484.708 106.567,486.041 106.5,487.5C 106.178,493.358 106.511,499.025 107.5,504.5C 107.5,504.833 107.5,505.167 107.5,505.5C 107.5,506.833 107.5,508.167 107.5,509.5C 106.549,510.919 106.216,512.585 106.5,514.5C 106.414,515.496 106.748,516.329 107.5,517C 113.491,517.499 119.491,517.666 125.5,517.5C 125.806,514.615 125.473,511.948 124.5,509.5C 124.5,508.167 124.5,506.833 124.5,505.5C 125.327,500.349 125.827,495.016 126,489.5C 126.172,496.013 126.672,502.347 127.5,508.5C 127.575,514.869 127.742,521.202 128,527.5C 124.919,528.146 121.752,528.479 118.5,528.5C 115.087,528.483 112.087,527.816 109.5,526.5C 110.167,526.5 110.5,526.167 110.5,525.5C 111.5,525.5 112.5,525.5 113.5,525.5C 113.67,524.178 113.337,523.011 112.5,522C 109.183,521.502 105.85,521.335 102.5,521.5C 100.96,519.162 100.294,516.495 100.5,513.5C 100.334,505.493 100.5,497.493 101,489.5C 101.638,488.391 102.138,487.225 102.5,486C 101.633,482.895 101.299,479.728 101.5,476.5C 103.483,476.157 104.817,476.824 105.5,478.5 Z"
       id="path2734" />
  </g>
  <g
     id="g2768">
    <path
       style="opacity:1"
       fill="#727272"
       d="M 879.5,518.5 C 880.873,518.343 882.207,518.51 883.5,519C 888.027,521.301 892.36,523.801 896.5,526.5C 890.413,524.622 884.746,521.955 879.5,518.5 Z"
       id="path2766" />
  </g>
  <g
     id="g2772">
    <path
       style="opacity:1"
       fill="#767676"
       d="M 886.5,517.5 C 887.873,517.343 889.207,517.51 890.5,518C 896.375,520.893 902.041,524.06 907.5,527.5C 900.016,524.922 893.016,521.589 886.5,517.5 Z"
       id="path2770" />
  </g>
  <g
     id="g2776">
    <path
       style="opacity:1"
       fill="#c4c4c4"
       d="M 102.5,522.5 C 105.167,522.5 107.833,522.5 110.5,522.5C 110.5,523.5 110.5,524.5 110.5,525.5C 110.5,526.167 110.167,526.5 109.5,526.5C 105.5,526.5 101.5,526.5 97.5,526.5C 100.028,525.834 102.694,525.168 105.5,524.5C 104.398,523.824 103.398,523.158 102.5,522.5 Z"
       id="path2774" />
  </g>
  <g
     id="g2788">
    <path
       style="opacity:1"
       fill="#808080"
       d="M 102.5,522.5 C 102.5,522.167 102.5,521.833 102.5,521.5C 105.85,521.335 109.183,521.502 112.5,522C 113.337,523.011 113.67,524.178 113.5,525.5C 112.5,525.5 111.5,525.5 110.5,525.5C 110.5,524.5 110.5,523.5 110.5,522.5C 107.833,522.5 105.167,522.5 102.5,522.5 Z"
       id="path2786" />
  </g>
  <g
     id="g2816">
    <path
       style="opacity:1"
       fill="#525252"
       d="m 106.5,530 c -0.457,0.414 -0.791,0.914 -1,1.5 0.743,0.682 1.409,1.349 2,2 -1.052,-0.149 -2.052,0.017 -3,0.5 1.358,0.934 2.692,1.768 4,2.5 h -4 c -0.763,-0.768 -1.763,-1.268 -3,-1.5 -11.6596,-0.728 -23.3263,-1.228 -35,-1.5 v -1 c 11.9139,-0.321 23.7473,0.012 35.5,1 0.494,-1.634 0.66,-3.301 0.5,-5 h -16 c 3.6667,-0.667 7.3333,-1.333 11,-2 h 12 c 2.587,1.316 5.587,1.983 9,2 19.03078,-8.36438 0.61934,9.88397 -12,1.5 z"
       id="path2814"
       sodipodi:nodetypes="cccccccccccccccc" />
  </g>
  <g
     id="g2864">
    <path
       style="opacity:1"
       fill="#858585"
       d="M 97.5,526.5 C 93.8333,527.167 90.1667,527.833 86.5,528.5C 79.8407,528.954 73.1741,529.287 66.5,529.5C 66.5,530.5 66.5,531.5 66.5,532.5C 65.2651,530.983 65.2651,529.316 66.5,527.5C 76.8119,526.501 87.1452,526.168 97.5,526.5 Z"
       id="path2862" />
  </g>
  <g
     id="g2876" />
  <g
     id="g2904">
    <path
       style="opacity:1"
       fill="#1c1c1c"
       d="M 86.5,528.5 C 91.8333,528.5 97.1667,528.5 102.5,528.5C 102.66,530.199 102.494,531.866 102,533.5C 90.2473,532.512 78.4139,532.179 66.5,532.5C 66.5,531.5 66.5,530.5 66.5,529.5C 73.1741,529.287 79.8407,528.954 86.5,528.5 Z"
       id="path2902" />
  </g>
  <g
     id="g2948">
    <path
       style="opacity:1"
       fill="#c2c2c2"
       d="M 66.5,533.5 C 78.1737,533.772 89.8404,534.272 101.5,535C 102.737,535.232 103.737,535.732 104.5,536.5C 105.718,537.161 107.051,537.828 108.5,538.5C 106.49,540.171 104.157,540.838 101.5,540.5C 101.953,539.542 102.619,538.708 103.5,538C 102.833,537.667 102.167,537.333 101.5,537C 89.4637,536.515 77.797,535.349 66.5,533.5 Z"
       id="path2946" />
  </g>
  <g
     id="g2984">
    <path
       style="opacity:1"
       fill="#787878"
       d="M 104.5,536.5 C 105.833,536.5 107.167,536.5 108.5,536.5C 109.833,536.833 111.167,537.167 112.5,537.5C 112.5,538.833 112.5,540.167 112.5,541.5C 108.629,541.185 104.962,541.518 101.5,542.5C 101.01,545.655 100.344,548.655 99.5,551.5C 99.3354,548.482 99.502,545.482 100,542.5C 100.278,541.584 100.778,540.918 101.5,540.5C 104.157,540.838 106.49,540.171 108.5,538.5C 107.051,537.828 105.718,537.161 104.5,536.5 Z"
       id="path2982" />
  </g>
  <g
     id="g3012">
    <path
       style="opacity:1"
       fill="#444444"
       d="M 879.5,514.5 C 882.481,514.182 884.815,515.182 886.5,517.5C 893.016,521.589 900.016,524.922 907.5,527.5C 913.745,528.032 915.745,531.032 913.5,536.5C 912.733,537.172 912.066,538.005 911.5,539C 905.096,542.202 898.762,545.369 892.5,548.5C 887.36,550.545 882.027,552.212 876.5,553.5C 876.5,552.5 876.5,551.5 876.5,550.5C 877.429,549.685 878.429,548.852 879.5,548C 889.541,545.32 899.208,541.487 908.5,536.5C 909.833,535.167 909.833,533.833 908.5,532.5C 906.118,530.929 903.451,530.096 900.5,530C 899.468,528.373 898.134,527.207 896.5,526.5C 892.36,523.801 888.027,521.301 883.5,519C 882.207,518.51 880.873,518.343 879.5,518.5C 878.5,517.833 877.5,517.167 876.5,516.5C 876.821,514.952 877.821,514.285 879.5,514.5 Z"
       id="path3010" />
  </g>
  <g
     id="g3064" />
  <g
     id="g3100">
    <path
       style="opacity:1"
       fill="#1b1b1b"
       d="M 101.5,542.5 C 103.5,542.5 105.5,542.5 107.5,542.5C 107.5,544.167 107.5,545.833 107.5,547.5C 106.175,551.276 105.509,555.443 105.5,560C 105.501,564.347 105.834,568.514 106.5,572.5C 106.5,572.833 106.5,573.167 106.5,573.5C 106.318,575.675 105.651,577.675 104.5,579.5C 104.543,580.416 104.876,581.083 105.5,581.5C 105.5,581.833 105.5,582.167 105.5,582.5C 105.5,583.833 105.5,585.167 105.5,586.5C 103.833,586.5 102.167,586.5 100.5,586.5C 98.3018,574.772 97.9684,563.105 99.5,551.5C 100.344,548.655 101.01,545.655 101.5,542.5 Z"
       id="path3098" />
  </g>
  <g
     id="g3112" />
  <g
     id="g3156">
    <path
       style="opacity:1"
       fill="#919191"
       d="M 892.5,548.5 C 886.052,552.321 879.052,554.987 871.5,556.5C 872.23,555.288 873.23,554.288 874.5,553.5C 874,553.167 873.5,552.833 873,552.5C 867.229,554.286 861.396,555.62 855.5,556.5C 862.167,553.727 869.167,551.727 876.5,550.5C 876.5,551.5 876.5,552.5 876.5,553.5C 882.027,552.212 887.36,550.545 892.5,548.5 Z"
       id="path3154" />
  </g>
  <g
     id="g3284">
    <path
       style="opacity:1"
       fill="#cbcbcb"
       d="M 846.5,563.5 C 837.762,567.336 828.429,569.003 818.5,568.5C 827.709,566.657 837.042,564.991 846.5,563.5 Z"
       id="path3282" />
  </g>
  <g
     id="g3288">
    <path
       style="opacity:1"
       fill="#1b1b1b"
       d="M 695.5,574.5 C 695.167,574.5 694.833,574.5 694.5,574.5C 693.167,574.5 692.5,573.833 692.5,572.5C 693.451,571.081 693.784,569.415 693.5,567.5C 697.5,567.5 701.5,567.5 705.5,567.5C 705.5,568.5 705.5,569.5 705.5,570.5C 701.55,570.488 698.216,571.821 695.5,574.5 Z"
       id="path3286" />
  </g>
  <g
     id="g3296">
    <path
       style="opacity:1"
       fill="#949494"
       d="M 663.5,566.5 C 663.5,567.5 663.5,568.5 663.5,569.5C 673.167,569.5 682.833,569.5 692.5,569.5C 692.5,570.5 692.5,571.5 692.5,572.5C 690.5,572.833 688.5,573.167 686.5,573.5C 687.091,572.849 687.757,572.182 688.5,571.5C 679.859,570.502 671.192,570.169 662.5,570.5C 662.232,568.901 662.566,567.568 663.5,566.5 Z"
       id="path3294" />
  </g>
  <g
     id="g3300">
    <path
       style="opacity:1"
       fill="#464646"
       d="M 871.5,556.5 C 863.121,558.514 854.788,560.847 846.5,563.5C 837.042,564.991 827.709,566.657 818.5,568.5C 810.571,569.93 802.571,570.597 794.5,570.5C 772.656,570.564 750.989,571.23 729.5,572.5C 719.828,572.334 710.161,572.5 700.5,573C 698.846,573.608 697.179,574.108 695.5,574.5C 698.216,571.821 701.55,570.488 705.5,570.5C 705.5,569.5 705.5,568.5 705.5,567.5C 701.5,567.5 697.5,567.5 693.5,567.5C 693.784,569.415 693.451,571.081 692.5,572.5C 692.5,571.5 692.5,570.5 692.5,569.5C 682.833,569.5 673.167,569.5 663.5,569.5C 663.5,568.5 663.5,567.5 663.5,566.5C 678.206,565.85 692.539,566.517 706.5,568.5C 719.833,569.833 733.167,569.833 746.5,568.5C 757.682,568.316 768.682,567.65 779.5,566.5C 792.305,566.954 804.972,565.954 817.5,563.5C 817.586,564.496 817.252,565.329 816.5,566C 818.134,566.494 819.801,566.66 821.5,566.5C 821.5,565.5 821.5,564.5 821.5,563.5C 833.057,562.02 844.39,559.687 855.5,556.5C 861.396,555.62 867.229,554.286 873,552.5C 873.5,552.833 874,553.167 874.5,553.5C 873.23,554.288 872.23,555.288 871.5,556.5 Z"
       id="path3298" />
  </g>
  <g
     id="g3340">
    <path
       style="opacity:1"
       fill="#838383"
       d="M 669.5,580.5 C 665.345,582.402 661.011,584.069 656.5,585.5C 660.203,582.483 664.536,580.816 669.5,580.5 Z"
       id="path3338" />
  </g>
  <g
     id="g3476">
    <path
       style="opacity:1"
       fill="#141414"
       d="M 293.5,601.5 C 297.5,601.5 301.5,601.5 305.5,601.5C 305.5,602.5 305.5,603.5 305.5,604.5C 300.516,605.984 295.849,608.151 291.5,611C 288.947,613.425 286.28,615.592 283.5,617.5C 280.965,618.349 278.465,619.349 276,620.5C 272.985,619.641 272.819,618.308 275.5,616.5C 276.5,616.167 277.167,615.5 277.5,614.5C 278.5,614.167 279.167,613.5 279.5,612.5C 280.492,612.672 281.158,612.338 281.5,611.5C 282.434,610.432 282.768,609.099 282.5,607.5C 286.012,608.055 289.012,607.388 291.5,605.5C 293.104,604.713 293.771,603.38 293.5,601.5 Z"
       id="path3474" />
  </g>
  <g
     id="g3480">
    <path
       style="opacity:1"
       fill="#404040"
       d="m 338.5,602.5 c 11.878,-0.355 23.545,0.312 35,2 1.452,0.802 3.118,1.302 5,1.5 -17.336,0.382 -34.67,0.215 -52,-0.5 h -3 c -5.81,-0.99 -11.81,-1.323 -18,-1 v -3 h -12 c 8.48803,0.35566 14.06507,0.69979 21,0.5 7.993,0.5 15.993,0.666 24,0.5 z"
       id="path3478"
       sodipodi:nodetypes="cccccccccc" />
  </g>
  <g
     id="g3492">
    <path
       style="opacity:1"
       fill="#636363"
       d="M 305.5,604.5 C 311.69,604.177 317.69,604.51 323.5,605.5C 316.825,605.334 310.158,605.5 303.5,606C 298.361,608.669 293.694,611.835 289.5,615.5C 287.5,616.167 285.5,616.833 283.5,617.5C 286.28,615.592 288.947,613.425 291.5,611C 295.849,608.151 300.516,605.984 305.5,604.5 Z"
       id="path3490" />
  </g>
  <g
     id="g3496">
    <path
       style="opacity:1"
       fill="#8d8d8d"
       d="M 607.5,603.5 C 605.723,604.6 603.723,605.434 601.5,606C 570.502,606.5 539.502,606.667 508.5,606.5C 538.997,605.668 569.664,605.168 600.5,605C 602.74,604.023 605.073,603.523 607.5,603.5 Z"
       id="path3494" />
  </g>
  <g
     id="g3504">
    <path
       style="opacity:1"
       fill="#d5d5d5"
       d="M 323.5,605.5 C 324.5,605.5 325.5,605.5 326.5,605.5C 331.833,606.167 337.167,606.833 342.5,607.5C 329.496,607.333 316.496,607.5 303.5,608C 298.993,610.782 294.326,613.282 289.5,615.5C 293.694,611.835 298.361,608.669 303.5,606C 310.158,605.5 316.825,605.334 323.5,605.5 Z"
       id="path3502" />
  </g>
  <g
     id="g3508">
    <path
       style="opacity:1"
       fill="#6b6b6b"
       d="m 385.5,608.5 c -14.346,0.075 -28.679,-0.258 -43,-1 -5.333,-0.667 -10.667,-1.333 -16,-2 13.69522,-0.005 36.07636,-1.68474 49.00393,-0.53702 5.66072,0.50256 9.42921,1.62679 9.99607,3.53702 z"
       id="path3506"
       sodipodi:nodetypes="cccsc" />
  </g>
  <g
     id="g3512">
    <path
       style="opacity:1;fill:none;stroke:#000000;stroke-opacity:1"
       fill="#4f4f4f"
       d="M 99.219493,613.56851 C 99.433493,611.92451 100.38,608.356 99.5,607 c -3.914,-1.283 -7.914,-2.116 -12,-2.5 -3.7708,-1.52 -7.4375,-3.186 -11,-5 -0.17,-1.322 -0.723105,-2.686 0.704498,-3.5985 2.474335,-1.02226 4.864339,-1.27812 10.250519,-2.5985 6.105,-1.496 9.483383,-1.966 16.044983,-1.803 -0.221,-2.164 -1.024,-4.1255 -2.803,-5.2955"
       id="path3510"
       sodipodi:nodetypes="cccccccc" />
  </g>
  <g
     id="g3520">
    <path
       style="opacity:1"
       fill="#3e3e3e"
       d="M 692.5,572.5 C 692.5,573.833 693.167,574.5 694.5,574.5C 685.387,578.384 676.054,582.218 666.5,586C 661.136,586.417 656.47,588.25 652.5,591.5C 648.603,591.726 645.27,593.059 642.5,595.5C 628.302,599.216 614.302,603.549 600.5,608.5C 595.36,607.512 590.026,607.179 584.5,607.5C 584.5,609.5 584.5,611.5 584.5,613.5C 586.5,613.167 588.5,612.833 590.5,612.5C 589.571,613.315 588.571,614.148 587.5,615C 579.592,616.297 572.259,618.797 565.5,622.5C 560.255,623.721 555.255,625.387 550.5,627.5C 545.155,629.171 539.822,630.837 534.5,632.5C 531.001,632.741 530.668,631.908 533.5,630C 537.468,628.962 541.135,627.462 544.5,625.5C 545.635,623.787 547.302,623.12 549.5,623.5C 559.814,620.763 569.814,617.43 579.5,613.5C 582.179,613.475 583.512,612.142 583.5,609.5C 565.007,608.503 546.341,608.17 527.5,608.5C 521.355,607.51 515.022,607.177 508.5,607.5C 508.737,608.791 508.404,609.791 507.5,610.5C 507.232,608.901 507.566,607.568 508.5,606.5C 539.502,606.667 570.502,606.5 601.5,606C 603.723,605.434 605.723,604.6 607.5,603.5C 607.5,603.167 607.5,602.833 607.5,602.5C 616.678,600.558 625.344,597.558 633.5,593.5C 640.623,589.679 648.29,587.012 656.5,585.5C 661.011,584.069 665.345,582.402 669.5,580.5C 674.948,577.717 680.614,575.383 686.5,573.5C 688.5,573.167 690.5,572.833 692.5,572.5 Z"
       id="path3518" />
  </g>
  <g
     id="g3528">
    <path
       style="opacity:1"
       fill="#5f5f5f"
       d="M 527.5,608.5 C 546.341,608.17 565.007,608.503 583.5,609.5C 560.661,609.169 537.994,609.503 515.5,610.5C 512.089,609.933 510.089,611.266 509.5,614.5C 509.178,612.278 509.845,610.444 511.5,609C 516.823,608.501 522.156,608.334 527.5,608.5 Z"
       id="path3526" />
  </g>
  <g
     id="g3532">
    <path
       style="opacity:1"
       fill="#232323"
       d="M 600.5,608.5 C 600.389,609.117 600.056,609.617 599.5,610C 596.301,610.401 593.301,611.234 590.5,612.5C 588.5,612.833 586.5,613.167 584.5,613.5C 584.5,611.5 584.5,609.5 584.5,607.5C 590.026,607.179 595.36,607.512 600.5,608.5 Z"
       id="path3530" />
  </g>
  <g
     id="g3556">
    <path
       style="opacity:1"
       fill="#b4b4b4"
       d="M 385.5,608.5 C 388.833,608.5 392.167,608.5 395.5,608.5C 395.691,612.288 394.358,615.288 391.5,617.5C 392.933,615.442 393.6,613.108 393.5,610.5C 390.302,611.036 387.635,610.369 385.5,608.5 Z"
       id="path3554" />
  </g>
  <g
     id="g3568">
    <path
       style="opacity:1"
       fill="#838383"
       d="M 277.5,614.5 C 277.167,615.5 276.5,616.167 275.5,616.5C 271.358,618.882 267.025,620.882 262.5,622.5C 266.789,618.522 271.789,615.855 277.5,614.5 Z"
       id="path3566" />
  </g>
  <g
     id="g3576">
    <path
       style="opacity:1"
       fill="#949494"
       d="M 391.5,617.5 C 391.155,620.198 389.822,622.198 387.5,623.5C 388.34,621.147 389.674,619.147 391.5,617.5 Z"
       id="path3574" />
  </g>
  <g
     id="g3588">
    <path
       style="opacity:1"
       fill="#2a2a2a"
       d="M 402.5,608.5 C 400.738,609.262 399.738,610.596 399.5,612.5C 397.674,614.147 396.34,616.147 395.5,618.5C 393.478,620.531 391.811,622.865 390.5,625.5C 389.698,626.952 389.198,628.618 389,630.5C 388.005,631.066 387.172,631.733 386.5,632.5C 385.833,632.833 385.167,633.167 384.5,633.5C 384.19,632.262 383.69,632.262 383,633.5C 382.667,634.5 382.333,635.5 382,636.5C 381.831,650.673 381.331,664.673 380.5,678.5C 380.5,663.5 380.5,648.5 380.5,633.5C 381.794,632.71 382.961,631.71 384,630.5C 384.989,628.03 386.155,625.697 387.5,623.5C 389.822,622.198 391.155,620.198 391.5,617.5C 394.358,615.288 395.691,612.288 395.5,608.5C 392.167,608.5 388.833,608.5 385.5,608.5C 384.319,606.933 382.653,606.099 380.5,606C 388.188,605.169 395.855,605.335 403.5,606.5C 403.137,607.183 402.804,607.85 402.5,608.5 Z"
       id="path3586" />
  </g>
  <g
     id="g3592">
    <path
       style="opacity:1"
       fill="#272727"
       d="M 275.5,616.5 C 272.819,618.308 272.985,619.641 276,620.5C 278.465,619.349 280.965,618.349 283.5,617.5C 281.075,620.762 277.742,622.262 273.5,622C 272.614,623.615 271.614,625.115 270.5,626.5C 268.5,626.5 266.5,626.5 264.5,626.5C 264.5,627.833 264.5,629.167 264.5,630.5C 261.789,630.185 259.456,630.852 257.5,632.5C 257.719,631.325 257.386,630.325 256.5,629.5C 255.583,630.127 254.583,630.461 253.5,630.5C 256.5,627.833 259.5,625.167 262.5,622.5C 267.025,620.882 271.358,618.882 275.5,616.5 Z"
       id="path3590" />
  </g>
  <g
     id="g3608">
    <path
       style="opacity:1"
       fill="#8d8d8d"
       d="M 270.5,626.5 C 269.081,627.451 267.415,627.784 265.5,627.5C 265.737,628.791 265.404,629.791 264.5,630.5C 264.5,629.167 264.5,627.833 264.5,626.5C 266.5,626.5 268.5,626.5 270.5,626.5 Z"
       id="path3606" />
  </g>
  <g
     id="g3640">
    <path
       style="opacity:1"
       fill="#676767"
       d="M 544.5,625.5 C 541.135,627.462 537.468,628.962 533.5,630C 530.668,631.908 531.001,632.741 534.5,632.5C 533.5,633.167 532.5,633.833 531.5,634.5C 531.389,635.117 531.056,635.617 530.5,636C 526.877,637.156 523.211,638.156 519.5,639C 518.219,640.409 517.219,641.909 516.5,643.5C 516.178,641.278 516.845,639.444 518.5,638C 522.881,636.947 526.881,635.28 530.5,633C 528.866,632.506 527.199,632.34 525.5,632.5C 531.308,629.225 537.641,626.892 544.5,625.5 Z"
       id="path3638" />
  </g>
  <g
     id="g3652">
    <path
       style="opacity:1"
       fill="#fdfdfd"
       d="M 1658.5,636.5 C 1658.5,637.167 1658.5,637.833 1658.5,638.5C 1648.49,638.334 1638.49,638.5 1628.5,639C 1627.75,639.671 1627.41,640.504 1627.5,641.5C 1623.41,647.59 1619.74,653.923 1616.5,660.5C 1613.76,662.975 1611.76,665.975 1610.5,669.5C 1609.57,670.936 1608.4,672.269 1607,673.5C 1604.47,678.553 1601.97,683.553 1599.5,688.5C 1595.35,694.757 1591.85,701.424 1589,708.5C 1587.28,709.384 1586.11,710.717 1585.5,712.5C 1583.07,714.046 1581.74,716.379 1581.5,719.5C 1579.81,720.475 1578.31,721.808 1577,723.5C 1574.43,729.643 1571.59,735.643 1568.5,741.5C 1567.83,741.5 1567.5,741.833 1567.5,742.5C 1562.83,742.5 1558.17,742.5 1553.5,742.5C 1553.08,741.778 1552.42,741.278 1551.5,741C 1545.18,740.5 1538.84,740.334 1532.5,740.5C 1532.17,740.5 1531.83,740.5 1531.5,740.5C 1513.69,738.897 1495.69,738.23 1477.5,738.5C 1460.84,737.814 1444.18,737.481 1427.5,737.5C 1427.17,737.5 1426.83,737.5 1426.5,737.5C 1414.63,736.993 1405.97,736.327 1400.5,735.5C 1406.18,735.666 1411.84,735.499 1417.5,735C 1419.88,734.777 1421.55,733.61 1422.5,731.5C 1425.2,731.155 1427.2,729.822 1428.5,727.5C 1431.29,727.378 1433.29,726.044 1434.5,723.5C 1436.17,722.833 1437.83,722.167 1439.5,721.5C 1443.36,720.306 1446.36,717.973 1448.5,714.5C 1452.57,714.092 1455.57,712.092 1457.5,708.5C 1464.21,706.814 1469.54,703.147 1473.5,697.5C 1478.6,696.391 1482.6,693.724 1485.5,689.5C 1487.85,689.408 1489.51,688.408 1490.5,686.5C 1491.8,684.178 1493.8,682.845 1496.5,682.5C 1500.41,680.912 1503.74,678.579 1506.5,675.5C 1507.87,675.657 1509.21,675.49 1510.5,675C 1513.04,672.295 1515.7,669.795 1518.5,667.5C 1520.85,667.408 1522.51,666.408 1523.5,664.5C 1527.27,662.631 1530.6,660.297 1533.5,657.5C 1539.15,653.007 1545.15,649.007 1551.5,645.5C 1555.1,644.209 1558.1,642.209 1560.5,639.5C 1563.67,638.99 1566.01,637.323 1567.5,634.5C 1573.14,633.937 1578.81,633.603 1584.5,633.5C 1609.52,633.689 1634.18,634.689 1658.5,636.5 Z"
       id="path3650" />
  </g>
  <g
     id="g3668">
    <path
       style="opacity:1"
       fill="#717171"
       d="M 262.5,622.5 C 259.5,625.167 256.5,627.833 253.5,630.5C 250.832,632.501 247.832,634.001 244.5,635C 240.66,639.37 235.993,642.203 230.5,643.5C 240.816,636.006 251.483,629.006 262.5,622.5 Z"
       id="path3666" />
  </g>
  <g
     id="g3696">
    <path
       style="opacity:1"
       fill="#5b5b5b"
       d="M 257.5,634.5 C 253.701,637.952 249.368,640.618 244.5,642.5C 247.932,640.248 251.266,637.748 254.5,635C 255.448,634.517 256.448,634.351 257.5,634.5 Z"
       id="path3694" />
  </g>
  <g
     id="g3704">
    <path
       style="opacity:1"
       fill="#161616"
       d="M 257.5,632.5 C 257.5,633.167 257.5,633.833 257.5,634.5C 256.448,634.351 255.448,634.517 254.5,635C 251.266,637.748 247.932,640.248 244.5,642.5C 240.394,644.388 236.394,646.554 232.5,649C 230.937,649.759 229.937,650.926 229.5,652.5C 225.221,651.454 222.555,652.954 221.5,657C 219.285,658.044 216.952,658.71 214.5,659C 213.833,660.333 213.167,661.667 212.5,663C 209.576,663.988 206.576,664.654 203.5,665C 202.748,665.671 202.414,666.504 202.5,667.5C 200.409,671.552 197.409,672.386 193.5,670C 197.308,667.36 200.641,664.193 203.5,660.5C 207.598,658.952 211.598,657.119 215.5,655C 217.041,653.629 218.375,652.129 219.5,650.5C 222.609,649.227 225.609,647.727 228.5,646C 229.381,645.292 230.047,644.458 230.5,643.5C 235.993,642.203 240.66,639.37 244.5,635C 247.832,634.001 250.832,632.501 253.5,630.5C 254.583,630.461 255.583,630.127 256.5,629.5C 257.386,630.325 257.719,631.325 257.5,632.5 Z"
       id="path3702" />
  </g>
  <g
     id="g3724">
    <path
       style="opacity:1"
       fill="#585858"
       d="M 244.5,642.5 C 240.053,646.564 235.053,649.898 229.5,652.5C 229.937,650.926 230.937,649.759 232.5,649C 236.394,646.554 240.394,644.388 244.5,642.5 Z"
       id="path3722" />
  </g>
  <g
     id="g3732">
    <path
       style="opacity:1"
       fill="#878787"
       d="M 230.5,643.5 C 230.047,644.458 229.381,645.292 228.5,646C 225.609,647.727 222.609,649.227 219.5,650.5C 222.379,646.959 226.046,644.626 230.5,643.5 Z"
       id="path3730" />
  </g>
  <g
     id="g3740">
    <path
       style="opacity:1"
       fill="#606060"
       d="M 90.5,647.5 C 90.6276,651.636 89.1276,654.969 86,657.5C 85.95,662.127 85.1167,666.46 83.5,670.5C 83.6695,668.152 84.0029,665.818 84.5,663.5C 84.0291,661.754 83.3624,660.087 82.5,658.5C 83.8323,656.337 85.6656,654.67 88,653.5C 88.5662,651.277 89.3995,649.277 90.5,647.5 Z"
       id="path3738" />
  </g>
  <g
     id="g3748">
    <path
       style="opacity:1"
       fill="#6b6b6b"
       d="M 229.5,652.5 C 228.048,653.302 226.382,653.802 224.5,654C 222.679,658.415 219.346,660.582 214.5,660.5C 214.703,662.39 214.037,663.89 212.5,665C 209.155,665.943 205.822,666.777 202.5,667.5C 202.414,666.504 202.748,665.671 203.5,665C 206.576,664.654 209.576,663.988 212.5,663C 213.167,661.667 213.833,660.333 214.5,659C 216.952,658.71 219.285,658.044 221.5,657C 222.555,652.954 225.221,651.454 229.5,652.5 Z"
       id="path3746" />
  </g>
  <g
     id="g3756">
    <path
       style="opacity:1"
       fill="#272727"
       d="m 527.5,608.5 c -5.344,-0.166 -10.677,10e-4 -16,0.5 -1.655,1.444 -2.322,3.278 -2,5.5 v 1 c -1.574,1.602 -2.241,3.602 -2,6 v 1 c -1.982,2.873 -2.315,5.873 -1,9 3.491,1.72 7.158,3.054 11,4 3.158,0.079 5.825,-0.921 8,-3 1.699,-0.16 3.366,0.006 5,0.5 -3.619,2.28 -7.619,3.947 -12,5 -1.655,1.444 -2.322,3.278 -2,5.5 -1.618,2.671 -2.285,5.671 -2,9 2.104,-0.299 4.104,0.034 6,1 -3.116,0.42 -5.783,1.42 -8,3 -0.667,2 -1.333,4 -2,6 -0.529,4.895 -1.862,9.562 -4,14 -1.238,1.714 -1.905,3.714 -2,6 -1.395,1.554 -2.061,1.221 -2,-1 0.656,-1.953 0.989,-3.953 1,-6 3.139,-10.889 7.89551,-23.42131 10.08951,-34.53231 1.39184,-3.30039 -5.92045,-3.53915 -12.2786,-7.77119 1,-1.333 -0.0895,-4.06 0.91049,-5.393 1.667,-6.003 3.6126,-11.3065 5.2786,-17.3035 0.904,-0.709 1.237,-1.709 1,-3 6.522,-0.323 12.855,0.01 19,1 z"
       id="path3754"
       sodipodi:nodetypes="cccccccccccccccccccccccccc" />
  </g>
  <g
     id="g3772">
    <path
       style="opacity:1"
       fill="#797979"
       d="M 219.5,650.5 C 218.375,652.129 217.041,653.629 215.5,655C 211.598,657.119 207.598,658.952 203.5,660.5C 208.542,656.81 213.875,653.477 219.5,650.5 Z"
       id="path3770" />
  </g>
  <g
     id="g3816">
    <path
       style="opacity:1;fill:#676767;stroke:#e50000;stroke-width:1;stroke-dasharray:none;stroke-opacity:1;fill-opacity:1"
       fill="#282828"
       d="m 116.5,715.5 c 2.445,-0.812 4.778,-1.812 7,-3 -3.406,3.017 -6.74,6.017 -10,9 -1.083,-0.039 -2.083,-0.373 -3,-1 -0.65,-1.684 -1.65,-3.017 -3,-4 -4.899,-4.747 -8.3988,-10.414 -10.5,-17 -2.9454,-4.251 -6.112,-8.251 -9.5,-12 -1.1401,-2.28 -2.3068,-4.614 -3.5,-7 -0.498,-2.982 -0.6646,-5.982 -0.5,-9 v -1 c 1.6167,-4.04 2.45,-8.373 2.5,-13 3.1276,-2.531 4.6276,-5.864 4.5,-10 2.7751,-10.992 5.4418,-21.992 8,-33"
       id="path3814"
       sodipodi:nodetypes="ccccccccccccc" />
  </g>
  <g
     id="g3820" />
  <g
     id="g3872">
    <path
       style="opacity:1"
       fill="#505050"
       d="M 203.5,660.5 C 200.641,664.193 197.308,667.36 193.5,670C 197.409,672.386 200.409,671.552 202.5,667.5C 202.607,669.903 201.607,671.736 199.5,673C 189.934,678.608 180.601,684.441 171.5,690.5C 171.167,690.5 170.833,690.5 170.5,690.5C 170.369,689.624 170.702,688.957 171.5,688.5C 177.813,684.531 184.146,680.531 190.5,676.5C 191.23,674.659 191.897,672.825 192.5,671C 192.167,670.833 191.833,670.667 191.5,670.5C 189.317,672.784 186.65,674.118 183.5,674.5C 185.833,672.5 188.167,670.5 190.5,668.5C 194.993,666.087 199.326,663.421 203.5,660.5 Z"
       id="path3870" />
  </g>
  <g
     id="g3896">
    <path
       style="opacity:1"
       fill="#a8a8a8"
       d="M 190.5,668.5 C 188.167,670.5 185.833,672.5 183.5,674.5C 182.391,674.557 181.391,674.89 180.5,675.5C 182.756,671.732 186.089,669.398 190.5,668.5 Z"
       id="path3894" />
  </g>
  <g
     id="g3900">
    <path
       style="opacity:1"
       fill="#6a6a6a"
       d="M 510.5,662.5 C 510.5,664.5 510.5,666.5 510.5,668.5C 511.833,668.5 513.167,668.5 514.5,668.5C 514.649,669.552 514.483,670.552 514,671.5C 512.266,672.249 510.433,672.749 508.5,673C 507.915,674.302 507.249,675.469 506.5,676.5C 508.638,672.062 509.971,667.395 510.5,662.5 Z"
       id="path3898" />
  </g>
  <g
     id="g3968">
    <path
       style="opacity:1"
       fill="#8d8d8d"
       d="M 83.5,671.5 C 83.3354,674.518 83.502,677.518 84,680.5C 85.1932,682.886 86.3599,685.22 87.5,687.5C 83.3902,685.329 81.3902,681.829 81.5,677C 81.7006,674.889 82.3673,673.055 83.5,671.5 Z"
       id="path3966" />
  </g>
  <g
     id="g4000">
    <path
       style="opacity:1"
       fill="#444444"
       d="M 503.5,675.5 C 503.489,677.547 503.156,679.547 502.5,681.5C 502.439,683.721 503.105,684.054 504.5,682.5C 503.659,687.739 502.326,692.739 500.5,697.5C 501.221,694.183 501.388,690.849 501,687.5C 500.617,688.056 500.117,688.389 499.5,688.5C 500.34,683.917 501.674,679.584 503.5,675.5 Z"
       id="path3998" />
  </g>
  <g
     id="g4032">
    <path
       style="opacity:1"
       fill="#191919"
       d="M 384.5,633.5 C 383.578,649.476 383.245,665.476 383.5,681.5C 383.5,690.833 383.5,700.167 383.5,709.5C 383.5,710.833 383.5,712.167 383.5,713.5C 382.506,723.319 382.173,733.319 382.5,743.5C 381.833,743.5 381.5,743.833 381.5,744.5C 380.504,729.676 380.171,714.676 380.5,699.5C 380.157,692.432 380.157,685.432 380.5,678.5C 381.331,664.673 381.831,650.673 382,636.5C 382.333,635.5 382.667,634.5 383,633.5C 383.69,632.262 384.19,632.262 384.5,633.5 Z"
       id="path4030" />
  </g>
  <g
     id="g4044">
    <path
       style="opacity:1"
       fill="#1f1f1f"
       d="M 500.5,697.5 C 500.5,697.833 500.5,698.167 500.5,698.5C 499.076,700.515 498.41,702.848 498.5,705.5C 495.429,712.778 493.429,720.445 492.5,728.5C 492.611,729.117 492.944,729.617 493.5,730C 491.881,730.236 490.881,731.069 490.5,732.5C 489.883,732.611 489.383,732.944 489,733.5C 489.139,729.584 488.973,725.751 488.5,722C 490.677,720.814 491.677,718.981 491.5,716.5C 491.5,716.167 491.5,715.833 491.5,715.5C 492.693,715.03 493.36,714.03 493.5,712.5C 493.997,710.182 494.33,707.848 494.5,705.5C 494.232,703.901 494.566,702.568 495.5,701.5C 497.61,697.498 498.943,693.165 499.5,688.5C 500.117,688.389 500.617,688.056 501,687.5C 501.388,690.849 501.221,694.183 500.5,697.5 Z"
       id="path4042" />
  </g>
  <g
     id="g4056">
    <path
       style="opacity:1"
       fill="#a7a7a7"
       d="M 167.5,683.5 C 165.763,685.55 163.763,687.383 161.5,689C 150.969,695.431 140.303,701.598 129.5,707.5C 141.442,698.519 154.109,690.519 167.5,683.5 Z"
       id="path4054" />
  </g>
  <g
     id="g4060">
    <path
       style="opacity:1"
       fill="#a6a6a6"
       d="M 170.5,690.5 C 170.833,690.5 171.167,690.5 171.5,690.5C 169.779,692.694 167.445,693.861 164.5,694C 162.471,697.351 159.471,699.184 155.5,699.5C 155.414,698.504 155.748,697.671 156.5,697C 158.167,696.667 159.833,696.333 161.5,696C 163.335,692.323 166.335,690.49 170.5,690.5 Z"
       id="path4058" />
  </g>
  <g
     id="g4072">
    <path
       style="opacity:1"
       fill="#262626"
       d="M 170.5,690.5 C 166.335,690.49 163.335,692.323 161.5,696C 159.833,696.333 158.167,696.667 156.5,697C 155.748,697.671 155.414,698.504 155.5,699.5C 155.389,700.117 155.056,700.617 154.5,701C 152.167,701.333 149.833,701.667 147.5,702C 146.748,702.671 146.414,703.504 146.5,704.5C 143.717,707.427 140.384,709.427 136.5,710.5C 136.762,709.022 136.429,707.689 135.5,706.5C 133.026,707.32 130.693,708.32 128.5,709.5C 128.833,708.833 129.167,708.167 129.5,707.5C 140.303,701.598 150.969,695.431 161.5,689C 163.763,687.383 165.763,685.55 167.5,683.5C 172.372,681.571 176.705,678.905 180.5,675.5C 181.391,674.89 182.391,674.557 183.5,674.5C 186.65,674.118 189.317,672.784 191.5,670.5C 191.833,670.667 192.167,670.833 192.5,671C 191.897,672.825 191.23,674.659 190.5,676.5C 184.146,680.531 177.813,684.531 171.5,688.5C 170.702,688.957 170.369,689.624 170.5,690.5 Z"
       id="path4070" />
  </g>
  <g
     id="g4116">
    <path
       style="opacity:1"
       fill="#757575"
       d="M 146.5,704.5 C 146.141,706.371 145.141,707.871 143.5,709C 137.781,711.56 132.448,714.727 127.5,718.5C 127.833,717.833 128.167,717.167 128.5,716.5C 131.128,714.512 133.795,712.512 136.5,710.5C 140.384,709.427 143.717,707.427 146.5,704.5 Z"
       id="path4114" />
  </g>
  <g
     id="g4144">
    <path
       style="opacity:1"
       fill="#b8b8b8"
       d="M 129.5,707.5 C 129.167,708.167 128.833,708.833 128.5,709.5C 126.566,710.11 124.899,711.11 123.5,712.5C 121.278,713.688 118.945,714.688 116.5,715.5C 120.249,712.114 124.583,709.447 129.5,707.5 Z"
       id="path4142" />
  </g>
  <g
     id="g4152">
    <path
       style="opacity:1"
       fill="#151515"
       d="M 136.5,710.5 C 133.795,712.512 131.128,714.512 128.5,716.5C 122.903,717.702 119.403,721.035 118,726.5C 117.617,725.944 117.117,725.611 116.5,725.5C 116.167,725.5 115.833,725.5 115.5,725.5C 115.267,723.938 114.6,722.605 113.5,721.5C 116.76,718.517 120.094,715.517 123.5,712.5C 124.899,711.11 126.566,710.11 128.5,709.5C 130.693,708.32 133.026,707.32 135.5,706.5C 136.429,707.689 136.762,709.022 136.5,710.5 Z"
       id="path4150" />
  </g>
  <g
     id="g4260">
    <path
       style="opacity:1"
       fill="#adadad"
       d="M 107.5,716.5 C 108.85,717.483 109.85,718.816 110.5,720.5C 111.417,721.127 112.417,721.461 113.5,721.5C 114.6,722.605 115.267,723.938 115.5,725.5C 113.299,724.434 110.965,723.767 108.5,723.5C 108.552,721.097 108.219,718.764 107.5,716.5 Z"
       id="path4258" />
  </g>
  <g
     id="g4452">
    <path
       style="opacity:1"
       fill="#707070"
       d="M 379.5,700.5 C 379.472,725.172 379.139,749.838 378.5,774.5C 378.826,782.684 378.492,790.684 377.5,798.5C 377.451,765.657 378.118,732.991 379.5,700.5 Z"
       id="path4450" />
  </g>
  <g
     id="g4592">
    <path
       style="opacity:1"
       fill="#1a1a1a"
       d="M 488.5,736.5 C 488.5,737.833 488.5,739.167 488.5,740.5C 487.527,742.948 487.194,745.615 487.5,748.5C 486.5,748.5 485.5,748.5 484.5,748.5C 484.958,744.462 485.624,740.462 486.5,736.5C 486.5,736.167 486.5,735.833 486.5,735.5C 487.925,733.969 488.591,734.302 488.5,736.5 Z"
       id="path4590" />
  </g>
  <g
     id="g4928">
    <path
       style="opacity:1"
       fill="#242424"
       d="M 379.5,699.5 C 379.833,699.5 380.167,699.5 380.5,699.5C 380.171,714.676 380.504,729.676 381.5,744.5C 381.5,759.5 381.5,774.5 381.5,789.5C 380.669,777.007 380.169,764.34 380,751.5C 379.829,759.344 379.329,767.011 378.5,774.5C 379.139,749.838 379.472,725.172 379.5,700.5C 379.5,700.167 379.5,699.833 379.5,699.5 Z"
       id="path4926" />
  </g>
  <g
     id="g5476">
    <path
       style="opacity:1"
       fill="#141414"
       d="M 381.5,789.5 C 381.5,789.833 381.5,790.167 381.5,790.5C 381.5,791.5 381.5,792.5 381.5,793.5C 380.524,804.085 380.191,814.752 380.5,825.5C 379.005,818.909 378.005,812.242 377.5,805.5C 377.5,804.833 377.167,804.5 376.5,804.5C 376.082,803.778 375.416,803.278 374.5,803C 376.863,802.411 377.863,800.911 377.5,798.5C 378.492,790.684 378.826,782.684 378.5,774.5C 379.329,767.011 379.829,759.344 380,751.5C 380.169,764.34 380.669,777.007 381.5,789.5 Z"
       id="path5474" />
  </g>
  <g
     id="g5944">
    <path
       style="opacity:1"
       fill="#5b5b5b"
       d="M 467.5,815.5 C 469.833,815.5 472.167,815.5 474.5,815.5C 474.5,816.5 474.5,817.5 474.5,818.5C 472.369,819.314 470.036,819.814 467.5,820C 466.219,821.409 465.219,822.909 464.5,824.5C 465.03,821.318 466.03,818.318 467.5,815.5 Z"
       id="path5942" />
  </g>
  <g
     id="g5988">
    <path
       style="opacity:1"
       fill="#333333"
       d="M 377.5,805.5 C 378.005,812.242 379.005,818.909 380.5,825.5C 380.833,825.5 381.167,825.5 381.5,825.5C 380.596,836.135 380.263,846.802 380.5,857.5C 379.833,847.326 379.167,836.992 378.5,826.5C 377.833,836.325 377.167,845.992 376.5,855.5C 376.5,847.167 376.5,838.833 376.5,830.5C 375.411,828.883 373.744,828.05 371.5,828C 373.653,827.901 375.319,827.067 376.5,825.5C 376.5,825.167 376.5,824.833 376.5,824.5C 377.49,818.355 377.823,812.022 377.5,805.5 Z"
       id="path5986" />
  </g>
  <g
     id="g6084">
    <path
       style="opacity:1"
       fill="#898989"
       d="M 464.5,825.5 C 464.741,827.898 464.074,829.898 462.5,831.5C 462.259,829.102 462.926,827.102 464.5,825.5 Z"
       id="path6082" />
  </g>
  <g
     id="g6100">
    <path
       style="opacity:1"
       fill="#7c7c7c"
       d="M 462.5,831.5 C 462.59,834.152 461.924,836.485 460.5,838.5C 460.41,835.848 461.076,833.515 462.5,831.5 Z"
       id="path6098" />
  </g>
  <g
     id="g6252">
    <path
       style="opacity:1"
       fill="#1f1f1f"
       d="M 380.5,857.5 C 380.5,857.833 380.5,858.167 380.5,858.5C 380.539,859.583 380.873,860.583 381.5,861.5C 380.37,862.622 379.703,863.956 379.5,865.5C 379.5,875.5 379.5,885.5 379.5,895.5C 378.507,904.318 378.173,913.318 378.5,922.5C 380.735,922.795 382.735,922.461 384.5,921.5C 384.833,921.5 385.167,921.5 385.5,921.5C 386.49,927.31 386.823,933.31 386.5,939.5C 385.833,935.167 385.167,930.833 384.5,926.5C 382.735,925.539 380.735,925.205 378.5,925.5C 377.503,942.992 377.17,960.659 377.5,978.5C 377.694,980.912 379.027,981.912 381.5,981.5C 381.166,985.648 378.833,987.315 374.5,986.5C 374.5,973.167 374.5,959.833 374.5,946.5C 375.457,935.217 375.79,923.884 375.5,912.5C 375.5,893.833 375.5,875.167 375.5,856.5C 376.167,856.5 376.5,856.167 376.5,855.5C 377.167,845.992 377.833,836.325 378.5,826.5C 379.167,836.992 379.833,847.326 380.5,857.5 Z"
       id="path6250" />
  </g>
  <g
     id="g6316">
    <path
       style="opacity:1"
       fill="#bcbcbc"
       d="M 451.5,871.5 C 451.33,873.848 450.997,876.182 450.5,878.5C 450.36,880.03 449.693,881.03 448.5,881.5C 448.59,877.786 449.59,874.452 451.5,871.5 Z"
       id="path6314" />
  </g>
  <g
     id="g6320">
    <path
       style="opacity:1"
       fill="#272727"
       d="M 483.5,755.5 C 483.007,757.806 482.674,760.139 482.5,762.5C 479.904,768.214 478.237,774.214 477.5,780.5C 476.549,781.919 476.216,783.585 476.5,785.5C 477.978,785.238 479.311,785.571 480.5,786.5C 478.922,787.298 477.256,787.798 475.5,788C 474.177,788.816 473.511,789.983 473.5,791.5C 472.539,794.426 471.873,797.426 471.5,800.5C 469.095,805.112 467.762,810.112 467.5,815.5C 466.03,818.318 465.03,821.318 464.5,824.5C 464.5,824.833 464.5,825.167 464.5,825.5C 462.926,827.102 462.259,829.102 462.5,831.5C 461.076,833.515 460.41,835.848 460.5,838.5C 456.892,849.324 453.892,860.324 451.5,871.5C 449.59,874.452 448.59,877.786 448.5,881.5C 447.043,887.601 445.376,893.601 443.5,899.5C 441.59,902.452 440.59,905.786 440.5,909.5C 439.076,911.515 438.41,913.848 438.5,916.5C 436.926,918.102 436.259,920.102 436.5,922.5C 436.5,922.833 436.5,923.167 436.5,923.5C 433.397,929.74 431.397,936.407 430.5,943.5C 427.729,952.43 425.063,961.43 422.5,970.5C 421.167,970.5 420.5,971.167 420.5,972.5C 416.129,977.873 411.129,982.539 405.5,986.5C 395.012,987.686 384.678,987.686 374.5,986.5C 378.833,987.315 381.166,985.648 381.5,981.5C 379.027,981.912 377.694,980.912 377.5,978.5C 380.4,979.954 381.733,978.954 381.5,975.5C 382.709,963.533 383.376,951.533 383.5,939.5C 384.485,935.366 384.818,931.032 384.5,926.5C 385.167,930.833 385.833,935.167 386.5,939.5C 385.66,948.138 385.327,956.805 385.5,965.5C 384.661,971.675 383.994,978.008 383.5,984.5C 390.159,985.975 396.826,985.475 403.5,983C 405.324,982.34 406.657,981.173 407.5,979.5C 409.332,978.752 410.999,977.752 412.5,976.5C 416.944,974.192 418.611,970.525 417.5,965.5C 419.973,965.912 421.306,964.912 421.5,962.5C 421.629,960.784 421.962,959.117 422.5,957.5C 423.588,949.804 425.588,942.47 428.5,935.5C 429.224,932.477 430.224,929.477 431.5,926.5C 431.5,925.833 431.5,925.167 431.5,924.5C 436.76,907.848 441.76,891.015 446.5,874C 446.392,872.319 445.725,871.152 444.5,870.5C 443.571,869.685 442.571,868.852 441.5,868C 444.146,867.503 446.813,867.336 449.5,867.5C 449.5,866.167 449.5,864.833 449.5,863.5C 452.339,852.48 455.339,841.48 458.5,830.5C 461.098,824.128 463.098,817.461 464.5,810.5C 465.341,808.621 465.675,806.621 465.5,804.5C 464.209,804.737 463.209,804.404 462.5,803.5C 464.218,802.776 466.052,802.109 468,801.5C 468.49,800.207 468.657,798.873 468.5,797.5C 468.5,796.167 468.5,794.833 468.5,793.5C 469.117,793.389 469.617,793.056 470,792.5C 470.29,790.08 470.79,787.746 471.5,785.5C 474.01,776.459 476.677,767.459 479.5,758.5C 480.375,756.432 481.541,754.432 483,752.5C 483.483,753.448 483.649,754.448 483.5,755.5 Z"
       id="path6318" />
  </g>
  <g
     id="g6412">
    <path
       style="opacity:1"
       fill="#818181"
       d="M 420.5,972.5 C 417.188,979.145 412.188,984.145 405.5,987.5C 405.5,987.167 405.5,986.833 405.5,986.5C 411.129,982.539 416.129,977.873 420.5,972.5 Z"
       id="path6410" />
  </g>
  <g
     id="g6416">
    <path
       style="opacity:1"
       fill="#606060"
       d="M 373.5,946.5 C 373.833,946.5 374.167,946.5 374.5,946.5C 374.5,959.833 374.5,973.167 374.5,986.5C 384.678,987.686 395.012,987.686 405.5,986.5C 405.5,986.833 405.5,987.167 405.5,987.5C 394.966,989.309 384.299,989.976 373.5,989.5C 373.5,975.167 373.5,960.833 373.5,946.5 Z"
       id="path6414" />
  </g>
</svg>
