<?xml version="1.0" encoding="UTF-8" standalone="no"?>
<svg
   version="1.1"
   width="1809px"
   height="1052px"
   style="shape-rendering:geometricPrecision; text-rendering:geometricPrecision; image-rendering:optimizeQuality; fill-rule:evenodd; clip-rule:evenodd"
   id="svg6422"
   sodipodi:docname="F-111B.svg"
   inkscape:version="1.2.2 (b0a84865, 2022-12-01)"
   xmlns:inkscape="http://www.inkscape.org/namespaces/inkscape"
   xmlns:sodipodi="http://sodipodi.sourceforge.net/DTD/sodipodi-0.dtd"
   xmlns="http://www.w3.org/2000/svg"
   xmlns:svg="http://www.w3.org/2000/svg">
  <defs
     id="defs6426" />
  <sodipodi:namedview
     id="namedview6424"
     pagecolor="#ffffff"
     bordercolor="#000000"
     borderopacity="0.25"
     inkscape:showpageshadow="2"
     inkscape:pageopacity="0.0"
     inkscape:pagecheckerboard="0"
     inkscape:deskcolor="#d1d1d1"
     showgrid="false"
     inkscape:zoom="28.714829"
     inkscape:cx="542.75093"
     inkscape:cy="364.77668"
     inkscape:window-width="1928"
     inkscape:window-height="813"
     inkscape:window-x="52"
     inkscape:window-y="119"
     inkscape:window-maximized="0"
     inkscape:current-layer="svg6422" />
  <g
     id="g736" />
  <g
     id="g960" />
  <g
     id="g2456" />
  <g
     id="g2876" />
  <g
     id="g3064" />
  <g
     id="g3112" />
  <g
     id="g3652">
    <path
       style="opacity:1"
       fill="#fdfdfd"
       d="M 1658.5,636.5 C 1658.5,637.167 1658.5,637.833 1658.5,638.5C 1648.49,638.334 1638.49,638.5 1628.5,639C 1627.75,639.671 1627.41,640.504 1627.5,641.5C 1623.41,647.59 1619.74,653.923 1616.5,660.5C 1613.76,662.975 1611.76,665.975 1610.5,669.5C 1609.57,670.936 1608.4,672.269 1607,673.5C 1604.47,678.553 1601.97,683.553 1599.5,688.5C 1595.35,694.757 1591.85,701.424 1589,708.5C 1587.28,709.384 1586.11,710.717 1585.5,712.5C 1583.07,714.046 1581.74,716.379 1581.5,719.5C 1579.81,720.475 1578.31,721.808 1577,723.5C 1574.43,729.643 1571.59,735.643 1568.5,741.5C 1567.83,741.5 1567.5,741.833 1567.5,742.5C 1562.83,742.5 1558.17,742.5 1553.5,742.5C 1553.08,741.778 1552.42,741.278 1551.5,741C 1545.18,740.5 1538.84,740.334 1532.5,740.5C 1532.17,740.5 1531.83,740.5 1531.5,740.5C 1513.69,738.897 1495.69,738.23 1477.5,738.5C 1460.84,737.814 1444.18,737.481 1427.5,737.5C 1427.17,737.5 1426.83,737.5 1426.5,737.5C 1414.63,736.993 1405.97,736.327 1400.5,735.5C 1406.18,735.666 1411.84,735.499 1417.5,735C 1419.88,734.777 1421.55,733.61 1422.5,731.5C 1425.2,731.155 1427.2,729.822 1428.5,727.5C 1431.29,727.378 1433.29,726.044 1434.5,723.5C 1436.17,722.833 1437.83,722.167 1439.5,721.5C 1443.36,720.306 1446.36,717.973 1448.5,714.5C 1452.57,714.092 1455.57,712.092 1457.5,708.5C 1464.21,706.814 1469.54,703.147 1473.5,697.5C 1478.6,696.391 1482.6,693.724 1485.5,689.5C 1487.85,689.408 1489.51,688.408 1490.5,686.5C 1491.8,684.178 1493.8,682.845 1496.5,682.5C 1500.41,680.912 1503.74,678.579 1506.5,675.5C 1507.87,675.657 1509.21,675.49 1510.5,675C 1513.04,672.295 1515.7,669.795 1518.5,667.5C 1520.85,667.408 1522.51,666.408 1523.5,664.5C 1527.27,662.631 1530.6,660.297 1533.5,657.5C 1539.15,653.007 1545.15,649.007 1551.5,645.5C 1555.1,644.209 1558.1,642.209 1560.5,639.5C 1563.67,638.99 1566.01,637.323 1567.5,634.5C 1573.14,633.937 1578.81,633.603 1584.5,633.5C 1609.52,633.689 1634.18,634.689 1658.5,636.5 Z"
       id="path3650" />
  </g>
  <g
     id="g3820" />
  <g
     id="g188"
     transform="rotate(-90,489.98214,530.07434)">
    <path
       style="opacity:1"
       fill="#cdcdcd"
       d="m 406.5,73.5 c -9.634,-0.892 -19.301,-1.2253 -29,-1 3.945,-1.3255 8.278,-1.9921 13,-2 4.333,0.1667 8.667,0.3333 13,0.5 1.442,0.3768 2.442,1.2101 3,2.5 z"
       id="path186" />
  </g>
  <g
     id="g192"
     transform="rotate(-90,489.98214,530.07434)">
    <path
       style="opacity:1"
       fill="#5c5c5c"
       d="m 377.5,73.5 c 0,-0.3333 0,-0.6667 0,-1 9.699,-0.2253 19.366,0.108 29,1 2,1.6667 4,3.3333 6,5 -1.637,-0.7178 -3.303,-0.8845 -5,-0.5 0.752,0.6708 1.086,1.5041 1,2.5 -2.51,-0.4267 -4.843,-1.0933 -7,-2 0,-0.3333 0,-0.6667 0,-1 1.478,0.262 2.811,-0.0713 4,-1 -0.209,-0.586 -0.543,-1.086 -1,-1.5 -8.954,-1.2644 -17.954,-1.7644 -27,-1.5 z"
       id="path190" />
  </g>
  <g
     id="g196"
     transform="rotate(-90,489.98214,530.07434)">
    <path
       style="opacity:1"
       fill="#323232"
       d="m 377.5,74.5 c 0,-0.3333 0,-0.6667 0,-1 9.046,-0.2644 18.046,0.2356 27,1.5 0.457,0.414 0.791,0.914 1,1.5 -1.189,0.9287 -2.522,1.262 -4,1 -5,0 -10,0 -15,0 3.077,-1.356 6.41,-2.1894 10,-2.5 -6.325,-0.4995 -12.658,-0.6662 -19,-0.5 z"
       id="path194" />
  </g>
  <g
     id="g204"
     transform="rotate(-90,489.98214,530.07434)">
    <path
       style="opacity:1"
       fill="#9e9e9e"
       d="m 414.5,79.5 c 3.333,1.3333 5.667,3.6667 7,7 -2.667,-2 -5,-4.3333 -7,-7 z"
       id="path202" />
  </g>
  <g
     id="g208"
     transform="rotate(-90,489.98214,530.07434)">
    <path
       style="opacity:1"
       fill="#888888"
       d="m 377.5,73.5 c 0,0.3333 0,0.6667 0,1 -0.992,7.8159 -1.326,15.8159 -1,24 -0.333,0 -0.667,0 -1,0 -0.635,-8.7337 0.032,-17.0671 2,-25 z"
       id="path206" />
  </g>
  <g
     id="g212"
     transform="rotate(-90,489.98214,530.07434)">
    <path
       style="opacity:1"
       fill="#373737"
       d="m 412.5,78.5 c 0.342,0.8382 1.008,1.1716 2,1 2,2.6667 4.333,5 7,7 3.084,5.5642 5.417,11.5642 7,18 0,0.667 0,1.333 0,2 -1.766,-3.785 -3.266,-7.7848 -4.5,-12 -0.49,1.2932 -0.657,2.6266 -0.5,4 -3.649,-2.5611 -7.149,-2.2278 -10.5,1 -0.333,1.333 -0.667,2.667 -1,4 -0.383,-0.556 -0.883,-0.889 -1.5,-1 -1.735,-3.3389 -1.068,-6.0056 2,-8 2.306,-0.4926 4.639,-0.8259 7,-1 0,-3.6746 -1.667,-6.3413 -5,-8 -2.589,-0.9194 -4.589,-2.586 -6,-5 0.086,-0.9959 -0.248,-1.8292 -1,-2.5 1.697,-0.3845 3.363,-0.2178 5,0.5 z"
       id="path210" />
  </g>
  <g
     id="g216"
     transform="rotate(-90,489.98214,530.07434)">
    <path
       style="opacity:1"
       fill="#b0b0b0"
       d="m 414.5,85.5 c 3.333,1.6587 5,4.3254 5,8 -2.361,0.1741 -4.694,0.5074 -7,1 1.28,-1.4313 2.947,-2.0979 5,-2 -0.543,-2.5384 -1.543,-4.8718 -3,-7 z"
       id="path214" />
  </g>
  <g
     id="g240"
     transform="rotate(-90,489.98214,530.07434)">
    <path
       style="opacity:1"
       fill="#3f3f3f"
       d="m 384.5,86.5 c -0.658,-0.8984 -1.324,-1.8984 -2,-3 -0.607,0.1236 -0.94,0.4569 -1,1 -0.995,12.8226 -1.329,25.823 -1,39 -1.161,-13.494 -1.327,-27.1604 -0.5,-41 3.669,-1.5093 5.169,-0.1759 4.5,4 z"
       id="path238" />
  </g>
  <g
     id="g244"
     transform="rotate(-90,489.98214,530.07434)">
    <path
       style="opacity:1"
       fill="#bebebe"
       d="m 428.5,104.5 c 4.367,9.786 7.367,20.12 9,31 -2.845,-9.713 -5.845,-19.38 -9,-29 0,-0.667 0,-1.333 0,-2 z"
       id="path242" />
  </g>
  <g
     id="g248"
     transform="rotate(-90,489.98214,530.07434)">
    <path
       style="opacity:1"
       fill="#989898"
       d="m 424.5,105.5 c 1.81,2.645 2.81,5.645 3,9 -1.972,-2.584 -2.972,-5.584 -3,-9 z"
       id="path246" />
  </g>
  <g
     id="g264"
     transform="rotate(-90,489.98214,530.07434)">
    <path
       style="opacity:1"
       fill="#1d1d1d"
       d="m 377.5,74.5 c 6.342,-0.1662 12.675,5e-4 19,0.5 -3.59,0.3106 -6.923,1.144 -10,2.5 0,3.6667 0,7.3333 0,11 0.165,3.3499 -0.002,6.6832 -0.5,10 -0.181,-3.1946 -0.681,-6.1946 -1.5,-9 0,-1 0,-2 0,-3 0.669,-4.1759 -0.831,-5.5093 -4.5,-4 -0.827,13.8396 -0.661,27.506 0.5,41 -0.33,17.508 0.003,34.841 1,52 -0.326,8.184 0.008,16.184 1,24 0,0.333 0,0.667 0,1 0,1.333 0,2.667 0,4 -1.073,14.834 -1.073,29.834 0,45 -0.333,4.333 -0.667,8.667 -1,13 -1.154,2.356 -2.487,2.523 -4,0.5 1.323,-0.816 1.989,-1.983 2,-3.5 0.323,-6.522 -0.01,-12.855 -1,-19 -1.526,-1.63 -3.526,-2.463 -6,-2.5 2.551,-0.002 4.551,-0.836 6,-2.5 0,-15 0,-30 0,-45 -0.289,-22.171 -0.955,-44.171 -2,-66 0,-8.667 0,-17.333 0,-26 -0.326,-8.1841 0.008,-16.1841 1,-24 z"
       id="path262" />
  </g>
  <g
     id="g272"
     transform="rotate(-90,489.98214,530.07434)">
    <path
       style="opacity:1"
       fill="#979797"
       d="m 433.5,137.5 c 1.574,1.602 2.241,3.602 2,6 -1.574,-1.602 -2.241,-3.602 -2,-6 z"
       id="path270" />
  </g>
  <g
     id="g280"
     transform="rotate(-90,489.98214,530.07434)">
    <path
       style="opacity:1"
       fill="#252525"
       d="m 428.5,106.5 c 3.155,9.62 6.155,19.287 9,29 0.358,2.767 1.025,5.433 2,8 0.163,2.357 -0.003,4.69 -0.5,7 -0.278,-0.916 -0.778,-1.582 -1.5,-2 -0.524,-1.806 -1.191,-3.472 -2,-5 0.241,-2.398 -0.426,-4.398 -2,-6 0,-1 0,-2 0,-3 -1,0 -2,0 -3,0 0,-1 0,-2 0,-3 0.165,-3.018 -0.002,-6.018 -0.5,-9 -1.591,-2.427 -2.425,-5.093 -2.5,-8 -0.19,-3.355 -1.19,-6.355 -3,-9 -0.174,-2.361 -0.507,-4.694 -1,-7 -0.157,-1.3734 0.01,-2.7068 0.5,-4 1.234,4.2152 2.734,8.215 4.5,12 z"
       id="path278" />
  </g>
  <g
     id="g288"
     transform="rotate(-90,489.98214,530.07434)">
    <path
       style="opacity:1"
       fill="#dedede"
       d="m 375.5,98.5 c 0.333,0 0.667,0 1,0 0,8.667 0,17.333 0,26 -0.307,22.189 0.36,44.189 2,66 0,15 0,30 0,45 -2.027,-0.162 -4.027,0.005 -6,0.5 -0.837,1.011 -1.17,2.178 -1,3.5 -1.301,-1.384 -1.301,-2.884 0,-4.5 1.973,-0.495 3.973,-0.662 6,-0.5 -1.533,-45.315 -2.2,-90.649 -2,-136 z"
       id="path286" />
  </g>
  <g
     id="g292"
     transform="rotate(-90,489.98214,530.07434)">
    <path
       style="opacity:1"
       fill="#525252"
       d="m 439.5,143.5 c 1.935,4.395 3.269,9.062 4,14 -0.875,-2.068 -2.041,-4.068 -3.5,-6 -0.483,0.948 -0.649,1.948 -0.5,3 -1.574,-1.602 -2.241,-3.602 -2,-6 0.722,0.418 1.222,1.084 1.5,2 0.497,-2.31 0.663,-4.643 0.5,-7 z"
       id="path290" />
  </g>
  <g
     id="g300"
     transform="rotate(-90,489.98214,530.07434)">
    <path
       style="opacity:1"
       fill="#989898"
       d="m 376.5,124.5 c 1.045,21.829 1.711,43.829 2,66 -1.64,-21.811 -2.307,-43.811 -2,-66 z"
       id="path298" />
  </g>
  <g
     id="g304"
     transform="rotate(-90,489.98214,530.07434)">
    <path
       style="opacity:1"
       fill="#747474"
       d="m 443.5,158.5 c 1.983,3.299 2.983,6.966 3,11 -1.574,-3.407 -2.574,-7.073 -3,-11 z"
       id="path302" />
  </g>
  <g
     id="g308"
     transform="rotate(-90,489.98214,530.07434)">
    <path
       style="opacity:1"
       fill="#909090"
       d="m 439.5,159.5 c 2.155,2.117 3.155,4.784 3,8 -0.617,-0.111 -1.117,-0.444 -1.5,-1 -0.44,-2.366 -0.94,-4.699 -1.5,-7 z"
       id="path306" />
  </g>
  <g
     id="g316"
     transform="rotate(-90,489.98214,530.07434)">
    <path
       style="opacity:1"
       fill="#202020"
       d="m 443.5,157.5 c 0,0.333 0,0.667 0,1 0.426,3.927 1.426,7.593 3,11 0.635,2.993 0.801,5.993 0.5,9 -1.459,-1.932 -2.625,-3.932 -3.5,-6 0.134,-1.792 -0.199,-3.458 -1,-5 0.155,-3.216 -0.845,-5.883 -3,-8 0,-1.667 0,-3.333 0,-5 -0.149,-1.052 0.017,-2.052 0.5,-3 1.459,1.932 2.625,3.932 3.5,6 z"
       id="path314" />
  </g>
  <g
     id="g320"
     transform="rotate(-90,489.98214,530.07434)">
    <path
       style="opacity:1"
       fill="#515151"
       d="m 446.5,169.5 c 1.935,4.395 3.269,9.062 4,14 -1.795,-4.859 -2.795,-4.859 -3,0 -2.34,-3.211 -3.674,-6.878 -4,-11 0.875,2.068 2.041,4.068 3.5,6 0.301,-3.007 0.135,-6.007 -0.5,-9 z"
       id="path318" />
  </g>
  <g
     id="g328"
     transform="rotate(-90,489.98214,530.07434)">
    <path
       style="opacity:1"
       fill="#a8a8a8"
       d="m 451.5,186.5 c 3.034,5.116 4.7,10.782 5,17 -1.834,-5.512 -3.5,-11.179 -5,-17 z"
       id="path326" />
  </g>
  <g
     id="g348"
     transform="rotate(-90,489.98214,530.07434)">
    <path
       style="opacity:1"
       fill="#9c9c9c"
       d="m 457.5,208.5 c 2.362,2.419 3.362,5.419 3,9 -1.169,-2.841 -2.169,-5.841 -3,-9 z"
       id="path346" />
  </g>
  <g
     id="g352"
     transform="rotate(-90,489.98214,530.07434)">
    <path
       style="opacity:1"
       fill="#989898"
       d="m 382.5,204.5 c 3.829,-0.569 7.163,0.098 10,2 -2.891,-0.903 -5.891,-1.236 -9,-1 0,10 0,20 0,30 -0.994,-10.153 -1.328,-20.486 -1,-31 z"
       id="path350" />
  </g>
  <g
     id="g528"
     transform="rotate(-90,489.98214,530.07434)">
    <path
       style="opacity:1"
       fill="#404040"
       d="m 382.5,204.5 c -0.328,10.514 0.006,20.847 1,31 0,12.667 0,25.333 0,38 -0.666,-2.528 -1.332,-5.194 -2,-8 -0.999,10.646 -1.332,21.313 -1,32 -0.83,-10.159 -1.33,-20.492 -1.5,-31 -2.999,-1.544 -6.166,-2.711 -9.5,-3.5 -0.88,-1.356 -1.214,-2.856 -1,-4.5 1.667,0 3.333,0 5,0 1.708,2.012 3.708,2.346 6,1 -0.011,1.517 -0.677,2.684 -2,3.5 1.513,2.023 2.846,1.856 4,-0.5 0.333,-4.333 0.667,-8.667 1,-13 -1.073,-15.166 -1.073,-30.166 0,-45 z"
       id="path526" />
  </g>
  <g
     id="g672"
     transform="rotate(-90,489.98214,530.07434)">
    <path
       style="opacity:1"
       fill="#282828"
       d="m 450.5,183.5 c 0.61,0.891 0.943,1.891 1,3 1.5,5.821 3.166,11.488 5,17 0.801,1.542 1.134,3.208 1,5 0.831,3.159 1.831,6.159 3,9 2.852,9.878 3.62319,13.97197 6.77119,23.42797 0.79337,2.51331 1.21127,5.46352 1.95021,8.43273 -0.284,1.915 0.3276,3.7203 1.2786,5.1393 2.011,7.044 3.4815,11.11868 5.8035,18.07468 1.31401,3.64478 1.82536,6.75775 2.7786,9.48252 2.201,11.472 5.4529,22.2478 8.9179,33.4428 0.383,0.556 0.883,0.889 1.5,1 0.763,0.768 1.763,1.268 3,1.5 -2.761,1.705 -3.427,3.871 -2,6.5 0.164,2.687 -0.003,5.354 -0.5,8 -0.21,-1.558 -0.71,-2.891 -1.5,-4 -0.823,-2.487 -1.823,-4.821 -3,-7 -0.753,-6.358 -2.42,-12.358 -5,-18 -3.319,-12.278 -6.6253,-26.83981 -9.5,-37 -1.02377,-3.04851 -3.18817,-10.42866 -5.5,-17 -1.317,-2.953 -2.317,-5.953 -3,-9 -2.742,-13.641 -5.57319,-26.13919 -10.16419,-39.16419 -1.26877,-5.05436 -2.88269,-8.90418 -4.83581,-17.83581 0.205,-4.859 1.205,-4.859 3,0 z"
       id="path670"
       sodipodi:nodetypes="cccccccccccccccccccccccc" />
  </g>
  <g
     id="g724"
     transform="rotate(-90,489.98214,530.07434)">
    <path
       style="opacity:1"
       fill="#1e1e1e"
       d="m 383.5,273.5 c 0,1.667 0,3.333 0,5 -0.325,7.187 0.009,14.187 1,21 0,6.333 0,12.667 0,19 -0.311,11.747 0.022,23.414 1,35 0,1 0,2 0,3 0.472,24.666 0.972,49.332 1.5,74 0.383,0.556 0.883,0.889 1.5,1 0.194,2.412 1.527,3.412 4,3 0.163,2.357 -0.003,4.69 -0.5,7 -0.383,-0.556 -0.883,-0.889 -1.5,-1 -2.291,-4.283 -4.957,-8.283 -8,-12 0.329,-14.843 -0.004,-29.51 -1,-44 -0.077,-1.25 -0.744,-2.083 -2,-2.5 1.256,-0.417 1.923,-1.25 2,-2.5 0,-0.333 0,-0.667 0,-1 0.664,-2.646 0.998,-5.479 1,-8.5 -0.486,-13.335 -1.153,-26.501 -2,-39.5 0,-11 0,-22 0,-33 -0.332,-10.687 10e-4,-21.354 1,-32 0.668,2.806 1.334,5.472 2,8 z"
       id="path722" />
  </g>
  <g
     id="g1044"
     transform="rotate(-90,489.98214,530.07434)">
    <path
       style="opacity:1"
       fill="#454545"
       d="m 490.5,324.5 c 0.661,4.317 2.661,7.984 6,11 -1.114,3.991 -1.114,7.991 0,12 -1.459,-4.086 -2.459,-8.42 -3,-13 -1.369,2.264 -2.369,4.597 -3,7 -0.299,-2.473 -1.299,-4.64 -3,-6.5 0.787,-2.099 1.12,-4.266 1,-6.5 0.79,1.109 1.29,2.442 1.5,4 0.497,-2.646 0.664,-5.313 0.5,-8 z"
       id="path1042" />
  </g>
  <g
     id="g1192"
     transform="rotate(-90,489.98214,530.07434)">
    <path
       style="opacity:1"
       fill="#373737"
       d="m 124.5,340.5 c 1.667,0.667 3.333,1.333 5,2 1.86,1.439 3.527,3.105 5,5 -2.231,-1.124 -4.564,-1.624 -7,-1.5 1.537,1.11 2.203,2.61 2,4.5 1.679,-0.215 2.679,0.452 3,2 -1.333,-0.333 -2.667,-0.667 -4,-1 -3.378,0.609 -5.378,-0.724 -6,-4 4.505,-1.002 5.172,-3.335 2,-7 z"
       id="path1190" />
  </g>
  <g
     id="g1220"
     transform="rotate(-90,489.98214,530.07434)">
    <path
       style="opacity:1"
       fill="#8c8c8c"
       d="m 380.5,330.5 c 0.847,12.999 1.514,26.165 2,39.5 -0.002,3.021 -0.336,5.854 -1,8.5 -0.697,-15.99 -1.03,-31.99 -1,-48 z"
       id="path1218" />
  </g>
  <g
     id="g1248"
     transform="rotate(-90,489.98214,530.07434)">
    <path
       style="opacity:1"
       fill="#a6a6a6"
       d="m 129.5,342.5 c 1.373,-0.157 2.707,0.01 4,0.5 2.138,2.908 4.472,5.408 7,7.5 -2.284,-0.475 -4.284,-1.475 -6,-3 -1.473,-1.895 -3.14,-3.561 -5,-5 z"
       id="path1246" />
  </g>
  <g
     id="g1296"
     transform="rotate(-90,489.98214,530.07434)">
    <path
       style="opacity:1"
       fill="#9f9f9f"
       d="m 140.5,350.5 c 1.373,-0.157 2.707,0.01 4,0.5 2.157,1.912 4.491,3.579 7,5 1.641,1.129 2.641,2.629 3,4.5 -5.022,-2.844 -9.689,-6.177 -14,-10 z"
       id="path1294" />
  </g>
  <g
     id="g1352"
     transform="rotate(-90,489.98214,530.07434)">
    <path
       style="opacity:1"
       fill="#909090"
       d="m 123.5,325.5 c -1.902,4.137 -4.069,8.137 -6.5,12 -11.381,13.713 -22.3813,27.713 -33,42 -0.3568,4.01 -0.1901,8.01 0.5,12 0,1 0,2 0,3 -0.6237,-2.334 -1.457,-4.667 -2.5,-7 -0.6667,-2.667 -0.6667,-5.333 0,-8 14.108,-17.922 27.941,-35.922 41.5,-54 z"
       id="path1350" />
  </g>
  <g
     id="g1384"
     transform="rotate(-90,489.98214,530.07434)">
    <path
       style="opacity:1"
       fill="#1d1d1d"
       d="m 134.5,347.5 c 1.716,1.525 3.716,2.525 6,3 4.311,3.823 8.978,7.156 14,10 3.892,1.876 7.559,4.209 11,7 0.039,1.083 0.373,2.083 1,3 1.923,0.808 3.923,1.308 6,1.5 2.565,2.08 5.232,3.913 8,5.5 5.333,3 10.667,6 16,9 1.933,1.773 3.266,3.939 4,6.5 1.634,0.494 3.301,0.66 5,0.5 1.109,0.057 2.109,0.39 3,1 1.581,1.642 2.247,3.642 2,6 2.357,-0.163 4.69,0.003 7,0.5 0.556,0.383 0.889,0.883 1,1.5 1.019,2.04 1.019,4.04 0,6 -4.734,-1.746 -8.067,-4.746 -10,-9 -2.667,-0.333 -5.333,-0.667 -8,-1 -0.79,-1.294 -1.79,-2.461 -3,-3.5 -2.667,-1.333 -5.333,-2.667 -8,-4 -3.212,-3.772 -7.212,-6.272 -12,-7.5 -0.667,-0.667 -1.333,-1.333 -2,-2 -2.288,-2.956 -5.288,-4.623 -9,-5 -6.796,-5.275 -13.796,-10.441 -21,-15.5 -1.293,-0.49 -2.627,-0.657 -4,-0.5 -3,-2.667 -6,-5.333 -9,-8 -0.321,-1.548 -1.321,-2.215 -3,-2 0.203,-1.89 -0.463,-3.39 -2,-4.5 2.436,-0.124 4.769,0.376 7,1.5 z"
       id="path1382" />
  </g>
  <g
     id="g1456"
     transform="rotate(-90,489.98214,530.07434)">
    <path
       style="opacity:1"
       fill="#242424"
       d="m 496.5,347.5 c 3.703,11.121 7.037,22.454 10,34 0.162,2.027 -0.005,4.027 -0.5,6 -1.082,-2.118 -2.249,-4.118 -3.5,-6 -0.932,-7.406 -2.932,-14.406 -6,-21 -0.423,-5.04 -1.756,-9.707 -4,-14 -0.73,-1.545 -2.063,-2.378 -4,-2.5 1.256,-0.417 1.923,-1.25 2,-2.5 0.631,-2.403 1.631,-4.736 3,-7 0.541,4.58 1.541,8.914 3,13 z"
       id="path1454" />
  </g>
  <g
     id="g1500"
     transform="rotate(-90,489.98214,530.07434)">
    <path
       style="opacity:1"
       fill="#9c9c9c"
       d="m 165.5,367.5 c 6.564,0.882 11.564,4.216 15,10 -2.768,-1.587 -5.435,-3.42 -8,-5.5 -2.077,-0.192 -4.077,-0.692 -6,-1.5 -0.627,-0.917 -0.961,-1.917 -1,-3 z"
       id="path1498" />
  </g>
  <g
     id="g1624"
     transform="rotate(-90,489.98214,530.07434)">
    <path
       style="opacity:1"
       fill="#212121"
       d="m 122,333.5 c -0.667,2 -0.667,4 0,6 0.671,0.752 1.504,1.086 2.5,1 3.172,3.665 2.505,5.998 -2,7 h -2 c -1.511,-1.941 -3.511,-2.441 -6,-1.5 -3.048,3.29 -5.715,6.79 -8,10.5 -4.092,3.758 -7.4255,8.091 -10,13 -2.4,1.796 -4.0667,4.13 -5,7 -4.6727,2.176 -6.006,5.509 -4,10 0.4267,2.51 1.0933,4.843 2,7 0.0597,2.841 0.7264,5.507 2,8 4.5166,0.666 9.183,1.333 14,2 -1.102,0.676 -2.102,1.342 -3,2 h -1 -9 c -0.3412,3.66 0.3255,6.993 2,10 0.2633,4.624 1.2633,8.958 3,13 0.9345,1.068 1.2678,2.401 1,4 -0.0905,2.652 0.5762,4.985 2,7 v 1 c 0.426,3.927 1.426,7.593 3,11 0.057,1.109 0.39,2.109 1,3 v 1 c -1.052,1.756 -2.719,2.423 -5,2 0.3128,-3.542 -0.0206,-6.875 -1,-10 0.0905,-2.652 -0.5762,-4.985 -2,-7 v -1 c 0.2406,-2.398 -0.4261,-4.398 -2,-6 v -1 c -1.0639,-6.175 -2.3972,-12.175 -4,-18 -0.8007,-1.542 -1.134,-3.208 -1,-5 -0.5483,-2.584 -2.215,-3.584 -5,-3 0.6419,-2.635 1.3086,-5.302 2,-8 0.0596,-2.655 -0.6071,-4.989 -2,-7 -0.6901,-3.99 -0.8568,-7.99 -0.5,-12 10.6187,-14.287 21.619,-28.287 33,-42 -0.47401,-14.98967 14.82738,-18.63393 5,-4 z"
       id="path1622"
       sodipodi:nodetypes="cccccccccccccccccccccccccccccccccccccc" />
  </g>
  <g
     id="g1696"
     transform="rotate(-90,489.98214,530.07434)">
    <path
       style="opacity:1"
       fill="#535353"
       d="m 502.5,381.5 c 1.251,1.882 2.418,3.882 3.5,6 0.495,-1.973 0.662,-3.973 0.5,-6 1.525,3.083 2.525,6.416 3,10 -2.31,-4.286 -3.31,-3.952 -3,1 -2.142,-3.3 -3.475,-6.967 -4,-11 z"
       id="path1694" />
  </g>
  <g
     id="g1704"
     transform="rotate(-90,489.98214,530.07434)">
    <path
       style="opacity:1"
       fill="#b8b8b8"
       d="m 196.5,386.5 c 2.797,0.467 4.131,2.133 4,5 2.281,-0.423 3.948,0.244 5,2 -1.699,0.16 -3.366,-0.006 -5,-0.5 -0.734,-2.561 -2.067,-4.727 -4,-6.5 z"
       id="path1702" />
  </g>
  <g
     id="g1768"
     transform="rotate(-90,489.98214,530.07434)">
    <path
       style="opacity:1"
       fill="#1c1c1c"
       d="m 509.5,391.5 c 0,0.667 0,1.333 0,2 0.203,1.544 0.87,2.878 2,4 -0.654,1.615 -1.154,3.282 -1.5,5 -0.757,-1.815 -1.59,-3.481 -2.5,-5 0.134,-1.792 -0.199,-3.458 -1,-5 -0.31,-4.952 0.69,-5.286 3,-1 z"
       id="path1766" />
  </g>
  <g
     id="g1844"
     transform="rotate(-90,489.98214,530.07434)">
    <path
       style="opacity:1"
       fill="#6f6f6f"
       d="m 91.5,401.5 c 5.3333,0 10.667,0 16,0 0,1.333 0,2.667 0,4 -1.667,0 -3.333,0 -5,0 0.898,-0.658 1.898,-1.324 3,-2 -4.817,-0.667 -9.4834,-1.334 -14,-2 z"
       id="path1842" />
  </g>
  <g
     id="g1860"
     transform="rotate(-90,489.98214,530.07434)">
    <path
       style="opacity:1"
       fill="#b8b8b8"
       d="m 208.5,394.5 c 2.584,0.548 3.584,2.215 3,5 6.186,-1.458 9.519,0.875 10,7 -0.643,-1.576 -1.643,-2.91 -3,-4 -0.111,-0.617 -0.444,-1.117 -1,-1.5 -2.31,-0.497 -4.643,-0.663 -7,-0.5 0.247,-2.358 -0.419,-4.358 -2,-6 z"
       id="path1858" />
  </g>
  <g
     id="g1880"
     transform="rotate(-90,489.98214,530.07434)">
    <path
       style="opacity:1"
       fill="#656565"
       d="m 84.5,391.5 c 1.3929,2.011 2.0596,4.345 2,7 -0.6914,2.698 -1.3581,5.365 -2,8 2.785,-0.584 4.4517,0.416 5,3 -2.5229,-1.259 -5.0229,-2.593 -7.5,-4 -1.2381,-3.426 -0.0714,-5.092 3.5,-5 0.1747,-2.121 -0.1586,-4.121 -1,-6 0,-1 0,-2 0,-3 z"
       id="path1878" />
  </g>
  <g
     id="g1896"
     transform="rotate(-90,489.98214,530.07434)">
    <path
       style="opacity:1"
       fill="#787878"
       d="m 101.5,405.5 c -2.4479,0.973 -5.1146,1.306 -8,1 -0.2845,1.915 0.0489,3.581 1,5 0,1.333 0,2.667 0,4 -1.6745,-3.007 -2.3412,-6.34 -2,-10 3,0 6,0 9,0 z"
       id="path1894" />
  </g>
  <g
     id="g1908"
     transform="rotate(-90,489.98214,530.07434)">
    <path
       style="opacity:1"
       fill="#2a2a2a"
       d="m 509.5,393.5 c 2.217,0.869 4.55,1.202 7,1 0,1 0,2 0,3 -1.333,0 -2.667,0 -4,0 -0.126,4.722 0.874,9.055 3,13 1.419,0.951 3.085,1.284 5,1 0,1 0,2 0,3 -2.448,-0.415 -3.781,0.585 -4,3 1.007,2.69 2.007,5.356 3,8 2.098,1.435 4.431,2.602 7,3.5 -5.348,-0.652 -10.682,-0.485 -16,0.5 -0.952,-1.545 -1.285,-3.212 -1,-5 1.667,0 3.333,0 5,0 0.163,-2.357 -0.003,-4.69 -0.5,-7 -0.383,-0.556 -0.883,-0.889 -1.5,-1 -0.741,-1.854 -1.741,-3.521 -3,-5 -0.038,-4.771 -0.704,-9.438 -2,-14 0.91,1.519 1.743,3.185 2.5,5 0.346,-1.718 0.846,-3.385 1.5,-5 -1.13,-1.122 -1.797,-2.456 -2,-4 z"
       id="path1906" />
  </g>
  <g
     id="g1928"
     transform="rotate(-90,489.98214,530.07434)">
    <path
       style="opacity:1"
       fill="#3f3f3f"
       d="m 200.5,398.5 c 2.667,0.333 5.333,0.667 8,1 1.933,4.254 5.266,7.254 10,9 1.019,-1.96 1.019,-3.96 0,-6 1.357,1.09 2.357,2.424 3,4 4.899,0.239 8.899,2.239 12,6 -1.083,-0.039 -2.083,-0.373 -3,-1 -1.214,2.359 -1.214,4.692 0,7 -10.696,-5.677 -20.696,-12.344 -30,-20 z"
       id="path1926" />
  </g>
  <g
     id="g1968"
     transform="rotate(-90,489.98214,530.07434)">
    <path
       style="opacity:1"
       fill="#191919"
       d="m 233.5,412.5 c 2.353,0.84 4.353,2.174 6,4 0.801,1.542 1.134,3.208 1,5 -3.364,-1.061 -6.697,-2.061 -10,-3 -1.214,-2.308 -1.214,-4.641 0,-7 0.917,0.627 1.917,0.961 3,1 z"
       id="path1966" />
  </g>
  <g
     id="g2032"
     transform="rotate(-90,489.98214,530.07434)">
    <path
       style="opacity:1"
       fill="#393939"
       d="m 239.5,416.5 c 3.549,1.223 6.549,3.223 9,6 -1.617,-0.538 -3.284,-0.871 -5,-1 0.216,2.756 1.216,5.09 3,7 -5.678,-2.836 -11.011,-6.169 -16,-10 3.303,0.939 6.636,1.939 10,3 0.134,-1.792 -0.199,-3.458 -1,-5 z"
       id="path2030" />
  </g>
  <g
     id="g2100"
     transform="rotate(-90,489.98214,530.07434)">
    <path
       style="opacity:1"
       fill="#878787"
       d="m 250.5,422.5 c 3.52,0.853 6.187,2.853 8,6 -2.197,-1.345 -4.53,-2.511 -7,-3.5 -0.752,-0.671 -1.086,-1.504 -1,-2.5 z"
       id="path2098" />
  </g>
  <g
     id="g2104"
     transform="rotate(-90,489.98214,530.07434)">
    <path
       style="opacity:1"
       fill="#555555"
       d="m 512.5,416.5 c 0.617,0.111 1.117,0.444 1.5,1 0.497,2.31 0.663,4.643 0.5,7 -1.667,0 -3.333,0 -5,0 -0.285,1.788 0.048,3.455 1,5 5.318,-0.985 10.652,-1.152 16,-0.5 -2.569,-0.898 -4.902,-2.065 -7,-3.5 1.333,0 2.667,0 4,0 2.784,2.32 6.117,3.487 10,3.5 1.931,0.902 3.597,2.069 5,3.5 -2.405,-0.366 -4.738,-1.033 -7,-2 -0.667,0.333 -1.333,0.667 -2,1 0.743,0.682 1.409,1.349 2,2 -4.876,-1.095 -9.71,-2.428 -14.5,-4 -1.533,0.273 -3.033,0.606 -4.5,1 -2.358,-0.247 -4.358,0.419 -6,2 -0.6,-1.4 -1.6,-2.4 -3,-3 3,0.333 4.333,-1 4,-4 -1.333,0 -2.667,0 -4,0 0,1 0,2 0,3 -1.577,-2.494 -0.91,-4.327 2,-5.5 -1.82,-0.2 -3.153,-1.034 -4,-2.5 1.935,0.65 3.935,0.983 6,1 1.49,1.78 3.49,2.446 6,2 0.284,-1.915 -0.049,-3.581 -1,-5 0,-0.667 0,-1.333 0,-2 z"
       id="path2102" />
  </g>
  <g
     id="g2112"
     transform="rotate(-90,489.98214,530.07434)">
    <path
       style="opacity:1"
       fill="#727272"
       d="m 94.5,415.5 c 0.7216,0.418 1.2216,1.084 1.5,2 0.5482,3.67 1.0482,7.337 1.5,11 -1.7367,-4.042 -2.7367,-8.376 -3,-13 z"
       id="path2110" />
  </g>
  <g
     id="g2120"
     transform="rotate(-90,489.98214,530.07434)">
    <path
       style="opacity:1"
       fill="#acacac"
       d="m 90.5,414.5 c 1.6028,5.825 2.9361,11.825 4,18 -2.8841,-5.547 -4.2174,-11.547 -4,-18 z"
       id="path2118" />
  </g>
  <g
     id="g2124"
     transform="rotate(-90,489.98214,530.07434)">
    <path
       style="opacity:1"
       fill="#949494"
       d="m 258.5,428.5 c 4.193,-0.138 6.527,1.862 7,6 3.722,-0.82 6.055,0.513 7,4 -0.333,0 -0.667,0 -1,0 -1.526,-1.63 -3.526,-2.463 -6,-2.5 -0.691,-1.067 -1.191,-2.234 -1.5,-3.5 -1.98,-1.249 -3.813,-2.582 -5.5,-4 z"
       id="path2122" />
  </g>
  <g
     id="g2132"
     transform="rotate(-90,489.98214,530.07434)">
    <path
       style="opacity:1"
       fill="#4e4e4e"
       d="m 246.5,428.5 c 5.01,1.17 9.01,3.837 12,8 -4.822,-1.498 -8.822,-4.164 -12,-8 z"
       id="path2130" />
  </g>
  <g
     id="g2140"
     transform="rotate(-90,489.98214,530.07434)">
    <path
       style="opacity:1"
       fill="#f9f9f9"
       d="m 531.5,433.5 c 11.286,4.916 22.952,9.082 35,12.5 0.556,0.383 0.889,0.883 1,1.5 0.835,1.443 2.168,2.443 4,3 -20.322,1 -40.656,1.333 -61,1 0.172,-0.992 -0.162,-1.658 -1,-2 0,-0.667 0,-1.333 0,-2 -1.467,-4.567 -1.967,-9.233 -1.5,-14 1.878,-0.553 3.378,-1.553 4.5,-3 1.467,-0.394 2.967,-0.727 4.5,-1 4.79,1.572 9.624,2.905 14.5,4 z"
       id="path2138" />
  </g>
  <g
     id="g2152"
     transform="rotate(-90,489.98214,530.07434)">
    <path
       style="opacity:1"
       fill="#191919"
       d="m 248.5,422.5 c 0.667,0 1.333,0 2,0 -0.086,0.996 0.248,1.829 1,2.5 2.47,0.989 4.803,2.155 7,3.5 1.687,1.418 3.52,2.751 5.5,4 0.309,1.266 0.809,2.433 1.5,3.5 2.474,0.037 4.474,0.87 6,2.5 0.262,1.478 -0.071,2.811 -1,4 -3.09,-1.2 -5.757,-3.033 -8,-5.5 -1.293,-0.49 -2.627,-0.657 -4,-0.5 -2.99,-4.163 -6.99,-6.83 -12,-8 -1.784,-1.91 -2.784,-4.244 -3,-7 1.716,0.129 3.383,0.462 5,1 z"
       id="path2150" />
  </g>
  <g
     id="g2156"
     transform="rotate(-90,489.98214,530.07434)">
    <path
       style="opacity:1"
       fill="#ababab"
       d="m 382.5,428.5 c 3.043,3.717 5.709,7.717 8,12 0,0.667 0,1.333 0,2 -4.221,-3.774 -6.887,-8.441 -8,-14 z"
       id="path2154" />
  </g>
  <g
     id="g2200"
     transform="rotate(-90,489.98214,530.07434)">
    <path
       style="opacity:1"
       fill="#8e8e8e"
       d="m 94.5,433.5 c 1.5739,1.602 2.2406,3.602 2,6 -1.5739,-1.602 -2.2406,-3.602 -2,-6 z"
       id="path2198" />
  </g>
  <g
     id="g2204"
     transform="rotate(-90,489.98214,530.07434)">
    <path
       style="opacity:1"
       fill="#838383"
       d="m 98.5,432.5 c 1.4238,2.015 2.09,4.348 2,7 -1.4238,-2.015 -2.0905,-4.348 -2,-7 z"
       id="path2202" />
  </g>
  <g
     id="g2212"
     transform="rotate(-90,489.98214,530.07434)">
    <path
       style="opacity:1"
       fill="#797979"
       d="m 553.5,437.5 c 12.596,3.651 24.596,8.318 36,14 -9.37,-2.846 -18.704,-6.013 -28,-9.5 -3.133,-0.86 -5.8,-2.36 -8,-4.5 z"
       id="path2210" />
  </g>
  <g
     id="g2220"
     transform="rotate(-90,489.98214,530.07434)">
    <path
       style="opacity:1"
       fill="#454545"
       d="m 258.5,436.5 c 1.373,-0.157 2.707,0.01 4,0.5 2.243,2.467 4.91,4.3 8,5.5 0.929,-1.189 1.262,-2.522 1,-4 0.333,0 0.667,0 1,0 0,1 0,2 0,3 1.915,-0.284 3.581,0.049 5,1 -1,0 -2,0 -3,0 -0.203,1.89 0.463,3.39 2,4.5 2.797,1.233 5.463,2.733 8,4.5 1.288,1.799 1.288,3.465 0,5 0.268,-1.599 -0.066,-2.932 -1,-4 -1.109,-0.057 -2.109,-0.39 -3,-1 -7.37,-5.013 -14.704,-10.013 -22,-15 z"
       id="path2218" />
  </g>
  <g
     id="g2224"
     transform="rotate(-90,489.98214,530.07434)">
    <path
       style="opacity:1"
       fill="#393939"
       d="m 538.5,432.5 c 4.986,1.794 9.986,3.46 15,5 2.2,2.14 4.867,3.64 8,4.5 9.296,3.487 18.63,6.654 28,9.5 5.251,2.774 10.918,4.774 17,6 2.761,1.705 5.761,3.038 9,4 0.111,0.617 0.444,1.117 1,1.5 -1.293,0.49 -2.627,0.657 -4,0.5 -4.425,-1.046 -8.758,-2.379 -13,-4 -2.071,-1.445 -4.404,-2.445 -7,-3 -4.134,-0.985 -8.468,-1.318 -13,-1 0.284,-1.915 -0.049,-3.581 -1,-5 -0.667,0 -1.333,0 -2,0 -2.902,-1.284 -5.902,-2.284 -9,-3 -0.111,-0.617 -0.444,-1.117 -1,-1.5 -12.048,-3.418 -23.714,-7.584 -35,-12.5 -0.591,-0.651 -1.257,-1.318 -2,-2 0.667,-0.333 1.333,-0.667 2,-1 2.262,0.967 4.595,1.634 7,2 z"
       id="path2222" />
  </g>
  <g
     id="g2228"
     transform="rotate(-90,489.98214,530.07434)">
    <path
       style="opacity:1"
       fill="#818181"
       d="m 100.5,440.5 c 2.374,3.186 3.374,6.853 3,11 -1.574,-3.407 -2.574,-7.073 -3,-11 z"
       id="path2226" />
  </g>
  <g
     id="g2232"
     transform="rotate(-90,489.98214,530.07434)">
    <path
       style="opacity:1"
       fill="#989898"
       d="m 272.5,438.5 c 4.249,2.096 8.583,3.929 13,5.5 3.397,1.84 6.064,4.34 8,7.5 -3.278,-1.309 -6.278,-3.142 -9,-5.5 -1.973,-0.495 -3.973,-0.662 -6,-0.5 0.237,-1.291 -0.096,-2.291 -1,-3 -1.419,-0.951 -3.085,-1.284 -5,-1 0,-1 0,-2 0,-3 z"
       id="path2230" />
  </g>
  <g
     id="g2248"
     transform="rotate(-90,489.98214,530.07434)">
    <path
       style="opacity:1"
       fill="#777777"
       d="m 96.5,440.5 c 1.4238,2.015 2.0905,4.348 2,7 -1.4238,-2.015 -2.0905,-4.348 -2,-7 z"
       id="path2246" />
  </g>
  <g
     id="g2272"
     transform="rotate(-90,489.98214,530.07434)">
    <path
       style="opacity:1"
       fill="#898989"
       d="m 390.5,442.5 c 4.559,3.095 6.559,7.095 6,12 0,-0.333 0,-0.667 0,-1 -1.962,-3.619 -3.962,-7.286 -6,-11 z"
       id="path2270" />
  </g>
  <g
     id="g2304"
     transform="rotate(-90,489.98214,530.07434)">
    <path
       style="opacity:1"
       fill="#c3c3c3"
       d="m 396.5,453.5 c 0,0.333 0,0.667 0,1 -13.156,0.996 -26.49,1.329 -40,1 -12.674,0.102 -25.341,0.435 -38,1 25.79,-2.364 51.79,-3.364 78,-3 z"
       id="path2302" />
  </g>
  <g
     id="g2320"
     transform="rotate(-90,489.98214,530.07434)">
    <path
       style="opacity:1"
       fill="#818181"
       d="m 296.5,453.5 c 1.872,1.011 3.872,1.845 6,2.5 5.323,0.499 10.656,0.666 16,0.5 12.659,-0.565 25.326,-0.898 38,-1 -17.798,1.805 -35.798,2.805 -54,3 -2.589,-0.919 -4.589,-2.586 -6,-5 z"
       id="path2318" />
  </g>
  <g
     id="g2324"
     transform="rotate(-90,489.98214,530.07434)">
    <path
       style="opacity:1"
       fill="#343434"
       d="m 402.5,453.5 v 1 3 c -10.189,0.094 -20.189,0.761 -30,2 -20.668,0.628 -41.335,1.294 -62,2 -2.357,-1.598 -5.023,-2.598 -8,-3 18.202,-0.195 36.202,-1.195 54,-3 13.51,0.329 26.844,-0.004 40,-1 0.559,-4.905 -1.441,-8.905 -6,-12 v -2 c 0.617,0.111 1.117,0.444 1.5,1 2.78215,-8.47951 -3.10379,-6.06562 -3.5,-10 9.19458,12.58615 3.03776,9.14886 14,22 z"
       id="path2322"
       sodipodi:nodetypes="ccccccccccccc" />
  </g>
  <g
     id="g2344"
     transform="rotate(-90,489.98214,530.07434)">
    <path
       style="opacity:1"
       fill="#6d6d6d"
       d="m 98.5,447.5 c 0.9794,3.125 1.3128,6.458 1,10 28.39842,-12.03153 12.71922,11.47994 -5,3 h -1 c -0.0253,-3.784 -1.6919,-4.784 -5,-3 2.8373,-1.902 6.1707,-2.569 10,-2 z"
       id="path2342"
       sodipodi:nodetypes="ccccccc" />
  </g>
  <g
     id="g2360"
     transform="rotate(-90,489.98214,530.07434)">
    <path
       style="opacity:1"
       fill="#181818"
       d="m 277.5,442.5 c 0.904,0.709 1.237,1.709 1,3 2.027,-0.162 4.027,0.005 6,0.5 2.722,2.358 5.722,4.191 9,5.5 1.527,-0.073 2.527,0.594 3,2 1.411,2.414 3.411,4.081 6,5 2.977,0.402 5.643,1.402 8,3 0,0.333 0,0.667 0,1 -10.635,-0.904 -21.302,-1.237 -32,-1 0,-1.333 0,-2.667 0,-4 2.235,0.295 4.235,-0.039 6,-1 1.288,-1.535 1.288,-3.201 0,-5 -2.537,-1.767 -5.203,-3.267 -8,-4.5 -1.537,-1.11 -2.203,-2.61 -2,-4.5 1,0 2,0 3,0 z"
       id="path2358" />
  </g>
  <g
     id="g2376"
     transform="rotate(-90,489.98214,530.07434)">
    <path
       style="opacity:1"
       fill="#2e2e2e"
       d="m 78.5,466.5 c -1.6042,-0.787 -2.2709,-2.12 -2,-4 2.2638,-0.719 4.5971,-1.052 7,-1 0,1.667 0,3.333 0,5 -1.6667,0 -3.3333,0 -5,0 z"
       id="path2374" />
  </g>
  <g
     id="g2380"
     transform="rotate(-90,489.98214,530.07434)">
    <path
       style="opacity:1"
       fill="#585858"
       d="m 93.5,460.5 c -3.2387,-0.087 -6.2387,0.58 -9,2 0,1 0,2 0,3 8.2048,1.307 16.205,2.973 24,5 -1,0 -2,0 -3,0 0.268,1.599 -0.066,2.932 -1,4 0,-1 0,-2 0,-3 -8.9261,-0.919 -17.5928,-2.586 -26,-5 1.6667,0 3.3333,0 5,0 0,-1.667 0,-3.333 0,-5 -2.4029,-0.052 -4.7362,0.281 -7,1 1.864,-1.514 3.864,-2.847 6,-4 2,-0.333 4,-0.667 6,-1 3.3081,-1.784 4.9747,-0.784 5,3 z"
       id="path2378" />
  </g>
  <g
     id="g2392"
     transform="rotate(-90,489.98214,530.07434)">
    <path
       style="opacity:1"
       fill="#b1b1b1"
       d="m 82.5,458.5 c -2.136,1.153 -4.136,2.486 -6,4 -0.2709,1.88 0.3958,3.213 2,4 8.4072,2.414 17.0739,4.081 26,5 0,1 0,2 0,3 -1.716,0.129 -3.383,0.462 -5,1 0,-1 0,-2 0,-3 -7.3799,-1.174 -14.7133,-2.674 -22,-4.5 -4,-3 -4,-6 0,-9 1.6341,-0.494 3.3008,-0.66 5,-0.5 z"
       id="path2390" />
  </g>
  <g
     id="g2432"
     transform="rotate(-90,489.98214,530.07434)">
    <path
       style="opacity:1"
       fill="#4e4e4e"
       d="m 615.5,461.5 c 9.998,4.282 20.331,7.615 31,10 7.246,3.779 14.912,6.779 23,9 0.929,0.815 1.929,1.648 3,2.5 9.451,2.372 18.785,5.372 28,9 9.842,0.17 19.509,0.67 29,1.5 -0.333,0 -0.667,0 -1,0 -9.672,0.166 -19.339,0 -29,-0.5 -2.441,-1.392 -4.774,-1.559 -7,-0.5 -1.716,-0.129 -3.383,-0.462 -5,-1 -10.049,-3.183 -20.049,-6.683 -30,-10.5 -1.162,-0.827 -2.329,-1.66 -3.5,-2.5 -7.201,-2.09 -14.368,-4.09 -21.5,-6 -3.585,-2.306 -7.585,-3.639 -12,-4 -2.183,-2.532 -4.85,-4.198 -8,-5 1.373,0.157 2.707,-0.01 4,-0.5 -0.556,-0.383 -0.889,-0.883 -1,-1.5 z"
       id="path2430" />
  </g>
  <g
     id="g2492"
     transform="rotate(-90,489.98214,530.07434)">
    <path
       style="opacity:1"
       fill="#313131"
       d="m 108.5,470.5 c 12.33206,4.04756 17.24751,-6.0024 18,5 0.394,6.996 0.727,13.996 1,21 v 12 c -0.828,-6.153 -1.328,-12.487 -1.5,-19 -0.173,5.516 -0.673,10.849 -1.5,16 0.319,-4.863 -0.014,-9.53 -1,-14 v -2 -2 c -0.333,-1.333 -0.667,-2.667 -1,-4 v -1 c 0.934,-1.068 1.268,-2.401 1,-4 1.238,-1.714 1.905,-3.714 2,-6 h -14 c -0.214,1.644 0.12,3.144 1,4.5 3.525,0.179 6.859,0.679 10,1.5 h -17 c -0.683,-1.676 -2.017,-2.343 -4,-2 -0.201,3.228 0.133,6.395 1,9.5 -0.362,1.225 -0.862,2.391 -1.5,3.5 -0.5,7.993 -0.666,15.993 -0.5,24 -0.9954,-12.489 -1.3287,-25.156 -1,-38 1.617,-0.538 3.284,-0.871 5,-1 0.934,-1.068 1.268,-2.401 1,-4 z"
       id="path2490"
       sodipodi:nodetypes="ccccccccccccccccccccccccc" />
  </g>
  <g
     id="g2516"
     transform="rotate(-90,489.98214,530.07434)">
    <path
       style="opacity:1"
       fill="#b5b5b5"
       d="m 669.5,480.5 c 2.357,-0.163 4.69,0.003 7,0.5 8.181,3.586 16.514,6.919 25,10 17.667,0.333 35.333,0.667 53,1 3.525,0.179 6.859,0.679 10,1.5 -11.667,0 -23.333,0 -35,0 -9.491,-0.83 -19.158,-1.33 -29,-1.5 -9.215,-3.628 -18.549,-6.628 -28,-9 -1.071,-0.852 -2.071,-1.685 -3,-2.5 z"
       id="path2514" />
  </g>
  <g
     id="g2540"
     transform="rotate(-90,489.98214,530.07434)">
    <path
       style="opacity:1"
       fill="#242424"
       d="m 728.5,493.5 c 2.838,1.806 2.505,2.806 -1,3 0,1 0,2 0,3 -1.915,-0.284 -3.581,0.049 -5,1 -0.838,0.342 -1.172,1.008 -1,2 -0.958,0.453 -1.792,1.119 -2.5,2 -0.167,-0.5 -0.333,-1 -0.5,-1.5 1.611,-2.21 2.278,-4.71 2,-7.5 -9.449,0.19 -18.782,0.857 -28,2 0,-1.667 0,-3.333 0,-5 2.226,-1.059 4.559,-0.892 7,0.5 9.661,0.5 19.328,0.666 29,0.5 z"
       id="path2538" />
  </g>
  <g
     id="g2544"
     transform="rotate(-90,489.98214,530.07434)">
    <path
       style="opacity:1"
       fill="#3e3e3e"
       d="m 728.5,493.5 c 0.333,0 0.667,0 1,0 11.667,0 23.333,0 35,0 1.667,0 3.333,0 5,0 8.151,1.379 16.485,2.379 25,3 1.452,0.802 3.118,1.302 5,1.5 -3.986,0.499 -7.986,0.666 -12,0.5 -8.351,0.018 -16.684,-0.315 -25,-1 -10.153,-0.994 -20.486,-1.328 -31,-1 0,1.333 0,2.667 0,4 -3,0 -6,0 -9,0 1.419,-0.951 3.085,-1.284 5,-1 0,-1 0,-2 0,-3 3.505,-0.194 3.838,-1.194 1,-3 z"
       id="path2542" />
  </g>
  <g
     id="g2552"
     transform="rotate(-90,489.98214,530.07434)">
    <path
       style="opacity:1"
       fill="#c7c7c7"
       d="m 769.5,493.5 c 14.656,-0.475 28.989,0.859 43,4 -6.016,-0.093 -12.016,-0.426 -18,-1 -8.515,-0.621 -16.849,-1.621 -25,-3 z"
       id="path2550" />
  </g>
  <g
     id="g2564"
     transform="rotate(-90,489.98214,530.07434)">
    <path
       style="opacity:1"
       fill="#5d5d5d"
       d="m 794.5,496.5 c 5.984,0.574 11.984,0.907 18,1 0.992,-0.172 1.658,0.162 2,1 -3.726,-0.323 -7.393,0.011 -11,1 4.127,1.011 8.127,2.011 12,3 -7.667,-0.667 -15.333,-1.333 -23,-2 -1.667,-0.667 -3.333,-1.333 -5,-2 4.014,0.166 8.014,-10e-4 12,-0.5 -1.882,-0.198 -3.548,-0.698 -5,-1.5 z"
       id="path2562" />
  </g>
  <g
     id="g2580"
     transform="rotate(-90,489.98214,530.07434)">
    <path
       style="opacity:1"
       fill="#696969"
       d="m 815.5,498.5 c 8.36,0.92 16.694,2.087 25,3.5 5.05,0.696 9.716,2.196 14,4.5 -8.747,-1.416 -17.413,-3.083 -26,-5 -3.307,-0.551 -6.64,-0.884 -10,-1 -1,-0.667 -2,-1.333 -3,-2 z"
       id="path2578" />
  </g>
  <g
     id="g2596"
     transform="rotate(-90,489.98214,530.07434)">
    <path
       style="opacity:1"
       fill="#3c3c3c"
       d="m 814.5,498.5 5.31833,0.83581 c 6.01483,2.61721 -1.76113,5.51202 -0.76113,6.17902 4.14057,8.01052 -2.61861,3.26941 -3.5572,-3.01483 -3.873,-0.989 -7.873,-1.989 -12,-3 3.607,-0.989 7.274,-1.323 11,-1 z"
       id="path2594"
       sodipodi:nodetypes="cccccc" />
  </g>
  <g
     id="g2684"
     transform="rotate(-90,489.98214,530.07434)">
    <path
       style="opacity:1"
       fill="#393939"
       d="m 828.5,501.5 c 8.587,1.917 17.253,3.584 26,5 3.667,0.667 7.333,1.333 11,2 3.399,1.538 6.733,3.371 10,5.5 -4.039,0.048 -8.039,-0.452 -12,-1.5 -12.236,-3.101 -21.08648,-3.67749 -33.51748,-5.91049 -2.66983,-1.3189 -6.41192,-3.44564 -1.48252,-5.08951 z"
       id="path2682"
       sodipodi:nodetypes="ccccccc" />
  </g>
  <g
     id="g2716"
     transform="rotate(-90,489.98214,530.07434)">
    <path
       style="opacity:1"
       fill="#696969"
       d="m 865.5,508.5 c 5.173,0.922 9.84,2.922 14,6 -1.679,-0.215 -2.679,0.452 -3,2 -4.746,-0.339 -9.08,-1.672 -13,-4 3.961,1.048 7.961,1.548 12,1.5 -3.267,-2.129 -6.601,-3.962 -10,-5.5 z"
       id="path2714" />
  </g>
  <g
     id="g2736"
     transform="rotate(-90,489.98214,530.07434)">
    <path
       style="opacity:1"
       fill="#161616"
       d="m 105.5,478.5 c 0,1.667 0,3.333 0,5 0.734,1.208 1.067,2.541 1,4 -0.322,5.858 0.011,11.525 1,17 0,0.333 0,0.667 0,1 0,1.333 0,2.667 0,4 -0.951,1.419 -1.284,3.085 -1,5 -0.086,0.996 0.248,1.829 1,2.5 5.991,0.499 11.991,0.666 18,0.5 0.306,-2.885 -0.027,-5.552 -1,-8 0,-1.333 0,-2.667 0,-4 0.827,-5.151 1.327,-10.484 1.5,-16 0.172,6.513 0.672,12.847 1.5,19 0.075,6.369 0.242,12.702 0.5,19 -3.081,0.646 -6.248,0.979 -9.5,1 -3.413,-0.017 -6.413,-0.684 -9,-2 0.667,0 1,-0.333 1,-1 1,0 2,0 3,0 0.17,-1.322 -0.163,-2.489 -1,-3.5 -3.317,-0.498 -6.65,-0.665 -10,-0.5 -1.54,-2.338 -2.206,-5.005 -2,-8 -0.166,-8.007 0,-16.007 0.5,-24 0.638,-1.109 1.138,-2.275 1.5,-3.5 -0.867,-3.105 -1.201,-6.272 -1,-9.5 1.983,-0.343 3.317,0.324 4,2 z"
       id="path2734" />
  </g>
  <g
     id="g2768"
     transform="rotate(-90,489.98214,530.07434)">
    <path
       style="opacity:1"
       fill="#727272"
       d="m 879.5,518.5 c 1.373,-0.157 2.707,0.01 4,0.5 4.527,2.301 8.86,4.801 13,7.5 -6.087,-1.878 -11.754,-4.545 -17,-8 z"
       id="path2766" />
  </g>
  <g
     id="g2772"
     transform="rotate(-90,489.98214,530.07434)">
    <path
       style="opacity:1"
       fill="#767676"
       d="m 886.5,517.5 c 1.373,-0.157 2.707,0.01 4,0.5 5.875,2.893 11.541,6.06 17,9.5 -7.484,-2.578 -14.484,-5.911 -21,-10 z"
       id="path2770" />
  </g>
  <g
     id="g2776"
     transform="rotate(-90,489.98214,530.07434)">
    <path
       style="opacity:1"
       fill="#c4c4c4"
       d="m 102.5,522.5 c 2.667,0 5.333,0 8,0 0,1 0,2 0,3 0,0.667 -0.333,1 -1,1 -4,0 -8,0 -12,0 2.528,-0.666 5.194,-1.332 8,-2 -1.102,-0.676 -2.102,-1.342 -3,-2 z"
       id="path2774" />
  </g>
  <g
     id="g2788"
     transform="rotate(-90,489.98214,530.07434)">
    <path
       style="opacity:1"
       fill="#808080"
       d="m 102.5,522.5 c 0,-0.333 0,-0.667 0,-1 3.35,-0.165 6.683,0.002 10,0.5 0.837,1.011 1.17,2.178 1,3.5 -1,0 -2,0 -3,0 0,-1 0,-2 0,-3 -2.667,0 -5.333,0 -8,0 z"
       id="path2786" />
  </g>
  <g
     id="g2816"
     transform="rotate(-90,489.98214,530.07434)">
    <path
       style="opacity:1"
       fill="#525252"
       d="m 106.5,530 c -0.457,0.414 -0.791,0.914 -1,1.5 0.743,0.682 1.409,1.349 2,2 -1.052,-0.149 -2.052,0.017 -3,0.5 1.358,0.934 2.692,1.768 4,2.5 h -4 c -0.763,-0.768 -1.763,-1.268 -3,-1.5 -11.6596,-0.728 -23.3263,-1.228 -35,-1.5 v -1 c 11.9139,-0.321 23.7473,0.012 35.5,1 0.494,-1.634 0.66,-3.301 0.5,-5 h -16 c 3.6667,-0.667 7.3333,-1.333 11,-2 h 12 c 2.587,1.316 5.587,1.983 9,2 19.03078,-8.36438 0.61934,9.88397 -12,1.5 z"
       id="path2814"
       sodipodi:nodetypes="cccccccccccccccc" />
  </g>
  <g
     id="g2864"
     transform="rotate(-90,489.98214,530.07434)">
    <path
       style="opacity:1"
       fill="#858585"
       d="m 97.5,526.5 c -3.6667,0.667 -7.3333,1.333 -11,2 -6.6593,0.454 -13.3259,0.787 -20,1 0,1 0,2 0,3 -1.2349,-1.517 -1.2349,-3.184 0,-5 10.3119,-0.999 20.6452,-1.332 31,-1 z"
       id="path2862" />
  </g>
  <g
     id="g2904"
     transform="rotate(-90,489.98214,530.07434)">
    <path
       style="opacity:1"
       fill="#1c1c1c"
       d="m 86.5,528.5 c 5.3333,0 10.6667,0 16,0 0.16,1.699 -0.006,3.366 -0.5,5 -11.7527,-0.988 -23.5861,-1.321 -35.5,-1 0,-1 0,-2 0,-3 6.6741,-0.213 13.3407,-0.546 20,-1 z"
       id="path2902" />
  </g>
  <g
     id="g2948"
     transform="rotate(-90,489.98214,530.07434)">
    <path
       style="opacity:1"
       fill="#c2c2c2"
       d="m 66.5,533.5 c 11.6737,0.272 23.3404,0.772 35,1.5 1.237,0.232 2.237,0.732 3,1.5 1.218,0.661 2.551,1.328 4,2 -2.01,1.671 -4.343,2.338 -7,2 0.453,-0.958 1.119,-1.792 2,-2.5 -0.667,-0.333 -1.333,-0.667 -2,-1 -12.0363,-0.485 -23.703,-1.651 -35,-3.5 z"
       id="path2946" />
  </g>
  <g
     id="g2984"
     transform="rotate(-90,489.98214,530.07434)">
    <path
       style="opacity:1"
       fill="#787878"
       d="m 104.5,536.5 c 1.333,0 2.667,0 4,0 1.333,0.333 2.667,0.667 4,1 0,1.333 0,2.667 0,4 -3.871,-0.315 -7.538,0.018 -11,1 -0.49,3.155 -1.156,6.155 -2,9 -0.1646,-3.018 0.002,-6.018 0.5,-9 0.278,-0.916 0.778,-1.582 1.5,-2 2.657,0.338 4.99,-0.329 7,-2 -1.449,-0.672 -2.782,-1.339 -4,-2 z"
       id="path2982" />
  </g>
  <g
     id="g3100"
     transform="rotate(-90,489.98214,530.07434)">
    <path
       style="opacity:1"
       fill="#1b1b1b"
       d="m 101.5,542.5 c 2,0 4,0 6,0 0,1.667 0,3.333 0,5 -1.325,3.776 -1.991,7.943 -2,12.5 0.001,4.347 0.334,8.514 1,12.5 0,0.333 0,0.667 0,1 -0.182,2.175 -0.849,4.175 -2,6 0.043,0.916 0.376,1.583 1,2 0,0.333 0,0.667 0,1 0,1.333 0,2.667 0,4 -1.667,0 -3.333,0 -5,0 -2.1982,-11.728 -2.5316,-23.395 -1,-35 0.844,-2.845 1.51,-5.845 2,-9 z"
       id="path3098" />
  </g>
  <g
     id="g3512"
     transform="rotate(-90,489.98214,530.07434)">
    <path
       style="opacity:1;fill:none;stroke:#000000;stroke-opacity:1"
       fill="#4f4f4f"
       d="M 99.219493,613.56851 C 99.433493,611.92451 100.38,608.356 99.5,607 c -3.914,-1.283 -7.914,-2.116 -12,-2.5 -3.7708,-1.52 -7.4375,-3.186 -11,-5 -0.17,-1.322 -0.723105,-2.686 0.704498,-3.5985 2.474335,-1.02226 4.864339,-1.27812 10.250519,-2.5985 6.105,-1.496 9.483383,-1.966 16.044983,-1.803 -0.221,-2.164 -1.024,-4.1255 -2.803,-5.2955"
       id="path3510"
       sodipodi:nodetypes="cccccccc" />
  </g>
  <path
     style="fill:none;fill-opacity:1;stroke:#e50000;stroke-width:2.8;stroke-linecap:round;stroke-linejoin:round;stroke-dasharray:none;stroke-dashoffset:17.9906;paint-order:markers stroke fill"
     d="m 567.36331,918.81336 72.29942,18.1241 41.36875,-31.82927 -116.78424,-183.96139 3.11604,-102.11993 26.79213,18.46885 354.05682,6.00853 -0.0119,-6.33288 -0.43975,-7.48605 -0.69446,-7.78854 -1.11236,-6.74379 -2.68836,-4.56483 -4.03152,-4.93493 -5.19253,-4.22853 -4.98393,-2.14721 -329.77993,-96.13656 -68.9504,-181.63506 0.788,-34.27819 -1.42004,-47.31028 -3.30798,-39.37023 -14.97209,-60.67635 -9.30683,-21.7502 -8.02927,-10.55799"
     id="path1291"
     sodipodi:nodetypes="ccccccccccccccccccccccc" />
</svg>
