<?xml version="1.0" encoding="UTF-8" standalone="no"?>
<svg
   version="1.1"
   width="1809px"
   height="1052px"
   style="shape-rendering:geometricPrecision; text-rendering:geometricPrecision; image-rendering:optimizeQuality; fill-rule:evenodd; clip-rule:evenodd"
   id="svg6422"
   sodipodi:docname="F-111B.svg"
   inkscape:version="1.4 (e7c3feb1, 2024-10-09)"
   xmlns:inkscape="http://www.inkscape.org/namespaces/inkscape"
   xmlns:sodipodi="http://sodipodi.sourceforge.net/DTD/sodipodi-0.dtd"
   xmlns="http://www.w3.org/2000/svg"
   xmlns:svg="http://www.w3.org/2000/svg">
  <defs
     id="defs6426" />
  <sodipodi:namedview
     id="namedview6424"
     pagecolor="#ffffff"
     bordercolor="#000000"
     borderopacity="0.25"
     inkscape:showpageshadow="2"
     inkscape:pageopacity="0.0"
     inkscape:pagecheckerboard="0"
     inkscape:deskcolor="#d1d1d1"
     showgrid="false"
     inkscape:zoom="2.3929024"
     inkscape:cx="505.45313"
     inkscape:cy="208.11547"
     inkscape:window-width="1944"
     inkscape:window-height="1025"
     inkscape:window-x="54"
     inkscape:window-y="105"
     inkscape:window-maximized="0"
     inkscape:current-layer="svg6422" />
  <g
     id="g736" />
  <g
     id="g960" />
  <g
     id="g2456" />
  <g
     id="g2876" />
  <g
     id="g3064" />
  <g
     id="g3112" />
  <g
     id="g3652">
    <path
       style="opacity:1"
       fill="#fdfdfd"
       d="M 1658.5,636.5 C 1658.5,637.167 1658.5,637.833 1658.5,638.5C 1648.49,638.334 1638.49,638.5 1628.5,639C 1627.75,639.671 1627.41,640.504 1627.5,641.5C 1623.41,647.59 1619.74,653.923 1616.5,660.5C 1613.76,662.975 1611.76,665.975 1610.5,669.5C 1609.57,670.936 1608.4,672.269 1607,673.5C 1604.47,678.553 1601.97,683.553 1599.5,688.5C 1595.35,694.757 1591.85,701.424 1589,708.5C 1587.28,709.384 1586.11,710.717 1585.5,712.5C 1583.07,714.046 1581.74,716.379 1581.5,719.5C 1579.81,720.475 1578.31,721.808 1577,723.5C 1574.43,729.643 1571.59,735.643 1568.5,741.5C 1567.83,741.5 1567.5,741.833 1567.5,742.5C 1562.83,742.5 1558.17,742.5 1553.5,742.5C 1553.08,741.778 1552.42,741.278 1551.5,741C 1545.18,740.5 1538.84,740.334 1532.5,740.5C 1532.17,740.5 1531.83,740.5 1531.5,740.5C 1513.69,738.897 1495.69,738.23 1477.5,738.5C 1460.84,737.814 1444.18,737.481 1427.5,737.5C 1427.17,737.5 1426.83,737.5 1426.5,737.5C 1414.63,736.993 1405.97,736.327 1400.5,735.5C 1406.18,735.666 1411.84,735.499 1417.5,735C 1419.88,734.777 1421.55,733.61 1422.5,731.5C 1425.2,731.155 1427.2,729.822 1428.5,727.5C 1431.29,727.378 1433.29,726.044 1434.5,723.5C 1436.17,722.833 1437.83,722.167 1439.5,721.5C 1443.36,720.306 1446.36,717.973 1448.5,714.5C 1452.57,714.092 1455.57,712.092 1457.5,708.5C 1464.21,706.814 1469.54,703.147 1473.5,697.5C 1478.6,696.391 1482.6,693.724 1485.5,689.5C 1487.85,689.408 1489.51,688.408 1490.5,686.5C 1491.8,684.178 1493.8,682.845 1496.5,682.5C 1500.41,680.912 1503.74,678.579 1506.5,675.5C 1507.87,675.657 1509.21,675.49 1510.5,675C 1513.04,672.295 1515.7,669.795 1518.5,667.5C 1520.85,667.408 1522.51,666.408 1523.5,664.5C 1527.27,662.631 1530.6,660.297 1533.5,657.5C 1539.15,653.007 1545.15,649.007 1551.5,645.5C 1555.1,644.209 1558.1,642.209 1560.5,639.5C 1563.67,638.99 1566.01,637.323 1567.5,634.5C 1573.14,633.937 1578.81,633.603 1584.5,633.5C 1609.52,633.689 1634.18,634.689 1658.5,636.5 Z"
       id="path3650" />
  </g>
  <g
     id="g3820" />
  <g
     id="g3512"
     transform="rotate(-90,489.98214,530.07434)">
    <path
       style="opacity:1;fill:none;stroke:#000000;stroke-opacity:1"
       fill="#4f4f4f"
       d="M 99.219493,613.56851 C 99.433493,611.92451 100.38,608.356 99.5,607 c -3.914,-1.283 -7.914,-2.116 -12,-2.5 -3.7708,-1.52 -7.4375,-3.186 -11,-5 -0.17,-1.322 -0.723105,-2.686 0.704498,-3.5985 2.474335,-1.02226 4.864339,-1.27812 10.250519,-2.5985 6.105,-1.496 9.483383,-1.966 16.044983,-1.803 -0.221,-2.164 -1.024,-4.1255 -2.803,-5.2955"
       id="path3510"
       sodipodi:nodetypes="cccccccc" />
  </g>
  <path
     style="fill:none;fill-opacity:1;stroke:#e50000;stroke-width:2.9;stroke-linecap:round;stroke-linejoin:round;stroke-dasharray:none;stroke-dashoffset:17.9906;paint-order:markers stroke fill"
     d="M 494 953.654 L 497.443 951.843 L 497.443 938.47 L 497.722 922.729 L 501.065 913.814 L 510.677 920.5 L 521.542 921.475 L 533.801 921.057 L 543.552 920.361 L 547.592 918.689 L 551.631 916.321 L 551.492 922.868 L 552.467 929.415 L 553.582 935.266 L 554.975 940.002 L 557.064 943.485 L 559.432 943.903 L 563.054 938.191 L 564.447 932.619 L 565.283 926.49 L 566.537 918.968 L 639.663 936.937 L 681.031 905.108 L 564.247 721.147 L 567.363 619.027 L 594.155 637.496 L 948.212 643.504 L 948.2 637.171 L 947.761 629.685 L 947.066 621.897 L 945.954 615.153 L 943.265 610.588 L 939.234 605.653 L 934.041 601.425 L 929.057 599.277 L 599.277 503.141 L 530.327 321.506 L 531.115 287.228 L 529.695 239.917 L 526.387 200.547 L 511.415 139.871 L 502.108 118.121 L 494 107.563"
     id="path9644"
     sodipodi:nodetypes="ccccccccccccccccccccccccccccccccccccccccccc" />
  <path
     style="fill:none;fill-opacity:1;stroke:#e50000;stroke-width:2.9;stroke-linecap:round;stroke-linejoin:round;stroke-dasharray:none;stroke-dashoffset:17.9906;paint-order:markers stroke fill"
     d="m 493.53404,953.654 -3.443,-1.811 V 938.47 l -0.279,-15.741 -3.343,-8.915 -9.612,6.686 -10.865,0.975 -12.259,-0.418 -9.751,-0.696 -4.04,-1.672 -4.039,-2.368 0.139,6.547 -0.975,6.547 -1.115,5.851 -1.393,4.736 -2.089,3.483 -2.368,0.418 -3.622,-5.712 -1.393,-5.572 -0.836,-6.129 -1.254,-7.522 -73.126,17.969 -41.368,-31.829 116.784,-183.961 -3.116,-102.12 -26.792,18.469 -354.057,6.008 0.012,-6.333 0.439,-7.486 0.695,-7.788 1.112,-6.744 2.689,-4.565 4.031,-4.935 5.193,-4.228 4.984,-2.148 329.78,-96.136 68.95,-181.635 -0.788,-34.278 1.42,-47.311 3.308,-39.37 14.972,-60.676 9.307,-21.75 8.108,-10.558"
     id="path1"
     sodipodi:nodetypes="ccccccccccccccccccccccccccccccccccccccccccc"
     inkscape:transform-center-x="-227.33898"
     inkscape:transform-center-y="423.75318" />
</svg>
