<?xml version="1.0"?>
<svg xmlns="http://www.w3.org/2000/svg" width="1024" height="1024">
  <rect x="0" y="0" width="1024" height="1024" fill="#A0A6E7" fill-opacity="1" stroke="black" stroke-width="1"/>
  <g transform="translate(300,180) scale(2.0)">
    <path d="m 111.01062,323 h -1.198 l -3.015,-8.699 -35.450004,4.568 -0.731,-2.741 -0.274,-2.284 v -3.015 l 0.182,-2.467 0.274,-1.736 31.613004,-30.151 -2.193,-16.903 -2.832004,0.548 -2.101,0.092 -0.457,-2.193 -0.274,-2.832 -3.792,-31.065 -75.24,16.263 -0.366,2.924 -1.096,0.914 -1.005,-1.554 -0.366,-25.034 h 2.924 l 0.731,-3.198 1.462,-2.375 2.467,-3.015 52.855,-58.521 2.696,-17.679 2.558,11.878 9.274,-10.873 -0.046,-6.578 0.639,-7.767 1.005,-6.487 1.188,-4.385 2.01017,-1.005 3.28883,-0.183 -0.091,-5.939 0.274,-4.3854 0.45727,-2.923667 0.365,-1.096433 0.73116,-1.187733 1.46157,-6.7e-5 1.005,1.0051 -0.045,-3.1979 -0.137,-5.2992 0.274004,-12.2431 0.274,-9.5935 0.548,-10.6899 1.096,-10.5072 1.005,-8.1316 0.823,-3.2892 0.913,-2.01 0.731,-1.2792 0.731,-4.751 1.188,-3.6547 1.553,-3.4719 2.10138,-3.472 2.112,3.472 1.553,3.4719 1.188,3.6547 0.731,4.751 0.731,1.2792 0.913,2.01 0.823,3.2892 1.005,8.1316 1.096,10.5072 0.548,10.6899 0.274,9.5935 0.274,12.2431 -0.137,5.2992 -0.045,3.1979 1.005,-1.0051 1.46157,6.7e-5 0.73116,1.187733 0.365,1.096433 0.45727,2.923667 0.274,4.3854 -0.091,5.939 3.28883,0.183 2.01017,1.005 1.188,4.385 1.005,6.487 0.639,7.767 -0.046,6.578 9.274,10.873 2.558,-11.878 2.696,17.679 52.855,58.521 2.467,3.015 1.462,2.375 0.731,3.198 h 2.924 l -0.366,25.034 -1.005,1.554 -1.096,-0.914 -0.366,-2.924 -75.24,-16.263 -3.792,31.065 -0.274,2.832 -0.457,2.193 -2.101,-0.092 -2.832,-0.548 -2.193,16.903 31.613,30.151 0.274,1.736 0.182,2.467 v 3.015 l -0.274,2.284 -0.731,2.741 -35.45,-4.568 -3.015,8.699 H 111" fill="rgb(100,100,100)" style="fill-opacity:1;stroke:#00d300;stroke-opacity:1"/>
  </g>
  <text x="200" y="300" fill="rgb(90,90,90)" stroke="rgb(90,90,90)" text-anchor="middle" text-align="center" font-family="sans-serif" font-size="300px">8</text>
  <text x="800" y="300" fill="rgb(90,90,90)" stroke="rgb(90,90,90)" text-anchor="middle" text-align="center" font-family="sans-serif" font-size="300px">E</text>
</svg>
