<?xml version="1.0" encoding="UTF-8" standalone="no"?>
<svg
   version="1.1"
   width="230px"
   height="345px"
   style="shape-rendering:geometricPrecision; text-rendering:geometricPrecision; image-rendering:optimizeQuality; fill-rule:evenodd; clip-rule:evenodd"
   id="svg698"
   sodipodi:docname="F4.svg"
   inkscape:version="1.2.2 (b0a84865, 2022-12-01)"
   xmlns:inkscape="http://www.inkscape.org/namespaces/inkscape"
   xmlns:sodipodi="http://sodipodi.sourceforge.net/DTD/sodipodi-0.dtd"
   xmlns="http://www.w3.org/2000/svg"
   xmlns:svg="http://www.w3.org/2000/svg">
  <defs
     id="defs702" />
  <sodipodi:namedview
     id="namedview700"
     pagecolor="#ffffff"
     bordercolor="#000000"
     borderopacity="0.25"
     inkscape:showpageshadow="2"
     inkscape:pageopacity="0.0"
     inkscape:pagecheckerboard="0"
     inkscape:deskcolor="#d1d1d1"
     showgrid="false"
     inkscape:zoom="15.478465"
     inkscape:cx="122.62198"
     inkscape:cy="88.090131"
     inkscape:window-width="1902"
     inkscape:window-height="883"
     inkscape:window-x="0"
     inkscape:window-y="44"
     inkscape:window-maximized="0"
     inkscape:current-layer="g196" />
  <g
     id="g184" />
  <g
     id="g188" />
  <g
     id="g192" />
  <g
     id="g196">
    <path
       style="opacity:1;stroke:#d40000;stroke-width:0.4;stroke-dasharray:none;stroke-opacity:1"
       fill="#5f5f5f"
       d="m 100.38207,92.729689 c 0.1243,-12.855989 0.92411,-27.432574 1.64812,-39.618592 0.34068,-5.532291 0.9976,-14.599303 1.01757,-14.774003 -0.074,-4.4836 1.10984,-8.493971 2.54914,-12.870788 0.46031,-3.478418 0.10358,-0.373161 0.43192,-2.830137 0.73081,-4.247974 3.30818,-9.607481 4.97118,-11.265381 1.8617,2.33251 3.83249,6.859829 4.92503,10.879944 0.41861,1.540289 0.62561,3.116363 0.77018,4.303287 2.21091,4.871166 2.25179,5.639481 2.85324,11.172101 0.83358,5.363511 1.12377,9.269804 1.59615,15.256666 -0.0639,1.53616 0.328,5.904783 0.44677,8.902807 0.84463,11.903 0.90453,19.09274 0.90863,30.614407 -0.435,1.7967 -0.435,3.7967 0,6 -1.333,3.333 -1.333,6.667 0,10 v 1 c -1.333,0.333 -1.333,0.667 0,1 0.342,0.838 1.008,1.172 2,1 -1.205,1.186 -2.539,1.186 -4,0"
       id="path194"
       sodipodi:nodetypes="ccccccsccccccccccc" />
  </g>
  <g
     id="g208" />
  <g
     id="g224">
    <path
       style="opacity:1"
       fill="#a9a9a9"
       d="m 101.5,60.5 c 0,10 0,20 0,30 v 1 c 0.381,2.4418 -0.286,3.1085 -2,2 -0.9519,1.5453 -1.2852,3.212 -1,5 -0.6667,3 -1.3333,6 -2,9 -0.3254,-5.099 0.1746,-10.0988 1.5,-15 0.6667,-1.3333 1.3333,-1.3333 2,0 0.17,-10.8412 0.67,-21.5079 1.5,-32 z"
       id="path222"
       sodipodi:nodetypes="ccccccccc" />
  </g>
  <g
     id="g244">
    <path
       style="opacity:1"
       fill="#afafaf"
       d="M 126.5,107.5 C 126.167,107.5 125.833,107.5 125.5,107.5C 125.725,102.752 125.225,98.0853 124,93.5C 124.017,97.4754 124.184,101.475 124.5,105.5C 123.662,105.842 123.328,106.508 123.5,107.5C 122.523,104.713 122.19,101.713 122.5,98.5C 122.065,96.2967 122.065,94.2967 122.5,92.5C 124.3,91.3948 125.467,92.0614 126,94.5C 126.499,98.8206 126.666,103.154 126.5,107.5 Z"
       id="path242" />
  </g>
  <g
     id="g252">
    <path
       style="opacity:1"
       fill="#474747"
       d="M 125.5,107.5 C 125.167,107.5 124.833,107.5 124.5,107.5C 124.5,106.833 124.5,106.167 124.5,105.5C 124.184,101.475 124.017,97.4754 124,93.5C 125.225,98.0853 125.725,102.752 125.5,107.5 Z"
       id="path250" />
  </g>
  <g
     id="g256">
    <path
       style="opacity:1"
       fill="#1c1c1c"
       d="M 98.5,98.5 C 98.5,100.833 98.5,103.167 98.5,105.5C 98.3284,106.492 98.6618,107.158 99.5,107.5C 100.477,104.713 100.81,101.713 100.5,98.5C 101.833,101.833 101.833,105.167 100.5,108.5C 89.8333,108.833 89.8333,109.167 100.5,109.5C 101.833,109.833 101.833,110.167 100.5,110.5C 97.8333,110.5 95.1667,110.5 92.5,110.5C 91.71,111.609 91.21,112.942 91,114.5C 90.5357,113.906 90.369,113.239 90.5,112.5C 90.062,108.092 92.062,106.425 96.5,107.5C 97.1667,104.5 97.8333,101.5 98.5,98.5 Z"
       id="path254" />
  </g>
  <g
     id="g260">
    <path
       style="opacity:1"
       fill="#cdcdcd"
       d="M 98.5,98.5 C 99.1667,98.5 99.8333,98.5 100.5,98.5C 100.81,101.713 100.477,104.713 99.5,107.5C 99.6716,106.508 99.3382,105.842 98.5,105.5C 98.5,103.167 98.5,100.833 98.5,98.5 Z"
       id="path258" />
  </g>
  <g
     id="g268">
    <path
       style="opacity:1"
       fill="#060606"
       d="M 122.5,98.5 C 122.19,101.713 122.523,104.713 123.5,107.5C 123.833,107.5 124.167,107.5 124.5,107.5C 124.833,107.5 125.167,107.5 125.5,107.5C 125.833,107.5 126.167,107.5 126.5,107.5C 128.415,107.216 130.081,107.549 131.5,108.5C 131.672,109.492 131.338,110.158 130.5,110.5C 127.833,110.5 125.167,110.5 122.5,110.5C 121.167,110.167 121.167,109.833 122.5,109.5C 133.167,109.167 133.167,108.833 122.5,108.5C 121.167,105.167 121.167,101.833 122.5,98.5 Z"
       id="path266" />
  </g>
  <g
     id="g312">
    <path
       style="opacity:1"
       fill="#979797"
       d="M 92.5,110.5 C 92.0217,117.202 91.3551,123.869 90.5,130.5C 91.2427,131.182 91.9094,131.849 92.5,132.5C 91.5,132.5 90.5,132.5 89.5,132.5C 89.7373,131.209 89.404,130.209 88.5,129.5C 88.3213,123.596 88.9879,117.929 90.5,112.5C 90.369,113.239 90.5357,113.906 91,114.5C 91.21,112.942 91.71,111.609 92.5,110.5 Z"
       id="path310" />
  </g>
  <g
     id="g316">
    <path
       style="opacity:1"
       fill="#6f6f6f"
       d="M 131.5,108.5 C 133.695,115.195 134.695,122.195 134.5,129.5C 134.167,129.5 133.833,129.5 133.5,129.5C 133.768,127.901 133.434,126.568 132.5,125.5C 133.126,120.4 132.46,115.4 130.5,110.5C 131.338,110.158 131.672,109.492 131.5,108.5 Z"
       id="path314" />
  </g>
  <g
     id="g324">
    <path
       style="opacity:1"
       fill="#cdcdcd"
       d="M 132.5,125.5 C 133.434,126.568 133.768,127.901 133.5,129.5C 133.5,130.5 133.5,131.5 133.5,132.5C 132.5,132.5 131.5,132.5 130.5,132.5C 132.148,130.544 132.815,128.211 132.5,125.5 Z"
       id="path322" />
  </g>
  <g
     id="g328">
    <path
       style="opacity:1"
       fill="#444444"
       d="m 88.5,129.5 c 0.904,0.709 1.2373,1.709 1,3 h 3 v 14 h 7 c 1.333,0.333 1.333,0.667 0,1 -2.217,0.869 -4.5504,1.202 -7,1 v 17 c 2.987663,-0.1597 1.70338,2 0,2 v 4 c 3.012258,-0.0156 5.292786,2.04031 0,2 v 1 3 c -0.3297,16.175 0.0036,32.175 1,48 v 3 c 0.3333,0.667 0.6667,1.333 1,2 v 1 c -0.904,0.709 -1.2373,1.709 -1,3 0.2373,1.291 -0.096,2.291 -1,3 -0.3028,-4.001 -0.6362,-7.668 -1,-11 -0.3333,-0.667 -0.6667,-1.333 -1,-2 0.9872,-4.805 1.3205,-9.805 1,-15 h -3 c 0.6667,-0.667 1.3333,-1.333 2,-2 0.9511,-1.419 1.2845,-3.085 1,-5 v -5 -8 -2 -11 -1 -1 -7 -2 -15 -3 c 0.3345,-5.107 0.0012,-9.44 -1,-13 -0.6667,-0.333 -1.3333,-0.667 -2,-1 z"
       id="path326"
       sodipodi:nodetypes="cccccccccccccccccscccccccccccccccccccc" />
  </g>
  <g
     id="g332">
    <path
       style="opacity:1;fill:none;stroke:#000000;stroke-opacity:1"
       fill="#202020"
       d="m 134.05884,130.00577 c 0.0646,1.64882 -0.11083,2.84541 0.0646,4.49423 -2.84521,0.0295 -2.24625,5.76555 -6.31703,1.77964 M 127.49999,248.5 c 0,-0.667 -0.333,-1 -1,-1 h -3 -1 -2 -2 c -11.2479,2.31046 -11.29173,0.34551 -18,0 h -1 -3 c -0.6667,0 -1,0.333 -1,1 0.1716,0.992 -0.1618,1.658 -1,2 v -2"
       id="path330"
       sodipodi:nodetypes="ccccsccccccsccc" />
  </g>
  <g
     id="g336">
    <path
       style="opacity:1"
       fill="#e1e1e1"
       d="M 77.5,137.5 C 78.1667,139.833 78.8333,142.167 79.5,144.5C 79.1667,145.5 78.5,146.167 77.5,146.5C 77.5,143.5 77.5,140.5 77.5,137.5 Z"
       id="path334" />
  </g>
  <g
     id="g344">
    <path
       style="opacity:1"
       fill="#e4e4e4"
       d="M 145.5,137.5 C 145.5,140.5 145.5,143.5 145.5,146.5C 144.5,146.167 143.833,145.5 143.5,144.5C 144.167,142.167 144.833,139.833 145.5,137.5 Z"
       id="path342" />
  </g>
  <g
     id="g348">
    <path
       style="opacity:1"
       fill="#919191"
       d="m 132.5,134.5 h 2 c 3.459,2.915 6.459,6.248 9,10 0.333,1 1,1.667 2,2 0.515,4.98 -0.152,9.646 -2,14 0.25808,-0.72784 0.38686,-1.18138 0.5,-2 0.825,-3.711 0.659,-7.378 -0.5,-11 -4.036,-4.034 -7.702,-8.368 -11,-13 z"
       id="path346"
       sodipodi:nodetypes="cccccccc" />
  </g>
  <g
     id="g352">
    <path
       style="opacity:1"
       fill="#4b4b4b"
       d="M 77.5,137.5 C 77.5,140.5 77.5,143.5 77.5,146.5C 76.9853,151.48 77.652,156.146 79.5,160.5C 78.5546,165.405 78.2213,170.405 78.5,175.5C 77.6762,171.688 77.1762,167.688 77,163.5C 76.8238,167.688 76.3238,171.688 75.5,175.5C 75.5,171.833 75.5,168.167 75.5,164.5C 75.5,163.833 75.5,163.167 75.5,162.5C 75.5,162.167 75.5,161.833 75.5,161.5C 75.8782,159.354 76.2115,157.187 76.5,155C 76.2414,153.213 75.5747,151.713 74.5,150.5C 75.2908,144.581 75.7908,138.581 76,132.5C 76.3333,132.167 76.6667,131.833 77,131.5C 77.4955,133.473 77.6621,135.473 77.5,137.5 Z"
       id="path350" />
  </g>
  <g
     id="g356">
    <path
       style="opacity:1"
       fill="#4e4e4e"
       d="M 146.5,132.5 C 146.311,139.567 146.644,146.233 147.5,152.5C 147.5,153.167 147.833,153.5 148.5,153.5C 148.736,156.609 148.403,159.609 147.5,162.5C 147.666,166.846 147.499,171.179 147,175.5C 146.667,171.5 146.333,167.5 146,163.5C 145.824,167.688 145.324,171.688 144.5,175.5C 144.779,170.405 144.445,165.405 143.5,160.5C 145.348,156.146 146.015,151.48 145.5,146.5C 145.5,143.5 145.5,140.5 145.5,137.5C 145.149,134.959 145.482,133.292 146.5,132.5 Z"
       id="path354" />
  </g>
  <g
     id="g360">
    <path
       style="opacity:1"
       fill="#919191"
       d="M 146.5,132.5 C 147.087,138.427 147.92,144.427 149,150.5C 156.669,159.668 164.503,168.668 172.5,177.5C 171.662,177.842 171.328,178.508 171.5,179.5C 170.061,177.64 168.395,175.973 166.5,174.5C 166.5,173.833 166.167,173.5 165.5,173.5C 165.5,172.833 165.167,172.5 164.5,172.5C 159.16,166.161 153.827,159.828 148.5,153.5C 147.833,153.5 147.5,153.167 147.5,152.5C 146.644,146.233 146.311,139.567 146.5,132.5 Z"
       id="path358" />
  </g>
  <g
     id="g364">
    <path
       style="opacity:1"
       fill="#919191"
       d="M 88.5,133.5 C 89.1667,133.833 89.8333,134.167 90.5,134.5C 87.2022,139.132 83.5355,143.466 79.5,147.5C 78.3414,151.122 78.1747,154.789 79,158.5C 82.7417,154.253 86.9083,150.586 91.5,147.5C 91.5,148.5 91.5,149.5 91.5,150.5C 87.4602,153.844 83.4602,157.177 79.5,160.5C 77.652,156.146 76.9853,151.48 77.5,146.5C 78.5,146.167 79.1667,145.5 79.5,144.5C 82.2608,140.65 85.2608,136.983 88.5,133.5 Z"
       id="path362" />
  </g>
  <g
     id="g368">
    <path
       style="opacity:1"
       fill="#f2f2f2"
       d="M 75.5,164.5 C 75.5,168.167 75.5,171.833 75.5,175.5C 75.5,175.833 75.5,176.167 75.5,176.5C 74.8333,173.167 74.1667,169.833 73.5,166.5C 73.8333,165.5 74.5,164.833 75.5,164.5 Z"
       id="path366" />
  </g>
  <g
     id="g380">
    <path
       style="opacity:1"
       fill="#8f8f8f"
       d="M 74.5,150.5 C 75.5747,151.713 76.2414,153.213 76.5,155C 76.2115,157.187 75.8782,159.354 75.5,161.5C 74.6829,159.031 74.1829,156.365 74,153.5C 68.9759,160.017 63.8092,166.35 58.5,172.5C 57.8333,172.5 57.5,172.833 57.5,173.5C 56.8333,173.5 56.5,173.833 56.5,174.5C 52.4874,178.515 48.8207,182.848 45.5,187.5C 44.7777,186.449 43.7777,185.782 42.5,185.5C 53.1384,173.859 63.805,162.193 74.5,150.5 Z"
       id="path378" />
  </g>
  <g
     id="g404">
    <path
       style="opacity:1"
       fill="#989898"
       d="M 165.5,174.5 C 165.833,174.5 166.167,174.5 166.5,174.5C 165.774,178.307 167.107,180.974 170.5,182.5C 170.5,183.5 170.5,184.5 170.5,185.5C 170.167,185.5 169.833,185.5 169.5,185.5C 169.754,183.599 169.42,182.933 168.5,183.5C 166.833,182.5 165.5,181.167 164.5,179.5C 165.451,178.081 165.784,176.415 165.5,174.5 Z"
       id="path402" />
  </g>
  <g
     id="g428">
    <path
       style="opacity:1"
       fill="#7e7e7e"
       d="M 51.5,184.5 C 51.5,185.167 51.5,185.833 51.5,186.5C 41.2629,198.241 30.4295,209.574 19,220.5C 18.2303,219.402 17.397,219.402 16.5,220.5C 16.5393,218.776 16.206,218.443 15.5,219.5C 14.1667,219.833 14.1667,220.167 15.5,220.5C 15.5,227.5 15.5,234.5 15.5,241.5C 14.8333,241.5 14.5,241.833 14.5,242.5C 14.1667,242.5 13.8333,242.5 13.5,242.5C 13.5,234.167 13.5,225.833 13.5,217.5C 14.8221,217.67 15.9887,217.337 17,216.5C 24.5815,205.418 33.0815,195.084 42.5,185.5C 43.7777,185.782 44.7777,186.449 45.5,187.5C 45.56,188.043 45.8933,188.376 46.5,188.5C 48.1856,187.143 49.8523,185.81 51.5,184.5 Z M 42.5,187.5 C 43.6129,188.946 43.7796,190.613 43,192.5C 35.7254,200.777 28.0588,208.777 20,216.5C 19.3333,215.833 19.3333,215.167 20,214.5C 27.7114,205.627 35.2114,196.627 42.5,187.5 Z"
       id="path426" />
  </g>
  <g
     id="g460">
    <path
       style="opacity:1"
       fill="#7d7d7d"
       d="M 172.5,177.5 C 183.14,187.977 193.307,198.977 203,210.5C 204.879,212.527 206.046,214.86 206.5,217.5C 207.5,217.5 208.5,217.5 209.5,217.5C 209.5,225.833 209.5,234.167 209.5,242.5C 209.167,242.5 208.833,242.5 208.5,242.5C 208.825,234.648 208.492,226.982 207.5,219.5C 206.794,218.443 206.461,218.776 206.5,220.5C 205.603,219.402 204.77,219.402 204,220.5C 192.515,209.521 181.682,198.188 171.5,186.5C 171.5,185.833 171.5,185.167 171.5,184.5C 172.962,185.458 174.295,186.624 175.5,188C 176.332,188.688 176.998,188.521 177.5,187.5C 175.86,184.532 173.86,181.865 171.5,179.5C 171.328,178.508 171.662,177.842 172.5,177.5 Z M 179.5,188.5 C 181.017,188.511 182.184,189.177 183,190.5C 187.957,197.126 193.291,203.46 199,209.5C 200.919,211.691 202.253,214.024 203,216.5C 194.941,208.777 187.275,200.777 180,192.5C 179.51,191.207 179.343,189.873 179.5,188.5 Z"
       id="path458" />
  </g>
  <g
     id="g496">
    <path
       style="opacity:1"
       fill="#c1c1c1"
       d="M 69.5,216.5 C 69.8333,216.5 70.1667,216.5 70.5,216.5C 70.5,220.167 70.5,223.833 70.5,227.5C 73.4824,227.037 76.4824,226.704 79.5,226.5C 78.7375,227.268 77.7375,227.768 76.5,228C 76.7284,228.399 77.0618,228.565 77.5,228.5C 76.791,229.404 75.791,229.737 74.5,229.5C 73.0813,228.549 71.4147,228.216 69.5,228.5C 69.5,224.5 69.5,220.5 69.5,216.5 Z"
       id="path494" />
  </g>
  <g
     id="g500">
    <path
       style="opacity:1"
       fill="#d9d9d9"
       d="M 151.5,215.5 C 152.167,215.5 152.833,215.5 153.5,215.5C 153.5,219.833 153.5,224.167 153.5,228.5C 151.585,228.784 149.919,228.451 148.5,227.5C 149.833,227.5 151.167,227.5 152.5,227.5C 152.763,223.4 152.43,219.4 151.5,215.5 Z"
       id="path498" />
  </g>
  <g
     id="g504">
    <path
       style="opacity:1"
       fill="#111111"
       d="M 16.5,220.5 C 16.2053,222.735 16.5386,224.735 17.5,226.5C 17.5,226.833 17.5,227.167 17.5,227.5C 16.2092,231.601 16.2092,235.601 17.5,239.5C 17.9382,239.435 18.2716,239.601 18.5,240C 17.5842,240.278 16.9175,240.778 16.5,241.5C 16.5,241.833 16.5,242.167 16.5,242.5C 16.1667,242.5 15.8333,242.5 15.5,242.5C 15.5,242.167 15.5,241.833 15.5,241.5C 15.5,234.5 15.5,227.5 15.5,220.5C 15.5,220.167 15.5,219.833 15.5,219.5C 16.206,218.443 16.5393,218.776 16.5,220.5 Z"
       id="path502" />
  </g>
  <g
     id="g508">
    <path
       style="opacity:1"
       fill="#303030"
       d="M 69.5,216.5 C 69.5,220.5 69.5,224.5 69.5,228.5C 71.4147,228.216 73.0813,228.549 74.5,229.5C 72.2362,230.219 69.9029,230.552 67.5,230.5C 67.8333,229.833 68.1667,229.167 68.5,228.5C 68.5,224.833 68.5,221.167 68.5,217.5C 68.4607,215.776 68.794,215.443 69.5,216.5 Z"
       id="path506" />
  </g>
  <g
     id="g516">
    <path
       style="opacity:1"
       fill="#141414"
       d="M 207.5,219.5 C 207.5,227.167 207.5,234.833 207.5,242.5C 207.167,242.5 206.833,242.5 206.5,242.5C 206.5,242.167 206.5,241.833 206.5,241.5C 205.737,240.732 204.737,240.232 203.5,240C 204.094,239.536 204.761,239.369 205.5,239.5C 206.791,235.601 206.791,231.601 205.5,227.5C 205.5,227.167 205.5,226.833 205.5,226.5C 206.461,224.735 206.795,222.735 206.5,220.5C 206.461,218.776 206.794,218.443 207.5,219.5 Z"
       id="path514" />
  </g>
  <g
     id="g524">
    <path
       style="opacity:1"
       fill="#818181"
       d="M 153.5,215.5 C 154.167,215.5 154.833,215.5 155.5,215.5C 164.767,217.922 173.767,220.922 182.5,224.5C 181.833,224.5 181.5,224.833 181.5,225.5C 179.631,227.635 178.964,230.302 179.5,233.5C 186.721,234.723 193.721,236.39 200.5,238.5C 199.761,238.369 199.094,238.536 198.5,239C 199.793,239.49 201.127,239.657 202.5,239.5C 202.736,236.391 202.403,233.391 201.5,230.5C 202.975,233.326 204.308,236.326 205.5,239.5C 204.761,239.369 204.094,239.536 203.5,240C 204.737,240.232 205.737,240.732 206.5,241.5C 182.942,236.99 159.609,231.99 136.5,226.5C 137.167,226.5 137.5,226.167 137.5,225.5C 141.337,225.931 145.003,226.598 148.5,227.5C 149.919,228.451 151.585,228.784 153.5,228.5C 153.5,224.167 153.5,219.833 153.5,215.5 Z M 154.5,217.5 C 162.096,220.032 169.763,222.365 177.5,224.5C 177.5,227.167 177.5,229.833 177.5,232.5C 169.786,231.424 162.12,230.091 154.5,228.5C 154.5,224.833 154.5,221.167 154.5,217.5 Z"
       id="path522" />
  </g>
  <g
     id="g528">
    <path
       style="opacity:1"
       fill="#606060"
       d="M 181.5,225.5 C 181.5,224.833 181.833,224.5 182.5,224.5C 186.139,225.627 189.806,226.627 193.5,227.5C 195.102,229.074 197.102,229.741 199.5,229.5C 200.492,229.328 201.158,229.662 201.5,230.5C 202.403,233.391 202.736,236.391 202.5,239.5C 201.127,239.657 199.793,239.49 198.5,239C 199.094,238.536 199.761,238.369 200.5,238.5C 201.793,236.636 201.793,234.636 200.5,232.5C 194.215,229.961 187.882,227.628 181.5,225.5 Z"
       id="path526" />
  </g>
  <g
     id="g532">
    <path
       style="opacity:1"
       fill="#636363"
       d="M 46.5,222.5 C 46.9382,222.435 47.2716,222.601 47.5,223C 46.5842,223.278 45.9175,223.778 45.5,224.5C 45.5,227.167 45.5,229.833 45.5,232.5C 45.4431,233.609 45.1098,234.609 44.5,235.5C 42.3023,235.591 41.9689,234.925 43.5,233.5C 43.5,230.833 43.5,228.167 43.5,225.5C 39.5,226.5 35.5,227.5 31.5,228.5C 31.8333,227.833 32.1667,227.167 32.5,226.5C 37.0974,224.968 41.764,223.635 46.5,222.5 Z"
       id="path530" />
  </g>
  <g
     id="g536">
    <path
       style="opacity:1"
       fill="#767676"
       d="M 90.5,224.5 C 90.8333,225.167 91.1667,225.833 91.5,226.5C 86.853,227.296 82.1863,227.963 77.5,228.5C 77.0618,228.565 76.7284,228.399 76.5,228C 77.7375,227.768 78.7375,227.268 79.5,226.5C 83.1667,225.833 86.8333,225.167 90.5,224.5 Z"
       id="path534" />
  </g>
  <g
     id="g540">
    <path
       style="opacity:1"
       fill="#dddddd"
       d="M 193.5,227.5 C 195.786,227.595 197.786,228.262 199.5,229.5C 197.102,229.741 195.102,229.074 193.5,227.5 Z"
       id="path538" />
  </g>
  <g
     id="g544">
    <path
       style="opacity:1"
       fill="#5b5b5b"
       d="M 128.5,228.5 C 129.167,227.5 129.833,226.5 130.5,225.5C 131.492,225.672 132.158,225.338 132.5,224.5C 134.216,224.629 135.883,224.962 137.5,225.5C 137.5,226.167 137.167,226.5 136.5,226.5C 134.473,226.338 132.473,226.505 130.5,227C 131.059,227.725 131.392,228.558 131.5,229.5C 130.925,234.988 130.258,240.321 129.5,245.5C 128.662,245.158 128.328,244.492 128.5,243.5C 128.5,241.5 128.5,239.5 128.5,237.5C 129.404,236.791 129.737,235.791 129.5,234.5C 129.737,233.209 129.404,232.209 128.5,231.5C 128.167,230.167 127.833,230.167 127.5,231.5C 127.5,232.167 127.167,232.5 126.5,232.5C 126.167,232.5 125.833,232.5 125.5,232.5C 125.354,221.813 125.688,211.146 126.5,200.5C 127.277,207.302 127.944,216.636 128.5,228.5 Z"
       id="path542" />
  </g>
  <g
     id="g548">
    <path
       style="opacity:1"
       fill="#9a9a9a"
       d="M 68.5,228.5 C 68.1667,229.167 67.8333,229.833 67.5,230.5C 60.0869,232.785 52.4203,234.451 44.5,235.5C 45.1098,234.609 45.4431,233.609 45.5,232.5C 53.2138,231.424 60.8805,230.091 68.5,228.5 Z"
       id="path546" />
  </g>
  <g
     id="g552">
    <path
       style="opacity:1"
       fill="#1b1b1b"
       d="M 21.5,232.5 C 21.2053,234.735 21.5386,236.735 22.5,238.5C 22.44,239.043 22.1067,239.376 21.5,239.5C 21.1667,238.167 20.8333,236.833 20.5,235.5C 20.3649,233.537 20.6982,232.537 21.5,232.5 Z"
       id="path550" />
  </g>
  <g
     id="g556">
    <path
       style="opacity:1"
       fill="#9b9b9b"
       d="M 96.5,207.5 C 97.492,214.982 97.8254,222.648 97.5,230.5C 96.9948,236.522 95.9948,242.522 94.5,248.5C 93.3126,245.054 92.6459,241.387 92.5,237.5C 93.404,236.791 93.7373,235.791 93.5,234.5C 94.404,233.791 94.7373,232.791 94.5,231.5C 95.8333,231.167 95.8333,230.833 94.5,230.5C 94.1667,229.833 93.8333,229.167 93.5,228.5C 94.404,227.791 94.7373,226.791 94.5,225.5C 94.8333,225.5 95.1667,225.5 95.5,225.5C 96.5719,222.234 96.9053,216.234 96.5,207.5 Z"
       id="path554" />
  </g>
  <g
     id="g560">
    <path
       style="opacity:1"
       fill="#989898"
       d="M 32.5,226.5 C 32.1667,227.167 31.8333,227.833 31.5,228.5C 28.46,230.346 25.1267,231.679 21.5,232.5C 20.6982,232.537 20.3649,233.537 20.5,235.5C 20.8333,236.833 21.1667,238.167 21.5,239.5C 22.1067,239.376 22.44,239.043 22.5,238.5C 29.2972,236.47 36.2972,234.803 43.5,233.5C 41.9689,234.925 42.3023,235.591 44.5,235.5C 35.4154,238.1 26.082,240.1 16.5,241.5C 16.9175,240.778 17.5842,240.278 18.5,240C 18.2716,239.601 17.9382,239.435 17.5,239.5C 18.9417,236.77 19.9417,233.77 20.5,230.5C 24.4051,228.858 28.4051,227.524 32.5,226.5 Z"
       id="path558" />
  </g>
  <g
     id="g572">
    <path
       style="opacity:1"
       fill="#a9a9a9"
       d="M 13.5,242.5 C 13.8333,242.5 14.1667,242.5 14.5,242.5C 14.8333,242.5 15.1667,242.5 15.5,242.5C 15.8333,242.5 16.1667,242.5 16.5,242.5C 15.5,245.167 14.5,245.167 13.5,242.5 Z"
       id="path570" />
  </g>
  <g
     id="g576">
    <path
       style="opacity:1"
       fill="#ababab"
       d="M 206.5,242.5 C 206.833,242.5 207.167,242.5 207.5,242.5C 207.833,242.5 208.167,242.5 208.5,242.5C 208.833,242.5 209.167,242.5 209.5,242.5C 208.5,245.167 207.5,245.167 206.5,242.5 Z"
       id="path574" />
  </g>
  <g
     id="g580">
    <path
       style="opacity:1"
       fill="#b6b6b6"
       d="M 127.5,231.5 C 127.833,231.5 128.167,231.5 128.5,231.5C 128.263,232.791 128.596,233.791 129.5,234.5C 129.737,235.791 129.404,236.791 128.5,237.5C 127.193,238.133 127.193,240.133 128.5,243.5C 128.328,244.492 128.662,245.158 129.5,245.5C 129.841,249.16 129.175,252.493 127.5,255.5C 127.737,254.209 127.404,253.209 126.5,252.5C 125.493,250.523 125.493,250.857 126.5,253.5C 126.167,254.167 125.833,254.833 125.5,255.5C 125.167,255.5 124.833,255.5 124.5,255.5C 124.768,253.901 124.434,252.568 123.5,251.5C 123.5,250.167 123.5,248.833 123.5,247.5C 124.5,247.5 125.5,247.5 126.5,247.5C 127.167,247.5 127.5,247.833 127.5,248.5C 127.015,244.649 126.682,239.316 126.5,232.5C 127.167,232.5 127.5,232.167 127.5,231.5 Z"
       id="path578" />
  </g>
  <g
     id="g584" />
  <g
     id="g592">
    <path
       style="opacity:1"
       fill="#939393"
       d="M 96.5,247.5 C 97.5,247.5 98.5,247.5 99.5,247.5C 99.9422,251.154 100.276,254.821 100.5,258.5C 99.448,258.351 98.448,258.517 97.5,259C 98.7375,259.232 99.7375,259.732 100.5,260.5C 99.0222,260.762 97.6888,260.429 96.5,259.5C 95.0668,256.667 94.4001,253.667 94.5,250.5C 95.3382,250.158 95.6716,249.492 95.5,248.5C 96.1667,248.5 96.5,248.167 96.5,247.5 Z"
       id="path590" />
  </g>
  <g
     id="g604">
    <path
       style="opacity:1"
       fill="#999999"
       d="M 123.5,251.5 C 124.434,252.568 124.768,253.901 124.5,255.5C 124.833,256.833 125.167,256.833 125.5,255.5C 125.833,254.833 126.167,254.167 126.5,253.5C 126.5,253.167 126.5,252.833 126.5,252.5C 127.404,253.209 127.737,254.209 127.5,255.5C 128.167,259.5 126.5,261.167 122.5,260.5C 122.556,265.731 121.889,270.731 120.5,275.5C 120.663,273.143 120.497,270.81 120,268.5C 119.722,269.416 119.222,270.082 118.5,270.5C 118.723,267.216 119.39,264.049 120.5,261C 114.509,260.501 108.509,260.334 102.5,260.5C 102.5,260.167 102.5,259.833 102.5,259.5C 111.225,259.863 117.891,259.529 122.5,258.5C 122.448,256.097 122.781,253.764 123.5,251.5 Z"
       id="path602" />
  </g>
  <g
     id="g608">
    <path
       style="opacity:1"
       fill="#3c3c3c"
       d="M 120.5,275.5 C 120.5,276.167 120.5,276.833 120.5,277.5C 119.833,278.833 119.167,278.833 118.5,277.5C 118.5,275.5 118.5,273.5 118.5,271.5C 118.5,271.167 118.5,270.833 118.5,270.5C 119.222,270.082 119.722,269.416 120,268.5C 120.497,270.81 120.663,273.143 120.5,275.5 Z"
       id="path606" />
  </g>
  <g
     id="g612">
    <path
       style="opacity:1"
       fill="#b6b6b6"
       d="M 103.5,266.5 C 104.785,269.589 105.451,272.922 105.5,276.5C 103.989,273.456 103.322,270.122 103.5,266.5 Z"
       id="path610" />
  </g>
  <g
     id="g620">
    <path
       style="opacity:1"
       fill="#e3e3e3"
       d="M 101.5,280.5 C 101.56,279.957 101.893,279.624 102.5,279.5C 103.386,280.325 103.719,281.325 103.5,282.5C 102.833,281.833 102.167,281.167 101.5,280.5 Z"
       id="path618" />
  </g>
  <g
     id="g624">
    <path
       style="opacity:1"
       fill="#8f8f8f"
       d="M 118.5,277.5 C 119.167,278.833 119.833,278.833 120.5,277.5C 125.46,280.792 129.793,284.792 133.5,289.5C 132.662,289.842 132.328,290.508 132.5,291.5C 132.167,291.5 131.833,291.5 131.5,291.5C 127.167,290.833 122.833,290.167 118.5,289.5C 122.514,289.666 126.514,289.499 130.5,289C 127.631,285.796 124.465,282.963 121,280.5C 120.722,281.416 120.222,282.082 119.5,282.5C 119.068,281.29 118.401,280.29 117.5,279.5C 117.328,278.508 117.662,277.842 118.5,277.5 Z"
       id="path622" />
  </g>
  <g
     id="g632">
    <path
       style="opacity:1"
       fill="#5c5c5c"
       d="M 100.5,258.5 C 101.167,258.5 101.833,258.5 102.5,258.5C 102.5,258.833 102.5,259.167 102.5,259.5C 102.5,259.833 102.5,260.167 102.5,260.5C 103.341,262.379 103.675,264.379 103.5,266.5C 103.322,270.122 103.989,273.456 105.5,276.5C 105.329,280.639 105.996,284.639 107.5,288.5C 107.333,289.167 107.167,289.833 107,290.5C 106.667,289.5 106.333,288.5 106,287.5C 105.79,289.058 105.29,290.391 104.5,291.5C 100.167,291.5 95.8333,291.5 91.5,291.5C 95.8333,290.833 100.167,290.167 104.5,289.5C 103.631,287.283 103.298,284.95 103.5,282.5C 103.719,281.325 103.386,280.325 102.5,279.5C 101.893,279.624 101.56,279.957 101.5,280.5C 100.662,280.158 100.328,279.492 100.5,278.5C 101.478,278.189 102.145,277.522 102.5,276.5C 101.18,271.26 100.513,265.926 100.5,260.5C 99.7375,259.732 98.7375,259.232 97.5,259C 98.448,258.517 99.448,258.351 100.5,258.5 Z"
       id="path630" />
  </g>
  <g
     id="g636">
    <path
       style="opacity:1"
       fill="#919191"
       d="M 100.5,278.5 C 100.328,279.492 100.662,280.158 101.5,280.5C 98.3957,283.101 95.3957,285.934 92.5,289C 96.4862,289.499 100.486,289.666 104.5,289.5C 100.167,290.167 95.8333,290.833 91.5,291.5C 91.5,293.5 91.5,295.5 91.5,297.5C 90.8333,294.833 90.1667,292.167 89.5,289.5C 92.8333,285.5 96.5,281.833 100.5,278.5 Z"
       id="path634" />
  </g>
  <g
     id="g668">
    <path
       style="opacity:1"
       fill="#848484"
       d="M 89.5,289.5 C 89.5,290.5 89.5,291.5 89.5,292.5C 88.1667,292.833 88.1667,293.167 89.5,293.5C 89.5,294.167 89.5,294.833 89.5,295.5C 87.8333,296.5 86.5,297.833 85.5,299.5C 87.0618,299.267 88.3951,298.6 89.5,297.5C 89.5,298.5 89.5,299.5 89.5,300.5C 83.5163,303.828 77.8497,307.661 72.5,312C 73.3802,313.356 73.7135,314.856 73.5,316.5C 78.8446,316.313 84.1779,315.98 89.5,315.5C 89.5,316.167 89.8333,316.5 90.5,316.5C 92.8333,316.5 95.1667,316.5 97.5,316.5C 90.3506,317.779 83.0173,318.779 75.5,319.5C 73.6803,319.351 72.1803,318.684 71,317.5C 70.3333,313.833 70.3333,310.167 71,306.5C 76.9968,300.458 83.1635,294.791 89.5,289.5 Z M 82.5,301.5 C 82.0269,302.906 81.0269,303.573 79.5,303.5C 79.9731,302.094 80.9731,301.427 82.5,301.5 Z M 85.5,299.5 C 85.0269,300.906 84.0269,301.573 82.5,301.5C 82.9731,300.094 83.9731,299.427 85.5,299.5 Z"
       id="path666" />
  </g>
  <g
     id="g676">
    <path
       style="opacity:1"
       fill="#808080"
       d="M 133.5,289.5 C 140.097,294.592 146.263,300.259 152,306.5C 152.767,310.558 152.6,314.558 151.5,318.5C 148.463,319.741 145.463,319.741 142.5,318.5C 140.708,317.691 138.708,317.191 136.5,317C 137.793,316.51 139.127,316.343 140.5,316.5C 143.777,316.216 146.943,316.549 150,317.5C 150.667,315.5 150.667,313.5 150,311.5C 144.89,307.219 139.39,303.552 133.5,300.5C 133.5,299.5 133.5,298.5 133.5,297.5C 135.698,299.098 138.031,300.431 140.5,301.5C 138.393,299.273 136.06,297.273 133.5,295.5C 133.5,293.5 133.5,291.5 133.5,289.5 Z M 140.5,301.5 C 142.027,301.427 143.027,302.094 143.5,303.5C 141.973,303.573 140.973,302.906 140.5,301.5 Z"
       id="path674" />
  </g>
  <g
     id="g680">
    <path
       style="opacity:1"
       fill="#717171"
       d="M 91.5,314.5 C 94.5,314.5 97.5,314.5 100.5,314.5C 102.199,314.34 103.866,314.506 105.5,315C 102.964,315.186 100.631,315.686 98.5,316.5C 98.1667,316.5 97.8333,316.5 97.5,316.5C 95.1667,316.5 92.8333,316.5 90.5,316.5C 90.5,316.167 90.5,315.833 90.5,315.5C 91.1667,315.5 91.5,315.167 91.5,314.5 Z"
       id="path678" />
  </g>
  <g
     id="g684">
    <path
       style="opacity:1"
       fill="#6f6f6f"
       d="m 110.5,314.5 v 5 c 0.333,2.667 0.667,2.667 1,0 0.838,-0.342 1.172,-1.008 1,-2 0.73047,-1.49539 1.33921,-3.29603 2,-4.5 3.691,0.42 7.358,0.92 11,1.5 -2.787,0.977 -5.787,1.31 -9,1 -1.956,2.404 -1.74943,4.35933 -3.12643,7.28933 -0.586,-0.209 -2.44272,0.29688 -2.85672,-0.16012 -0.44,-2.366 -1.45685,-4.82821 -2.01685,-7.12921 l -2,-2 c 2.39236,0.5716 4,1 4,1 z"
       id="path682"
       sodipodi:nodetypes="cccccccccccc" />
  </g>
  <g
     id="g692">
    <path
       style="opacity:1"
       fill="#bebebe"
       d="M 100.5,314.5 C 102.265,313.539 104.265,313.205 106.5,313.5C 107.167,314.167 107.833,314.833 108.5,315.5C 105.236,316.324 101.902,316.658 98.5,316.5C 100.631,315.686 102.964,315.186 105.5,315C 103.866,314.506 102.199,314.34 100.5,314.5 Z"
       id="path690" />
  </g>
  <g
     id="g696">
    <path
       style="opacity:1"
       fill="#a8a8a8"
       d="M 125.5,314.5 C 127.5,314.5 129.5,314.5 131.5,314.5C 132.167,314.5 132.5,314.833 132.5,315.5C 132.833,316.833 133.167,316.833 133.5,315.5C 136.059,315.198 138.393,315.532 140.5,316.5C 139.127,316.343 137.793,316.51 136.5,317C 138.708,317.191 140.708,317.691 142.5,318.5C 133.628,318.07 124.961,317.07 116.5,315.5C 119.713,315.81 122.713,315.477 125.5,314.5 Z"
       id="path694" />
  </g>
</svg>
