<?xml version="1.0" encoding="UTF-8" standalone="no"?>
<svg
   version="1.1"
   width="230px"
   height="345px"
   style="shape-rendering:geometricPrecision; text-rendering:geometricPrecision; image-rendering:optimizeQuality; fill-rule:evenodd; clip-rule:evenodd"
   id="svg698"
   sodipodi:docname="F4.svg"
   inkscape:version="1.2.2 (b0a84865, 2022-12-01)"
   xmlns:inkscape="http://www.inkscape.org/namespaces/inkscape"
   xmlns:sodipodi="http://sodipodi.sourceforge.net/DTD/sodipodi-0.dtd"
   xmlns="http://www.w3.org/2000/svg"
   xmlns:svg="http://www.w3.org/2000/svg">
  <defs
     id="defs702" />
  <sodipodi:namedview
     id="namedview700"
     pagecolor="#ffffff"
     bordercolor="#000000"
     borderopacity="0.25"
     inkscape:showpageshadow="2"
     inkscape:pageopacity="0.0"
     inkscape:pagecheckerboard="0"
     inkscape:deskcolor="#d1d1d1"
     showgrid="false"
     inkscape:zoom="2.7362319"
     inkscape:cx="122.97934"
     inkscape:cy="125.53761"
     inkscape:window-width="1902"
     inkscape:window-height="883"
     inkscape:window-x="83"
     inkscape:window-y="130"
     inkscape:window-maximized="0"
     inkscape:current-layer="svg698" />
  <g
     id="g184" />
  <g
     id="g188" />
  <g
     id="g192" />
  <g
     id="g196">
    <path
       style="opacity:1;stroke:#d40000;stroke-width:0.4;stroke-dasharray:none;stroke-opacity:1"
       fill="#5f5f5f"
       d="m 100.38207,92.729689 c 0.1243,-12.855989 0.92411,-27.432574 1.64812,-39.618592 0.34068,-5.532291 0.9976,-14.599303 1.01757,-14.774003 -0.074,-4.4836 1.10984,-8.493971 2.54914,-12.870788 0.46031,-3.478418 0.10358,-0.373161 0.43192,-2.830137 0.73081,-4.247974 3.30818,-9.607481 4.97118,-11.265381 1.8617,2.33251 3.83249,6.859829 4.92503,10.879944 0.41861,1.540289 0.62561,3.116363 0.77018,4.303287 2.21091,4.871166 2.25179,5.639481 2.85324,11.172101 0.83358,5.363511 1.12377,9.269804 1.59615,15.256666 -0.0639,1.53616 0.328,5.904783 0.44677,8.902807 0.84463,11.903 0.90453,19.09274 0.90863,30.614407 -0.306,1.263893 0.1228,-1.202613 1.82559,-0.419962 0.16351,0.07515 0.74187,0.184861 1.54707,3.56268 0.12141,0.509324 0.38718,2.133124 0.53591,4.124143 0.10292,1.377739 0.0841,3.061549 0.0408,3.923079 -0.0582,1.15854 -0.0729,3.71362 -0.0663,3.76398"
       id="path194"
       sodipodi:nodetypes="ccccccscccccssssc" />
    <path
       style="fill:none;stroke:#e50000;stroke-width:2.9;stroke-linecap:round;stroke-linejoin:round;stroke-dashoffset:17.9906;paint-order:markers stroke fill"
       d="m 111,323 h 1.19809 l 3.0151,-8.69911 35.45021,4.56832 0.73093,-2.74099 0.2741,-2.28417 v -3.01509 l -0.18273,-2.4669 -0.2741,-1.73596 c -11.05889,-10.21327 -22.32546,-20.63608 -31.70419,-29.23733"
       id="path866"
       sodipodi:nodetypes="cccccccccc" />
  </g>
  <g
     id="g208" />
  <g
     id="g224">
    <path
       style="opacity:1"
       fill="#a9a9a9"
       d="m 101.5,60.5 c 0,10 0,20 0,30 v 1 c 0.381,2.4418 -0.286,3.1085 -2,2 -0.9519,1.5453 -1.2852,3.212 -1,5 -0.6667,3 -1.3333,6 -2,9 -0.3254,-5.099 0.1746,-10.0988 1.5,-15 0.6667,-1.3333 1.3333,-1.3333 2,0 0.17,-10.8412 0.67,-21.5079 1.5,-32 z"
       id="path222"
       sodipodi:nodetypes="ccccccccc" />
  </g>
  <g
     id="g256">
    <path
       style="opacity:1"
       fill="#1c1c1c"
       d="m 98.5,98.5 v 7 c 0.353921,0.62818 -0.231453,1.08687 -0.416181,2.13705 C 97.360577,108.84766 96.548428,110.5 92.5,110.5 c -0.79,1.109 -1.29,2.442 -1.5,4 -0.4643,-0.594 -0.631,-1.261 -0.5,-2 -0.438,-4.408 1.562,-6.075 6,-5 0.6667,-3 1.3333,-6 2,-9 z"
       id="path254"
       sodipodi:nodetypes="cccccccc" />
  </g>
  <g
     id="g268">
    <path
       style="opacity:1"
       fill="#060606"
       d="m 125.5,107.5 h 1 c 1.915,-0.284 3.581,0.049 5,1 -3.12771,1.65154 -1.36168,0.90558 -4.43167,1.69028 -1.9351,-1.49472 -2.2205,-2.14208 -1.56833,-2.69028 z"
       id="path266"
       sodipodi:nodetypes="ccccc" />
  </g>
  <g
     id="g312">
    <path
       style="opacity:1"
       fill="#979797"
       d="m 92.5,110.5 c -0.4783,6.702 -1.1449,13.369 -2,20 0.7427,0.682 1.4094,1.349 2,2 h -3 c 0.2373,-1.291 -0.096,-2.291 -1,-3 -0.1787,-5.904 0.4879,-11.571 2,-17 -0.131,0.739 0.583899,0.62938 1.048199,1.22338 C 91.758199,112.16538 91.71,111.609 92.5,110.5 Z"
       id="path310"
       sodipodi:nodetypes="cccccccc" />
  </g>
  <g
     id="g316">
    <path
       style="opacity:1;fill:none;stroke:#0000ed;stroke-width:0.4;stroke-dasharray:none;stroke-opacity:1"
       d="m 131.5,108.5 c 2.24561,6.98179 3.111,15.19863 2.77942,21.25288 -0.0646,1.85603 -0.24004,3.00693 -0.15598,4.74712"
       id="path314"
       sodipodi:nodetypes="ccc" />
  </g>
  <g
     id="g344">
    <path
       style="opacity:1"
       fill="#e4e4e4"
       d="M 145.5,137.5 C 145.5,140.5 145.5,143.5 145.5,146.5C 144.5,146.167 143.833,145.5 143.5,144.5C 144.167,142.167 144.833,139.833 145.5,137.5 Z"
       id="path342" />
  </g>
  <g
     id="g348">
    <path
       style="opacity:1"
       fill="#919191"
       d="m 132.5,134.5 h 2 c 3.459,2.915 6.459,6.248 9,10 0.333,1 1,1.667 2,2 0.0359,1.07697 -1.1172,1.47917 -2.22842,1.04568 C 139.23558,143.51168 135.798,139.132 132.5,134.5 Z"
       id="path346"
       sodipodi:nodetypes="cccccc" />
  </g>
  <g
     id="g356">
    <path
       style="opacity:1"
       fill="#4e4e4e"
       d="m 146.5,132.5 c 1.11306,4.54449 -0.71622,7.81734 0.6295,10.26443 -0.29835,2.34297 -0.81715,3.30614 -1.6295,3.73557 v -9 c -0.351,-2.541 -0.018,-4.208 1,-5 z"
       id="path354"
       sodipodi:nodetypes="ccccc" />
  </g>
  <g
     id="g360">
    <path
       style="opacity:1"
       fill="#919191"
       d="M 146.5,132.5 C 147.087,138.427 147.92,144.427 149,150.5C 156.669,159.668 164.503,168.668 172.5,177.5C 171.662,177.842 171.328,178.508 171.5,179.5C 170.061,177.64 168.395,175.973 166.5,174.5C 166.5,173.833 166.167,173.5 165.5,173.5C 165.5,172.833 165.167,172.5 164.5,172.5C 159.16,166.161 153.827,159.828 148.5,153.5C 147.833,153.5 147.5,153.167 147.5,152.5C 146.644,146.233 146.311,139.567 146.5,132.5 Z"
       id="path358" />
  </g>
  <g
     id="g460">
    <path
       style="opacity:1"
       fill="#7d7d7d"
       d="m 172.5,177.5 c 10.64,10.477 20.807,21.477 30.5,33 1.879,2.027 3.046,4.36 3.5,7 h 3 v 25 h -1 c 0.325,-7.852 -0.008,-15.518 -1,-23 -0.706,-1.057 -1.039,-0.724 -1,1 -0.897,-1.098 -1.73,-1.098 -2.5,0 -9.00836,-9.10128 -30.93392,-24.37747 -26.5,-33 -1.64,-2.968 -3.64,-5.635 -6,-8 -0.172,-0.992 0.162,-1.658 1,-2 z"
       id="path458"
       sodipodi:nodetypes="cccccccccccc" />
  </g>
  <g
     id="g516">
    <path
       style="opacity:1"
       fill="#141414"
       d="M 207.5,219.5 C 207.5,227.167 207.5,234.833 207.5,242.5C 207.167,242.5 206.833,242.5 206.5,242.5C 206.5,242.167 206.5,241.833 206.5,241.5C 205.737,240.732 204.737,240.232 203.5,240C 204.094,239.536 204.761,239.369 205.5,239.5C 206.791,235.601 206.791,231.601 205.5,227.5C 205.5,227.167 205.5,226.833 205.5,226.5C 206.461,224.735 206.795,222.735 206.5,220.5C 206.461,218.776 206.794,218.443 207.5,219.5 Z"
       id="path514" />
  </g>
  <g
     id="g524">
    <path
       style="opacity:1"
       fill="#818181"
       d="m 200.5,238.5 c -0.739,-0.131 -1.406,0.036 -2,0.5 1.293,0.49 2.627,0.657 4,0.5 1.65763,-2.04011 2.8196,-3.068 3,0 -0.739,-0.131 -1.406,0.036 -2,0.5 1.237,0.232 2.237,0.732 3,1.5 -23.558,-4.51 -46.891,-9.51 -70,-15 0.667,0 1,-0.333 1,-1 3.837,0.431 7.503,1.098 11,2 1.419,0.951 3.085,1.284 5,1 21.3685,4.44396 26.94467,3.81539 47,10 z"
       id="path522"
       sodipodi:nodetypes="ccccccccccc" />
  </g>
  <g
     id="g528">
    <path
       style="opacity:1"
       fill="#606060"
       d="m 202.5,239.5 c -1.373,0.157 -2.707,-0.01 -4,-0.5 0.594,-0.464 1.261,-0.631 2,-0.5 -1.14313,-3.54685 3.28919,-1.83049 2,1 z"
       id="path526"
       sodipodi:nodetypes="cccc" />
  </g>
  <g
     id="g544">
    <path
       style="opacity:1"
       fill="#5b5b5b"
       d="m 128.5,228.5 c 0.667,-1 1.333,-2 2,-3 0.992,0.172 1.658,-0.162 2,-1 1.716,0.129 3.383,0.462 5,1 0,0.667 -0.333,1 -1,1 -2.027,-0.162 -4.027,0.005 -6,0.5 0.559,0.725 0.892,1.558 1,2.5 -0.575,5.488 -1.242,10.821 -2,16 -0.838,-0.342 -1.172,-1.008 -1,-2 v -6 c 0.904,-0.709 1.237,-1.709 1,-3 0.237,-1.291 -0.096,-2.291 -1,-3 -0.333,-1.333 -0.667,-1.333 -1,0 0,0.667 -0.333,1 -1,1 -1.02089,-3.05262 0.3724,-4.00515 2,-4 z"
       id="path542"
       sodipodi:nodetypes="ccccccccccccccc" />
  </g>
  <g
     id="g548" />
  <g
     id="g576">
    <path
       style="opacity:1"
       fill="#ababab"
       d="M 206.5,242.5 C 206.833,242.5 207.167,242.5 207.5,242.5C 207.833,242.5 208.167,242.5 208.5,242.5C 208.833,242.5 209.167,242.5 209.5,242.5C 208.5,245.167 207.5,245.167 206.5,242.5 Z"
       id="path574" />
  </g>
  <g
     id="g580">
    <path
       style="opacity:1"
       fill="#b6b6b6"
       d="m 127.5,231.5 h 1 c -0.237,1.291 0.096,2.291 1,3 0.237,1.291 -0.096,2.291 -1,3 -1.307,0.633 -1.307,2.633 0,6 -0.172,0.992 0.162,1.658 1,2 0.341,3.66 -0.325,6.993 -2,10 0.237,-1.291 -0.096,-2.291 -1,-3 1.14068,-7.03342 0.25796,-10.71353 0,-20 0.667,0 1,-0.333 1,-1 z"
       id="path578"
       sodipodi:nodetypes="cccccccccc" />
  </g>
  <g
     id="g584" />
  <g
     id="g604">
    <path
       style="opacity:1"
       fill="#999999"
       d="m 125.5,255.5 c 0.333,-0.667 0.667,-1.333 1,-2 v -1 c 0.904,0.709 1.237,1.709 1,3 0.667,4 -1,5.667 -5,5 0.056,5.231 -0.611,10.231 -2,15 0.163,-2.357 -0.003,-4.69 -0.5,-7 -0.278,0.916 -0.778,1.582 -1.5,2 0.223,-3.284 0.89,-6.451 2,-9.5 0.54685,-1.02325 1.2754,-1.91355 2,-2.5 1.01896,-0.40252 2.66089,-1.32488 3,-3 z"
       id="path602"
       sodipodi:nodetypes="ccccccccccc" />
  </g>
  <g
     id="g608">
    <path
       style="opacity:1"
       fill="#3c3c3c"
       d="M 120.5,275.5 C 120.5,276.167 120.5,276.833 120.5,277.5C 119.833,278.833 119.167,278.833 118.5,277.5C 118.5,275.5 118.5,273.5 118.5,271.5C 118.5,271.167 118.5,270.833 118.5,270.5C 119.222,270.082 119.722,269.416 120,268.5C 120.497,270.81 120.663,273.143 120.5,275.5 Z"
       id="path606" />
  </g>
  <g
     id="g624">
    <path
       style="opacity:1"
       fill="#8f8f8f"
       d="m 118.5,277.5 c 0.667,1.333 1.333,1.333 2,0 4.96,3.292 9.293,7.292 13,12 -0.838,0.342 -0.39673,0.74958 -0.22473,1.74158 L 131.5,291.5 c -0.8593,-0.68923 -1.15913,-1.50629 -1,-2.5 -3.12045,-5.32524 -12.38226,-8.86448 -12,-11.5 z"
       id="path622"
       sodipodi:nodetypes="ccccccc" />
  </g>
</svg>
