<?xml version="1.0" encoding="UTF-8" standalone="no"?>
<svg
   version="1.1"
   width="230px"
   height="345px"
   style="shape-rendering:geometricPrecision; text-rendering:geometricPrecision; image-rendering:optimizeQuality; fill-rule:evenodd; clip-rule:evenodd"
   id="svg698"
   sodipodi:docname="F4.svg"
   inkscape:version="1.2.2 (b0a84865, 2022-12-01)"
   xmlns:inkscape="http://www.inkscape.org/namespaces/inkscape"
   xmlns:sodipodi="http://sodipodi.sourceforge.net/DTD/sodipodi-0.dtd"
   xmlns="http://www.w3.org/2000/svg"
   xmlns:svg="http://www.w3.org/2000/svg">
  <defs
     id="defs702" />
  <sodipodi:namedview
     id="namedview700"
     pagecolor="#ffffff"
     bordercolor="#000000"
     borderopacity="0.25"
     inkscape:showpageshadow="2"
     inkscape:pageopacity="0.0"
     inkscape:pagecheckerboard="0"
     inkscape:deskcolor="#d1d1d1"
     showgrid="false"
     inkscape:zoom="1.9348081"
     inkscape:cx="127.66124"
     inkscape:cy="121.97592"
     inkscape:window-width="1902"
     inkscape:window-height="1162"
     inkscape:window-x="101"
     inkscape:window-y="74"
     inkscape:window-maximized="0"
     inkscape:current-layer="g196" />
  <g
     id="g184" />
  <g
     id="g188" />
  <g
     id="g192" />
  <g
     id="g196"
     style="fill:none;stroke:#6cc189;stroke-opacity:1">
    <path
       style="fill:#919191;stroke:#6cc189;stroke-width:2.9;stroke-linecap:round;stroke-linejoin:round;stroke-dashoffset:17.9906;stroke-opacity:1;paint-order:markers stroke fill;fill-opacity:1"
       d="m 111,323 h 1.198 l 3.015,-8.699 35.45,4.568 0.731,-2.741 0.274,-2.284 v -3.015 l -0.182,-2.467 -0.274,-1.736 -31.613,-30.151 2.193,-16.903 2.832,0.548 2.101,0.092 0.457,-2.193 0.274,-2.832 3.792,-31.065 75.24,16.263 0.366,2.924 1.096,0.914 1.005,-1.554 0.366,-25.034 h -2.924 l -0.731,-3.198 -1.462,-2.375 -2.467,-3.015 -52.855,-58.521 -2.696,-17.679 -2.558,11.878 -9.274,-10.873 0.046,-6.578 -0.639,-7.767 -1.005,-6.487 -1.188,-4.385 -2.01017,-1.005 -3.28883,-0.183 0.091,-5.939 -0.274,-4.3854 -0.45727,-2.923667 -0.365,-1.096433 -0.73116,-1.187733 -1.46157,-6.7e-5 -1.005,1.0051 0.045,-3.1979 0.137,-5.2992 -0.274,-12.2431 -0.274,-9.5935 -0.548,-10.6899 -1.096,-10.5072 -1.005,-8.1316 -0.823,-3.2892 -0.913,-2.01 -0.731,-1.2792 -0.731,-4.751 -1.188,-3.6547 -1.553,-3.4719 -2.112,-3.472"
       id="path866"
       sodipodi:nodetypes="cccccccccccccccccccccccccccccccccccccccccccccccccccccccc" />
  </g>
  <g
     id="g208" />
  <g
     id="g348" />
  <g
     id="g548" />
  <g
     id="g584" />
</svg>
