<?xml version="1.0" encoding="UTF-8"?>
<!DOCTYPE svg PUBLIC "-//W3C//DTD SVG 1.1//EN" "http://www.w3.org/Graphics/SVG/1.1/DTD/svg11.dtd">
<svg xmlns="http://www.w3.org/2000/svg" version="1.1" width="230px" height="345px" style="shape-rendering:geometricPrecision; text-rendering:geometricPrecision; image-rendering:optimizeQuality; fill-rule:evenodd; clip-rule:evenodd" xmlns:xlink="http://www.w3.org/1999/xlink">
<g><path style="opacity:1" fill="#545454" d="M 115.5,22.5 C 115.565,22.9382 115.399,23.2716 115,23.5C 114.722,22.5842 114.222,21.9175 113.5,21.5C 112.97,19.0763 112.136,16.743 111,14.5C 110.536,15.0944 110.369,15.7611 110.5,16.5C 109.778,16.9175 109.278,17.5842 109,18.5C 108.601,18.2716 108.435,17.9382 108.5,17.5C 108.504,15.1579 109.337,13.1579 111,11.5C 113.575,14.7262 115.075,18.3929 115.5,22.5 Z"/></g>
<g><path style="opacity:1" fill="#a6a6a6" d="M 110.5,16.5 C 109.533,21.7119 108.2,26.7119 106.5,31.5C 106.784,29.5853 106.451,27.9187 105.5,26.5C 105.928,23.2154 106.928,20.2154 108.5,17.5C 108.435,17.9382 108.601,18.2716 109,18.5C 109.278,17.5842 109.778,16.9175 110.5,16.5 Z"/></g>
<g><path style="opacity:1" fill="#949494" d="M 113.5,21.5 C 114.222,21.9175 114.722,22.5842 115,23.5C 115.399,23.2716 115.565,22.9382 115.5,22.5C 117.614,27.1935 118.947,32.1935 119.5,37.5C 118.842,38.3984 118.176,39.3984 117.5,40.5C 116.702,40.0431 116.369,39.3764 116.5,38.5C 117.833,37.8333 117.833,37.1667 116.5,36.5C 115.539,38.2646 115.205,40.2646 115.5,42.5C 112.833,31.8333 110.167,31.8333 107.5,42.5C 107.795,40.2646 107.461,38.2646 106.5,36.5C 106.167,36.5 105.833,36.5 105.5,36.5C 105.216,34.5853 105.549,32.9187 106.5,31.5C 106.343,32.8734 106.51,34.2068 107,35.5C 110,31.5 113,31.5 116,35.5C 115.503,30.8305 114.67,26.1638 113.5,21.5 Z"/></g>
<g><path style="opacity:1" fill="#5f5f5f" d="M 105.5,26.5 C 106.451,27.9187 106.784,29.5853 106.5,31.5C 105.549,32.9187 105.216,34.5853 105.5,36.5C 105.833,40.5 106.167,40.5 106.5,36.5C 107.461,38.2646 107.795,40.2646 107.5,42.5C 106.178,42.33 105.011,42.6634 104,43.5C 103.51,42.2068 103.343,40.8734 103.5,39.5C 103.426,35.0164 104.093,30.683 105.5,26.5 Z"/></g>
<g><path style="opacity:1" fill="#939393" d="M 119.5,39.5 C 120.81,45.2882 121.477,51.2882 121.5,57.5C 120.833,60.1667 120.167,62.8333 119.5,65.5C 118.962,58.1781 118.629,50.8447 118.5,43.5C 119.434,42.4324 119.768,41.099 119.5,39.5 Z"/></g>
<g><path style="opacity:1" fill="#878787" d="M 103.5,39.5 C 103.343,40.8734 103.51,42.2068 104,43.5C 105.011,42.6634 106.178,42.33 107.5,42.5C 107.5,42.8333 107.5,43.1667 107.5,43.5C 106.833,43.8333 106.167,44.1667 105.5,44.5C 104.348,51.3088 103.681,58.3088 103.5,65.5C 102.833,65.1667 102.167,64.8333 101.5,64.5C 101.5,63.1667 101.5,61.8333 101.5,60.5C 101.35,53.2789 102.017,46.2789 103.5,39.5 Z"/></g>
<g><path style="opacity:1" fill="#646464" d="M 116.5,36.5 C 116.5,37.1667 116.5,37.8333 116.5,38.5C 116.369,39.3764 116.702,40.0431 117.5,40.5C 118.176,39.3984 118.842,38.3984 119.5,37.5C 119.5,38.1667 119.5,38.8333 119.5,39.5C 119.768,41.099 119.434,42.4324 118.5,43.5C 117.796,46.2406 117.463,49.7406 117.5,54C 117.51,58.229 118.177,62.0623 119.5,65.5C 120.167,62.8333 120.833,60.1667 121.5,57.5C 122.436,69.1289 122.77,80.7956 122.5,92.5C 122.065,94.2967 122.065,96.2967 122.5,98.5C 121.167,101.833 121.167,105.167 122.5,108.5C 122.5,108.833 122.5,109.167 122.5,109.5C 121.167,109.833 121.167,110.167 122.5,110.5C 122.842,111.338 123.508,111.672 124.5,111.5C 123.295,112.686 121.961,112.686 120.5,111.5C 120.5,104.833 120.5,98.1667 120.5,91.5C 121.833,91.1667 121.833,90.8333 120.5,90.5C 120.5,85.1667 120.5,79.8333 120.5,74.5C 120.5,71.8333 120.5,69.1667 120.5,66.5C 119.167,66.5 117.833,66.5 116.5,66.5C 116.824,59.6457 116.491,52.979 115.5,46.5C 112.589,45.0165 109.922,45.3498 107.5,47.5C 106.361,58.8591 106.694,70.1924 108.5,81.5C 108.5,81.8333 108.5,82.1667 108.5,82.5C 108.5,84.8333 108.5,87.1667 108.5,89.5C 107.833,89.8333 107.167,90.1667 106.5,90.5C 106.32,82.8252 105.986,75.1585 105.5,67.5C 104.791,66.596 103.791,66.2627 102.5,66.5C 102.5,69.5 102.5,72.5 102.5,75.5C 102.5,80.5 102.5,85.5 102.5,90.5C 102.167,90.5 101.833,90.5 101.5,90.5C 101.5,81.8333 101.5,73.1667 101.5,64.5C 102.167,64.8333 102.833,65.1667 103.5,65.5C 105.461,58.9131 106.128,51.9131 105.5,44.5C 106.167,44.1667 106.833,43.8333 107.5,43.5C 110.385,43.8064 113.052,43.4731 115.5,42.5C 115.205,40.2646 115.539,38.2646 116.5,36.5 Z M 105.5,67.5 C 105.986,75.1585 106.32,82.8252 106.5,90.5C 105.167,90.5 103.833,90.5 102.5,90.5C 102.5,85.5 102.5,80.5 102.5,75.5C 102.902,72.5234 103.902,69.8567 105.5,67.5 Z M 120.5,74.5 C 120.5,79.8333 120.5,85.1667 120.5,90.5C 119.167,90.5 117.833,90.5 116.5,90.5C 116.5,86.1667 116.5,81.8333 116.5,77.5C 117.166,74.3107 117.833,70.9773 118.5,67.5C 119.168,69.9688 119.835,72.3021 120.5,74.5 Z"/></g>
<g><path style="opacity:1" fill="#bebebe" d="M 115.5,46.5 C 116.491,52.979 116.824,59.6457 116.5,66.5C 117.833,66.5 119.167,66.5 120.5,66.5C 120.5,69.1667 120.5,71.8333 120.5,74.5C 119.835,72.3021 119.168,69.9688 118.5,67.5C 117.833,70.9773 117.166,74.3107 116.5,77.5C 116.66,75.8008 116.494,74.1341 116,72.5C 115.821,76.0252 115.321,79.3586 114.5,82.5C 114.591,70.4917 114.925,58.4917 115.5,46.5 Z"/></g>
<g><path style="opacity:1" fill="#dfdfdf" d="M 105.5,67.5 C 103.902,69.8567 102.902,72.5234 102.5,75.5C 102.5,72.5 102.5,69.5 102.5,66.5C 103.791,66.2627 104.791,66.596 105.5,67.5 Z"/></g>
<g><path style="opacity:1" fill="#cbcbcb" d="M 107.5,47.5 C 108.087,58.8242 108.42,70.1575 108.5,81.5C 106.694,70.1924 106.361,58.8591 107.5,47.5 Z"/></g>
<g><path style="opacity:1" fill="#a9a9a9" d="M 101.5,60.5 C 101.5,61.8333 101.5,63.1667 101.5,64.5C 101.5,73.1667 101.5,81.8333 101.5,90.5C 101.5,90.8333 101.5,91.1667 101.5,91.5C 101.881,93.9418 101.214,94.6085 99.5,93.5C 98.5481,95.0453 98.2148,96.712 98.5,98.5C 97.8333,101.5 97.1667,104.5 96.5,107.5C 96.1746,102.401 96.6746,97.4012 98,92.5C 98.6667,91.1667 99.3333,91.1667 100,92.5C 100.17,81.6588 100.67,70.9921 101.5,60.5 Z"/></g>
<g><path style="opacity:1" fill="#666666" d="M 116.5,77.5 C 116.5,81.8333 116.5,86.1667 116.5,90.5C 115.833,90.1667 115.167,89.8333 114.5,89.5C 114.5,88.1667 114.5,86.8333 114.5,85.5C 114.5,84.5 114.5,83.5 114.5,82.5C 115.321,79.3586 115.821,76.0252 116,72.5C 116.494,74.1341 116.66,75.8008 116.5,77.5 Z"/></g>
<g><path style="opacity:1" fill="#dfdfdf" d="M 106.5,91.5 C 107.404,92.209 107.737,93.209 107.5,94.5C 106.5,94.5 105.5,94.5 104.5,94.5C 104.167,94.5 103.833,94.5 103.5,94.5C 104.9,93.8999 105.9,92.8999 106.5,91.5 Z"/></g>
<g><path style="opacity:1" fill="#e1e1e1" d="M 108.5,82.5 C 109.482,85.9619 109.815,89.6286 109.5,93.5C 110.833,93.5 112.167,93.5 113.5,93.5C 113.194,90.6146 113.527,87.9479 114.5,85.5C 114.5,86.8333 114.5,88.1667 114.5,89.5C 114.5,91.1667 114.5,92.8333 114.5,94.5C 112.5,94.5 110.5,94.5 108.5,94.5C 108.5,92.8333 108.5,91.1667 108.5,89.5C 108.5,87.1667 108.5,84.8333 108.5,82.5 Z"/></g>
<g><path style="opacity:1" fill="#dddddd" d="M 116.5,91.5 C 117.1,92.8999 118.1,93.8999 119.5,94.5C 118.833,94.5 118.167,94.5 117.5,94.5C 115.448,93.9473 115.115,92.9473 116.5,91.5 Z"/></g>
<g><path style="opacity:1" fill="#afafaf" d="M 126.5,107.5 C 126.167,107.5 125.833,107.5 125.5,107.5C 125.725,102.752 125.225,98.0853 124,93.5C 124.017,97.4754 124.184,101.475 124.5,105.5C 123.662,105.842 123.328,106.508 123.5,107.5C 122.523,104.713 122.19,101.713 122.5,98.5C 122.065,96.2967 122.065,94.2967 122.5,92.5C 124.3,91.3948 125.467,92.0614 126,94.5C 126.499,98.8206 126.666,103.154 126.5,107.5 Z"/></g>
<g><path style="opacity:1" fill="#1b1b1b" d="M 108.5,89.5 C 108.5,91.1667 108.5,92.8333 108.5,94.5C 110.5,94.5 112.5,94.5 114.5,94.5C 114.5,92.8333 114.5,91.1667 114.5,89.5C 115.167,89.8333 115.833,90.1667 116.5,90.5C 117.833,90.5 119.167,90.5 120.5,90.5C 121.833,90.8333 121.833,91.1667 120.5,91.5C 119.167,91.5 117.833,91.5 116.5,91.5C 115.115,92.9473 115.448,93.9473 117.5,94.5C 117.5,101.5 117.5,108.5 117.5,115.5C 117.5,115.833 117.5,116.167 117.5,116.5C 117.5,117.167 117.167,117.5 116.5,117.5C 116.5,110.5 116.5,103.5 116.5,96.5C 116.167,95.1667 115.833,95.1667 115.5,96.5C 115.167,96.5 114.833,96.5 114.5,96.5C 113.081,95.5489 111.415,95.2155 109.5,95.5C 108.833,95.5 108.5,95.8333 108.5,96.5C 108.167,96.5 107.833,96.5 107.5,96.5C 107.5,95.8333 107.167,95.5 106.5,95.5C 105.508,95.6716 104.842,95.3382 104.5,94.5C 105.5,94.5 106.5,94.5 107.5,94.5C 107.737,93.209 107.404,92.209 106.5,91.5C 105.167,91.5 103.833,91.5 102.5,91.5C 102.167,91.5 101.833,91.5 101.5,91.5C 101.5,91.1667 101.5,90.8333 101.5,90.5C 101.833,90.5 102.167,90.5 102.5,90.5C 103.833,90.5 105.167,90.5 106.5,90.5C 107.167,90.1667 107.833,89.8333 108.5,89.5 Z"/></g>
<g><path style="opacity:1" fill="#474747" d="M 125.5,107.5 C 125.167,107.5 124.833,107.5 124.5,107.5C 124.5,106.833 124.5,106.167 124.5,105.5C 124.184,101.475 124.017,97.4754 124,93.5C 125.225,98.0853 125.725,102.752 125.5,107.5 Z"/></g>
<g><path style="opacity:1" fill="#1c1c1c" d="M 98.5,98.5 C 98.5,100.833 98.5,103.167 98.5,105.5C 98.3284,106.492 98.6618,107.158 99.5,107.5C 100.477,104.713 100.81,101.713 100.5,98.5C 101.833,101.833 101.833,105.167 100.5,108.5C 89.8333,108.833 89.8333,109.167 100.5,109.5C 101.833,109.833 101.833,110.167 100.5,110.5C 97.8333,110.5 95.1667,110.5 92.5,110.5C 91.71,111.609 91.21,112.942 91,114.5C 90.5357,113.906 90.369,113.239 90.5,112.5C 90.062,108.092 92.062,106.425 96.5,107.5C 97.1667,104.5 97.8333,101.5 98.5,98.5 Z"/></g>
<g><path style="opacity:1" fill="#cdcdcd" d="M 98.5,98.5 C 99.1667,98.5 99.8333,98.5 100.5,98.5C 100.81,101.713 100.477,104.713 99.5,107.5C 99.6716,106.508 99.3382,105.842 98.5,105.5C 98.5,103.167 98.5,100.833 98.5,98.5 Z"/></g>
<g><path style="opacity:1" fill="#787878" d="M 101.5,91.5 C 101.833,91.5 102.167,91.5 102.5,91.5C 102.5,99.1667 102.5,106.833 102.5,114.5C 102.046,121.159 101.713,127.826 101.5,134.5C 101.833,153.167 102.167,153.167 102.5,134.5C 102.198,131.941 102.532,129.607 103.5,127.5C 103.182,132.032 103.515,136.366 104.5,140.5C 104.5,143.5 104.5,146.5 104.5,149.5C 102.219,149.923 100.552,149.256 99.5,147.5C 100.833,147.167 100.833,146.833 99.5,146.5C 99.181,136.584 99.5144,126.75 100.5,117C 99.9056,116.536 99.2389,116.369 98.5,116.5C 98.9175,115.778 99.5842,115.278 100.5,115C 99.5842,114.722 98.9175,114.222 98.5,113.5C 98.3893,112.883 98.056,112.383 97.5,112C 98.7375,111.768 99.7375,111.268 100.5,110.5C 101.833,110.167 101.833,109.833 100.5,109.5C 100.5,109.167 100.5,108.833 100.5,108.5C 101.833,105.167 101.833,101.833 100.5,98.5C 99.8333,98.5 99.1667,98.5 98.5,98.5C 98.2148,96.712 98.5481,95.0453 99.5,93.5C 101.214,94.6085 101.881,93.9418 101.5,91.5 Z"/></g>
<g><path style="opacity:1" fill="#060606" d="M 122.5,98.5 C 122.19,101.713 122.523,104.713 123.5,107.5C 123.833,107.5 124.167,107.5 124.5,107.5C 124.833,107.5 125.167,107.5 125.5,107.5C 125.833,107.5 126.167,107.5 126.5,107.5C 128.415,107.216 130.081,107.549 131.5,108.5C 131.672,109.492 131.338,110.158 130.5,110.5C 127.833,110.5 125.167,110.5 122.5,110.5C 121.167,110.167 121.167,109.833 122.5,109.5C 133.167,109.167 133.167,108.833 122.5,108.5C 121.167,105.167 121.167,101.833 122.5,98.5 Z"/></g>
<g><path style="opacity:1" fill="#d7d7d7" d="M 98.5,113.5 C 98.9175,114.222 99.5842,114.722 100.5,115C 99.5842,115.278 98.9175,115.778 98.5,116.5C 97.1667,115.5 97.1667,114.5 98.5,113.5 Z"/></g>
<g><path style="opacity:1" fill="#848484" d="M 103.5,94.5 C 103.833,94.5 104.167,94.5 104.5,94.5C 104.842,95.3382 105.508,95.6716 106.5,95.5C 106.175,102.687 106.509,109.687 107.5,116.5C 108.492,116.672 109.158,116.338 109.5,115.5C 109.833,112.833 110.167,112.833 110.5,115.5C 110.56,116.043 110.893,116.376 111.5,116.5C 112.168,113.694 112.834,111.028 113.5,108.5C 113.263,109.791 113.596,110.791 114.5,111.5C 114.634,113.292 114.301,114.958 113.5,116.5C 114.209,117.404 115.209,117.737 116.5,117.5C 117.167,117.5 117.5,117.167 117.5,116.5C 118.833,116.167 118.833,115.833 117.5,115.5C 117.5,108.5 117.5,101.5 117.5,94.5C 118.167,94.5 118.833,94.5 119.5,94.5C 119.5,100.833 119.5,107.167 119.5,113.5C 119.502,120.52 119.835,127.52 120.5,134.5C 120.833,153.167 121.167,153.167 121.5,134.5C 121.5,128.5 121.5,122.5 121.5,116.5C 121.833,116.5 122.167,116.5 122.5,116.5C 123.474,126.418 123.807,136.418 123.5,146.5C 122.167,146.833 122.167,147.167 123.5,147.5C 122.448,149.256 120.781,149.923 118.5,149.5C 117.774,139.183 117.44,128.85 117.5,118.5C 113.5,118.5 109.5,118.5 105.5,118.5C 105.825,126.019 105.492,133.352 104.5,140.5C 103.515,136.366 103.182,132.032 103.5,127.5C 103.5,123.167 103.5,118.833 103.5,114.5C 103.5,107.833 103.5,101.167 103.5,94.5 Z M 114.5,106.5 C 115.16,107.964 115.493,109.631 115.5,111.5C 115.444,113.64 114.777,115.306 113.5,116.5C 114.301,114.958 114.634,113.292 114.5,111.5C 114.5,109.833 114.5,108.167 114.5,106.5 Z M 108.5,105.5 C 108.5,107.5 108.5,109.5 108.5,111.5C 108.232,113.099 108.566,114.432 109.5,115.5C 109.158,116.338 108.492,116.672 107.5,116.5C 107.185,112.629 107.518,108.962 108.5,105.5 Z M 109.5,95.5 C 111.415,95.2155 113.081,95.5489 114.5,96.5C 113.539,98.2646 113.205,100.265 113.5,102.5C 112.167,104.5 112.167,106.5 113.5,108.5C 112.834,111.028 112.168,113.694 111.5,116.5C 110.893,116.376 110.56,116.043 110.5,115.5C 111.124,115.083 111.457,114.416 111.5,113.5C 110.833,107.481 110.166,101.481 109.5,95.5 Z M 112.5,137.5 C 111.833,137.5 111.167,137.5 110.5,137.5C 111.457,131.98 111.79,126.646 111.5,121.5C 112.495,126.792 112.828,132.125 112.5,137.5 Z"/></g>
<g><path style="opacity:1" fill="#505050" d="M 113.5,102.5 C 114.434,103.568 114.768,104.901 114.5,106.5C 114.5,108.167 114.5,109.833 114.5,111.5C 113.596,110.791 113.263,109.791 113.5,108.5C 112.167,106.5 112.167,104.5 113.5,102.5 Z"/></g>
<g><path style="opacity:1" fill="#c1c1c1" d="M 114.5,96.5 C 114.833,96.5 115.167,96.5 115.5,96.5C 115.833,96.5 116.167,96.5 116.5,96.5C 116.5,103.5 116.5,110.5 116.5,117.5C 115.209,117.737 114.209,117.404 113.5,116.5C 114.777,115.306 115.444,113.64 115.5,111.5C 115.493,109.631 115.16,107.964 114.5,106.5C 114.768,104.901 114.434,103.568 113.5,102.5C 113.205,100.265 113.539,98.2646 114.5,96.5 Z"/></g>
<g><path style="opacity:1" fill="#b7b7b7" d="M 106.5,95.5 C 107.167,95.5 107.5,95.8333 107.5,96.5C 107.963,99.4824 108.296,102.482 108.5,105.5C 107.518,108.962 107.185,112.629 107.5,116.5C 106.509,109.687 106.175,102.687 106.5,95.5 Z"/></g>
<g><path style="opacity:1" fill="#5b5b5b" d="M 107.5,96.5 C 107.833,96.5 108.167,96.5 108.5,96.5C 109.691,101.645 109.691,106.645 108.5,111.5C 108.5,109.5 108.5,107.5 108.5,105.5C 108.296,102.482 107.963,99.4824 107.5,96.5 Z"/></g>
<g><path style="opacity:1" fill="#d0d0d0" d="M 109.5,95.5 C 110.166,101.481 110.833,107.481 111.5,113.5C 111.457,114.416 111.124,115.083 110.5,115.5C 110.167,112.833 109.833,112.833 109.5,115.5C 108.566,114.432 108.232,113.099 108.5,111.5C 109.691,106.645 109.691,101.645 108.5,96.5C 108.5,95.8333 108.833,95.5 109.5,95.5 Z"/></g>
<g><path style="opacity:1" fill="#bfbfbf" d="M 120.5,111.5 C 121.961,112.686 123.295,112.686 124.5,111.5C 125.833,113.167 125.833,114.833 124.5,116.5C 124.082,115.778 123.416,115.278 122.5,115C 124.932,113.913 124.598,113.413 121.5,113.5C 121.5,114.5 121.5,115.5 121.5,116.5C 121.5,122.5 121.5,128.5 121.5,134.5C 121.167,134.5 120.833,134.5 120.5,134.5C 119.835,127.52 119.502,120.52 119.5,113.5C 120.338,113.158 120.672,112.492 120.5,111.5 Z"/></g>
<g><path style="opacity:1" fill="#1e1e1e" d="M 124.5,116.5 C 123.833,116.5 123.167,116.5 122.5,116.5C 122.167,116.5 121.833,116.5 121.5,116.5C 121.5,115.5 121.5,114.5 121.5,113.5C 124.598,113.413 124.932,113.913 122.5,115C 123.416,115.278 124.082,115.778 124.5,116.5 Z"/></g>
<g><path style="opacity:1" fill="#515151" d="M 113.5,138.5 C 112.833,138.5 112.5,138.167 112.5,137.5C 112.828,132.125 112.495,126.792 111.5,121.5C 111.79,126.646 111.457,131.98 110.5,137.5C 110.5,138.167 110.167,138.5 109.5,138.5C 109.5,132.167 109.5,125.833 109.5,119.5C 110.833,119.5 112.167,119.5 113.5,119.5C 113.5,125.833 113.5,132.167 113.5,138.5 Z M 112.5,137.5 C 111.833,137.5 111.167,137.5 110.5,137.5C 111.457,131.98 111.79,126.646 111.5,121.5C 112.495,126.792 112.828,132.125 112.5,137.5 Z"/></g>
<g><path style="opacity:1" fill="#979797" d="M 92.5,110.5 C 92.0217,117.202 91.3551,123.869 90.5,130.5C 91.2427,131.182 91.9094,131.849 92.5,132.5C 91.5,132.5 90.5,132.5 89.5,132.5C 89.7373,131.209 89.404,130.209 88.5,129.5C 88.3213,123.596 88.9879,117.929 90.5,112.5C 90.369,113.239 90.5357,113.906 91,114.5C 91.21,112.942 91.71,111.609 92.5,110.5 Z"/></g>
<g><path style="opacity:1" fill="#6f6f6f" d="M 131.5,108.5 C 133.695,115.195 134.695,122.195 134.5,129.5C 134.167,129.5 133.833,129.5 133.5,129.5C 133.768,127.901 133.434,126.568 132.5,125.5C 133.126,120.4 132.46,115.4 130.5,110.5C 131.338,110.158 131.672,109.492 131.5,108.5 Z"/></g>
<g><path style="opacity:1" fill="#d0d0d0" d="M 102.5,114.5 C 102.833,114.5 103.167,114.5 103.5,114.5C 103.5,118.833 103.5,123.167 103.5,127.5C 102.532,129.607 102.198,131.941 102.5,134.5C 102.167,134.5 101.833,134.5 101.5,134.5C 101.713,127.826 102.046,121.159 102.5,114.5 Z"/></g>
<g><path style="opacity:1" fill="#cdcdcd" d="M 132.5,125.5 C 133.434,126.568 133.768,127.901 133.5,129.5C 133.5,130.5 133.5,131.5 133.5,132.5C 132.5,132.5 131.5,132.5 130.5,132.5C 132.148,130.544 132.815,128.211 132.5,125.5 Z"/></g>
<g><path style="opacity:1" fill="#444444" d="M 88.5,129.5 C 89.404,130.209 89.7373,131.209 89.5,132.5C 90.5,132.5 91.5,132.5 92.5,132.5C 92.5,137.167 92.5,141.833 92.5,146.5C 94.8333,146.5 97.1667,146.5 99.5,146.5C 100.833,146.833 100.833,147.167 99.5,147.5C 97.283,148.369 94.9496,148.702 92.5,148.5C 92.5,154.167 92.5,159.833 92.5,165.5C 104.833,165.5 117.167,165.5 129.5,165.5C 129.833,166.167 130.167,166.833 130.5,167.5C 117.833,167.5 105.167,167.5 92.5,167.5C 92.5,168.833 92.5,170.167 92.5,171.5C 105.167,171.5 117.833,171.5 130.5,171.5C 117.833,172.167 105.167,172.833 92.5,173.5C 92.5,173.833 92.5,174.167 92.5,174.5C 92.5,175.5 92.5,176.5 92.5,177.5C 92.1703,193.675 92.5036,209.675 93.5,225.5C 93.5,226.5 93.5,227.5 93.5,228.5C 93.8333,229.167 94.1667,229.833 94.5,230.5C 94.5,230.833 94.5,231.167 94.5,231.5C 93.596,232.209 93.2627,233.209 93.5,234.5C 93.7373,235.791 93.404,236.791 92.5,237.5C 92.1972,233.499 91.8638,229.832 91.5,226.5C 91.1667,225.833 90.8333,225.167 90.5,224.5C 91.4872,219.695 91.8205,214.695 91.5,209.5C 90.5,209.5 89.5,209.5 88.5,209.5C 89.1667,208.833 89.8333,208.167 90.5,207.5C 91.4511,206.081 91.7845,204.415 91.5,202.5C 91.5,200.833 91.5,199.167 91.5,197.5C 91.5,194.833 91.5,192.167 91.5,189.5C 91.5,188.833 91.5,188.167 91.5,187.5C 91.5,183.833 91.5,180.167 91.5,176.5C 91.5,176.167 91.5,175.833 91.5,175.5C 91.5,175.167 91.5,174.833 91.5,174.5C 91.5,172.167 91.5,169.833 91.5,167.5C 91.5,166.833 91.5,166.167 91.5,165.5C 91.5,160.5 91.5,155.5 91.5,150.5C 91.5,149.5 91.5,148.5 91.5,147.5C 91.8345,142.393 91.5012,138.06 90.5,134.5C 89.8333,134.167 89.1667,133.833 88.5,133.5C 88.5,132.167 88.5,130.833 88.5,129.5 Z"/></g>
<g><path style="opacity:1" fill="#202020" d="M 133.5,129.5 C 133.833,129.5 134.167,129.5 134.5,129.5C 134.5,131.167 134.5,132.833 134.5,134.5C 133.833,134.5 133.167,134.5 132.5,134.5C 131.499,138.06 131.166,142.393 131.5,147.5C 131.5,148.5 131.5,149.5 131.5,150.5C 131.5,155.5 131.5,160.5 131.5,165.5C 131.5,166.167 131.5,166.833 131.5,167.5C 131.5,169.833 131.5,172.167 131.5,174.5C 134.763,175.082 137.43,175.748 139.5,176.5C 136.833,176.5 134.167,176.5 131.5,176.5C 131.5,180.167 131.5,183.833 131.5,187.5C 131.5,188.167 131.5,188.833 131.5,189.5C 131.5,195.5 131.5,201.5 131.5,207.5C 131.5,208.167 131.5,208.833 131.5,209.5C 131.179,214.695 131.513,219.695 132.5,224.5C 132.158,225.338 131.492,225.672 130.5,225.5C 130.5,209.5 130.5,193.5 130.5,177.5C 130.5,176.5 130.5,175.5 130.5,174.5C 125.025,173.511 119.358,173.178 113.5,173.5C 113.5,179.5 113.5,185.5 113.5,191.5C 113.674,193.861 114.007,196.194 114.5,198.5C 113.534,209.153 113.534,219.82 114.5,230.5C 113.612,233.054 113.279,235.721 113.5,238.5C 113.5,240.833 113.5,243.167 113.5,245.5C 117.298,246.483 121.298,246.817 125.5,246.5C 125.5,242.5 125.5,238.5 125.5,234.5C 125.5,233.833 125.5,233.167 125.5,232.5C 125.833,232.5 126.167,232.5 126.5,232.5C 126.682,239.316 127.015,244.649 127.5,248.5C 127.5,247.833 127.167,247.5 126.5,247.5C 125.5,247.5 124.5,247.5 123.5,247.5C 123.167,247.5 122.833,247.5 122.5,247.5C 121.833,247.5 121.167,247.5 120.5,247.5C 119.833,247.5 119.167,247.5 118.5,247.5C 117.833,247.5 117.167,247.5 116.5,247.5C 113.15,247.335 109.817,247.502 106.5,248C 107.056,248.383 107.389,248.883 107.5,249.5C 107.631,250.239 107.464,250.906 107,251.5C 106.329,250.748 105.496,250.414 104.5,250.5C 104.715,248.821 104.048,247.821 102.5,247.5C 101.833,247.5 101.167,247.5 100.5,247.5C 100.167,247.5 99.8333,247.5 99.5,247.5C 98.5,247.5 97.5,247.5 96.5,247.5C 95.8333,247.5 95.5,247.833 95.5,248.5C 95.6716,249.492 95.3382,250.158 94.5,250.5C 94.5,249.833 94.5,249.167 94.5,248.5C 95.9948,242.522 96.9948,236.522 97.5,230.5C 98.1143,234.135 98.4476,237.802 98.5,241.5C 97.6993,243.042 97.366,244.708 97.5,246.5C 101.012,247.055 104.012,246.388 106.5,244.5C 106.5,244.167 106.5,243.833 106.5,243.5C 107.158,244.398 107.824,245.398 108.5,246.5C 109.107,246.376 109.44,246.043 109.5,245.5C 109.5,243.833 109.5,242.167 109.5,240.5C 109.5,232.5 109.5,224.5 109.5,216.5C 109.5,213.5 109.5,210.5 109.5,207.5C 109.5,201.833 109.5,196.167 109.5,190.5C 109.5,184.833 109.5,179.167 109.5,173.5C 103.833,173.5 98.1667,173.5 92.5,173.5C 105.167,172.833 117.833,172.167 130.5,171.5C 130.5,170.167 130.5,168.833 130.5,167.5C 130.167,166.833 129.833,166.167 129.5,165.5C 130.653,159.681 130.819,153.681 130,147.5C 127.837,148.768 125.67,148.768 123.5,147.5C 122.167,147.167 122.167,146.833 123.5,146.5C 125.833,146.5 128.167,146.5 130.5,146.5C 130.5,141.833 130.5,137.167 130.5,132.5C 131.5,132.5 132.5,132.5 133.5,132.5C 133.5,131.5 133.5,130.5 133.5,129.5 Z M 112.5,176.5 C 111.833,176.5 111.167,176.5 110.5,176.5C 111.149,175.394 111.483,174.394 111.5,173.5C 112.386,174.325 112.719,175.325 112.5,176.5 Z M 130.5,174.5 C 129.167,175.167 128.167,176.167 127.5,177.5C 127.196,180.522 126.696,183.522 126,186.5C 125.438,183.128 123.938,180.295 121.5,178C 120.5,177.333 119.5,177.333 118.5,178C 115.92,182.248 114.253,186.748 113.5,191.5C 113.5,185.5 113.5,179.5 113.5,173.5C 119.358,173.178 125.025,173.511 130.5,174.5 Z M 110.5,181.5 C 110.5,181.167 110.5,180.833 110.5,180.5C 111.167,180.5 111.833,180.5 112.5,180.5C 112.5,184.167 112.5,187.833 112.5,191.5C 111.833,188.167 111.167,184.833 110.5,181.5 Z M 110.5,195.5 C 111.167,195.5 111.833,195.5 112.5,195.5C 112.5,196.167 112.5,196.833 112.5,197.5C 111.833,197.5 111.167,197.5 110.5,197.5C 110.5,196.833 110.5,196.167 110.5,195.5 Z M 110.5,199.5 C 111.167,199.5 111.833,199.5 112.5,199.5C 112.5,205.5 112.5,211.5 112.5,217.5C 111.833,217.5 111.167,217.5 110.5,217.5C 111.833,211.5 111.833,205.5 110.5,199.5 Z M 110.5,220.5 C 110.5,220.167 110.5,219.833 110.5,219.5C 111.167,219.5 111.833,219.5 112.5,219.5C 112.5,228.167 112.5,236.833 112.5,245.5C 111.833,237.167 111.167,228.833 110.5,220.5 Z"/></g>
<g><path style="opacity:1" fill="#e1e1e1" d="M 77.5,137.5 C 78.1667,139.833 78.8333,142.167 79.5,144.5C 79.1667,145.5 78.5,146.167 77.5,146.5C 77.5,143.5 77.5,140.5 77.5,137.5 Z"/></g>
<g><path style="opacity:1" fill="#767676" d="M 110.5,137.5 C 111.167,137.5 111.833,137.5 112.5,137.5C 112.5,138.167 112.833,138.5 113.5,138.5C 112.167,139.833 110.833,139.833 109.5,138.5C 110.167,138.5 110.5,138.167 110.5,137.5 Z"/></g>
<g><path style="opacity:1" fill="#e4e4e4" d="M 145.5,137.5 C 145.5,140.5 145.5,143.5 145.5,146.5C 144.5,146.167 143.833,145.5 143.5,144.5C 144.167,142.167 144.833,139.833 145.5,137.5 Z"/></g>
<g><path style="opacity:1" fill="#919191" d="M 132.5,134.5 C 133.167,134.5 133.833,134.5 134.5,134.5C 137.959,137.415 140.959,140.748 143.5,144.5C 143.833,145.5 144.5,146.167 145.5,146.5C 146.015,151.48 145.348,156.146 143.5,160.5C 139.389,157.138 135.389,153.805 131.5,150.5C 131.5,149.5 131.5,148.5 131.5,147.5C 136.092,150.586 140.258,154.253 144,158.5C 144.825,154.789 144.659,151.122 143.5,147.5C 139.464,143.466 135.798,139.132 132.5,134.5 Z"/></g>
<g><path style="opacity:1" fill="#4b4b4b" d="M 77.5,137.5 C 77.5,140.5 77.5,143.5 77.5,146.5C 76.9853,151.48 77.652,156.146 79.5,160.5C 78.5546,165.405 78.2213,170.405 78.5,175.5C 77.6762,171.688 77.1762,167.688 77,163.5C 76.8238,167.688 76.3238,171.688 75.5,175.5C 75.5,171.833 75.5,168.167 75.5,164.5C 75.5,163.833 75.5,163.167 75.5,162.5C 75.5,162.167 75.5,161.833 75.5,161.5C 75.8782,159.354 76.2115,157.187 76.5,155C 76.2414,153.213 75.5747,151.713 74.5,150.5C 75.2908,144.581 75.7908,138.581 76,132.5C 76.3333,132.167 76.6667,131.833 77,131.5C 77.4955,133.473 77.6621,135.473 77.5,137.5 Z"/></g>
<g><path style="opacity:1" fill="#4e4e4e" d="M 146.5,132.5 C 146.311,139.567 146.644,146.233 147.5,152.5C 147.5,153.167 147.833,153.5 148.5,153.5C 148.736,156.609 148.403,159.609 147.5,162.5C 147.666,166.846 147.499,171.179 147,175.5C 146.667,171.5 146.333,167.5 146,163.5C 145.824,167.688 145.324,171.688 144.5,175.5C 144.779,170.405 144.445,165.405 143.5,160.5C 145.348,156.146 146.015,151.48 145.5,146.5C 145.5,143.5 145.5,140.5 145.5,137.5C 145.149,134.959 145.482,133.292 146.5,132.5 Z"/></g>
<g><path style="opacity:1" fill="#919191" d="M 146.5,132.5 C 147.087,138.427 147.92,144.427 149,150.5C 156.669,159.668 164.503,168.668 172.5,177.5C 171.662,177.842 171.328,178.508 171.5,179.5C 170.061,177.64 168.395,175.973 166.5,174.5C 166.5,173.833 166.167,173.5 165.5,173.5C 165.5,172.833 165.167,172.5 164.5,172.5C 159.16,166.161 153.827,159.828 148.5,153.5C 147.833,153.5 147.5,153.167 147.5,152.5C 146.644,146.233 146.311,139.567 146.5,132.5 Z"/></g>
<g><path style="opacity:1" fill="#919191" d="M 88.5,133.5 C 89.1667,133.833 89.8333,134.167 90.5,134.5C 87.2022,139.132 83.5355,143.466 79.5,147.5C 78.3414,151.122 78.1747,154.789 79,158.5C 82.7417,154.253 86.9083,150.586 91.5,147.5C 91.5,148.5 91.5,149.5 91.5,150.5C 87.4602,153.844 83.4602,157.177 79.5,160.5C 77.652,156.146 76.9853,151.48 77.5,146.5C 78.5,146.167 79.1667,145.5 79.5,144.5C 82.2608,140.65 85.2608,136.983 88.5,133.5 Z"/></g>
<g><path style="opacity:1" fill="#f2f2f2" d="M 75.5,164.5 C 75.5,168.167 75.5,171.833 75.5,175.5C 75.5,175.833 75.5,176.167 75.5,176.5C 74.8333,173.167 74.1667,169.833 73.5,166.5C 73.8333,165.5 74.5,164.833 75.5,164.5 Z"/></g>
<g><path style="opacity:1" fill="#565656" d="M 155.5,164.5 C 156.117,164.611 156.617,164.944 157,165.5C 157.495,167.473 157.662,169.473 157.5,171.5C 156.833,171.5 156.167,171.5 155.5,171.5C 154.5,171.167 153.833,170.5 153.5,169.5C 154.441,167.95 155.107,166.284 155.5,164.5 Z"/></g>
<g><path style="opacity:1" fill="#818181" d="M 75.5,162.5 C 75.5,163.167 75.5,163.833 75.5,164.5C 74.5,164.833 73.8333,165.5 73.5,166.5C 67.4903,172.509 61.1569,178.175 54.5,183.5C 53.5798,182.933 53.2465,183.599 53.5,185.5C 53.1667,185.5 52.8333,185.5 52.5,185.5C 52.5,184.833 52.1667,184.5 51.5,184.5C 52.2997,182.318 53.7997,180.651 56,179.5C 56.4935,177.866 56.6602,176.199 56.5,174.5C 57.1667,174.5 57.5,174.167 57.5,173.5C 58.1667,173.5 58.5,173.167 58.5,172.5C 59.7899,173.058 60.6232,174.058 61,175.5C 61.6667,173.5 63,172.167 65,171.5C 65.2362,169.236 65.7362,167.069 66.5,165C 68.4089,164.552 69.5756,165.385 70,167.5C 71.7038,165.627 73.5372,163.96 75.5,162.5 Z"/></g>
<g><path style="opacity:1" fill="#8f8f8f" d="M 74.5,150.5 C 75.5747,151.713 76.2414,153.213 76.5,155C 76.2115,157.187 75.8782,159.354 75.5,161.5C 74.6829,159.031 74.1829,156.365 74,153.5C 68.9759,160.017 63.8092,166.35 58.5,172.5C 57.8333,172.5 57.5,172.833 57.5,173.5C 56.8333,173.5 56.5,173.833 56.5,174.5C 52.4874,178.515 48.8207,182.848 45.5,187.5C 44.7777,186.449 43.7777,185.782 42.5,185.5C 53.1384,173.859 63.805,162.193 74.5,150.5 Z"/></g>
<g><path style="opacity:1" fill="#828282" d="M 155.5,171.5 C 156.167,171.5 156.833,171.5 157.5,171.5C 159.229,172.117 160.729,173.117 162,174.5C 162.708,173.619 163.542,172.953 164.5,172.5C 165.167,172.5 165.5,172.833 165.5,173.5C 165.5,173.833 165.5,174.167 165.5,174.5C 165.784,176.415 165.451,178.081 164.5,179.5C 160.9,177.57 157.9,174.903 155.5,171.5 Z"/></g>
<g><path style="opacity:1" fill="#8c8c8c" d="M 92.5,174.5 C 93.8333,175.167 94.8333,176.167 95.5,177.5C 94.8333,177.5 94.5,177.833 94.5,178.5C 93.8333,178.167 93.1667,177.833 92.5,177.5C 92.5,176.5 92.5,175.5 92.5,174.5 Z"/></g>
<g><path style="opacity:1" fill="#949494" d="M 147.5,162.5 C 149.463,163.96 151.296,165.627 153,167.5C 153.377,166.058 154.21,165.058 155.5,164.5C 155.107,166.284 154.441,167.95 153.5,169.5C 152.185,168.524 150.852,167.524 149.5,166.5C 149.053,170.283 148.053,173.783 146.5,177C 153.317,183.564 160.65,189.397 168.5,194.5C 168.5,195.5 168.5,196.5 168.5,197.5C 160.708,191.547 153.041,185.38 145.5,179C 144.833,178.333 144.167,178.333 143.5,179C 144.126,179.75 144.626,180.584 145,181.5C 147.191,182.833 149.024,184.5 150.5,186.5C 150.167,186.5 149.833,186.5 149.5,186.5C 144.5,184.833 141.167,181.5 139.5,176.5C 137.43,175.748 134.763,175.082 131.5,174.5C 134.187,174.664 136.854,174.497 139.5,174C 136.669,171.999 134.003,169.833 131.5,167.5C 131.5,166.833 131.5,166.167 131.5,165.5C 136.014,168.591 140.347,171.925 144.5,175.5C 145.324,171.688 145.824,167.688 146,163.5C 146.333,167.5 146.667,171.5 147,175.5C 147.499,171.179 147.666,166.846 147.5,162.5 Z"/></g>
<g><path style="opacity:1" fill="#8f8f8f" d="M 110.5,176.5 C 111.167,176.5 111.833,176.5 112.5,176.5C 112.5,177.833 112.5,179.167 112.5,180.5C 111.833,180.5 111.167,180.5 110.5,180.5C 110.5,179.167 110.5,177.833 110.5,176.5 Z"/></g>
<g><path style="opacity:1" fill="#898989" d="M 109.5,190.5 C 109.5,196.167 109.5,201.833 109.5,207.5C 108.523,198.016 106.356,188.683 103,179.5C 100.455,183.983 98.6215,188.65 97.5,193.5C 97.631,192.761 97.4643,192.094 97,191.5C 95.5766,201.42 95.0766,211.42 95.5,221.5C 94.5655,222.568 94.2322,223.901 94.5,225.5C 94.1667,225.5 93.8333,225.5 93.5,225.5C 94.0092,213.491 94.3426,201.491 94.5,189.5C 95.4731,187.052 95.8064,184.385 95.5,181.5C 96.3019,182.952 96.8019,184.618 97,186.5C 97.5622,183.128 99.0622,180.295 101.5,178C 102.5,177.333 103.5,177.333 104.5,178C 107.187,181.858 108.854,186.025 109.5,190.5 Z"/></g>
<g><path style="opacity:1" fill="#989898" d="M 165.5,174.5 C 165.833,174.5 166.167,174.5 166.5,174.5C 165.774,178.307 167.107,180.974 170.5,182.5C 170.5,183.5 170.5,184.5 170.5,185.5C 170.167,185.5 169.833,185.5 169.5,185.5C 169.754,183.599 169.42,182.933 168.5,183.5C 166.833,182.5 165.5,181.167 164.5,179.5C 165.451,178.081 165.784,176.415 165.5,174.5 Z"/></g>
<g><path style="opacity:1" fill="#d3d3d3" d="M 130.5,174.5 C 130.5,175.5 130.5,176.5 130.5,177.5C 129.833,184.833 129.167,192.167 128.5,199.5C 128.825,191.981 128.492,184.648 127.5,177.5C 128.167,176.167 129.167,175.167 130.5,174.5 Z"/></g>
<g><path style="opacity:1" fill="#eaeaea" d="M 110.5,181.5 C 111.167,184.833 111.833,188.167 112.5,191.5C 112.44,192.043 112.107,192.376 111.5,192.5C 110.511,188.893 110.177,185.226 110.5,181.5 Z"/></g>
<g><path style="opacity:1" fill="#646464" d="M 95.5,177.5 C 95.5,178.833 95.5,180.167 95.5,181.5C 95.8064,184.385 95.4731,187.052 94.5,189.5C 93.2134,185.935 93.2134,182.268 94.5,178.5C 94.5,177.833 94.8333,177.5 95.5,177.5 Z"/></g>
<g><path style="opacity:1" fill="#0b0b0b" d="M 169.5,185.5 C 169.833,200.167 170.167,200.167 170.5,185.5C 170.5,184.5 170.5,183.5 170.5,182.5C 171.338,182.842 171.672,183.508 171.5,184.5C 171.5,185.167 171.5,185.833 171.5,186.5C 171.5,190.5 171.5,194.5 171.5,198.5C 171.5,199.5 171.5,200.5 171.5,201.5C 171.5,206.167 171.5,210.833 171.5,215.5C 170.662,215.158 170.328,214.492 170.5,213.5C 170.167,193.5 169.833,193.5 169.5,213.5C 169.672,214.492 169.338,215.158 168.5,215.5C 168.5,209.5 168.5,203.5 168.5,197.5C 168.5,196.5 168.5,195.5 168.5,194.5C 168.5,190.833 168.5,187.167 168.5,183.5C 169.42,182.933 169.754,183.599 169.5,185.5 Z"/></g>
<g><path style="opacity:1" fill="#878787" d="M 78.5,175.5 C 82.653,171.925 86.9863,168.591 91.5,165.5C 91.5,166.167 91.5,166.833 91.5,167.5C 89.1264,169.876 86.4598,172.043 83.5,174C 86.146,174.497 88.8127,174.664 91.5,174.5C 91.5,174.833 91.5,175.167 91.5,175.5C 88.5,175.5 85.5,175.5 82.5,175.5C 81.8333,175.5 81.5,175.833 81.5,176.5C 80.8333,176.5 80.5,176.833 80.5,177.5C 79.8333,177.5 79.5,177.833 79.5,178.5C 70.987,184.591 62.6537,190.924 54.5,197.5C 54.5,196.5 54.5,195.5 54.5,194.5C 62.4962,189.161 70.1629,183.328 77.5,177C 76.9056,176.536 76.2389,176.369 75.5,176.5C 75.5,176.167 75.5,175.833 75.5,175.5C 76.3238,171.688 76.8238,167.688 77,163.5C 77.1762,167.688 77.6762,171.688 78.5,175.5 Z"/></g>
<g><path style="opacity:1" fill="#7e7e7e" d="M 51.5,184.5 C 51.5,185.167 51.5,185.833 51.5,186.5C 41.2629,198.241 30.4295,209.574 19,220.5C 18.2303,219.402 17.397,219.402 16.5,220.5C 16.5393,218.776 16.206,218.443 15.5,219.5C 14.1667,219.833 14.1667,220.167 15.5,220.5C 15.5,227.5 15.5,234.5 15.5,241.5C 14.8333,241.5 14.5,241.833 14.5,242.5C 14.1667,242.5 13.8333,242.5 13.5,242.5C 13.5,234.167 13.5,225.833 13.5,217.5C 14.8221,217.67 15.9887,217.337 17,216.5C 24.5815,205.418 33.0815,195.084 42.5,185.5C 43.7777,185.782 44.7777,186.449 45.5,187.5C 45.56,188.043 45.8933,188.376 46.5,188.5C 48.1856,187.143 49.8523,185.81 51.5,184.5 Z M 42.5,187.5 C 43.6129,188.946 43.7796,190.613 43,192.5C 35.7254,200.777 28.0588,208.777 20,216.5C 19.3333,215.833 19.3333,215.167 20,214.5C 27.7114,205.627 35.2114,196.627 42.5,187.5 Z"/></g>
<g><path style="opacity:1" fill="#8a8a8a" d="M 127.5,177.5 C 128.492,184.648 128.825,191.981 128.5,199.5C 128.638,209.098 128.638,218.764 128.5,228.5C 127.944,216.636 127.277,207.302 126.5,200.5C 125.422,195.287 124.255,189.954 123,184.5C 122.252,182.668 121.252,181.001 120,179.5C 117.459,185.756 115.626,192.09 114.5,198.5C 114.007,196.194 113.674,193.861 113.5,191.5C 114.253,186.748 115.92,182.248 118.5,178C 119.5,177.333 120.5,177.333 121.5,178C 123.938,180.295 125.438,183.128 126,186.5C 126.696,183.522 127.196,180.522 127.5,177.5 Z"/></g>
<g><path style="opacity:1" fill="#828282" d="M 149.5,186.5 C 149.833,186.5 150.167,186.5 150.5,186.5C 152.254,190.1 154.254,193.6 156.5,197C 156.507,198.812 155.84,200.312 154.5,201.5C 151.867,200.699 150.033,199.033 149,196.5C 145.288,197.726 142.788,196.392 141.5,192.5C 140.833,192.833 140.167,193.167 139.5,193.5C 137.045,191.703 134.378,190.37 131.5,189.5C 131.5,188.833 131.5,188.167 131.5,187.5C 135.239,189.37 139.239,190.536 143.5,191C 144.406,194.184 146.239,195.017 149,193.5C 150.574,194.984 151.907,196.651 153,198.5C 151.714,194.643 150.547,190.643 149.5,186.5 Z"/></g>
<g><path style="opacity:1" fill="#868686" d="M 112.5,195.5 C 111.833,195.5 111.167,195.5 110.5,195.5C 111.167,192.833 111.833,192.833 112.5,195.5 Z"/></g>
<g><path style="opacity:1" fill="#828282" d="M 82.5,175.5 C 85.5,175.5 88.5,175.5 91.5,175.5C 91.5,175.833 91.5,176.167 91.5,176.5C 89.1432,176.337 86.8098,176.503 84.5,177C 81.9758,181.024 78.6425,184.191 74.5,186.5C 73.2291,190.208 71.5624,193.708 69.5,197C 69.6667,197.5 69.8333,198 70,198.5C 71.093,196.651 72.4263,194.984 74,193.5C 76.7606,195.017 78.5939,194.184 79.5,191C 83.7611,190.536 87.7611,189.37 91.5,187.5C 91.5,188.167 91.5,188.833 91.5,189.5C 88.8864,190.807 86.2198,192.14 83.5,193.5C 82.8333,193.167 82.1667,192.833 81.5,192.5C 80.2119,196.392 77.7119,197.726 74,196.5C 73.5462,199.612 71.7129,201.278 68.5,201.5C 66.4798,199.401 66.1465,197.067 67.5,194.5C 70.5461,188.388 74.5461,183.054 79.5,178.5C 80.1667,178.5 80.5,178.167 80.5,177.5C 81.1667,177.5 81.5,177.167 81.5,176.5C 82.1667,176.5 82.5,176.167 82.5,175.5 Z"/></g>
<g><path style="opacity:1" fill="#434343" d="M 54.5,183.5 C 54.5,187.167 54.5,190.833 54.5,194.5C 54.5,195.5 54.5,196.5 54.5,197.5C 54.83,204.2 54.4967,210.866 53.5,217.5C 52.914,217.291 52.414,216.957 52,216.5C 51.5007,211.511 51.3341,206.511 51.5,201.5C 51.5,200.5 51.5,199.5 51.5,198.5C 51.5,194.5 51.5,190.5 51.5,186.5C 51.5,185.833 51.5,185.167 51.5,184.5C 52.1667,184.5 52.5,184.833 52.5,185.5C 52.8333,186.833 53.1667,186.833 53.5,185.5C 53.2465,183.599 53.5798,182.933 54.5,183.5 Z"/></g>
<g><path style="opacity:1" fill="#909090" d="M 110.5,197.5 C 111.167,197.5 111.833,197.5 112.5,197.5C 112.5,198.167 112.5,198.833 112.5,199.5C 111.833,199.5 111.167,199.5 110.5,199.5C 110.5,198.833 110.5,198.167 110.5,197.5 Z"/></g>
<g><path style="opacity:1" fill="#242424" d="M 97.5,193.5 C 97.1667,198.167 96.8333,202.833 96.5,207.5C 96.9053,216.234 96.5719,222.234 95.5,225.5C 95.5,224.167 95.5,222.833 95.5,221.5C 95.0766,211.42 95.5766,201.42 97,191.5C 97.4643,192.094 97.631,192.761 97.5,193.5 Z"/></g>
<g><path style="opacity:1" fill="#7d7d7d" d="M 172.5,177.5 C 183.14,187.977 193.307,198.977 203,210.5C 204.879,212.527 206.046,214.86 206.5,217.5C 207.5,217.5 208.5,217.5 209.5,217.5C 209.5,225.833 209.5,234.167 209.5,242.5C 209.167,242.5 208.833,242.5 208.5,242.5C 208.825,234.648 208.492,226.982 207.5,219.5C 206.794,218.443 206.461,218.776 206.5,220.5C 205.603,219.402 204.77,219.402 204,220.5C 192.515,209.521 181.682,198.188 171.5,186.5C 171.5,185.833 171.5,185.167 171.5,184.5C 172.962,185.458 174.295,186.624 175.5,188C 176.332,188.688 176.998,188.521 177.5,187.5C 175.86,184.532 173.86,181.865 171.5,179.5C 171.328,178.508 171.662,177.842 172.5,177.5 Z M 179.5,188.5 C 181.017,188.511 182.184,189.177 183,190.5C 187.957,197.126 193.291,203.46 199,209.5C 200.919,211.691 202.253,214.024 203,216.5C 194.941,208.777 187.275,200.777 180,192.5C 179.51,191.207 179.343,189.873 179.5,188.5 Z"/></g>
<g><path style="opacity:1" fill="#b3b3b3" d="M 90.5,207.5 C 89.8333,208.167 89.1667,208.833 88.5,209.5C 88.5,210.167 88.1667,210.5 87.5,210.5C 86.791,209.596 85.791,209.263 84.5,209.5C 84.5,209.167 84.5,208.833 84.5,208.5C 86.5,208.167 88.5,207.833 90.5,207.5 Z"/></g>
<g><path style="opacity:1" fill="#686868" d="M 132.5,197.5 C 133.338,197.842 133.672,198.508 133.5,199.5C 133.369,200.239 133.536,200.906 134,201.5C 137.699,202.236 140.199,204.236 141.5,207.5C 141.918,208.222 142.584,208.722 143.5,209C 143.272,209.399 142.938,209.565 142.5,209.5C 141.833,209.5 141.5,209.833 141.5,210.5C 142.209,211.404 143.209,211.737 144.5,211.5C 145.209,212.404 146.209,212.737 147.5,212.5C 147.833,212.5 148.167,212.5 148.5,212.5C 148.842,213.338 149.508,213.672 150.5,213.5C 150.833,213.5 151.167,213.5 151.5,213.5C 151.842,214.338 152.508,214.672 153.5,214.5C 153.5,214.833 153.5,215.167 153.5,215.5C 152.833,215.5 152.167,215.5 151.5,215.5C 144.833,213.5 138.167,211.5 131.5,209.5C 131.5,208.833 131.5,208.167 131.5,207.5C 133.861,207.674 136.194,208.007 138.5,208.5C 138.719,207.325 138.386,206.325 137.5,205.5C 133.01,204.742 131.343,202.075 132.5,197.5 Z"/></g>
<g><path style="opacity:1" fill="#8d8d8d" d="M 171.5,198.5 C 183.781,206.79 195.114,216.123 205.5,226.5C 205.5,226.833 205.5,227.167 205.5,227.5C 194.433,218.426 183.099,209.759 171.5,201.5C 171.5,200.5 171.5,199.5 171.5,198.5 Z"/></g>
<g><path style="opacity:1" fill="#818181" d="M 51.5,198.5 C 51.5,199.5 51.5,200.5 51.5,201.5C 39.9007,209.759 28.5673,218.426 17.5,227.5C 17.5,227.167 17.5,226.833 17.5,226.5C 27.9546,216.04 39.2879,206.707 51.5,198.5 Z"/></g>
<g><path style="opacity:1" fill="#909090" d="M 89.5,201.5 C 89.5,202.167 89.8333,202.5 90.5,202.5C 89.2642,204.043 87.5976,205.043 85.5,205.5C 84.6143,206.325 84.281,207.325 84.5,208.5C 83.1667,208.833 83.1667,209.167 84.5,209.5C 85.791,209.263 86.791,209.596 87.5,210.5C 82.5738,212.364 77.5738,214.031 72.5,215.5C 72.1583,214.662 71.4916,214.328 70.5,214.5C 70.5,214.167 70.5,213.833 70.5,213.5C 69.1667,212.833 67.8333,212.167 66.5,211.5C 71.7843,209.961 77.1177,208.627 82.5,207.5C 82.33,206.178 82.6634,205.011 83.5,204C 85.4885,203.062 87.4885,202.228 89.5,201.5 Z"/></g>
<g><path style="opacity:1" fill="#909090" d="M 132.5,197.5 C 132.56,196.957 132.893,196.624 133.5,196.5C 141.968,200.737 150.635,204.403 159.5,207.5C 159.722,211.056 158.389,213.723 155.5,215.5C 154.833,215.5 154.167,215.5 153.5,215.5C 153.5,215.167 153.5,214.833 153.5,214.5C 152.508,214.672 151.842,214.338 151.5,213.5C 151.167,212.167 150.833,212.167 150.5,213.5C 149.508,213.672 148.842,213.338 148.5,212.5C 148.167,211.167 147.833,211.167 147.5,212.5C 146.209,212.737 145.209,212.404 144.5,211.5C 143.209,211.737 142.209,211.404 141.5,210.5C 142.167,210.5 142.5,210.167 142.5,209.5C 142.938,209.565 143.272,209.399 143.5,209C 142.584,208.722 141.918,208.222 141.5,207.5C 146.5,208.833 151.5,210.167 156.5,211.5C 156.719,210.325 156.386,209.325 155.5,208.5C 148.154,205.497 140.821,202.497 133.5,199.5C 133.672,198.508 133.338,197.842 132.5,197.5 Z"/></g>
<g><path style="opacity:1" fill="#878787" d="M 91.5,197.5 C 91.5,199.167 91.5,200.833 91.5,202.5C 91.1667,202.5 90.8333,202.5 90.5,202.5C 89.8333,202.5 89.5,202.167 89.5,201.5C 89.6309,200.624 89.2975,199.957 88.5,199.5C 82.1195,203.015 75.4529,205.849 68.5,208C 67.0267,208.71 66.3601,209.876 66.5,211.5C 67.8333,212.167 69.1667,212.833 70.5,213.5C 67.8333,213.833 67.8333,214.167 70.5,214.5C 71.4916,214.328 72.1583,214.662 72.5,215.5C 71.8333,215.833 71.1667,216.167 70.5,216.5C 70.1667,216.5 69.8333,216.5 69.5,216.5C 68.794,215.443 68.4607,215.776 68.5,217.5C 60.9037,220.032 53.237,222.365 45.5,224.5C 45.9175,223.778 46.5842,223.278 47.5,223C 47.2716,222.601 46.9382,222.435 46.5,222.5C 53.2989,219.731 60.2989,217.231 67.5,215C 64.2522,213.515 63.2522,211.182 64.5,208C 72.8333,204.167 81.1667,200.333 89.5,196.5C 90.1835,196.863 90.8501,197.196 91.5,197.5 Z"/></g>
<g><path style="opacity:1" fill="#959595" d="M 169.5,213.5 C 169.833,213.5 170.167,213.5 170.5,213.5C 170.328,214.492 170.662,215.158 171.5,215.5C 170.26,217.985 169.26,217.985 168.5,215.5C 169.338,215.158 169.672,214.492 169.5,213.5 Z"/></g>
<g><path style="opacity:1" fill="#c1c1c1" d="M 69.5,216.5 C 69.8333,216.5 70.1667,216.5 70.5,216.5C 70.5,220.167 70.5,223.833 70.5,227.5C 73.4824,227.037 76.4824,226.704 79.5,226.5C 78.7375,227.268 77.7375,227.768 76.5,228C 76.7284,228.399 77.0618,228.565 77.5,228.5C 76.791,229.404 75.791,229.737 74.5,229.5C 73.0813,228.549 71.4147,228.216 69.5,228.5C 69.5,224.5 69.5,220.5 69.5,216.5 Z"/></g>
<g><path style="opacity:1" fill="#d9d9d9" d="M 151.5,215.5 C 152.167,215.5 152.833,215.5 153.5,215.5C 153.5,219.833 153.5,224.167 153.5,228.5C 151.585,228.784 149.919,228.451 148.5,227.5C 149.833,227.5 151.167,227.5 152.5,227.5C 152.763,223.4 152.43,219.4 151.5,215.5 Z"/></g>
<g><path style="opacity:1" fill="#111111" d="M 16.5,220.5 C 16.2053,222.735 16.5386,224.735 17.5,226.5C 17.5,226.833 17.5,227.167 17.5,227.5C 16.2092,231.601 16.2092,235.601 17.5,239.5C 17.9382,239.435 18.2716,239.601 18.5,240C 17.5842,240.278 16.9175,240.778 16.5,241.5C 16.5,241.833 16.5,242.167 16.5,242.5C 16.1667,242.5 15.8333,242.5 15.5,242.5C 15.5,242.167 15.5,241.833 15.5,241.5C 15.5,234.5 15.5,227.5 15.5,220.5C 15.5,220.167 15.5,219.833 15.5,219.5C 16.206,218.443 16.5393,218.776 16.5,220.5 Z"/></g>
<g><path style="opacity:1" fill="#303030" d="M 69.5,216.5 C 69.5,220.5 69.5,224.5 69.5,228.5C 71.4147,228.216 73.0813,228.549 74.5,229.5C 72.2362,230.219 69.9029,230.552 67.5,230.5C 67.8333,229.833 68.1667,229.167 68.5,228.5C 68.5,224.833 68.5,221.167 68.5,217.5C 68.4607,215.776 68.794,215.443 69.5,216.5 Z"/></g>
<g><path style="opacity:1" fill="#949494" d="M 110.5,217.5 C 111.167,217.5 111.833,217.5 112.5,217.5C 112.5,218.167 112.5,218.833 112.5,219.5C 111.833,219.5 111.167,219.5 110.5,219.5C 110.5,218.833 110.5,218.167 110.5,217.5 Z"/></g>
<g><path style="opacity:1" fill="#141414" d="M 207.5,219.5 C 207.5,227.167 207.5,234.833 207.5,242.5C 207.167,242.5 206.833,242.5 206.5,242.5C 206.5,242.167 206.5,241.833 206.5,241.5C 205.737,240.732 204.737,240.232 203.5,240C 204.094,239.536 204.761,239.369 205.5,239.5C 206.791,235.601 206.791,231.601 205.5,227.5C 205.5,227.167 205.5,226.833 205.5,226.5C 206.461,224.735 206.795,222.735 206.5,220.5C 206.461,218.776 206.794,218.443 207.5,219.5 Z"/></g>
<g><path style="opacity:1" fill="#eeeeee" d="M 110.5,220.5 C 111.167,228.833 111.833,237.167 112.5,245.5C 112.44,246.043 112.107,246.376 111.5,246.5C 110.502,237.859 110.169,229.192 110.5,220.5 Z"/></g>
<g><path style="opacity:1" fill="#818181" d="M 153.5,215.5 C 154.167,215.5 154.833,215.5 155.5,215.5C 164.767,217.922 173.767,220.922 182.5,224.5C 181.833,224.5 181.5,224.833 181.5,225.5C 179.631,227.635 178.964,230.302 179.5,233.5C 186.721,234.723 193.721,236.39 200.5,238.5C 199.761,238.369 199.094,238.536 198.5,239C 199.793,239.49 201.127,239.657 202.5,239.5C 202.736,236.391 202.403,233.391 201.5,230.5C 202.975,233.326 204.308,236.326 205.5,239.5C 204.761,239.369 204.094,239.536 203.5,240C 204.737,240.232 205.737,240.732 206.5,241.5C 182.942,236.99 159.609,231.99 136.5,226.5C 137.167,226.5 137.5,226.167 137.5,225.5C 141.337,225.931 145.003,226.598 148.5,227.5C 149.919,228.451 151.585,228.784 153.5,228.5C 153.5,224.167 153.5,219.833 153.5,215.5 Z M 154.5,217.5 C 162.096,220.032 169.763,222.365 177.5,224.5C 177.5,227.167 177.5,229.833 177.5,232.5C 169.786,231.424 162.12,230.091 154.5,228.5C 154.5,224.833 154.5,221.167 154.5,217.5 Z"/></g>
<g><path style="opacity:1" fill="#606060" d="M 181.5,225.5 C 181.5,224.833 181.833,224.5 182.5,224.5C 186.139,225.627 189.806,226.627 193.5,227.5C 195.102,229.074 197.102,229.741 199.5,229.5C 200.492,229.328 201.158,229.662 201.5,230.5C 202.403,233.391 202.736,236.391 202.5,239.5C 201.127,239.657 199.793,239.49 198.5,239C 199.094,238.536 199.761,238.369 200.5,238.5C 201.793,236.636 201.793,234.636 200.5,232.5C 194.215,229.961 187.882,227.628 181.5,225.5 Z"/></g>
<g><path style="opacity:1" fill="#636363" d="M 46.5,222.5 C 46.9382,222.435 47.2716,222.601 47.5,223C 46.5842,223.278 45.9175,223.778 45.5,224.5C 45.5,227.167 45.5,229.833 45.5,232.5C 45.4431,233.609 45.1098,234.609 44.5,235.5C 42.3023,235.591 41.9689,234.925 43.5,233.5C 43.5,230.833 43.5,228.167 43.5,225.5C 39.5,226.5 35.5,227.5 31.5,228.5C 31.8333,227.833 32.1667,227.167 32.5,226.5C 37.0974,224.968 41.764,223.635 46.5,222.5 Z"/></g>
<g><path style="opacity:1" fill="#767676" d="M 90.5,224.5 C 90.8333,225.167 91.1667,225.833 91.5,226.5C 86.853,227.296 82.1863,227.963 77.5,228.5C 77.0618,228.565 76.7284,228.399 76.5,228C 77.7375,227.768 78.7375,227.268 79.5,226.5C 83.1667,225.833 86.8333,225.167 90.5,224.5 Z"/></g>
<g><path style="opacity:1" fill="#dddddd" d="M 193.5,227.5 C 195.786,227.595 197.786,228.262 199.5,229.5C 197.102,229.741 195.102,229.074 193.5,227.5 Z"/></g>
<g><path style="opacity:1" fill="#5b5b5b" d="M 128.5,228.5 C 129.167,227.5 129.833,226.5 130.5,225.5C 131.492,225.672 132.158,225.338 132.5,224.5C 134.216,224.629 135.883,224.962 137.5,225.5C 137.5,226.167 137.167,226.5 136.5,226.5C 134.473,226.338 132.473,226.505 130.5,227C 131.059,227.725 131.392,228.558 131.5,229.5C 130.925,234.988 130.258,240.321 129.5,245.5C 128.662,245.158 128.328,244.492 128.5,243.5C 128.5,241.5 128.5,239.5 128.5,237.5C 129.404,236.791 129.737,235.791 129.5,234.5C 129.737,233.209 129.404,232.209 128.5,231.5C 128.167,230.167 127.833,230.167 127.5,231.5C 127.5,232.167 127.167,232.5 126.5,232.5C 126.167,232.5 125.833,232.5 125.5,232.5C 125.354,221.813 125.688,211.146 126.5,200.5C 127.277,207.302 127.944,216.636 128.5,228.5 Z"/></g>
<g><path style="opacity:1" fill="#9a9a9a" d="M 68.5,228.5 C 68.1667,229.167 67.8333,229.833 67.5,230.5C 60.0869,232.785 52.4203,234.451 44.5,235.5C 45.1098,234.609 45.4431,233.609 45.5,232.5C 53.2138,231.424 60.8805,230.091 68.5,228.5 Z"/></g>
<g><path style="opacity:1" fill="#1b1b1b" d="M 21.5,232.5 C 21.2053,234.735 21.5386,236.735 22.5,238.5C 22.44,239.043 22.1067,239.376 21.5,239.5C 21.1667,238.167 20.8333,236.833 20.5,235.5C 20.3649,233.537 20.6982,232.537 21.5,232.5 Z"/></g>
<g><path style="opacity:1" fill="#9b9b9b" d="M 96.5,207.5 C 97.492,214.982 97.8254,222.648 97.5,230.5C 96.9948,236.522 95.9948,242.522 94.5,248.5C 93.3126,245.054 92.6459,241.387 92.5,237.5C 93.404,236.791 93.7373,235.791 93.5,234.5C 94.404,233.791 94.7373,232.791 94.5,231.5C 95.8333,231.167 95.8333,230.833 94.5,230.5C 94.1667,229.833 93.8333,229.167 93.5,228.5C 94.404,227.791 94.7373,226.791 94.5,225.5C 94.8333,225.5 95.1667,225.5 95.5,225.5C 96.5719,222.234 96.9053,216.234 96.5,207.5 Z"/></g>
<g><path style="opacity:1" fill="#989898" d="M 32.5,226.5 C 32.1667,227.167 31.8333,227.833 31.5,228.5C 28.46,230.346 25.1267,231.679 21.5,232.5C 20.6982,232.537 20.3649,233.537 20.5,235.5C 20.8333,236.833 21.1667,238.167 21.5,239.5C 22.1067,239.376 22.44,239.043 22.5,238.5C 29.2972,236.47 36.2972,234.803 43.5,233.5C 41.9689,234.925 42.3023,235.591 44.5,235.5C 35.4154,238.1 26.082,240.1 16.5,241.5C 16.9175,240.778 17.5842,240.278 18.5,240C 18.2716,239.601 17.9382,239.435 17.5,239.5C 18.9417,236.77 19.9417,233.77 20.5,230.5C 24.4051,228.858 28.4051,227.524 32.5,226.5 Z"/></g>
<g><path style="opacity:1" fill="#909090" d="M 109.5,216.5 C 109.5,224.5 109.5,232.5 109.5,240.5C 108.167,242.167 108.167,243.833 109.5,245.5C 109.44,246.043 109.107,246.376 108.5,246.5C 107.824,245.398 107.158,244.398 106.5,243.5C 107.552,234.362 108.552,225.362 109.5,216.5 Z"/></g>
<g><path style="opacity:1" fill="#8d8d8d" d="M 114.5,230.5 C 115.374,235.258 116.374,240.091 117.5,245C 119.441,245.743 121.274,245.576 123,244.5C 123.885,241.048 124.718,237.714 125.5,234.5C 125.5,238.5 125.5,242.5 125.5,246.5C 121.298,246.817 117.298,246.483 113.5,245.5C 114.833,243.167 114.833,240.833 113.5,238.5C 113.279,235.721 113.612,233.054 114.5,230.5 Z"/></g>
<g><path style="opacity:1" fill="#a9a9a9" d="M 13.5,242.5 C 13.8333,242.5 14.1667,242.5 14.5,242.5C 14.8333,242.5 15.1667,242.5 15.5,242.5C 15.8333,242.5 16.1667,242.5 16.5,242.5C 15.5,245.167 14.5,245.167 13.5,242.5 Z"/></g>
<g><path style="opacity:1" fill="#ababab" d="M 206.5,242.5 C 206.833,242.5 207.167,242.5 207.5,242.5C 207.833,242.5 208.167,242.5 208.5,242.5C 208.833,242.5 209.167,242.5 209.5,242.5C 208.5,245.167 207.5,245.167 206.5,242.5 Z"/></g>
<g><path style="opacity:1" fill="#b6b6b6" d="M 127.5,231.5 C 127.833,231.5 128.167,231.5 128.5,231.5C 128.263,232.791 128.596,233.791 129.5,234.5C 129.737,235.791 129.404,236.791 128.5,237.5C 127.193,238.133 127.193,240.133 128.5,243.5C 128.328,244.492 128.662,245.158 129.5,245.5C 129.841,249.16 129.175,252.493 127.5,255.5C 127.737,254.209 127.404,253.209 126.5,252.5C 125.493,250.523 125.493,250.857 126.5,253.5C 126.167,254.167 125.833,254.833 125.5,255.5C 125.167,255.5 124.833,255.5 124.5,255.5C 124.768,253.901 124.434,252.568 123.5,251.5C 123.5,250.167 123.5,248.833 123.5,247.5C 124.5,247.5 125.5,247.5 126.5,247.5C 127.167,247.5 127.5,247.833 127.5,248.5C 127.015,244.649 126.682,239.316 126.5,232.5C 127.167,232.5 127.5,232.167 127.5,231.5 Z"/></g>
<g><path style="opacity:1" fill="#bdbdbd" d="M 98.5,241.5 C 99.867,245.459 102.534,246.459 106.5,244.5C 104.012,246.388 101.012,247.055 97.5,246.5C 97.366,244.708 97.6993,243.042 98.5,241.5 Z"/></g>
<g><path style="opacity:1" fill="#a5a5a5" d="M 100.5,247.5 C 101.167,247.5 101.833,247.5 102.5,247.5C 103.185,249.414 103.685,251.414 104,253.5C 104.483,252.552 104.649,251.552 104.5,250.5C 105.496,250.414 106.329,250.748 107,251.5C 107.464,250.906 107.631,250.239 107.5,249.5C 108.93,251.744 109.93,254.244 110.5,257C 109.944,257.383 109.611,257.883 109.5,258.5C 108.691,256.708 108.191,254.708 108,252.5C 107.667,254.5 107.333,256.5 107,258.5C 106.667,257.167 106.333,255.833 106,254.5C 105.517,255.448 105.351,256.448 105.5,257.5C 104.833,257.5 104.5,257.833 104.5,258.5C 103.833,258.5 103.167,258.5 102.5,258.5C 101.515,254.924 100.848,251.258 100.5,247.5 Z"/></g>
<g><path style="opacity:1" fill="#939393" d="M 96.5,247.5 C 97.5,247.5 98.5,247.5 99.5,247.5C 99.9422,251.154 100.276,254.821 100.5,258.5C 99.448,258.351 98.448,258.517 97.5,259C 98.7375,259.232 99.7375,259.732 100.5,260.5C 99.0222,260.762 97.6888,260.429 96.5,259.5C 95.0668,256.667 94.4001,253.667 94.5,250.5C 95.3382,250.158 95.6716,249.492 95.5,248.5C 96.1667,248.5 96.5,248.167 96.5,247.5 Z"/></g>
<g><path style="opacity:1" fill="#868686" d="M 116.5,247.5 C 117.167,247.5 117.833,247.5 118.5,247.5C 118.534,256.666 119.201,256.666 120.5,247.5C 121.167,247.5 121.833,247.5 122.5,247.5C 122.152,251.258 121.485,254.924 120.5,258.5C 119.833,258.5 119.167,258.5 118.5,258.5C 118.167,257.167 117.833,257.167 117.5,258.5C 117.167,258.5 116.833,258.5 116.5,258.5C 116.5,257.833 116.167,257.5 115.5,257.5C 115.5,256.833 115.5,256.167 115.5,255.5C 116.833,255.167 116.833,254.833 115.5,254.5C 114.684,255.157 114.017,256.49 113.5,258.5C 112.944,254.334 113.944,250.668 116.5,247.5 Z M 118.5,247.5 C 119.167,247.5 119.833,247.5 120.5,247.5C 119.201,256.666 118.534,256.666 118.5,247.5 Z"/></g>
<g><path style="opacity:1" fill="#1f1f1f" d="M 109.5,258.5 C 110.833,258.5 112.167,258.5 113.5,258.5C 114.017,256.49 114.684,255.157 115.5,254.5C 115.5,254.833 115.5,255.167 115.5,255.5C 115.5,256.167 115.5,256.833 115.5,257.5C 116.167,257.5 116.5,257.833 116.5,258.5C 116.833,258.5 117.167,258.5 117.5,258.5C 117.833,258.5 118.167,258.5 118.5,258.5C 119.167,258.5 119.833,258.5 120.5,258.5C 121.167,258.5 121.833,258.5 122.5,258.5C 117.891,259.529 111.225,259.863 102.5,259.5C 102.5,259.167 102.5,258.833 102.5,258.5C 103.167,258.5 103.833,258.5 104.5,258.5C 105.167,258.5 105.5,258.167 105.5,257.5C 105.351,256.448 105.517,255.448 106,254.5C 106.333,255.833 106.667,257.167 107,258.5C 107.333,256.5 107.667,254.5 108,252.5C 108.191,254.708 108.691,256.708 109.5,258.5 Z"/></g>
<g><path style="opacity:1" fill="#999999" d="M 123.5,251.5 C 124.434,252.568 124.768,253.901 124.5,255.5C 124.833,256.833 125.167,256.833 125.5,255.5C 125.833,254.833 126.167,254.167 126.5,253.5C 126.5,253.167 126.5,252.833 126.5,252.5C 127.404,253.209 127.737,254.209 127.5,255.5C 128.167,259.5 126.5,261.167 122.5,260.5C 122.556,265.731 121.889,270.731 120.5,275.5C 120.663,273.143 120.497,270.81 120,268.5C 119.722,269.416 119.222,270.082 118.5,270.5C 118.723,267.216 119.39,264.049 120.5,261C 114.509,260.501 108.509,260.334 102.5,260.5C 102.5,260.167 102.5,259.833 102.5,259.5C 111.225,259.863 117.891,259.529 122.5,258.5C 122.448,256.097 122.781,253.764 123.5,251.5 Z"/></g>
<g><path style="opacity:1" fill="#3c3c3c" d="M 120.5,275.5 C 120.5,276.167 120.5,276.833 120.5,277.5C 119.833,278.833 119.167,278.833 118.5,277.5C 118.5,275.5 118.5,273.5 118.5,271.5C 118.5,271.167 118.5,270.833 118.5,270.5C 119.222,270.082 119.722,269.416 120,268.5C 120.497,270.81 120.663,273.143 120.5,275.5 Z"/></g>
<g><path style="opacity:1" fill="#b6b6b6" d="M 103.5,266.5 C 104.785,269.589 105.451,272.922 105.5,276.5C 103.989,273.456 103.322,270.122 103.5,266.5 Z"/></g>
<g><path style="opacity:1" fill="#cccccc" d="M 118.5,271.5 C 118.5,273.5 118.5,275.5 118.5,277.5C 117.662,277.842 117.328,278.508 117.5,279.5C 117.672,280.492 117.338,281.158 116.5,281.5C 116.549,277.922 117.215,274.589 118.5,271.5 Z"/></g>
<g><path style="opacity:1" fill="#e3e3e3" d="M 101.5,280.5 C 101.56,279.957 101.893,279.624 102.5,279.5C 103.386,280.325 103.719,281.325 103.5,282.5C 102.833,281.833 102.167,281.167 101.5,280.5 Z"/></g>
<g><path style="opacity:1" fill="#8f8f8f" d="M 118.5,277.5 C 119.167,278.833 119.833,278.833 120.5,277.5C 125.46,280.792 129.793,284.792 133.5,289.5C 132.662,289.842 132.328,290.508 132.5,291.5C 132.167,291.5 131.833,291.5 131.5,291.5C 127.167,290.833 122.833,290.167 118.5,289.5C 122.514,289.666 126.514,289.499 130.5,289C 127.631,285.796 124.465,282.963 121,280.5C 120.722,281.416 120.222,282.082 119.5,282.5C 119.068,281.29 118.401,280.29 117.5,279.5C 117.328,278.508 117.662,277.842 118.5,277.5 Z"/></g>
<g><path style="opacity:1" fill="#515151" d="M 117.5,279.5 C 118.401,280.29 119.068,281.29 119.5,282.5C 119.702,284.95 119.369,287.283 118.5,289.5C 122.833,290.167 127.167,290.833 131.5,291.5C 127.167,291.5 122.833,291.5 118.5,291.5C 117.71,290.391 117.21,289.058 117,287.5C 116.667,288.5 116.333,289.5 116,290.5C 115.956,287.525 116.123,284.525 116.5,281.5C 117.338,281.158 117.672,280.492 117.5,279.5 Z"/></g>
<g><path style="opacity:1" fill="#5c5c5c" d="M 100.5,258.5 C 101.167,258.5 101.833,258.5 102.5,258.5C 102.5,258.833 102.5,259.167 102.5,259.5C 102.5,259.833 102.5,260.167 102.5,260.5C 103.341,262.379 103.675,264.379 103.5,266.5C 103.322,270.122 103.989,273.456 105.5,276.5C 105.329,280.639 105.996,284.639 107.5,288.5C 107.333,289.167 107.167,289.833 107,290.5C 106.667,289.5 106.333,288.5 106,287.5C 105.79,289.058 105.29,290.391 104.5,291.5C 100.167,291.5 95.8333,291.5 91.5,291.5C 95.8333,290.833 100.167,290.167 104.5,289.5C 103.631,287.283 103.298,284.95 103.5,282.5C 103.719,281.325 103.386,280.325 102.5,279.5C 101.893,279.624 101.56,279.957 101.5,280.5C 100.662,280.158 100.328,279.492 100.5,278.5C 101.478,278.189 102.145,277.522 102.5,276.5C 101.18,271.26 100.513,265.926 100.5,260.5C 99.7375,259.732 98.7375,259.232 97.5,259C 98.448,258.517 99.448,258.351 100.5,258.5 Z"/></g>
<g><path style="opacity:1" fill="#919191" d="M 100.5,278.5 C 100.328,279.492 100.662,280.158 101.5,280.5C 98.3957,283.101 95.3957,285.934 92.5,289C 96.4862,289.499 100.486,289.666 104.5,289.5C 100.167,290.167 95.8333,290.833 91.5,291.5C 91.5,293.5 91.5,295.5 91.5,297.5C 90.8333,294.833 90.1667,292.167 89.5,289.5C 92.8333,285.5 96.5,281.833 100.5,278.5 Z"/></g>
<g><path style="opacity:1" fill="#a6a6a6" d="M 105.5,276.5 C 107.024,282.913 109.024,289.247 111.5,295.5C 110.867,297.519 109.867,297.853 108.5,296.5C 108.539,294.776 108.206,294.443 107.5,295.5C 106.732,294.737 106.232,293.737 106,292.5C 105.536,293.094 105.369,293.761 105.5,294.5C 104.596,293.791 104.263,292.791 104.5,291.5C 105.29,290.391 105.79,289.058 106,287.5C 106.333,288.5 106.667,289.5 107,290.5C 107.167,289.833 107.333,289.167 107.5,288.5C 105.996,284.639 105.329,280.639 105.5,276.5 Z"/></g>
<g><path style="opacity:1" fill="#adadad" d="M 116.5,281.5 C 116.123,284.525 115.956,287.525 116,290.5C 116.333,289.5 116.667,288.5 117,287.5C 117.21,289.058 117.71,290.391 118.5,291.5C 118.737,292.791 118.404,293.791 117.5,294.5C 117.672,293.508 117.338,292.842 116.5,292.5C 115.167,292.833 115.167,293.167 116.5,293.5C 116.672,294.492 116.338,295.158 115.5,295.5C 114.833,295.5 114.5,295.833 114.5,296.5C 113.105,298.054 112.439,297.721 112.5,295.5C 113.722,290.676 115.055,286.009 116.5,281.5 Z"/></g>
<g><path style="opacity:1" fill="#222222" d="M 89.5,289.5 C 90.1667,292.167 90.8333,294.833 91.5,297.5C 96.1667,297.5 100.833,297.5 105.5,297.5C 105.5,296.5 105.5,295.5 105.5,294.5C 105.369,293.761 105.536,293.094 106,292.5C 106.232,293.737 106.732,294.737 107.5,295.5C 107.5,295.833 107.5,296.167 107.5,296.5C 107.802,299.059 107.468,301.393 106.5,303.5C 106.5,302.5 106.5,301.5 106.5,300.5C 101.604,298.554 96.2709,297.887 90.5,298.5C 90.5,303.833 90.5,309.167 90.5,314.5C 90.5,314.833 90.5,315.167 90.5,315.5C 90.5,315.833 90.5,316.167 90.5,316.5C 89.8333,316.5 89.5,316.167 89.5,315.5C 89.5,310.5 89.5,305.5 89.5,300.5C 89.5,299.5 89.5,298.5 89.5,297.5C 89.5,296.833 89.5,296.167 89.5,295.5C 89.5,294.833 89.5,294.167 89.5,293.5C 89.5,293.167 89.5,292.833 89.5,292.5C 89.5,291.5 89.5,290.5 89.5,289.5 Z"/></g>
<g><path style="opacity:1" fill="#4b4b4b" d="M 133.5,289.5 C 133.5,291.5 133.5,293.5 133.5,295.5C 133.5,296.167 133.5,296.833 133.5,297.5C 133.5,298.5 133.5,299.5 133.5,300.5C 133.5,305.5 133.5,310.5 133.5,315.5C 133.167,316.833 132.833,316.833 132.5,315.5C 132.5,314.833 132.167,314.5 131.5,314.5C 131.221,309.405 131.555,304.405 132.5,299.5C 130.022,298.836 127.355,298.503 124.5,298.5C 121.41,298.522 118.743,299.188 116.5,300.5C 116.5,301.5 116.5,302.5 116.5,303.5C 115.532,301.393 115.198,299.059 115.5,296.5C 115.5,296.167 115.5,295.833 115.5,295.5C 116.338,295.158 116.672,294.492 116.5,293.5C 116.5,293.167 116.5,292.833 116.5,292.5C 117.338,292.842 117.672,293.508 117.5,294.5C 117.5,295.5 117.5,296.5 117.5,297.5C 122.511,297.666 127.511,297.499 132.5,297C 131.248,295.172 131.248,293.339 132.5,291.5C 132.328,290.508 132.662,289.842 133.5,289.5 Z"/></g>
<g><path style="opacity:1" fill="#cecece" d="M 132.5,299.5 C 127.073,299.218 121.74,299.551 116.5,300.5C 118.743,299.188 121.41,298.522 124.5,298.5C 127.355,298.503 130.022,298.836 132.5,299.5 Z"/></g>
<g><path style="opacity:1" fill="#d9d9d9" d="M 106.5,300.5 C 101.595,299.555 96.5947,299.221 91.5,299.5C 91.5,304.5 91.5,309.5 91.5,314.5C 91.1667,314.5 90.8333,314.5 90.5,314.5C 90.5,309.167 90.5,303.833 90.5,298.5C 96.2709,297.887 101.604,298.554 106.5,300.5 Z"/></g>
<g><path style="opacity:1" fill="#c6c6c6" d="M 114.5,296.5 C 114.833,296.5 115.167,296.5 115.5,296.5C 115.198,299.059 115.532,301.393 116.5,303.5C 116.737,304.791 116.404,305.791 115.5,306.5C 115.631,305.761 115.464,305.094 115,304.5C 114.768,305.737 114.268,306.737 113.5,307.5C 113.942,303.846 114.276,300.179 114.5,296.5 Z"/></g>
<g><path style="opacity:1" fill="#848484" d="M 89.5,289.5 C 89.5,290.5 89.5,291.5 89.5,292.5C 88.1667,292.833 88.1667,293.167 89.5,293.5C 89.5,294.167 89.5,294.833 89.5,295.5C 87.8333,296.5 86.5,297.833 85.5,299.5C 87.0618,299.267 88.3951,298.6 89.5,297.5C 89.5,298.5 89.5,299.5 89.5,300.5C 83.5163,303.828 77.8497,307.661 72.5,312C 73.3802,313.356 73.7135,314.856 73.5,316.5C 78.8446,316.313 84.1779,315.98 89.5,315.5C 89.5,316.167 89.8333,316.5 90.5,316.5C 92.8333,316.5 95.1667,316.5 97.5,316.5C 90.3506,317.779 83.0173,318.779 75.5,319.5C 73.6803,319.351 72.1803,318.684 71,317.5C 70.3333,313.833 70.3333,310.167 71,306.5C 76.9968,300.458 83.1635,294.791 89.5,289.5 Z M 82.5,301.5 C 82.0269,302.906 81.0269,303.573 79.5,303.5C 79.9731,302.094 80.9731,301.427 82.5,301.5 Z M 85.5,299.5 C 85.0269,300.906 84.0269,301.573 82.5,301.5C 82.9731,300.094 83.9731,299.427 85.5,299.5 Z"/></g>
<g><path style="opacity:1" fill="#cbcbcb" d="M 107.5,296.5 C 107.833,296.5 108.167,296.5 108.5,296.5C 109.058,302.18 109.725,307.847 110.5,313.5C 109.239,310.742 108.406,307.742 108,304.5C 107.536,305.094 107.369,305.761 107.5,306.5C 106.596,305.791 106.263,304.791 106.5,303.5C 107.468,301.393 107.802,299.059 107.5,296.5 Z"/></g>
<g><path style="opacity:1" fill="#808080" d="M 133.5,289.5 C 140.097,294.592 146.263,300.259 152,306.5C 152.767,310.558 152.6,314.558 151.5,318.5C 148.463,319.741 145.463,319.741 142.5,318.5C 140.708,317.691 138.708,317.191 136.5,317C 137.793,316.51 139.127,316.343 140.5,316.5C 143.777,316.216 146.943,316.549 150,317.5C 150.667,315.5 150.667,313.5 150,311.5C 144.89,307.219 139.39,303.552 133.5,300.5C 133.5,299.5 133.5,298.5 133.5,297.5C 135.698,299.098 138.031,300.431 140.5,301.5C 138.393,299.273 136.06,297.273 133.5,295.5C 133.5,293.5 133.5,291.5 133.5,289.5 Z M 140.5,301.5 C 142.027,301.427 143.027,302.094 143.5,303.5C 141.973,303.573 140.973,302.906 140.5,301.5 Z"/></g>
<g><path style="opacity:1" fill="#717171" d="M 91.5,314.5 C 94.5,314.5 97.5,314.5 100.5,314.5C 102.199,314.34 103.866,314.506 105.5,315C 102.964,315.186 100.631,315.686 98.5,316.5C 98.1667,316.5 97.8333,316.5 97.5,316.5C 95.1667,316.5 92.8333,316.5 90.5,316.5C 90.5,316.167 90.5,315.833 90.5,315.5C 91.1667,315.5 91.5,315.167 91.5,314.5 Z"/></g>
<g><path style="opacity:1" fill="#6f6f6f" d="M 110.5,313.5 C 110.5,313.833 110.5,314.167 110.5,314.5C 110.5,316.167 110.5,317.833 110.5,319.5C 110.833,322.167 111.167,322.167 111.5,319.5C 112.338,319.158 112.672,318.492 112.5,317.5C 113.217,313.981 113.55,310.648 113.5,307.5C 114.268,306.737 114.768,305.737 115,304.5C 115.464,305.094 115.631,305.761 115.5,306.5C 115.756,308.792 115.423,310.959 114.5,313C 118.191,313.42 121.858,313.92 125.5,314.5C 122.713,315.477 119.713,315.81 116.5,315.5C 114.544,317.904 112.877,320.57 111.5,323.5C 110.914,323.291 110.414,322.957 110,322.5C 109.56,320.134 109.06,317.801 108.5,315.5C 107.833,314.833 107.167,314.167 106.5,313.5C 107.239,313.631 107.906,313.464 108.5,313C 107.577,310.959 107.244,308.792 107.5,306.5C 107.369,305.761 107.536,305.094 108,304.5C 108.406,307.742 109.239,310.742 110.5,313.5 Z"/></g>
<g><path style="opacity:1" fill="#ebebeb" d="M 110.5,314.5 C 111.167,315.5 111.833,316.5 112.5,317.5C 112.672,318.492 112.338,319.158 111.5,319.5C 111.167,319.5 110.833,319.5 110.5,319.5C 110.5,317.833 110.5,316.167 110.5,314.5 Z"/></g>
<g><path style="opacity:1" fill="#bebebe" d="M 100.5,314.5 C 102.265,313.539 104.265,313.205 106.5,313.5C 107.167,314.167 107.833,314.833 108.5,315.5C 105.236,316.324 101.902,316.658 98.5,316.5C 100.631,315.686 102.964,315.186 105.5,315C 103.866,314.506 102.199,314.34 100.5,314.5 Z"/></g>
<g><path style="opacity:1" fill="#a8a8a8" d="M 125.5,314.5 C 127.5,314.5 129.5,314.5 131.5,314.5C 132.167,314.5 132.5,314.833 132.5,315.5C 132.833,316.833 133.167,316.833 133.5,315.5C 136.059,315.198 138.393,315.532 140.5,316.5C 139.127,316.343 137.793,316.51 136.5,317C 138.708,317.191 140.708,317.691 142.5,318.5C 133.628,318.07 124.961,317.07 116.5,315.5C 119.713,315.81 122.713,315.477 125.5,314.5 Z"/></g>
</svg>
