<?xml version="1.0" encoding="UTF-8" standalone="no"?>
<svg
   version="1.1"
   width="230px"
   height="345px"
   style="shape-rendering:geometricPrecision; text-rendering:geometricPrecision; image-rendering:optimizeQuality; fill-rule:evenodd; clip-rule:evenodd"
   id="svg698"
   sodipodi:docname="F4.svg"
   inkscape:version="1.2.2 (b0a84865, 2022-12-01)"
   xmlns:inkscape="http://www.inkscape.org/namespaces/inkscape"
   xmlns:sodipodi="http://sodipodi.sourceforge.net/DTD/sodipodi-0.dtd"
   xmlns="http://www.w3.org/2000/svg"
   xmlns:svg="http://www.w3.org/2000/svg">
  <defs
     id="defs702" />
  <sodipodi:namedview
     id="namedview700"
     pagecolor="#ffffff"
     bordercolor="#000000"
     borderopacity="0.25"
     inkscape:showpageshadow="2"
     inkscape:pageopacity="0.0"
     inkscape:pagecheckerboard="0"
     inkscape:deskcolor="#d1d1d1"
     showgrid="false"
     inkscape:zoom="15.478465"
     inkscape:cx="36.760751"
     inkscape:cy="211.35817"
     inkscape:window-width="1902"
     inkscape:window-height="883"
     inkscape:window-x="34"
     inkscape:window-y="44"
     inkscape:window-maximized="0"
     inkscape:current-layer="g428" />
  <g
     id="g184" />
  <g
     id="g188" />
  <g
     id="g192" />
  <g
     id="g196">
    <path
       style="opacity:1;stroke:#d40000;stroke-width:0.4;stroke-dasharray:none;stroke-opacity:1"
       fill="#5f5f5f"
       d="m 100.38207,92.729689 c 0.1243,-12.855989 0.92411,-27.432574 1.64812,-39.618592 0.34068,-5.532291 0.9976,-14.599303 1.01757,-14.774003 -0.074,-4.4836 1.10984,-8.493971 2.54914,-12.870788 0.46031,-3.478418 0.10358,-0.373161 0.43192,-2.830137 0.73081,-4.247974 3.30818,-9.607481 4.97118,-11.265381 1.8617,2.33251 3.83249,6.859829 4.92503,10.879944 0.41861,1.540289 0.62561,3.116363 0.77018,4.303287 2.21091,4.871166 2.25179,5.639481 2.85324,11.172101 0.83358,5.363511 1.12377,9.269804 1.59615,15.256666 -0.0639,1.53616 0.328,5.904783 0.44677,8.902807 0.84463,11.903 0.90453,19.09274 0.90863,30.614407 -0.306,1.263893 0.1228,-1.202613 1.82559,-0.419962 0.16351,0.07515 0.74187,0.184861 1.54707,3.56268 0.12141,0.509324 0.38718,2.133124 0.53591,4.124143 0.10292,1.377739 0.0841,3.061549 0.0408,3.923079 -0.0582,1.15854 -0.0729,3.71362 -0.0663,3.76398"
       id="path194"
       sodipodi:nodetypes="ccccccscccccssssc" />
  </g>
  <g
     id="g208" />
  <g
     id="g224">
    <path
       style="opacity:1"
       fill="#a9a9a9"
       d="m 101.5,60.5 c 0,10 0,20 0,30 v 1 c 0.381,2.4418 -0.286,3.1085 -2,2 -0.9519,1.5453 -1.2852,3.212 -1,5 -0.6667,3 -1.3333,6 -2,9 -0.3254,-5.099 0.1746,-10.0988 1.5,-15 0.6667,-1.3333 1.3333,-1.3333 2,0 0.17,-10.8412 0.67,-21.5079 1.5,-32 z"
       id="path222"
       sodipodi:nodetypes="ccccccccc" />
  </g>
  <g
     id="g256">
    <path
       style="opacity:1"
       fill="#1c1c1c"
       d="m 98.5,98.5 v 7 c 0.353921,0.62818 -0.231453,1.08687 -0.416181,2.13705 C 97.360577,108.84766 96.548428,110.5 92.5,110.5 c -0.79,1.109 -1.29,2.442 -1.5,4 -0.4643,-0.594 -0.631,-1.261 -0.5,-2 -0.438,-4.408 1.562,-6.075 6,-5 0.6667,-3 1.3333,-6 2,-9 z"
       id="path254"
       sodipodi:nodetypes="cccccccc" />
  </g>
  <g
     id="g268">
    <path
       style="opacity:1"
       fill="#060606"
       d="m 125.5,107.5 h 1 c 1.915,-0.284 3.581,0.049 5,1 -3.12771,1.65154 -1.36168,0.90558 -4.43167,1.69028 -1.9351,-1.49472 -2.2205,-2.14208 -1.56833,-2.69028 z"
       id="path266"
       sodipodi:nodetypes="ccccc" />
  </g>
  <g
     id="g312">
    <path
       style="opacity:1"
       fill="#979797"
       d="m 92.5,110.5 c -0.4783,6.702 -1.1449,13.369 -2,20 0.7427,0.682 1.4094,1.349 2,2 h -3 c 0.2373,-1.291 -0.096,-2.291 -1,-3 -0.1787,-5.904 0.4879,-11.571 2,-17 -0.131,0.739 0.583899,0.62938 1.048199,1.22338 C 91.758199,112.16538 91.71,111.609 92.5,110.5 Z"
       id="path310"
       sodipodi:nodetypes="cccccccc" />
  </g>
  <g
     id="g316">
    <path
       style="opacity:1;fill:none;stroke:#0000ed;stroke-width:0.4;stroke-dasharray:none;stroke-opacity:1"
       d="m 131.5,108.5 c 2.24561,6.98179 3.111,15.19863 2.77942,21.25288 -0.0646,1.85603 -0.24004,3.00693 -0.15598,4.74712"
       id="path314"
       sodipodi:nodetypes="ccc" />
  </g>
  <path
     style="stroke:#d40000;stroke-width:0.4;stroke-dasharray:none;stroke-opacity:1;fill:none"
     fill="#444444"
     d="m 88.5,133.5 v -4 m 4.000003,108 c -0.188665,-2.49289 -0.389209,-4.85612 -0.601584,-7.08945 -0.128479,-1.35108 -0.215605,-2.51756 -0.352733,-3.7735 -0.3333,-0.667 -0.712383,-1.47005 -1.045683,-2.13705"
     id="path326"
     sodipodi:nodetypes="cccscc" />
  <g
     id="g332">
    <path
       style="opacity:1;fill:none;stroke:#000000;stroke-opacity:1"
       fill="#202020"
       d="m 95.49999,248.5 c 0.1716,0.992 0.161229,1.85182 -0.676971,2.19382 L 94.49999,248.5"
       id="path330"
       sodipodi:nodetypes="ccc" />
  </g>
  <g
     id="g336">
    <path
       style="opacity:1"
       fill="#e1e1e1"
       d="M 77.5,137.5 C 78.1667,139.833 78.8333,142.167 79.5,144.5C 79.1667,145.5 78.5,146.167 77.5,146.5C 77.5,143.5 77.5,140.5 77.5,137.5 Z"
       id="path334" />
  </g>
  <g
     id="g344">
    <path
       style="opacity:1"
       fill="#e4e4e4"
       d="M 145.5,137.5 C 145.5,140.5 145.5,143.5 145.5,146.5C 144.5,146.167 143.833,145.5 143.5,144.5C 144.167,142.167 144.833,139.833 145.5,137.5 Z"
       id="path342" />
  </g>
  <g
     id="g348">
    <path
       style="opacity:1"
       fill="#919191"
       d="m 132.5,134.5 h 2 c 3.459,2.915 6.459,6.248 9,10 0.333,1 1,1.667 2,2 0.0359,1.07697 -1.1172,1.47917 -2.22842,1.04568 C 139.23558,143.51168 135.798,139.132 132.5,134.5 Z"
       id="path346"
       sodipodi:nodetypes="cccccc" />
  </g>
  <g
     id="g352">
    <path
       style="opacity:1"
       fill="#4b4b4b"
       d="m 77.5,137.5 v 9 c 1.522914,5.40856 0.394507,6.94636 -1,8.5 -0.2586,-1.787 -0.9253,-3.287 -2,-4.5 0.7908,-5.919 1.2908,-11.919 1.5,-18 0.3333,-0.333 0.6667,-0.667 1,-1 0.4955,1.973 0.6621,3.973 0.5,6 z"
       id="path350"
       sodipodi:nodetypes="ccccccc" />
  </g>
  <g
     id="g356">
    <path
       style="opacity:1"
       fill="#4e4e4e"
       d="m 146.5,132.5 c 1.11306,4.54449 -0.71622,7.81734 0.6295,10.26443 -0.29835,2.34297 -0.81715,3.30614 -1.6295,3.73557 v -9 c -0.351,-2.541 -0.018,-4.208 1,-5 z"
       id="path354"
       sodipodi:nodetypes="ccccc" />
  </g>
  <g
     id="g360">
    <path
       style="opacity:1"
       fill="#919191"
       d="M 146.5,132.5 C 147.087,138.427 147.92,144.427 149,150.5C 156.669,159.668 164.503,168.668 172.5,177.5C 171.662,177.842 171.328,178.508 171.5,179.5C 170.061,177.64 168.395,175.973 166.5,174.5C 166.5,173.833 166.167,173.5 165.5,173.5C 165.5,172.833 165.167,172.5 164.5,172.5C 159.16,166.161 153.827,159.828 148.5,153.5C 147.833,153.5 147.5,153.167 147.5,152.5C 146.644,146.233 146.311,139.567 146.5,132.5 Z"
       id="path358" />
  </g>
  <g
     id="g364">
    <path
       style="opacity:1"
       fill="#919191"
       d="m 88.5,133.5 c 0.6667,0.333 1.3333,0.667 2,1 -3.2978,4.632 -6.9645,8.966 -11,13 -0.0053,0.40338 -1.799625,1.11068 -2,-1 1,-0.333 1.6667,-1 2,-2 2.7608,-3.85 5.7608,-7.517 9,-11 z"
       id="path362"
       sodipodi:nodetypes="cccccc" />
  </g>
  <g
     id="g380">
    <path
       style="opacity:1"
       fill="#8f8f8f"
       d="m 74.5,150.5 c 1.0747,1.213 1.7414,2.713 2,4.5 -0.398676,-0.44116 -1.657183,-0.86927 -2.5,-1.5 -5.0241,6.517 -10.1908,12.85 -15.5,19 -0.6667,0 -1,0.333 -1,1 -0.6667,0 -1,0.333 -1,1 -4.0126,4.015 -7.6793,8.348 -11,13 -0.7223,-1.051 -1.7223,-1.718 -3,-2 10.6384,-11.641 21.305,-23.307 32,-35 z"
       id="path378"
       sodipodi:nodetypes="ccccccccc" />
  </g>
  <g
     id="g428">
    <path
       style="opacity:1;fill:none;stroke:#000000;stroke-opacity:1"
       fill="#7e7e7e"
       d="m 50.494968,191.16976 c 2.588719,-0.70384 12.411368,-13.92105 6.943857,-1.19784 0.653232,7.41186 -3.371603,11.07676 -6.629245,14.195 -3.257642,3.11824 -8.143026,1.40434 -10.52118,4.36407 C 36.240132,213.56925 17.397,219.402 16.5,220.5 c 0.0393,-1.724 -0.294,-2.057 -1,-1 -1.3333,0.333 -1.3333,0.667 0,1 v 21 c -0.6667,0 -1,0.333 -1,1 h -1 v -25 c 1.3221,0.17 2.4887,-0.163 3.5,-1 7.5815,-11.082 16.0815,-21.416 25.5,-31 1.2777,0.282 2.2777,0.949 3,2 0.06,0.543 1.672431,3.8911 2.279131,4.0151 1.6856,-1.357 1.068137,0.96466 2.715837,-0.34534 z"
       id="path426"
       sodipodi:nodetypes="cczscccccccccccc" />
  </g>
  <g
     id="g460">
    <path
       style="opacity:1"
       fill="#7d7d7d"
       d="m 172.5,177.5 c 10.64,10.477 20.807,21.477 30.5,33 1.879,2.027 3.046,4.36 3.5,7 h 3 v 25 h -1 c 0.325,-7.852 -0.008,-15.518 -1,-23 -0.706,-1.057 -1.039,-0.724 -1,1 -0.897,-1.098 -1.73,-1.098 -2.5,0 -9.00836,-9.10128 -30.93392,-24.37747 -26.5,-33 -1.64,-2.968 -3.64,-5.635 -6,-8 -0.172,-0.992 0.162,-1.658 1,-2 z"
       id="path458"
       sodipodi:nodetypes="cccccccccccc" />
  </g>
  <g
     id="g496">
    <path
       style="opacity:1"
       fill="#c1c1c1"
       d="M 69.5,216.5 C 69.8333,216.5 70.1667,216.5 70.5,216.5C 70.5,220.167 70.5,223.833 70.5,227.5C 73.4824,227.037 76.4824,226.704 79.5,226.5C 78.7375,227.268 77.7375,227.768 76.5,228C 76.7284,228.399 77.0618,228.565 77.5,228.5C 76.791,229.404 75.791,229.737 74.5,229.5C 73.0813,228.549 71.4147,228.216 69.5,228.5C 69.5,224.5 69.5,220.5 69.5,216.5 Z"
       id="path494" />
  </g>
  <g
     id="g504">
    <path
       style="opacity:1"
       fill="#111111"
       d="M 16.5,220.5 C 16.2053,222.735 16.5386,224.735 17.5,226.5C 17.5,226.833 17.5,227.167 17.5,227.5C 16.2092,231.601 16.2092,235.601 17.5,239.5C 17.9382,239.435 18.2716,239.601 18.5,240C 17.5842,240.278 16.9175,240.778 16.5,241.5C 16.5,241.833 16.5,242.167 16.5,242.5C 16.1667,242.5 15.8333,242.5 15.5,242.5C 15.5,242.167 15.5,241.833 15.5,241.5C 15.5,234.5 15.5,227.5 15.5,220.5C 15.5,220.167 15.5,219.833 15.5,219.5C 16.206,218.443 16.5393,218.776 16.5,220.5 Z"
       id="path502" />
  </g>
  <g
     id="g508">
    <path
       style="opacity:1"
       fill="#303030"
       d="M 69.5,216.5 C 69.5,220.5 69.5,224.5 69.5,228.5C 71.4147,228.216 73.0813,228.549 74.5,229.5C 72.2362,230.219 69.9029,230.552 67.5,230.5C 67.8333,229.833 68.1667,229.167 68.5,228.5C 68.5,224.833 68.5,221.167 68.5,217.5C 68.4607,215.776 68.794,215.443 69.5,216.5 Z"
       id="path506" />
  </g>
  <g
     id="g516">
    <path
       style="opacity:1"
       fill="#141414"
       d="M 207.5,219.5 C 207.5,227.167 207.5,234.833 207.5,242.5C 207.167,242.5 206.833,242.5 206.5,242.5C 206.5,242.167 206.5,241.833 206.5,241.5C 205.737,240.732 204.737,240.232 203.5,240C 204.094,239.536 204.761,239.369 205.5,239.5C 206.791,235.601 206.791,231.601 205.5,227.5C 205.5,227.167 205.5,226.833 205.5,226.5C 206.461,224.735 206.795,222.735 206.5,220.5C 206.461,218.776 206.794,218.443 207.5,219.5 Z"
       id="path514" />
  </g>
  <g
     id="g524">
    <path
       style="opacity:1"
       fill="#818181"
       d="m 200.5,238.5 c -0.739,-0.131 -1.406,0.036 -2,0.5 1.293,0.49 2.627,0.657 4,0.5 1.65763,-2.04011 2.8196,-3.068 3,0 -0.739,-0.131 -1.406,0.036 -2,0.5 1.237,0.232 2.237,0.732 3,1.5 -23.558,-4.51 -46.891,-9.51 -70,-15 0.667,0 1,-0.333 1,-1 3.837,0.431 7.503,1.098 11,2 1.419,0.951 3.085,1.284 5,1 21.3685,4.44396 26.94467,3.81539 47,10 z"
       id="path522"
       sodipodi:nodetypes="ccccccccccc" />
  </g>
  <g
     id="g528">
    <path
       style="opacity:1"
       fill="#606060"
       d="m 202.5,239.5 c -1.373,0.157 -2.707,-0.01 -4,-0.5 0.594,-0.464 1.261,-0.631 2,-0.5 -1.14313,-3.54685 3.28919,-1.83049 2,1 z"
       id="path526"
       sodipodi:nodetypes="cccc" />
  </g>
  <g
     id="g532">
    <path
       style="opacity:1"
       fill="#636363"
       d="m 45.5,232.5 c -0.0569,1.109 -0.3902,2.109 -1,3 -6.072619,0.43709 -0.880607,-2.0617 1,-3 z"
       id="path530"
       sodipodi:nodetypes="ccc" />
  </g>
  <g
     id="g536">
    <path
       style="opacity:1"
       fill="#767676"
       d="M 90.5,224.5 C 90.8333,225.167 91.1667,225.833 91.5,226.5C 86.853,227.296 82.1863,227.963 77.5,228.5C 77.0618,228.565 76.7284,228.399 76.5,228C 77.7375,227.768 78.7375,227.268 79.5,226.5C 83.1667,225.833 86.8333,225.167 90.5,224.5 Z"
       id="path534" />
  </g>
  <g
     id="g544">
    <path
       style="opacity:1"
       fill="#5b5b5b"
       d="m 128.5,228.5 c 0.667,-1 1.333,-2 2,-3 0.992,0.172 1.658,-0.162 2,-1 1.716,0.129 3.383,0.462 5,1 0,0.667 -0.333,1 -1,1 -2.027,-0.162 -4.027,0.005 -6,0.5 0.559,0.725 0.892,1.558 1,2.5 -0.575,5.488 -1.242,10.821 -2,16 -0.838,-0.342 -1.172,-1.008 -1,-2 v -6 c 0.904,-0.709 1.237,-1.709 1,-3 0.237,-1.291 -0.096,-2.291 -1,-3 -0.333,-1.333 -0.667,-1.333 -1,0 0,0.667 -0.333,1 -1,1 -1.02089,-3.05262 0.3724,-4.00515 2,-4 z"
       id="path542"
       sodipodi:nodetypes="ccccccccccccccc" />
  </g>
  <g
     id="g548">
    <path
       style="opacity:1"
       fill="#9a9a9a"
       d="M 68.5,228.5 C 68.1667,229.167 67.8333,229.833 67.5,230.5C 60.0869,232.785 52.4203,234.451 44.5,235.5C 45.1098,234.609 45.4431,233.609 45.5,232.5C 53.2138,231.424 60.8805,230.091 68.5,228.5 Z"
       id="path546" />
  </g>
  <g
     id="g556">
    <path
       style="opacity:1"
       fill="#9b9b9b"
       d="m 94.5,248.5 c -1.1874,-3.446 -1.8541,-7.113 -2,-11 0.904,-0.709 2.529418,0.1 4.2949,1.00557 -1.222853,5.67023 -1.435944,6.98377 -2.2949,9.99443 z"
       id="path554"
       sodipodi:nodetypes="cccc" />
  </g>
  <g
     id="g560">
    <path
       style="opacity:1"
       fill="#989898"
       d="m 21.5,239.5 c 6.450345,-3.31992 15.535238,-4.81677 22,-6 -1.5311,1.425 -1.1977,2.091 1,2 -9.0846,2.6 -18.418,4.6 -28,6 0.4175,-0.722 1.0842,-1.222 2,-1.5 -0.2284,-0.399 -0.5618,-0.565 -1,-0.5 1.03631,-0.71315 2.375397,-1.71965 4,0 z"
       id="path558"
       sodipodi:nodetypes="ccccccc" />
  </g>
  <g
     id="g572">
    <path
       style="opacity:1"
       fill="#a9a9a9"
       d="M 13.5,242.5 C 13.8333,242.5 14.1667,242.5 14.5,242.5C 14.8333,242.5 15.1667,242.5 15.5,242.5C 15.8333,242.5 16.1667,242.5 16.5,242.5C 15.5,245.167 14.5,245.167 13.5,242.5 Z"
       id="path570" />
  </g>
  <g
     id="g576">
    <path
       style="opacity:1"
       fill="#ababab"
       d="M 206.5,242.5 C 206.833,242.5 207.167,242.5 207.5,242.5C 207.833,242.5 208.167,242.5 208.5,242.5C 208.833,242.5 209.167,242.5 209.5,242.5C 208.5,245.167 207.5,245.167 206.5,242.5 Z"
       id="path574" />
  </g>
  <g
     id="g580">
    <path
       style="opacity:1"
       fill="#b6b6b6"
       d="m 127.5,231.5 h 1 c -0.237,1.291 0.096,2.291 1,3 0.237,1.291 -0.096,2.291 -1,3 -1.307,0.633 -1.307,2.633 0,6 -0.172,0.992 0.162,1.658 1,2 0.341,3.66 -0.325,6.993 -2,10 0.237,-1.291 -0.096,-2.291 -1,-3 1.14068,-7.03342 0.25796,-10.71353 0,-20 0.667,0 1,-0.333 1,-1 z"
       id="path578"
       sodipodi:nodetypes="cccccccccc" />
  </g>
  <g
     id="g584" />
  <g
     id="g592">
    <path
       style="opacity:1"
       fill="#939393"
       d="M 96.5,247.5 C 97.5,247.5 98.5,247.5 99.5,247.5C 99.9422,251.154 100.276,254.821 100.5,258.5C 99.448,258.351 98.448,258.517 97.5,259C 98.7375,259.232 99.7375,259.732 100.5,260.5C 99.0222,260.762 97.6888,260.429 96.5,259.5C 95.0668,256.667 94.4001,253.667 94.5,250.5C 95.3382,250.158 95.6716,249.492 95.5,248.5C 96.1667,248.5 96.5,248.167 96.5,247.5 Z"
       id="path590" />
  </g>
  <g
     id="g604">
    <path
       style="opacity:1"
       fill="#999999"
       d="m 125.5,255.5 c 0.333,-0.667 0.667,-1.333 1,-2 v -1 c 0.904,0.709 1.237,1.709 1,3 0.667,4 -1,5.667 -5,5 0.056,5.231 -0.611,10.231 -2,15 0.163,-2.357 -0.003,-4.69 -0.5,-7 -0.278,0.916 -0.778,1.582 -1.5,2 0.223,-3.284 0.89,-6.451 2,-9.5 0.54685,-1.02325 1.2754,-1.91355 2,-2.5 1.01896,-0.40252 2.66089,-1.32488 3,-3 z"
       id="path602"
       sodipodi:nodetypes="ccccccccccc" />
  </g>
  <g
     id="g608">
    <path
       style="opacity:1"
       fill="#3c3c3c"
       d="M 120.5,275.5 C 120.5,276.167 120.5,276.833 120.5,277.5C 119.833,278.833 119.167,278.833 118.5,277.5C 118.5,275.5 118.5,273.5 118.5,271.5C 118.5,271.167 118.5,270.833 118.5,270.5C 119.222,270.082 119.722,269.416 120,268.5C 120.497,270.81 120.663,273.143 120.5,275.5 Z"
       id="path606" />
  </g>
  <g
     id="g624">
    <path
       style="opacity:1"
       fill="#8f8f8f"
       d="m 118.5,277.5 c 0.667,1.333 1.333,1.333 2,0 4.96,3.292 9.293,7.292 13,12 -0.838,0.342 -0.39673,0.74958 -0.22473,1.74158 L 131.5,291.5 c -0.8593,-0.68923 -1.15913,-1.50629 -1,-2.5 -3.12045,-5.32524 -12.38226,-8.86448 -12,-11.5 z"
       id="path622"
       sodipodi:nodetypes="ccccccc" />
  </g>
  <g
     id="g632">
    <path
       style="opacity:1"
       fill="#5c5c5c"
       d="m 100.5,258.5 h 2 v 1 l 0.0646,5.65162 c 0.0472,4.30288 0.57219,5.5749 0.93539,7.35673 0.90272,4.13117 1.46452,5.24718 -1,6.99165 -0.607,0.124 -0.94,0.457 -1,1 -0.838,-0.342 -1.172,-1.008 -1,-2 0.978,-0.311 1.645,-0.978 2,-2 -1.32,-5.24 -1.987,-10.574 -2,-16 -0.7625,-0.768 -1.7625,-1.268 -3,-1.5 0.948,-0.483 1.948,-0.649 3,-0.5 z"
       id="path630"
       sodipodi:nodetypes="cccccccccccc" />
  </g>
  <g
     id="g636">
    <path
       style="opacity:1"
       fill="#919191"
       d="m 100.5,278.5 c -0.172,0.992 0.162,1.658 1,2 -7.743241,4.29123 -9.918303,8.92731 -10,11 -0.978749,-0.37004 -0.925885,2.29675 -2,-2 3.3333,-4 7,-7.667 11,-11 z"
       id="path634"
       sodipodi:nodetypes="ccccc" />
  </g>
  <g
     id="g668">
    <path
       style="opacity:1"
       fill="#848484"
       d="m 89.5,289.5 v 3 c -1.763926,1.91284 -15.33095,13.07742 -17,19.5 0.8802,1.356 1.2135,2.856 1,4.5 5.823779,0.38956 12.24276,-0.45956 17,0 h 7 c -7.1494,1.279 -14.4827,2.279 -22,3 -1.8197,-0.149 -3.3197,-0.816 -4.5,-2 -0.6667,-3.667 -0.6667,-7.333 0,-11 5.9968,-6.042 12.1635,-11.709 18.5,-17 z"
       id="path666"
       sodipodi:nodetypes="cccccccccc" />
  </g>
  <g
     id="g676">
    <path
       style="opacity:1"
       fill="#808080"
       d="m 133.5,289.5 c 6.597,5.092 12.763,10.759 18.5,17 0.767,4.058 0.6,8.058 -0.5,12 -3.037,1.241 -6.037,1.241 -9,0 -1.792,-0.809 -3.792,-1.309 -6,-1.5 1.293,-0.49 2.627,-0.657 4,-0.5 3.277,-0.284 6.443,0.049 9.5,1 0.34399,-8.74339 -12.1511,-22.94732 -16.62921,-25.35951 z"
       id="path674"
       sodipodi:nodetypes="ccccccccc" />
  </g>
  <g
     id="g680">
    <path
       style="opacity:1"
       fill="#717171"
       d="m 100.5,314.5 c 1.699,-0.16 3.366,0.006 5,0.5 -2.536,0.186 -4.869,0.686 -7,1.5 h -1 -7 c 0.359761,-3.42055 7.885789,-2.01551 10,-2 z"
       id="path678"
       sodipodi:nodetypes="cccccc" />
  </g>
  <g
     id="g684">
    <path
       style="opacity:1"
       fill="#6f6f6f"
       d="m 110.5,314.5 v 5 c 0.333,2.667 0.667,2.667 1,0 0.838,-0.342 1.172,-1.008 1,-2 0.73047,-1.49539 1.33921,-3.29603 2,-4.5 3.691,0.42 7.358,0.92 11,1.5 -2.787,0.977 -5.787,1.31 -9,1 -1.956,2.404 -1.74943,4.35933 -3.12643,7.28933 -0.586,-0.209 -2.44272,0.29688 -2.85672,-0.16012 -0.44,-2.366 -1.45685,-4.82821 -2.01685,-7.12921 l -2,-2 c 2.39236,0.5716 4,1 4,1 z"
       id="path682"
       sodipodi:nodetypes="cccccccccccc" />
  </g>
  <g
     id="g692">
    <path
       style="opacity:1"
       fill="#bebebe"
       d="M 100.5,314.5 C 102.265,313.539 104.265,313.205 106.5,313.5C 107.167,314.167 107.833,314.833 108.5,315.5C 105.236,316.324 101.902,316.658 98.5,316.5C 100.631,315.686 102.964,315.186 105.5,315C 103.866,314.506 102.199,314.34 100.5,314.5 Z"
       id="path690" />
  </g>
  <g
     id="g696">
    <path
       style="opacity:1"
       fill="#a8a8a8"
       d="M 125.5,314.5 C 127.5,314.5 129.5,314.5 131.5,314.5C 132.167,314.5 132.5,314.833 132.5,315.5C 132.833,316.833 133.167,316.833 133.5,315.5C 136.059,315.198 138.393,315.532 140.5,316.5C 139.127,316.343 137.793,316.51 136.5,317C 138.708,317.191 140.708,317.691 142.5,318.5C 133.628,318.07 124.961,317.07 116.5,315.5C 119.713,315.81 122.713,315.477 125.5,314.5 Z"
       id="path694" />
  </g>
</svg>
