<?xml version="1.0" encoding="UTF-8" standalone="no"?>
<svg
   version="1.1"
   width="627.09998"
   height="1000"
   style="clip-rule:evenodd;fill-rule:evenodd;image-rendering:optimizeQuality;shape-rendering:geometricPrecision;text-rendering:geometricPrecision"
   id="svg974"
   sodipodi:docname="MIG-21.svg"
   inkscape:version="1.4 (e7c3feb1, 2024-10-09)"
   xmlns:inkscape="http://www.inkscape.org/namespaces/inkscape"
   xmlns:sodipodi="http://sodipodi.sourceforge.net/DTD/sodipodi-0.dtd"
   xmlns="http://www.w3.org/2000/svg"
   xmlns:svg="http://www.w3.org/2000/svg">
  <sodipodi:namedview
     id="namedview974"
     pagecolor="#ffffff"
     bordercolor="#000000"
     borderopacity="0.25"
     inkscape:showpageshadow="2"
     inkscape:pageopacity="0.0"
     inkscape:pagecheckerboard="0"
     inkscape:deskcolor="#d1d1d1"
     inkscape:zoom="1.8263361"
     inkscape:cx="366.58093"
     inkscape:cy="854.99048"
     inkscape:window-width="1840"
     inkscape:window-height="1192"
     inkscape:window-x="152"
     inkscape:window-y="58"
     inkscape:window-maximized="0"
     inkscape:current-layer="svg974" />
  <defs
     id="defs974" />
  <path
     style="fill:none;stroke:#00e58b;stroke-width:2.9;stroke-linecap:round;stroke-linejoin:round;stroke-dashoffset:17.9906;paint-order:markers stroke fill"
     d="M 317.5 10.6472 L 319.998 43.1697 L 336.453 103.569 L 342.067 104.149 L 345.551 104.924 L 347.874 113.635 L 349.036 124.863 L 351.552 165.323 L 352.908 189.908 L 353.875 237.917 L 355.618 302.382 L 359.102 364.136 L 444.667 497.323 L 445.248 497.129 L 445.635 497.904 L 448.346 485.321 L 451.443 507.002 L 554.237 665.356 L 555.012 692.651 L 553.85 698.459 L 553.076 710.268 L 551.333 699.04 L 360.651 699.427 L 358.134 700.588 L 356.005 700.588 L 356.392 771.441 L 435.956 901.918 L 436.73 878.881 L 439.441 874.042 L 441.57 878.881 L 440.989 961.736 L 440.215 965.221 L 437.118 967.156 L 434.02 966.769 L 351.552 907.725 L 349.81 900.756 L 345.938 898.821 L 345.938 897.853 L 322.127 897.272 L 322.127 897.272 L 322.127 938.699 L 322.708 941.409 L 323.095 945.862 L 322.902 954.38 L 323.87 967.544 L 321.934 973.158 L 321.74 981.095 L 320.579 987.483 L 317.5 994.259"
     id="path1"
     sodipodi:nodetypes="ccccccccccccccccccccccccccccccccccccccccccccccccc" />
</svg>
