<?xml version="1.0"?>
<svg xmlns="http://www.w3.org/2000/svg" width="2000" height="1600">
  <g transform="scale(0.5)">
    <g transform="translate(0,0) scale(0.2)">
      <rect x="0" y="0" width="1024" height="1024" fill="rgb(213,131,190)" fill-opacity="1" stroke="black" stroke-width="1"/>
      <g transform="translate(-80,198)">
        <circle cx="600" cy="100" r="200"/>
        <text x="612" y="700" text-anchor="middle" text-align="center" font-family="sans-serif" font-size="300px">1</text>
      </g>
    </g>
    <g transform="translate(200,0) scale(0.2)">
      <rect x="0" y="0" width="1024" height="1024" fill="rgb(213,131,190)" fill-opacity="1" stroke="black" stroke-width="1"/>
      <g transform="translate(-80,198)">
        <circle cx="600" cy="100" r="200"/>
        <text x="612" y="700" text-anchor="middle" text-align="center" font-family="sans-serif" font-size="300px">2</text>
      </g>
    </g>
    <g transform="translate(400,0) scale(0.2)">
      <rect x="0" y="0" width="1024" height="1024" fill="rgb(213,131,190)" fill-opacity="1" stroke="black" stroke-width="1"/>
      <g transform="translate(-80,198)">
        <circle cx="600" cy="100" r="200"/>
        <text x="612" y="700" text-anchor="middle" text-align="center" font-family="sans-serif" font-size="300px">3</text>
      </g>
    </g>
    <g transform="translate(600,0) scale(0.2)">
      <rect x="0" y="0" width="1024" height="1024" fill="rgb(213,131,190)" fill-opacity="1" stroke="black" stroke-width="1"/>
      <g transform="translate(-80,198)">
        <circle cx="600" cy="100" r="200"/>
        <text x="612" y="700" text-anchor="middle" text-align="center" font-family="sans-serif" font-size="300px">4</text>
      </g>
    </g>
    <g transform="translate(800,0) scale(0.2)">
      <rect x="0" y="0" width="1024" height="1024" fill="rgb(213,131,190)" fill-opacity="1" stroke="black" stroke-width="1"/>
      <g transform="translate(-80,198)">
        <circle cx="600" cy="100" r="200"/>
        <text x="612" y="700" text-anchor="middle" text-align="center" font-family="sans-serif" font-size="300px">5</text>
      </g>
    </g>
    <g transform="translate(1000,0) scale(0.2)">
      <rect x="0" y="0" width="1024" height="1024" fill="rgb(213,131,190)" fill-opacity="1" stroke="black" stroke-width="1"/>
      <g transform="translate(-80,198)">
        <circle cx="600" cy="100" r="200"/>
        <text x="612" y="700" text-anchor="middle" text-align="center" font-family="sans-serif" font-size="300px">6</text>
      </g>
    </g>
    <g transform="translate(1200,0) scale(0.2)">
      <rect x="0" y="0" width="1024" height="1024" fill="rgb(213,131,190)" fill-opacity="1" stroke="black" stroke-width="1"/>
      <g transform="translate(-80,198)">
        <circle cx="600" cy="100" r="200"/>
        <text x="612" y="700" text-anchor="middle" text-align="center" font-family="sans-serif" font-size="300px">7</text>
      </g>
    </g>
    <g transform="translate(1400,0) scale(0.2)">
      <rect x="0" y="0" width="1024" height="1024" fill="rgb(213,131,190)" fill-opacity="1" stroke="black" stroke-width="1"/>
      <g transform="translate(-80,198)">
        <circle cx="600" cy="100" r="200"/>
        <text x="612" y="700" text-anchor="middle" text-align="center" font-family="sans-serif" font-size="300px">8</text>
      </g>
    </g>
    <g transform="translate(1600,0) scale(0.2)">
      <rect x="0" y="0" width="1024" height="1024" fill="rgb(213,131,190)" fill-opacity="1" stroke="black" stroke-width="1"/>
      <g transform="translate(-80,198)">
        <circle cx="600" cy="100" r="200"/>
        <text x="612" y="700" text-anchor="middle" text-align="center" font-family="sans-serif" font-size="300px">9</text>
      </g>
    </g>
    <g transform="translate(1800,0) scale(0.2)">
      <rect x="0" y="0" width="1024" height="1024" fill="rgb(213,131,190)" fill-opacity="1" stroke="black" stroke-width="1"/>
      <g transform="translate(-80,198)">
        <circle cx="600" cy="100" r="200"/>
        <text x="612" y="700" text-anchor="middle" text-align="center" font-family="sans-serif" font-size="300px">10</text>
      </g>
    </g>
    <g transform="translate(0,200) scale(0.2)">
      <rect x="0" y="0" width="1024" height="1024" fill="none" stroke="black" stroke-width="2"/>
    </g>
    <g transform="translate(200,200) scale(0.2)">
      <rect x="0" y="0" width="1024" height="1024" fill="none" stroke="black" stroke-width="2"/>
    </g>
    <g transform="translate(400,200) scale(0.2)">
      <rect x="0" y="0" width="1024" height="1024" fill="none" stroke="black" stroke-width="2"/>
    </g>
    <g transform="translate(600,200) scale(0.2)">
      <rect x="0" y="0" width="1024" height="1024" fill="none" stroke="black" stroke-width="2"/>
    </g>
    <g transform="translate(800,200) scale(0.2)">
      <rect x="0" y="0" width="1024" height="1024" fill="none" stroke="black" stroke-width="2"/>
    </g>
    <g transform="translate(1000,200) scale(0.2)">
      <rect x="0" y="0" width="1024" height="1024" fill="none" stroke="black" stroke-width="2"/>
    </g>
    <g transform="translate(1200,200) scale(0.2)">
      <rect x="0" y="0" width="1024" height="1024" fill="none" stroke="black" stroke-width="2"/>
    </g>
    <g transform="translate(1400,200) scale(0.2)">
      <rect x="0" y="0" width="1024" height="1024" fill="none" stroke="black" stroke-width="2"/>
    </g>
    <g transform="translate(1600,200) scale(0.2)">
      <rect x="0" y="0" width="1024" height="1024" fill="none" stroke="black" stroke-width="2"/>
    </g>
    <g transform="translate(1800,200) scale(0.2)">
      <rect x="0" y="0" width="1024" height="1024" fill="none" stroke="black" stroke-width="2"/>
    </g>
    <g transform="translate(0,400) scale(0.2)">
      <rect x="0" y="0" width="1024" height="1024" fill="none" stroke="black" stroke-width="2"/>
    </g>
    <g transform="translate(200,400) scale(0.2)">
      <rect x="0" y="0" width="1024" height="1024" fill="none" stroke="black" stroke-width="2"/>
    </g>
    <g transform="translate(400,400) scale(0.2)">
      <rect x="0" y="0" width="1024" height="1024" fill="none" stroke="black" stroke-width="2"/>
    </g>
    <g transform="translate(600,400) scale(0.2)">
      <rect x="0" y="0" width="1024" height="1024" fill="none" stroke="black" stroke-width="2"/>
    </g>
    <g transform="translate(800,400) scale(0.2)">
      <rect x="0" y="0" width="1024" height="1024" fill="none" stroke="black" stroke-width="2"/>
    </g>
    <g transform="translate(1000,400) scale(0.2)">
      <rect x="0" y="0" width="1024" height="1024" fill="none" stroke="black" stroke-width="2"/>
    </g>
    <g transform="translate(1200,400) scale(0.2)">
      <rect x="0" y="0" width="1024" height="1024" fill="none" stroke="black" stroke-width="2"/>
    </g>
    <g transform="translate(1400,400) scale(0.2)">
      <rect x="0" y="0" width="1024" height="1024" fill="none" stroke="black" stroke-width="2"/>
    </g>
    <g transform="translate(1600,400) scale(0.2)">
      <rect x="0" y="0" width="1024" height="1024" fill="none" stroke="black" stroke-width="2"/>
    </g>
    <g transform="translate(1800,400) scale(0.2)">
      <rect x="0" y="0" width="1024" height="1024" fill="none" stroke="black" stroke-width="2"/>
    </g>
    <g transform="translate(0,600) scale(0.2)">
      <rect x="0" y="0" width="1024" height="1024" fill="none" stroke="black" stroke-width="2"/>
    </g>
    <g transform="translate(200,600) scale(0.2)">
      <rect x="0" y="0" width="1024" height="1024" fill="none" stroke="black" stroke-width="2"/>
    </g>
    <g transform="translate(400,600) scale(0.2)">
      <rect x="0" y="0" width="1024" height="1024" fill="none" stroke="black" stroke-width="2"/>
    </g>
    <g transform="translate(600,600) scale(0.2)">
      <rect x="0" y="0" width="1024" height="1024" fill="none" stroke="black" stroke-width="2"/>
    </g>
    <g transform="translate(800,600) scale(0.2)">
      <rect x="0" y="0" width="1024" height="1024" fill="none" stroke="black" stroke-width="2"/>
    </g>
    <g transform="translate(1000,600) scale(0.2)">
      <rect x="0" y="0" width="1024" height="1024" fill="none" stroke="black" stroke-width="2"/>
    </g>
    <g transform="translate(1200,600) scale(0.2)">
      <rect x="0" y="0" width="1024" height="1024" fill="none" stroke="black" stroke-width="2"/>
    </g>
    <g transform="translate(1400,600) scale(0.2)">
      <rect x="0" y="0" width="1024" height="1024" fill="none" stroke="black" stroke-width="2"/>
    </g>
    <g transform="translate(1600,600) scale(0.2)">
      <rect x="0" y="0" width="1024" height="1024" fill="none" stroke="black" stroke-width="2"/>
    </g>
    <g transform="translate(1800,600) scale(0.2)">
      <rect x="0" y="0" width="1024" height="1024" fill="none" stroke="black" stroke-width="2"/>
    </g>
    <g transform="translate(0,800) scale(0.2)">
      <rect x="0" y="0" width="1024" height="1024" fill="none" stroke="black" stroke-width="2"/>
    </g>
    <g transform="translate(200,800) scale(0.2)">
      <rect x="0" y="0" width="1024" height="1024" fill="none" stroke="black" stroke-width="2"/>
    </g>
    <g transform="translate(400,800) scale(0.2)">
      <rect x="0" y="0" width="1024" height="1024" fill="none" stroke="black" stroke-width="2"/>
    </g>
    <g transform="translate(600,800) scale(0.2)">
      <rect x="0" y="0" width="1024" height="1024" fill="none" stroke="black" stroke-width="2"/>
    </g>
    <g transform="translate(800,800) scale(0.2)">
      <rect x="0" y="0" width="1024" height="1024" fill="none" stroke="black" stroke-width="2"/>
    </g>
    <g transform="translate(1000,800) scale(0.2)">
      <rect x="0" y="0" width="1024" height="1024" fill="none" stroke="black" stroke-width="2"/>
    </g>
    <g transform="translate(1200,800) scale(0.2)">
      <rect x="0" y="0" width="1024" height="1024" fill="none" stroke="black" stroke-width="2"/>
    </g>
    <g transform="translate(1400,800) scale(0.2)">
      <rect x="0" y="0" width="1024" height="1024" fill="none" stroke="black" stroke-width="2"/>
    </g>
    <g transform="translate(1600,800) scale(0.2)">
      <rect x="0" y="0" width="1024" height="1024" fill="none" stroke="black" stroke-width="2"/>
    </g>
    <g transform="translate(1800,800) scale(0.2)">
      <rect x="0" y="0" width="1024" height="1024" fill="none" stroke="black" stroke-width="2"/>
    </g>
    <g transform="translate(0,1000) scale(0.2)">
      <rect x="0" y="0" width="1024" height="1024" fill="none" stroke="black" stroke-width="2"/>
    </g>
    <g transform="translate(200,1000) scale(0.2)">
      <rect x="0" y="0" width="1024" height="1024" fill="none" stroke="black" stroke-width="2"/>
    </g>
    <g transform="translate(400,1000) scale(0.2)">
      <rect x="0" y="0" width="1024" height="1024" fill="none" stroke="black" stroke-width="2"/>
    </g>
    <g transform="translate(600,1000) scale(0.2)">
      <rect x="0" y="0" width="1024" height="1024" fill="none" stroke="black" stroke-width="2"/>
    </g>
    <g transform="translate(800,1000) scale(0.2)">
      <rect x="0" y="0" width="1024" height="1024" fill="none" stroke="black" stroke-width="2"/>
    </g>
    <g transform="translate(1000,1000) scale(0.2)">
      <rect x="0" y="0" width="1024" height="1024" fill="none" stroke="black" stroke-width="2"/>
    </g>
    <g transform="translate(1200,1000) scale(0.2)">
      <rect x="0" y="0" width="1024" height="1024" fill="none" stroke="black" stroke-width="2"/>
    </g>
    <g transform="translate(1400,1000) scale(0.2)">
      <rect x="0" y="0" width="1024" height="1024" fill="none" stroke="black" stroke-width="2"/>
    </g>
    <g transform="translate(1600,1000) scale(0.2)">
      <rect x="0" y="0" width="1024" height="1024" fill="none" stroke="black" stroke-width="2"/>
    </g>
    <g transform="translate(1800,1000) scale(0.2)">
      <rect x="0" y="0" width="1024" height="1024" fill="none" stroke="black" stroke-width="2"/>
    </g>
    <g transform="translate(0,1200) scale(0.2)">
      <rect x="0" y="0" width="1024" height="1024" fill="none" stroke="black" stroke-width="2"/>
    </g>
    <g transform="translate(200,1200) scale(0.2)">
      <rect x="0" y="0" width="1024" height="1024" fill="none" stroke="black" stroke-width="2"/>
    </g>
    <g transform="translate(400,1200) scale(0.2)">
      <rect x="0" y="0" width="1024" height="1024" fill="none" stroke="black" stroke-width="2"/>
    </g>
    <g transform="translate(600,1200) scale(0.2)">
      <rect x="0" y="0" width="1024" height="1024" fill="rgb(213,131,190)" fill-opacity="1" stroke="black" stroke-width="1"/>
      <text x="512" y="695" font-size="500" text-anchor="middle" text-align="center">+</text>
    </g>
    <g transform="translate(800,1200) scale(0.2)">
      <rect x="0" y="0" width="1024" height="1024" fill="rgb(213,131,190)" fill-opacity="1" stroke="black" stroke-width="1"/>
      <text x="512" y="695" font-size="500" text-anchor="middle" text-align="center">+</text>
    </g>
    <g transform="translate(1000,1200) scale(0.2)">
      <rect x="0" y="0" width="1024" height="1024" fill="rgb(213,131,190)" fill-opacity="1" stroke="black" stroke-width="1"/>
      <text x="512" y="695" font-size="500" text-anchor="middle" text-align="center">+</text>
    </g>
    <g transform="translate(1200,1200) scale(0.2)">
      <rect x="0" y="0" width="1024" height="1024" fill="rgb(213,131,190)" fill-opacity="1" stroke="black" stroke-width="1"/>
      <text x="512" y="695" font-size="500" text-anchor="middle" text-align="center">+</text>
    </g>
    <g transform="translate(1400,1200) scale(0.2)">
      <rect x="0" y="0" width="1024" height="1024" fill="rgb(213,131,190)" fill-opacity="1" stroke="black" stroke-width="1"/>
      <text x="512" y="695" font-size="500" text-anchor="middle" text-align="center">+</text>
    </g>
    <g transform="translate(1600,1200) scale(0.2)">
      <rect x="0" y="0" width="1024" height="1024" fill="rgb(213,131,190)" fill-opacity="1" stroke="black" stroke-width="1"/>
      <text x="512" y="695" font-size="500" text-anchor="middle" text-align="center">+</text>
    </g>
    <g transform="translate(1800,1200) scale(0.2)">
      <rect x="0" y="0" width="1024" height="1024" fill="rgb(213,131,190)" fill-opacity="1" stroke="black" stroke-width="1"/>
      <text x="512" y="695" font-size="500" text-anchor="middle" text-align="center">+</text>
    </g>
  </g>
</svg>
