<?xml version="1.0"?>
<svg xmlns="http://www.w3.org/2000/svg" width="725" height="125">
  <g transform="translate(20, 20)">
    <g transform="translate(0, 0)">
      <rect x="0" y="0" width="100" height="100" fill="white" stroke="black" stroke-width="3"/>
      <text x="50" y="65" fill="black" style="font: bold 48px sans-serif" text-anchor="middle" alignment_baseline="central" font-size="48px" font-weight="bold">1</text>
    </g>
    <g transform="translate(100, 0)">
      <rect x="0" y="0" width="100" height="100" fill="white" stroke="black" stroke-width="3"/>
      <text x="50" y="65" fill="black" style="font: bold 48px sans-serif" text-anchor="middle" alignment_baseline="central" font-size="48px" font-weight="bold">2</text>
    </g>
    <g transform="translate(200, 0)">
      <rect x="0" y="0" width="100" height="100" fill="white" stroke="black" stroke-width="3"/>
      <text x="50" y="65" fill="black" style="font: bold 48px sans-serif" text-anchor="middle" alignment_baseline="central" font-size="48px" font-weight="bold">3</text>
    </g>
    <g transform="translate(300, 0)">
      <rect x="0" y="0" width="100" height="100" fill="white" stroke="black" stroke-width="3"/>
      <text x="50" y="65" fill="black" style="font: bold 48px sans-serif" text-anchor="middle" alignment_baseline="central" font-size="48px" font-weight="bold">4</text>
    </g>
    <g transform="translate(400, 0)">
      <rect x="0" y="0" width="100" height="100" fill="white" stroke="black" stroke-width="3"/>
      <text x="50" y="65" fill="black" style="font: bold 48px sans-serif" text-anchor="middle" alignment_baseline="central" font-size="48px" font-weight="bold">5</text>
    </g>
    <g transform="translate(500, 0)">
      <rect x="0" y="0" width="100" height="100" fill="white" stroke="black" stroke-width="3"/>
      <text x="50" y="65" fill="black" style="font: bold 48px sans-serif" text-anchor="middle" alignment_baseline="central" font-size="48px" font-weight="bold">6</text>
    </g>
    <g transform="translate(600, 0)">
      <rect x="0" y="0" width="100" height="100" fill="white" stroke="black" stroke-width="3"/>
      <text x="50" y="65" fill="black" style="font: bold 48px sans-serif" text-anchor="middle" alignment_baseline="central" font-size="48px" font-weight="bold">0</text>
    </g>
  </g>
</svg>
