<?xml version="1.0"?>
<svg xmlns="http://www.w3.org/2000/svg" width="20.0cm" height="16.0cm" viewBox="0 0 20.0 16.0">
  <rect width="100%" height="100%" fill="lightblue"/>
  <g transform="translate(1.0, 1.0)">
    <path d="M 0,0 L 11.7,0 L 11.7,9.5 L 18.1,9.5 L 18.1,12.6 L 4.3,12.6 L 4.3,6.7 L 0,6.7 Z" fill="none" stroke="black" stroke-width="0.1"/>
    <rect x="0" y="0" width="4.3" height="3.1" fill="#E0FFE0" stroke="black" stroke-width="0.002cm"/>
    <text x="2.15" y="1.55" fill="#E8E8E8" font-size="0.5" text-anchor="middle" dy=".3em">Zone 1</text>
    <rect x="4.3" y="0" width="4.1000000000000005" height="3.1" fill="#E0FFE0" stroke="black" stroke-width="0.002cm"/>
    <text x="6.35" y="1.55" fill="#E8E8E8" font-size="0.5" text-anchor="middle" dy=".3em">Zone 2</text>
    <rect x="8.4" y="0" width="3.299999999999999" height="6.7" fill="#E0FFE0" stroke="black" stroke-width="0.002cm"/>
    <text x="10.05" y="3.35" fill="#E8E8E8" font-size="0.5" text-anchor="middle" dy=".3em"/>
    <rect x="0" y="3.1" width="4.3" height="3.6" fill="#E0FFE0" stroke="black" stroke-width="0.002cm"/>
    <text x="2.15" y="4.9" fill="#E8E8E8" font-size="0.5" text-anchor="middle" dy=".3em">Zone 3</text>
    <rect x="4.3" y="3.1" width="4.1000000000000005" height="3.6" fill="#E0FFE0" stroke="black" stroke-width="0.002cm"/>
    <text x="6.35" y="4.9" fill="#E8E8E8" font-size="0.5" text-anchor="middle" dy=".3em">Zone 4</text>
    <rect x="8.4" y="6.7" width="3.299999999999999" height="2.8" fill="#E0FFE0" stroke="black" stroke-width="0.002cm"/>
    <text x="10.05" y="8.1" fill="#E8E8E8" font-size="0.5" text-anchor="middle" dy=".3em">Zone 6</text>
    <rect x="4.3" y="6.7" width="4.1000000000000005" height="2.8" fill="#E0FFE0" stroke="black" stroke-width="0.002cm"/>
    <text x="6.35" y="8.1" fill="#E8E8E8" font-size="0.5" text-anchor="middle" dy=".3em">Zone 5</text>
    <rect x="11.7" y="9.5" width="6.400000000000002" height="3.0999999999999996" fill="#E0FFE0" stroke="black" stroke-width="0.002cm"/>
    <text x="14.9" y="11.05" fill="#E8E8E8" font-size="0.5" text-anchor="middle" dy=".3em">Zone 9</text>
    <rect x="8.4" y="9.5" width="3.299999999999999" height="3.0999999999999996" fill="#E0FFE0" stroke="black" stroke-width="0.002cm"/>
    <text x="10.05" y="11.05" fill="#E8E8E8" font-size="0.5" text-anchor="middle" dy=".3em">Zone 8</text>
    <rect x="4.3" y="9.5" width="4.1000000000000005" height="3.0999999999999996" fill="#E0FFE0" stroke="black" stroke-width="0.002cm"/>
    <text x="6.35" y="11.05" fill="#E8E8E8" font-size="0.5" text-anchor="middle" dy=".3em">Zone 7</text>
    <path d="M 7.6,0 7.4,0.3 7.4,0.6 7.0,0.6 6.5,0.4 6.9,0.7 7.0,0.9 7.3,1.0 7.4,1.0 7.35,1.4 7.5,1.45 7.5,1.5 7.5,1.8 7.4,2.0 7.6,2.2 7.5,2.3 7.8,2.5 7.9,2.7 8.4,2.9" fill="none" stroke="gray" stroke-width="0.2" stroke-linejoin="round"/>
    <circle cx="7.6" cy="0" r="0.05" fill="blue" stroke="blue" stroke-width="0.01"/>
    <circle cx="7.4" cy="0.3" r="0.05" fill="blue" stroke="blue" stroke-width="0.01"/>
    <circle cx="7.4" cy="0.6" r="0.05" fill="blue" stroke="blue" stroke-width="0.01"/>
    <circle cx="7.0" cy="0.6" r="0.05" fill="blue" stroke="blue" stroke-width="0.01"/>
    <circle cx="6.5" cy="0.4" r="0.05" fill="blue" stroke="blue" stroke-width="0.01"/>
    <circle cx="6.9" cy="0.7" r="0.05" fill="blue" stroke="blue" stroke-width="0.01"/>
    <circle cx="7.0" cy="0.9" r="0.05" fill="blue" stroke="blue" stroke-width="0.01"/>
    <circle cx="7.3" cy="1.0" r="0.05" fill="blue" stroke="blue" stroke-width="0.01"/>
    <circle cx="7.4" cy="1.0" r="0.05" fill="blue" stroke="blue" stroke-width="0.01"/>
    <circle cx="7.35" cy="1.4" r="0.05" fill="blue" stroke="blue" stroke-width="0.01"/>
    <circle cx="7.5" cy="1.45" r="0.05" fill="blue" stroke="blue" stroke-width="0.01"/>
    <circle cx="7.5" cy="1.5" r="0.05" fill="blue" stroke="blue" stroke-width="0.01"/>
    <circle cx="7.5" cy="1.8" r="0.05" fill="blue" stroke="blue" stroke-width="0.01"/>
    <circle cx="7.4" cy="2.0" r="0.05" fill="blue" stroke="blue" stroke-width="0.01"/>
    <circle cx="7.6" cy="2.2" r="0.05" fill="blue" stroke="blue" stroke-width="0.01"/>
    <circle cx="7.5" cy="2.3" r="0.05" fill="blue" stroke="blue" stroke-width="0.01"/>
    <circle cx="7.8" cy="2.5" r="0.05" fill="blue" stroke="blue" stroke-width="0.01"/>
    <circle cx="7.9" cy="2.7" r="0.05" fill="blue" stroke="blue" stroke-width="0.01"/>
    <circle cx="8.4" cy="2.9" r="0.05" fill="blue" stroke="blue" stroke-width="0.01"/>
  </g>
</svg>
