<?xml version="1.0"?>
<svg xmlns="http://www.w3.org/2000/svg" width="20.0cm" height="16.0cm" viewBox="0 0 20.0 16.0">
  <rect width="100%" height="100%" fill="lightblue"/>
  <g transform="translate(1.0, 1.0)">
    <path d="M 0,0 L 11.7,0 L 11.7,9.5 L 18.1,9.5 L 18.1,12.6 L 4.3,12.6 L 4.3,6.7 L 0,6.7 Z" fill="none" stroke="black" stroke-width="0.1"/>
    <rect x="0" y="0" width="4.3" height="3.1" fill="#E0FFE0" stroke="black" stroke-width="0.002cm"/>
    <text x="2.15" y="1.55" fill="#E8E8E8" font-size="0.5" text-anchor="middle" dy=".3em">Zone 1</text>
    <rect x="4.3" y="0" width="4.1000000000000005" height="3.1" fill="#E0FFE0" stroke="black" stroke-width="0.002cm"/>
    <text x="6.35" y="1.55" fill="#E8E8E8" font-size="0.5" text-anchor="middle" dy=".3em">Zone 2</text>
    <rect x="8.4" y="0" width="3.299999999999999" height="6.7" fill="#E0FFE0" stroke="black" stroke-width="0.002cm"/>
    <text x="10.05" y="3.35" fill="#E8E8E8" font-size="0.5" text-anchor="middle" dy=".3em"/>
    <rect x="0" y="3.1" width="4.3" height="3.6" fill="#E0FFE0" stroke="black" stroke-width="0.002cm"/>
    <text x="2.15" y="4.9" fill="#E8E8E8" font-size="0.5" text-anchor="middle" dy=".3em">Zone 3</text>
    <rect x="4.3" y="3.1" width="4.1000000000000005" height="3.6" fill="#E0FFE0" stroke="black" stroke-width="0.002cm"/>
    <text x="6.35" y="4.9" fill="#E8E8E8" font-size="0.5" text-anchor="middle" dy=".3em">Zone 4</text>
    <rect x="8.4" y="6.7" width="3.299999999999999" height="2.8" fill="#E0FFE0" stroke="black" stroke-width="0.002cm"/>
    <text x="10.05" y="8.1" fill="#E8E8E8" font-size="0.5" text-anchor="middle" dy=".3em">Zone 6</text>
    <rect x="4.3" y="6.7" width="4.1000000000000005" height="2.8" fill="#E0FFE0" stroke="black" stroke-width="0.002cm"/>
    <text x="6.35" y="8.1" fill="#E8E8E8" font-size="0.5" text-anchor="middle" dy=".3em">Zone 5</text>
    <rect x="11.7" y="9.5" width="6.400000000000002" height="3.0999999999999996" fill="#E0FFE0" stroke="black" stroke-width="0.002cm"/>
    <text x="14.9" y="11.05" fill="#E8E8E8" font-size="0.5" text-anchor="middle" dy=".3em">Zone 9</text>
    <rect x="8.4" y="9.5" width="3.299999999999999" height="3.0999999999999996" fill="#E0FFE0" stroke="black" stroke-width="0.002cm"/>
    <text x="10.05" y="11.05" fill="#E8E8E8" font-size="0.5" text-anchor="middle" dy=".3em">Zone 8</text>
    <rect x="4.3" y="9.5" width="4.1000000000000005" height="3.0999999999999996" fill="#E0FFE0" stroke="black" stroke-width="0.002cm"/>
    <text x="6.35" y="11.05" fill="#E8E8E8" font-size="0.5" text-anchor="middle" dy=".3em">Zone 7</text>
    <path d="M 7.6,0 7.4,0.3 7.4,0.6 7.0,0.6 6.5,0.4 6.9,0.7 7.0,0.9 7.3,1.0 7.4,1.0 7.35,1.4 7.5,1.45 7.5,1.5 7.5,1.8 7.4,2.0 7.6,2.2 7.5,2.3 7.8,2.5 7.9,2.7 8.4,2.9 8.6,3.0 8.65,3.25 8.75,3.35 8.85,3.6 8.9,3.9 8.7,4.2 8.82,4.55 8.9,5.2 8.95,5.5 8.85,5.85 8.65,6.2 8.65,6.5 8.7,6.7 8.7,6.8 8.95,7.1 8.9,7.3 9.1,7.55 9.05,7.85 8.82,8.15 9.3,8.1 9.5,8.3 9.65,8.5 9.6,8.7 9.8,8.95 10.2,9.0 10.35,9.1 10.55,9.25 10.75,9.3 10.9,9.6 11.0,9.8 10.95,10.1 11.3,10.3 11.55,10.4 11.7,10.6 11.65,10.9 11.75,11.15 11.9,11.4 12.1,11.6 12.4,11.75 12.7,11.7 13.0,11.8 13.5,11.85 13.75,12.0 14.3,11.95 14.5,11.85 15.05,11.9 15.5,11.95 15.8,11.9 16.05,11.8 16.35,11.75 16.6,11.65 16.9,11.7 17.1,11.5 17.25,11.25 17.55,11.25 17.85,11.15 18.08,11.05" fill="none" stroke="gray" stroke-width="0.2" stroke-linejoin="round"/>
    <circle cx="7.6" cy="0" r="0.05" fill="blue" stroke="blue" stroke-width="0.01"/>
    <circle cx="7.4" cy="0.3" r="0.05" fill="blue" stroke="blue" stroke-width="0.01"/>
    <circle cx="7.4" cy="0.6" r="0.05" fill="blue" stroke="blue" stroke-width="0.01"/>
    <circle cx="7.0" cy="0.6" r="0.05" fill="blue" stroke="blue" stroke-width="0.01"/>
    <circle cx="6.5" cy="0.4" r="0.05" fill="blue" stroke="blue" stroke-width="0.01"/>
    <circle cx="6.9" cy="0.7" r="0.05" fill="blue" stroke="blue" stroke-width="0.01"/>
    <circle cx="7.0" cy="0.9" r="0.05" fill="blue" stroke="blue" stroke-width="0.01"/>
    <circle cx="7.3" cy="1.0" r="0.05" fill="blue" stroke="blue" stroke-width="0.01"/>
    <circle cx="7.4" cy="1.0" r="0.05" fill="blue" stroke="blue" stroke-width="0.01"/>
    <circle cx="7.35" cy="1.4" r="0.05" fill="blue" stroke="blue" stroke-width="0.01"/>
    <circle cx="7.5" cy="1.45" r="0.05" fill="blue" stroke="blue" stroke-width="0.01"/>
    <circle cx="7.5" cy="1.5" r="0.05" fill="blue" stroke="blue" stroke-width="0.01"/>
    <circle cx="7.5" cy="1.8" r="0.05" fill="blue" stroke="blue" stroke-width="0.01"/>
    <circle cx="7.4" cy="2.0" r="0.05" fill="blue" stroke="blue" stroke-width="0.01"/>
    <circle cx="7.6" cy="2.2" r="0.05" fill="blue" stroke="blue" stroke-width="0.01"/>
    <circle cx="7.5" cy="2.3" r="0.05" fill="blue" stroke="blue" stroke-width="0.01"/>
    <circle cx="7.8" cy="2.5" r="0.05" fill="blue" stroke="blue" stroke-width="0.01"/>
    <circle cx="7.9" cy="2.7" r="0.05" fill="blue" stroke="blue" stroke-width="0.01"/>
    <circle cx="8.4" cy="2.9" r="0.05" fill="blue" stroke="blue" stroke-width="0.01"/>
    <circle cx="8.6" cy="3.0" r="0.05" fill="blue" stroke="blue" stroke-width="0.01"/>
    <circle cx="8.65" cy="3.25" r="0.05" fill="blue" stroke="blue" stroke-width="0.01"/>
    <circle cx="8.75" cy="3.35" r="0.05" fill="blue" stroke="blue" stroke-width="0.01"/>
    <circle cx="8.85" cy="3.6" r="0.05" fill="blue" stroke="blue" stroke-width="0.01"/>
    <circle cx="8.9" cy="3.9" r="0.05" fill="blue" stroke="blue" stroke-width="0.01"/>
    <circle cx="8.7" cy="4.2" r="0.05" fill="blue" stroke="blue" stroke-width="0.01"/>
    <circle cx="8.82" cy="4.55" r="0.05" fill="blue" stroke="blue" stroke-width="0.01"/>
    <circle cx="8.9" cy="5.2" r="0.05" fill="blue" stroke="blue" stroke-width="0.01"/>
    <circle cx="8.95" cy="5.5" r="0.05" fill="blue" stroke="blue" stroke-width="0.01"/>
    <circle cx="8.85" cy="5.85" r="0.05" fill="blue" stroke="blue" stroke-width="0.01"/>
    <circle cx="8.65" cy="6.2" r="0.05" fill="blue" stroke="blue" stroke-width="0.01"/>
    <circle cx="8.65" cy="6.5" r="0.05" fill="blue" stroke="blue" stroke-width="0.01"/>
    <circle cx="8.7" cy="6.7" r="0.05" fill="blue" stroke="blue" stroke-width="0.01"/>
    <circle cx="8.7" cy="6.8" r="0.05" fill="blue" stroke="blue" stroke-width="0.01"/>
    <circle cx="8.95" cy="7.1" r="0.05" fill="blue" stroke="blue" stroke-width="0.01"/>
    <circle cx="8.9" cy="7.3" r="0.05" fill="blue" stroke="blue" stroke-width="0.01"/>
    <circle cx="9.1" cy="7.55" r="0.05" fill="blue" stroke="blue" stroke-width="0.01"/>
    <circle cx="9.05" cy="7.85" r="0.05" fill="blue" stroke="blue" stroke-width="0.01"/>
    <circle cx="8.82" cy="8.15" r="0.05" fill="blue" stroke="blue" stroke-width="0.01"/>
    <circle cx="9.3" cy="8.1" r="0.05" fill="blue" stroke="blue" stroke-width="0.01"/>
    <circle cx="9.5" cy="8.3" r="0.05" fill="blue" stroke="blue" stroke-width="0.01"/>
    <circle cx="9.65" cy="8.5" r="0.05" fill="blue" stroke="blue" stroke-width="0.01"/>
    <circle cx="9.6" cy="8.7" r="0.05" fill="blue" stroke="blue" stroke-width="0.01"/>
    <circle cx="9.8" cy="8.95" r="0.05" fill="blue" stroke="blue" stroke-width="0.01"/>
    <circle cx="10.2" cy="9.0" r="0.05" fill="blue" stroke="blue" stroke-width="0.01"/>
    <circle cx="10.35" cy="9.1" r="0.05" fill="blue" stroke="blue" stroke-width="0.01"/>
    <circle cx="10.55" cy="9.25" r="0.05" fill="blue" stroke="blue" stroke-width="0.01"/>
    <circle cx="10.75" cy="9.3" r="0.05" fill="blue" stroke="blue" stroke-width="0.01"/>
    <circle cx="10.9" cy="9.6" r="0.05" fill="blue" stroke="blue" stroke-width="0.01"/>
    <circle cx="11.0" cy="9.8" r="0.05" fill="blue" stroke="blue" stroke-width="0.01"/>
    <circle cx="10.95" cy="10.1" r="0.05" fill="blue" stroke="blue" stroke-width="0.01"/>
    <circle cx="11.3" cy="10.3" r="0.05" fill="blue" stroke="blue" stroke-width="0.01"/>
    <circle cx="11.55" cy="10.4" r="0.05" fill="blue" stroke="blue" stroke-width="0.01"/>
    <circle cx="11.7" cy="10.6" r="0.05" fill="blue" stroke="blue" stroke-width="0.01"/>
    <circle cx="11.65" cy="10.9" r="0.05" fill="blue" stroke="blue" stroke-width="0.01"/>
    <circle cx="11.75" cy="11.15" r="0.05" fill="blue" stroke="blue" stroke-width="0.01"/>
    <circle cx="11.9" cy="11.4" r="0.05" fill="blue" stroke="blue" stroke-width="0.01"/>
    <circle cx="12.1" cy="11.6" r="0.05" fill="blue" stroke="blue" stroke-width="0.01"/>
    <circle cx="12.4" cy="11.75" r="0.05" fill="blue" stroke="blue" stroke-width="0.01"/>
    <circle cx="12.7" cy="11.7" r="0.05" fill="blue" stroke="blue" stroke-width="0.01"/>
    <circle cx="13.0" cy="11.8" r="0.05" fill="blue" stroke="blue" stroke-width="0.01"/>
    <circle cx="13.5" cy="11.85" r="0.05" fill="blue" stroke="blue" stroke-width="0.01"/>
    <circle cx="13.75" cy="12.0" r="0.05" fill="blue" stroke="blue" stroke-width="0.01"/>
    <circle cx="14.3" cy="11.95" r="0.05" fill="blue" stroke="blue" stroke-width="0.01"/>
    <circle cx="14.5" cy="11.85" r="0.05" fill="blue" stroke="blue" stroke-width="0.01"/>
    <circle cx="15.05" cy="11.9" r="0.05" fill="blue" stroke="blue" stroke-width="0.01"/>
    <circle cx="15.5" cy="11.95" r="0.05" fill="blue" stroke="blue" stroke-width="0.01"/>
    <circle cx="15.8" cy="11.9" r="0.05" fill="blue" stroke="blue" stroke-width="0.01"/>
    <circle cx="16.05" cy="11.8" r="0.05" fill="blue" stroke="blue" stroke-width="0.01"/>
    <circle cx="16.35" cy="11.75" r="0.05" fill="blue" stroke="blue" stroke-width="0.01"/>
    <circle cx="16.6" cy="11.65" r="0.05" fill="blue" stroke="blue" stroke-width="0.01"/>
    <circle cx="16.9" cy="11.7" r="0.05" fill="blue" stroke="blue" stroke-width="0.01"/>
    <circle cx="17.1" cy="11.5" r="0.05" fill="blue" stroke="blue" stroke-width="0.01"/>
    <circle cx="17.25" cy="11.25" r="0.05" fill="blue" stroke="blue" stroke-width="0.01"/>
    <circle cx="17.55" cy="11.25" r="0.05" fill="blue" stroke="blue" stroke-width="0.01"/>
    <circle cx="17.85" cy="11.15" r="0.05" fill="blue" stroke="blue" stroke-width="0.01"/>
    <circle cx="18.08" cy="11.05" r="0.05" fill="blue" stroke="blue" stroke-width="0.01"/>
    <polygon points="0.5,1.4 0.55,1.53 0.69,1.54 0.59,1.63 0.62,1.76 0.5,1.69 0.38,1.76 0.41,1.63 0.31,1.54 0.45,1.53" fill="gold" stroke="green" stroke-width="0.02"/>
    <text x="0.7" y="1.4500000000000002" font-size="0.3" fill="black" text-anchor="middle">1</text>
    <polygon points="3.1,1.4 3.15,1.53 3.29,1.54 3.19,1.63 3.22,1.76 3.1,1.69 2.98,1.76 3.01,1.63 2.91,1.54 3.05,1.53" fill="gold" stroke="green" stroke-width="0.02"/>
    <text x="3.3000000000000003" y="1.4500000000000002" font-size="0.3" fill="black" text-anchor="middle">2</text>
    <polygon points="3.5,2.0 3.55,2.13 3.69,2.14 3.59,2.23 3.62,2.36 3.5,2.29 3.38,2.36 3.41,2.23 3.31,2.14 3.45,2.13" fill="gold" stroke="green" stroke-width="0.02"/>
    <text x="3.7" y="2.0500000000000003" font-size="0.3" fill="black" text-anchor="middle">3</text>
    <polygon points="1.8,3.5 1.85,3.63 1.99,3.64 1.89,3.73 1.92,3.86 1.8,3.79 1.68,3.86 1.71,3.73 1.61,3.64 1.75,3.63" fill="gold" stroke="green" stroke-width="0.02"/>
    <text x="2.08" y="4.0" font-size="0.3" fill="black" text-anchor="middle">4</text>
    <polygon points="3.9,3.4 3.95,3.53 4.09,3.54 3.99,3.63 4.02,3.76 3.9,3.69 3.78,3.76 3.81,3.63 3.71,3.54 3.85,3.53" fill="gold" stroke="green" stroke-width="0.02"/>
    <text x="3.65" y="3.9" font-size="0.3" fill="black" text-anchor="middle">5</text>
    <polygon points="3.9,5.0 3.95,5.13 4.09,5.14 3.99,5.23 4.02,5.36 3.9,5.29 3.78,5.36 3.81,5.23 3.71,5.14 3.85,5.13" fill="gold" stroke="green" stroke-width="0.02"/>
    <text x="3.65" y="5.5" font-size="0.3" fill="black" text-anchor="middle">6</text>
    <polygon points="5.3,2.0 5.35,2.13 5.49,2.14 5.39,2.23 5.42,2.36 5.3,2.29 5.18,2.36 5.21,2.23 5.11,2.14 5.25,2.13" fill="gold" stroke="green" stroke-width="0.02"/>
    <text x="5.58" y="2.5" font-size="0.3" fill="black" text-anchor="middle">7</text>
    <polygon points="7.6,5.8 7.65,5.93 7.79,5.94 7.69,6.03 7.72,6.16 7.6,6.09 7.48,6.16 7.51,6.03 7.41,5.94 7.55,5.93" fill="gold" stroke="green" stroke-width="0.02"/>
    <text x="7.8" y="5.85" font-size="0.3" fill="black" text-anchor="middle">8</text>
    <polygon points="7.4,8.6 7.45,8.73 7.59,8.74 7.49,8.83 7.52,8.96 7.4,8.89 7.28,8.96 7.31,8.83 7.21,8.74 7.35,8.73" fill="gold" stroke="green" stroke-width="0.02"/>
    <text x="7.6000000000000005" y="8.65" font-size="0.3" fill="black" text-anchor="middle">9</text>
    <polygon points="13.2,12.0 13.25,12.13 13.39,12.14 13.29,12.23 13.32,12.36 13.2,12.29 13.08,12.36 13.11,12.23 13.01,12.14 13.15,12.13" fill="gold" stroke="green" stroke-width="0.02"/>
    <text x="13.479999999999999" y="12.5" font-size="0.3" fill="black" text-anchor="middle">10</text>
    <polygon points="0.375,2.175 0.825,2.175 0.825,2.625 0.375,2.625" fill="lightblue" stroke="blue" stroke-width="0.02"/>
    <text x="0.375" y="2.9749999999999996" text-anchor="start" font-family="sans-serif" font-size="0.25" fill="black">THAI NGUYEN</text>
    <polygon points="6.375,0.8750000000000001 6.824999999999999,0.8750000000000001 6.824999999999999,1.3250000000000002 6.375,1.3250000000000002" fill="lightblue" stroke="blue" stroke-width="0.02"/>
    <text x="6.6" y="1.675" text-anchor="middle" font-family="sans-serif" font-size="0.25" fill="black">HAIPHONG</text>
    <polygon points="2.85,3.7499999999999996 3.5500000000000003,3.7499999999999996 3.5500000000000003,4.449999999999999 2.85,4.449999999999999" fill="lightblue" stroke="blue" stroke-width="0.02"/>
    <text x="3.2" y="4.8" text-anchor="middle" font-family="sans-serif" font-size="0.25" fill="black">HANOI</text>
    <polygon points="6.275,4.275 6.725,4.275 6.725,4.725 6.275,4.725" fill="lightblue" stroke="blue" stroke-width="0.02"/>
    <text x="6.5" y="5.075" text-anchor="middle" font-family="sans-serif" font-size="0.25" fill="black">??? DINH</text>
    <polygon points="8.675,8.525 9.125,8.525 9.125,8.975 8.675,8.975" fill="lightblue" stroke="blue" stroke-width="0.02"/>
    <text x="8.675" y="9.325" text-anchor="start" font-family="sans-serif" font-size="0.25" fill="black">THAN HOA</text>
    <polygon points="11.975,11.575000000000001 12.424999999999999,11.575000000000001 12.424999999999999,12.025 11.975,12.025" fill="lightblue" stroke="blue" stroke-width="0.02"/>
    <text x="12.2" y="12.375" text-anchor="middle" font-family="sans-serif" font-size="0.25" fill="black">VINH</text>
    <text x="0.6" y="7.3" font-size="0.4" fill="black">1. Dong ???</text>
    <text x="0.6" y="7.8" font-size="0.4" fill="black">2. Sep</text>
    <text x="0.6" y="8.3" font-size="0.4" fill="black">3. Bao Giang</text>
    <text x="0.6" y="8.8" font-size="0.4" fill="black">4. Kim Anh</text>
    <text x="0.6" y="9.3" font-size="0.4" fill="black">5. Gia Lam</text>
    <text x="0.6" y="9.8" font-size="0.4" fill="black">6. Bac Mai</text>
    <text x="0.6" y="10.3" font-size="0.4" fill="black">7. Kien Anh</text>
    <text x="0.6" y="10.8" font-size="0.4" fill="black">8. Ninh Binh</text>
    <text x="0.6" y="11.3" font-size="0.4" fill="black">9. Yen Dai</text>
    <text x="0.6" y="11.8" font-size="0.4" fill="black">10. Thanh Hoa</text>
  </g>
</svg>
